<?xml version="1.0" encoding="utf-8"?>
<!-- Generator: Adobe Illustrator 21.1.0, SVG Export Plug-In . SVG Version: 6.00 Build 0)  -->
<svg version="1.1" id="Laag_1" xmlns="http://www.w3.org/2000/svg" xmlns:xlink="http://www.w3.org/1999/xlink" x="0px" y="0px"
	 viewBox="0 0 1024 768" style="enable-background:new 0 0 1024 768;" xml:space="preserve">
<style type="text/css">
	.st0{fill:#ACCA5A;}
	.st1{fill:#93B8D2;}
	.st2{fill:#85BB3E;}
</style>
<g>
	<path class="st0" d="M438.8,579.4c18.3,0,36.7,0,55-0.1c2.4,0,3.2,0.5,3.2,3.1c-0.1,28.4-0.1,56.9,0,85.3c0,1-0.9,2.9,1,2.9
		c1.6,0,0.9-1.8,0.9-2.8c0-28.4,0.1-56.9,0-85.3c0-2.7,0.9-3.2,3.3-3.2c34.4,0.1,68.8,0.1,103.2,0c2.7,0,3.2,0.9,3.2,3.3
		c-0.1,28.9-0.1,57.9,0,86.8c0,2.9-0.9,3.5-3.6,3.4c-25.2-0.3-50.3-0.1-75.5-0.7c-18.9-0.5-37.8,0.2-56.7-0.5
		c-20-0.6-39.9,0.1-59.9-0.5c-10-0.3-20-0.2-30-0.3c-1.8,0-2.4-0.5-2.4-2.3c0-28.9,0.1-57.9,0-86.8c0-2,0.8-2.4,2.6-2.4
		C401.6,579.4,420.2,579.4,438.8,579.4z"/>
	<path class="st0" d="M496.2,126.5c-48.1,0-96.2,0-144.3,0.1c-2.7,0-3.3-0.8-3.3-3.4c0.1-17,0.1-34.1,0-51.1c0-2.8,0.8-3.3,3.4-3.3
		c33.5,0.1,67,0.4,100.5-0.1c44.3-0.6,88.6,0.1,133-0.5c18.5-0.3,37,0,55.5-0.4c2.2,0,2.7,0.6,2.7,2.7c-0.1,17.7-0.1,35.4,0,53.1
		c0,2.4-0.6,3-3,3C592.5,126.5,544.3,126.5,496.2,126.5z"/>
	<path class="st0" d="M287,187.6c-19,0-38,0-57,0c-2,0-2.9-0.6-3.5-2.5c-11.3-36.7-22.7-73.4-34-110c-1.7-5.4-1.7-5.4,4-5.4
		c21.8-0.1,43.7-0.3,65.5-0.5c2.3,0,3.1,0.6,3,3c-1.1,26.1,0,52.3-0.6,78.5c-0.3,11.2-0.1,22.3-0.3,33.5c0,0.9-0.6,2.3,0.8,2.4
		c1.7,0.1,1.1-1.5,1.1-2.4c0.2-29,0.2-58,0.6-87c0.1-8.5,0.2-17.1,0.3-25.6c0-1.7,0.6-2.2,2.3-2.2c11.2,0.1,22.5,0.1,33.7,0
		c1.7,0,2.3,0.5,2.2,2.3c-0.4,21.6-0.7,43.1-1.1,64.7c-0.3,16-0.6,32.1-0.9,48.1c0,0.8-0.5,2.3,1,2.2c1.5-0.1,0.9-1.5,0.9-2.4
		c0.2-12.6,0.3-25.2,0.6-37.9c0.3-16.4,0.4-32.7,1.1-49.1c0.3-8.1,0.2-16.1,0.4-24.2c0.1-2.6,0.7-4,3.9-3.9
		c11.1,0.1,22.1-0.2,33.2-0.4c1.9,0,2.5,0.5,2.5,2.5c-0.1,38-0.1,76,0,114c0,2.2-0.9,2.5-2.7,2.5C325,187.6,306,187.6,287,187.6z"/>
	<path class="st0" d="M628.5,701.7c-32.2,0-64.4,0-96.6,0c-86.9,0-173.8,0-260.7,0.1c-3.1,0-3.9-0.9-3.8-3.9
		c0.2-7.8,0.1-15.6,0-23.5c0-2.1,0.7-2.6,2.7-2.6c21.9,0.2,43.8,0,65.7,0.6c18.1,0.5,36.2-0.1,54.2,0.4c20.7,0.6,41.4-0.1,62.1,0.5
		c19.2,0.6,38.5-0.2,57.7,0.5c19.6,0.6,39.3-0.2,58.9,0.5c18.2,0.6,36.3-0.1,54.5,0.5c20.6,0.6,41.2-0.1,61.8,0.5
		c13.9,0.4,27.8,0.1,41.8,0.3c2.2,0,2.6,0.8,2.5,2.7c-0.1,6.8-0.1,13.7,0,20.5c0,2.2-0.6,2.7-2.7,2.7
		C693.8,701.7,661.1,701.7,628.5,701.7z"/>
	<path class="st1" d="M209.7,309.7c0,28.5,0,57.1,0.1,85.6c0,2.6-0.8,3.2-3.3,3.2c-18.1,0.1-36.2,0.3-54.2,0.5
		c-3.2,0-7.7,1.9-9.3-0.2c-1.7-2.2-0.7-6.5-0.7-9.9c0-27.6,0-55.3-0.1-82.9c0-2.4,0.6-3,3-3c20.5,0.1,40.9,0.1,61.4,0
		c0.9,0,2.5,0.7,2.5-1c0-1.6-1.6-0.9-2.5-0.9c-20.5,0-40.9-0.1-61.4,0c-2.1,0-3-0.4-3-2.8c0.1-24.9,0.1-49.9,0-74.8
		c0-2.2,0.7-2.7,2.8-2.7c20.7,0.1,41.4,0.1,62.1,0c2.2,0,2.7,0.7,2.7,2.8C209.7,252.3,209.7,281,209.7,309.7z"/>
	<path class="st0" d="M669.8,579.4c18.8,0,37.7,0,56.5,0c2.1,0,3,0.4,3,2.8c-0.1,29.7-0.1,59.3,0,89c0,2.2-0.7,2.7-2.8,2.7
		c-27-0.2-54.1-0.1-81.1-0.7c-10.8-0.2-21.7-0.2-32.5-0.3c-1.9,0-2.5-0.5-2.5-2.5c0.1-29.5,0.1-59,0-88.5c0-2.2,0.8-2.5,2.7-2.5
		C632,579.4,650.9,579.4,669.8,579.4z"/>
	<path class="st0" d="M706.4,703.7c31,0,62.1,0,93.1-0.1c2.5,0,3.1,0.7,3.1,3.2c-0.1,11.3,0,22.7-0.1,34c0,5.9-0.4,11.9-0.4,17.8
		c0,2.3-1.1,2.4-2.8,2.4c-30.6,0-61.3,0-91.9,0c-31.4,0-62.7,0-94.1,0.1c-2.4,0-3-0.7-3-3c0.1-17.1,0.1-34.2,0-51.3c0-2.3,0.6-3,3-3
		C644.3,703.7,675.4,703.7,706.4,703.7z"/>
	<path class="st1" d="M188.7,36.4c-0.3,9.5,0.4,20-0.5,30.4c-0.4,4.4-3.9,7.2-6.2,10.6c-11.5,17-23.3,33.9-35.1,50.8
		c-11.2,16.2-22.4,32.4-33.5,48.6c-0.8,1.2-1.6,1.8-3.2,1.3c-20.2-5.6-40.4-11.1-60.6-16.7c-1.1-0.3-2.9-0.2-1.5-2.4
		c17.4-27.5,34.6-55.1,52-82.6c3.6-5.7,9.7-8.7,14.9-12.8c23.8-18.6,47.8-36.9,71.8-55.4c0.4-0.3,1-0.9,1.4-0.8
		c0.8,0.2,0.5,1.1,0.5,1.7C188.7,17.9,188.7,26.7,188.7,36.4z"/>
	<path class="st1" d="M804.6,757.2c0-16.3,0-32.6,0-48.8c0-3.5,0.9-6.6,2.9-9.6c23.6-35.8,47-71.7,70.5-107.6
		c0.9-1.3,1.6-1.9,3.3-1.5c20.8,5.7,41.6,11.3,62.4,16.8c1.8,0.5,1.9,1,1,2.5c-16.5,27.2-33,54.4-49.6,81.5
		c-3.4,5.5-9.4,8.2-14.3,11.9c-24.5,18.5-49.3,36.7-73.9,55c-0.7,0.5-1.5,0.7-2.3,1.1c-0.1-0.5-0.2-0.9-0.3-1.4
		C804.2,757.2,804.4,757.2,804.6,757.2z"/>
	<path class="st1" d="M188.7,708.4c0,16.3,0,32.7,0,49c0,0.6-0.3,1.2-0.4,1.8c-0.6-0.3-1.2-0.4-1.7-0.8
		c-27.6-20.8-55.3-41.4-82.6-62.5c-4-3.1-6.1-8.6-8.9-13c-14.2-22.3-28.4-44.6-42.6-66.9c-0.4-0.7-0.8-1.4-1.3-2.1
		c-3.9-6.4-3.9-6.3,3.5-8.2c18.9-4.9,37.8-9.7,56.6-14.7c1.7-0.4,2.6-0.2,3.6,1.3c17.9,26.6,35.9,53.1,53.9,79.7
		c6,8.8,11.9,17.7,18,26.4C188.9,701.5,190.4,704.5,188.7,708.4z"/>
	<path class="st0" d="M323.1,579.4c17.6,0,35.2,0,52.8,0c2,0,2.6,0.6,2.6,2.6c-0.1,28.8-0.1,57.5,0,86.3c0,2-0.5,2.7-2.6,2.7
		c-26.5-0.2-53.1-0.2-79.6-0.7c-8.8-0.2-17.6-0.2-26.4-0.3c-1.9,0-2.5-0.5-2.5-2.5c0.1-28.5,0.1-57,0-85.6c0-2.1,0.7-2.6,2.7-2.6
		C287.8,579.4,305.4,579.4,323.1,579.4z"/>
	<path class="st0" d="M725.3,127.5c0,19.2,0,38.3,0,57.5c0,2.2-0.6,2.7-2.8,2.7c-24.8-0.1-49.6-0.1-74.3,0c-2.2,0-2.7-0.6-2.7-2.8
		c0.1-38.1,0.1-76.3,0-114.4c0-2.2,0.6-2.7,2.8-2.7c17.2,0.1,34.4,0.1,51.6,0c7.6,0,15.1-0.2,22.7-0.5c2.1-0.1,2.8,0.6,2.8,2.7
		C725.3,89.1,725.3,108.3,725.3,127.5z"/>
	<path class="st1" d="M87.9,383.1c0-53.8,0-107.6-0.1-161.4c0-3.1,1.1-3.5,3.7-3.3c6.9,0.7,13.9,1.3,20.8,2c1.7,0.2,2.5,0.8,2.5,2.7
		c0,107.3,0,214.7,0,322c0,1.9-0.5,2.5-2.5,2.5c-7.2-0.1-14.3-0.1-21.5,0c-2.4,0.1-3-0.6-3-3C87.9,490.8,87.9,437,87.9,383.1z"/>
	<path class="st1" d="M880.5,183.3c4.3,6.2,8.6,12.3,12.8,18.4c2.5,3.5,4.8,7.1,7.5,10.6c2.6,3.4,3.7,6.9,3.7,11.2
		c-0.1,48.8-0.5,97.5,0,146.3c0.6,56.6,0.1,113.3,0.4,169.9c0,4.1-0.7,7.5-3,11c-6.8,10-13.3,20.3-20,30.4c-0.2,0.3-0.5,0.6-1.4,1.7
		C880.5,449,880.5,316.3,880.5,183.3z"/>
	<path class="st0" d="M422.5,128.4c23.7,0,47.4,0,71.2,0c2.1,0,2.8,0.5,2.8,2.7c-0.1,17.9-0.1,35.9,0,53.8c0,2.1-0.6,2.7-2.7,2.7
		c-47.4-0.1-94.9-0.1-142.3,0c-2.1,0-2.8-0.5-2.8-2.7c0.1-17.9,0.1-35.9,0-53.8c0-2.1,0.6-2.8,2.7-2.7
		C375.1,128.5,398.8,128.4,422.5,128.4z"/>
	<path class="st0" d="M571.2,187.6c-23.2,0-46.5,0-69.7,0c-2.1,0-2.8-0.6-2.8-2.7c0.1-17.9,0.1-35.9,0-53.8c0-2.2,0.6-2.7,2.8-2.7
		c46.5,0.1,92.9,0.1,139.4,0c2.1,0,2.8,0.6,2.8,2.7c-0.1,17.9-0.1,35.9,0,53.8c0,2.2-0.6,2.7-2.8,2.7
		C617.7,187.6,594.4,187.6,571.2,187.6z"/>
	<path class="st0" d="M537.5,760.9c-22.7,0-45.5,0-68.2,0c-2.1,0-2.8-0.5-2.8-2.7c-0.2-16.4-0.2-32.9-1.2-49.3
		c-0.3-5.2,1.2-5.5,5.4-5.4c17.2,0.2,34.4,0.2,51.6,0c2.9,0,3.5,0.9,3.4,3.6c-0.1,16.6-0.1,33.2,0,49.9c0,1.1-1,3.1,1,3.1
		c1.7,0,0.9-2,0.9-3c0.1-17,0.1-33.9,0-50.9c0-2,0.5-2.7,2.6-2.7c25.3,0.1,50.5,0.1,75.8,0c2,0,2.5,0.7,2.4,2.5
		c-0.1,17.4-0.1,34.7,0,52.1c0,2.2-0.6,2.7-2.8,2.7C583,760.9,560.2,760.9,537.5,760.9z"/>
	<path class="st0" d="M265.5,640.6c0,19.4,0,38.8,0.1,58.2c0,2.4-0.7,3-3,3c-22.6-0.1-45.1-0.1-67.7,0c-3.4,0-3.7-1.4-2.9-4
		c4.4-14.8,8.8-29.6,13.2-44.4c7-23.5,14-46.9,20.8-70.4c0.8-2.6,1.7-3.8,4.8-3.7c10.6,0.2,21.2,0.2,31.8,0c2.4,0,3.2,0.5,3.2,3.1
		C265.5,601.8,265.5,621.2,265.5,640.6z"/>
	<path class="st0" d="M725.3,36.4c0,8.8,0,17.6,0,26.4c0,1.9-0.5,2.6-2.5,2.5c-3.7-0.1-7.5-0.1-11.2,0c-32.4,0.2-64.8,0.3-97.3,0.5
		c-2.5,0-3.2-0.6-3.1-3.1c0.3-17.7,0.4-35.5,0.5-53.3c0-2,0.7-2.4,2.6-2.4c36.2,0.2,72.5,0.4,108.7,0.5c1.9,0,2.3,0.8,2.3,2.5
		C725.3,18.8,725.3,27.6,725.3,36.4z"/>
	<path class="st1" d="M163,547.6c-14.5,0-29,0-43.5,0c-2.1,0-2.8-0.6-2.8-2.7c0.1-20.9,0.1-41.7,0-62.6c0-2.1,0.5-2.8,2.7-2.8
		c17.3-0.1,34.5-0.2,51.8-0.5c11.8-0.2,23.6-0.5,35.3-0.9c2.3-0.1,3.2,0.4,3.2,3c-0.1,21.3-0.1,42.5,0,63.8c0,2.2-0.6,2.7-2.8,2.7
		C192.3,547.6,177.7,547.6,163,547.6z"/>
	<path class="st0" d="M322.7,760.9c-17.6,0-35.2,0-52.8,0c-2.3,0-3.1-0.5-3-3c0.3-17.3,0.4-34.7,0.5-52c0-1.8,0.5-2.4,2.4-2.4
		c35.4,0,70.9,0,106.3,0c2,0,2.4,0.7,2.4,2.6c-0.1,17.4-0.1,34.7,0,52.1c0,2.2-0.7,2.7-2.8,2.7C358.1,760.9,340.4,760.9,322.7,760.9
		z"/>
	<path class="st1" d="M209.7,438.4c0,11.7,0,23.5,0,35.2c0,2-0.6,2.6-2.6,2.6c-13.3,0.1-26.5,0.2-39.8,0.5
		c-15.9,0.3-31.9,0.6-47.8,1c-2.1,0.1-2.8-0.6-2.8-2.7c0.1-7.4,0.1-14.8,0-22.2c0-1.9,0.5-2.5,2.5-2.5c6.8,0.1,13.5,0,20.3,0.1
		c2.1,0,2.8-0.6,2.8-2.7c-0.1-14.5,0-29-0.1-43.5c0-2.1,0.6-2.8,2.7-2.8c16.3-0.1,32.6-0.3,48.8-0.5c4.5-0.1,9.1-0.2,13.6-0.5
		c1.9-0.1,2.3,0.6,2.3,2.4C209.7,414.7,209.7,426.6,209.7,438.4z"/>
	<path class="st1" d="M881,178.4c-1.3,0.2-1.8-0.8-2.3-1.6c-12.7-18.7-25.3-37.5-38-56.2c-0.9-1.3-0.8-1.9,0.4-3
		c12.1-10.4,24.1-20.9,36.1-31.3c4.2-3.6,8.3-7.3,12.4-11c1.4-1.2,1.9-0.4,2.6,0.6c10.5,16.8,20.9,33.5,31.4,50.3
		c6.6,10.6,13.2,21.3,19.9,31.9c1.4,2.1,1.7,3-1.3,3.8c-19.9,5.2-39.7,10.6-59.5,16C882.1,178.1,881.5,178.3,881,178.4z"/>
	<path class="st0" d="M237.6,5.7c14.6,0,29.2,0,43.8,0c2.1,0,2.8,0.5,2.8,2.7c-0.1,11.7,0.2,23.3-0.2,35c-0.3,7.3-0.2,14.6-0.3,22
		c0,1.6-0.6,2.1-2.2,2.1c-29.6,0-59.2,0-88.7,0c-1.6,0-2.1-0.5-2.1-2.1c0.1-13.9-0.2-27.9,0.2-41.8c0.1-5.1,0.3-10.2,0.3-15.4
		c0-1.9,0.6-2.5,2.5-2.5C208.3,5.7,222.9,5.6,237.6,5.7C237.6,5.6,237.6,5.7,237.6,5.7z"/>
	<path class="st1" d="M937.3,508c9.4,0,18.7,0,28.1,0c1.9,0,2.5,0.5,2.5,2.5c-0.1,11.3,0.2,22.7-0.2,34c-0.2,5.4-3.1,10.4-4.9,15.5
		c-5,14.4-10.3,28.6-15.4,42.9c-0.6,1.7-1.3,2.3-3.2,1.8c-20.5-5.6-40.9-11.1-61.4-16.5c-2.3-0.6-2.1-1.4-1-3.1
		c7.8-11.9,15.5-23.9,23.4-35.7c1.8-2.7,2.2-5.5,1.9-8.6c-0.9-10.2-0.1-20.3-0.5-30.5c-0.1-2,0.8-2.3,2.5-2.2
		C918.6,508,928,508,937.3,508z"/>
	<path class="st0" d="M343.8,66.8c-12.4,0-24.9-0.3-37.3,0.1c-6.2,0.2-12.4,0.1-18.5,0.4c-1.8,0.1-2.4-0.5-2.4-2.3
		c0.2-16.3,0.4-32.6,0.5-48.9c0-2.1,0.6-4.2,0.3-6.3c-0.5-3.6,1-4.5,4.3-4.1c9.7,1,19.4,0.4,29,0.4c19.2,0.1,38.3,0.1,57.5,0
		c2.1,0,2.8,0.6,2.8,2.7c-0.1,18.4-0.1,36.8,0,55.3c0,2.1-0.6,2.8-2.7,2.7C366.1,66.7,354.9,66.8,343.8,66.8z"/>
	<path class="st1" d="M967.9,238.3c0,6.4-0.1,12.9,0,19.3c0,1.8-0.4,2.4-2.3,2.4c-16.6-0.2-33.2-0.4-49.8-0.6
		c-2.6,0-5.2-0.4-7.8-0.4c-2,0-1.7-1.3-1.7-2.5c0-10-0.5-20.1,0.2-30.1c0.5-7.7-2.3-13.5-6.7-19.3c-6.1-8.1-11.7-16.7-17.5-25
		c-1.1-1.6-0.5-2,1-2.4c20-5.4,40-10.7,60-16.1c1.9-0.5,2.8-0.3,3.6,1.7c6.8,17.1,13.7,34.1,20.6,51.2c0.3,0.9,0.4,1.9,0.4,2.9
		C967.9,225.8,967.9,232,967.9,238.3z"/>
	<path class="st1" d="M967.9,302.5c0,12.5,0,24.9,0,37.4c0,2-0.4,2.9-2.6,2.8c-18.7-0.1-37.3-0.1-56,0c-2,0-2.6-0.5-2.6-2.6
		c-0.1-25.2-0.2-50.5-0.5-75.7c0-2.4,0.6-3,3-3c18.8,0.3,37.6,0.4,56.4,0.5c1.9,0,2.3,0.7,2.3,2.4
		C967.9,277.1,967.9,289.8,967.9,302.5z"/>
	<path class="st1" d="M906.8,465.8c0-12.5,0-24.9,0-37.4c0-2.1,0.6-2.6,2.6-2.6c18.7,0.1,37.3,0.1,56,0c2,0,2.7,0.5,2.6,2.6
		c-0.1,24.9-0.1,49.9,0,74.8c0,1.9-0.6,2.5-2.5,2.5c-18.7-0.1-37.5-0.1-56.2,0c-2.2,0-2.5-0.8-2.5-2.7
		C906.8,490.5,906.8,478.1,906.8,465.8C906.8,465.8,906.8,465.8,906.8,465.8z"/>
	<path class="st1" d="M906.7,384.3c0-12.3,0-24.6,0-36.9c0-1.9,0.3-2.7,2.5-2.7c18.7,0.1,37.5,0.1,56.2,0c1.9,0,2.5,0.5,2.5,2.5
		c-0.1,24.8-0.1,49.5,0,74.3c0,1.9-0.6,2.5-2.5,2.5c-18.7-0.1-37.5-0.1-56.2,0c-2.2,0-2.5-0.8-2.5-2.7
		C906.8,408.9,906.8,396.6,906.7,384.3C906.8,384.3,906.7,384.3,906.7,384.3z"/>
	<path class="st0" d="M422.5,760.9c-13.2,0-26.4,0-39.6,0c-1.9,0-2.5-0.5-2.5-2.5c0.1-17.4,0.1-34.9,0-52.3c0-1.9,0.4-2.6,2.4-2.5
		c25.9,0.1,51.8,0.1,77.7,0c2.1,0,2.5,0.7,2.6,2.7c0.3,16.4,0.2,32.9,1.2,49.3c0.3,5.5-1.5,5.5-5.6,5.4
		C446.6,760.8,434.6,760.9,422.5,760.9z"/>
	<path class="st1" d="M189.4,698.7c-6.2-9.2-12.3-18.2-18.3-27.1c-9.7-14.3-19.3-28.6-29.1-42.8c-1.4-2-1.3-3.1,0.8-4.5
		c24.3-16.7,48.7-33.4,72.9-50.3c2.1-1.5,3-0.6,4.8,0.5c4.7,2.8,4.1,6.3,2.8,10.7C211.9,622.9,200.7,660.6,189.4,698.7z"/>
	<path class="st1" d="M803.8,62.2c0.4-15.9,0.8-33.3,1.2-50.6c0-0.6,0.3-1.2,0.4-1.8c0.6,0.3,1.3,0.6,1.9,1
		c13.1,9.8,26.3,19.7,39.4,29.6c13.6,10.2,27.1,20.5,40.7,30.7c1.6,1.2,1.9,1.9,0.3,3.3c-12.2,10.5-24.3,21.1-36.4,31.7
		c-3.4,2.9-6.8,5.9-10,8.9c-1.9,1.8-3.2,2.3-5-0.5c-10.4-15.8-21-31.4-31.6-47C803.9,66.2,803.4,65,803.8,62.2z"/>
	<path class="st1" d="M189.1,71.2c2.1,6.8,4.2,13.3,6.2,19.8c6.8,22,13.6,44,20.4,66c3,9.6,5.9,19.3,9.1,28.9c1,3.1-1.3,4.3-2.5,6.2
		c-2.7,4.3-5,3.8-8.8,0.8c-22.8-18-45.9-35.7-69-53.5c-1.2-0.9-1.6-1.6-0.7-3c14.8-21.4,29.6-42.8,44.4-64.2
		C188.4,71.9,188.6,71.7,189.1,71.2z"/>
	<path class="st0" d="M764.3,65.3c-11.4,0-22.8,0-34.2,0c-2.1,0-2.8-0.4-2.8-2.7c0.1-17.4,0.1-34.9,0-52.3c0-2.1,0.7-2.8,2.8-2.8
		c23.6,0.2,47.2,0.4,70.9,0.5c1.8,0,2.2,0.6,2.2,2.3c-0.5,17.7-1,35.4-1.4,53.2c0,1.9-1.1,1.8-2.4,1.8
		C787.6,65.3,775.9,65.3,764.3,65.3C764.3,65.3,764.3,65.3,764.3,65.3z"/>
	<path class="st0" d="M227.7,760.9c-11.5,0-23,0-34.5,0c-2,0-2.6-0.6-2.6-2.6c0.4-17.6,0.7-35.1,1-52.7c0-1.5,0.5-2,2-2
		c23.3,0,46.6,0,69.9,0c1.7,0,2,0.7,2,2.2c-0.2,17.7-0.4,35.3-0.5,53c0,1.9-0.8,2.1-2.4,2.1C251,760.9,239.3,760.9,227.7,760.9z"/>
	<path class="st1" d="M877.9,233.3c0,16.3,0,32.6,0,48.9c0,2.1-0.5,2.8-2.7,2.8c-12.3,0-24.6,0.2-36.9,0.5c-2,0-2.6-0.5-2.6-2.6
		c0.1-22.4-0.1-44.8,0.2-67.2c0.1-7,0.2-14,0.3-21c0-1.5,0.5-2.2,1.9-2.6c12.6-3.4,25.3-6.8,37.9-10.2c2.4-0.6,1.9,1.1,1.9,2.3
		C877.9,200.6,877.9,217,877.9,233.3z"/>
	<path class="st1" d="M833.9,235.4c0,10.8,0,21.7,0,32.5c0,5.2-0.4,10.4-0.4,15.6c0,2.1-1.3,1.9-2.6,1.9c-12.3,0-24.6,0-36.9,0
		c-7.5,0-7.5,0-7.6-7.6c-0.1-23-0.3-45.9-0.5-68.9c0-1.9,0.4-3,2.4-3.5c14.5-3.8,29-7.8,43.5-11.7c2.2-0.6,2,0.8,2,2.1
		C833.9,209,833.9,222.2,833.9,235.4C833.9,235.4,833.9,235.4,833.9,235.4z"/>
	<path class="st0" d="M381.9,36.7c0-9.2,0.1-18.4,0-27.6c0-2.2,0.7-3,2.9-2.9c25.8,0.2,51.6,0.4,77.5,0.5c1.9,0,2.3,0.7,2.3,2.4
		c-0.1,10.3-0.1,20.5,0,30.8c0,2.1-0.7,2.6-2.7,2.5c-12.8-0.1-25.6,0-38.4-0.1c-1.9,0-2.5,0.5-2.5,2.5c0.1,6.6,0,13.2,0.1,19.8
		c0,1.7-0.5,2.2-2.2,2.2c-11.6-0.1-23.1-0.1-34.7,0c-2,0-2.2-0.9-2.2-2.5C382,55.1,381.9,45.9,381.9,36.7z"/>
	<path class="st0" d="M568.8,7.1c12.9,0,25.7,0,38.6,0c1.9,0,2.5,0.5,2.5,2.5c-0.2,16-0.4,32.1-0.6,48.1c0,2.2-0.3,4.4-0.4,6.6
		c0,1.3-0.7,1.6-1.9,1.6c-12.1,0-24.3,0-36.4,0c-1.8,0-1.9-0.9-1.9-2.3c0-6.2-0.1-12.4,0.1-18.6c0.1-2.2-0.7-2.7-2.8-2.7
		c-11.9,0.1-23.8,0-35.7,0.1c-2.2,0-2.8-0.6-2.7-2.8c0.1-10,0.1-20,0-30.1c0-1.9,0.6-2.5,2.5-2.5C543,7.1,555.9,7.1,568.8,7.1
		C568.8,7.1,568.8,7.1,568.8,7.1z"/>
	<path class="st0" d="M766.7,701.7c-11,0-22,0-33,0c-2.1,0-2.6-0.6-2.6-2.6c0.1-16.9,0.1-33.9,0-50.8c0-2,0.7-2.6,2.6-2.9
		c14.9-1.9,29.9-3.9,44.8-6.1c3.8-0.6,5.6-0.2,6.8,4.1c5.1,18.6,10.8,37.1,16.3,55.7c0.6,2.1,0.3,2.7-2,2.7
		C788.7,701.6,777.7,701.7,766.7,701.7z"/>
	<path class="st0" d="M727.3,151.7c0-11.1,0.1-22.2,0-33.2c0-2.1,0.5-2.9,2.7-2.7c18.1,1,36.1,2,54.2,2.9c1.6,0.1,2,0.6,1.5,2.1
		c-6.4,21.8-12.7,43.5-19,65.3c-0.4,1.4-1.2,1.6-2.5,1.6c-11.5,0-23-0.1-34.5,0c-2,0-2.5-0.6-2.5-2.5
		C727.3,174,727.3,162.8,727.3,151.7z"/>
	<path class="st1" d="M786.4,323.8c0-11.2,0-22.3,0-33.5c0-1.6,0.2-2.5,2.2-2.5c14.1-0.1,28.2-0.2,42.2-0.5c2,0,2.6,0.5,2.6,2.6
		c-0.1,22.3-0.1,44.6-0.1,67c0,1.7-0.4,2.4-2.3,2.5c-14,0.1-28,0.2-42,0.5c-2.2,0-2.7-0.6-2.7-2.8
		C786.5,346,786.5,334.9,786.4,323.8C786.4,323.8,786.4,323.8,786.4,323.8z"/>
	<path class="st1" d="M878.4,545.9c0,12.5,0,25.1,0,37.6c0,2.5-0.2,3.4-3.1,2.5c-13-3.7-26-7.1-39.1-10.5c-1.9-0.5-2.4-1.3-2.4-3.2
		c0.2-21.7,0.4-43.3,0.5-65c0-1.5,0.2-2.4,2.1-2.4c13.2-0.1,26.4-0.2,39.5-0.5c2,0,2.5,0.6,2.5,2.5C878.4,520,878.4,533,878.4,545.9
		z"/>
	<path class="st0" d="M764.3,67.3c11.4,0,22.8,0.1,34.2-0.1c2.3,0,2.6,0.7,2,2.6c-4.4,15-8.8,30.1-13.1,45.2
		c-0.4,1.4-1.2,1.8-2.5,1.7c-14.1-0.8-28.2-1.6-42.3-2.4c-4.4-0.2-8.8-0.5-13.1-0.5c-1.7,0-2.2-0.6-2.2-2.3
		c0.1-13.9,0.1-27.9,0-41.8c0-2,0.8-2.5,2.6-2.5C741.4,67.3,752.8,67.3,764.3,67.3C764.3,67.3,764.3,67.3,764.3,67.3z"/>
	<path class="st1" d="M786.9,468.1c0-10.8,0-21.7,0-32.5c0-1.9,0.6-2.5,2.5-2.5c13.7,0.1,27.4,0.1,41.1,0c2,0,2.5,0.6,2.5,2.5
		c-0.2,21.7-0.4,43.5-0.5,65.3c0,1.7-0.5,2.3-2.2,2.3c-13.7,0-27.4,0-41.1,0c-2,0-2.2-0.9-2.2-2.5C787,489.8,786.9,479,786.9,468.1
		C786.9,468.1,786.9,468.1,786.9,468.1z"/>
	<path class="st1" d="M832.9,396c0,10.7,0,21.3,0,32c0,2.1-0.5,2.8-2.7,2.8c-13.6-0.1-27.2-0.1-40.8,0c-2.1,0-2.6-0.7-2.6-2.7
		c0.1-8.3,0.1-16.6,0-24.9c-0.1-12.9-0.2-25.7-0.5-38.6c0-2.2,0.4-2.9,2.8-2.9c14.2,0,28.3-0.2,42.5-0.3c1.9,0,1.2,1.4,1.2,2.3
		C833,374.5,832.9,385.2,832.9,396C832.9,396,832.9,396,832.9,396z"/>
	<path class="st1" d="M835.8,328c0-12.8,0-25.6,0-38.3c0-1.6,0.4-2.3,2.2-2.3c12.5-0.1,24.9-0.2,37.3-0.5c2,0,2.9,0.5,2.6,2.6
		c-0.1,0.9,0,1.8,0,2.7c0.1,21.5,0.3,43,0.5,64.5c0,1.9-0.4,2.7-2.5,2.7c-12.7-0.1-25.4-0.1-38.1,0c-2,0-2.5-0.6-2.5-2.5
		c0.1-9.6,0-19.2,0-28.8C835.5,328,835.7,328,835.8,328z"/>
	<path class="st1" d="M878.4,467.9c0,10.7,0,21.3,0.1,32c0,2.1-0.5,2.8-2.7,2.8c-10.7-0.1-21.3,0-32,0c-0.6,0-1.1,0-1.7,0
		c-7.6,0.2-7.7,0.2-7.6-7.5c0.1-19.9,0.3-39.7,0.4-59.6c0-2,0.7-2.5,2.5-2.4c12.9,0.1,25.7,0.1,38.6,0c2,0,2.5,0.7,2.5,2.5
		C878.4,446.4,878.4,457.1,878.4,467.9z"/>
	<path class="st1" d="M878.4,396c0,10.8,0,21.5,0,32.3c0,1.9-0.5,2.5-2.5,2.5c-12.9-0.1-25.8-0.1-38.6,0c-1.9,0-2.5-0.6-2.5-2.5
		c0.1-14.8-0.2-29.5,0.2-44.3c0.2-6.9,0.2-13.8,0.3-20.7c0-1.5,0.5-2,2-2c13,0,26.1,0,39.1,0c2,0,2,1.1,2,2.5
		C878.4,374.5,878.4,385.2,878.4,396z"/>
	<path class="st0" d="M495.2,44.3c23,0,46,0,68.9,0c2.1,0,2.8,0.6,2.7,2.7c-0.2,5-0.1,9.9,0,14.9c0,1.9-0.5,2.4-2.5,2.5
		c-21.1,0.9-42.2-0.1-63.3,0.5c-22.2,0.6-44.5,0.2-66.7,0.4c-3,0-6,0.3-9,0.4c-1.6,0.1-2.4-0.4-2.4-2.2c0.1-5.8,0.1-11.6,0-17.4
		c0-2.3,1.4-2,2.7-2C448.9,44.3,472,44.3,495.2,44.3z"/>
	<path class="st1" d="M812.1,604.6c2.3,1.7,4.5,3.3,6.7,5c9.2,7.3,18.3,14.6,27.5,21.8c1.4,1.1,1.6,1.9,0.6,3.4
		c-13.8,21-27.5,42.1-41.3,63.1c-0.3,0.5-0.8,1-1.2,1.4c-0.3-0.5-0.7-1.1-0.9-1.6c-5.7-19.4-11.4-38.8-17.2-58.2
		c-0.4-1.2-0.3-2.1,0.6-3.1c7.9-10,15.7-20.1,23.5-30.2C810.8,605.7,811.4,605.2,812.1,604.6z"/>
	<path class="st1" d="M149.6,550c19.2,0,38.3,0,57.5,0c2.2,0,2.7,0.6,2.7,2.8c0,10.9,0,10.8-10.4,13.5
		c-27.5,7.1-54.9,14.2-82.4,21.4c-1.5,0.4-2.6,0.6-3.7-1.1c-7.5-11.3-15.2-22.5-22.8-33.8c-0.5-0.7-0.8-1.5-1.2-2.3
		c0.8-0.1,1.7-0.3,2.5-0.4C111.1,550,130.3,550,149.6,550z"/>
	<path class="st1" d="M161.7,218.9c-12.1,0-24.1-0.2-36.2,0c-11.8,0.2-23.4-1.9-35.2-2.5c-1.2-0.1-1.5-0.4-0.7-1.5
		c7.6-11,15.2-21.9,22.8-32.9c0.8-1.1,1.8-0.8,2.9-0.5c28,7.7,56.1,15.4,84.1,23c0.7,0.2,1.4,0.4,2.1,0.6c9,2.3,9.2,2.6,8.3,12.1
		c-0.2,2-1.5,1.6-2.6,1.6C192,218.9,176.8,218.9,161.7,218.9z"/>
	<path class="st1" d="M809.8,505.1c6.8,0,13.5,0.1,20.3,0c1.8,0,2.4,0.6,2.4,2.4c-0.2,21.5-0.4,43-0.5,64.5c0,1.6-0.2,2.4-2.2,1.9
		c-13.6-3.7-27.1-7.3-40.7-10.9c-1.7-0.5-1.6-1.5-1.6-2.8c0-7.8,0-15.6,0-23.5c-0.1-9.5-0.2-19-0.5-28.5c-0.1-2.4,0.8-3.1,3.1-3
		C796.6,505.2,803.2,505.1,809.8,505.1C809.8,505.1,809.8,505.1,809.8,505.1z"/>
	<path class="st1" d="M116.8,279.8c0-18.7,0-37.5,0-56.2c0-2.2,0.6-2.8,2.8-2.7c6.1,0.1,12.2,0.1,18.3,0c1.7,0,2.5,0.3,2.5,2.3
		c-0.1,38,0,75.9,0,113.9c0,1.7-0.5,2.3-2.2,2.2c-6.2-0.1-12.4-0.1-18.6,0c-2.2,0.1-2.7-0.7-2.7-2.8
		C116.8,317.6,116.8,298.7,116.8,279.8z"/>
	<path class="st1" d="M209.7,205.3c-7.2-1.9-14-3.8-20.8-5.6c-24-6.6-47.9-13.2-71.9-19.8c-2.2-0.6-2.3-1.2-1-3
		c8.1-11.6,16.2-23.2,24.1-34.9c1.2-1.8,2-1.8,3.6-0.5c19.1,14.8,38.2,29.5,57.2,44.3c4.8,3.7,9.5,7.4,14.3,11
		c1.6,1.2,1.6,2.1,0.1,3.2C213.2,201.4,212.3,204.6,209.7,205.3z"/>
	<path class="st1" d="M788.8,117.3c2-6.9,3.9-13.5,5.9-20.2c2.5-8.6,5-17.2,7.5-25.8c0.2-0.7,0.5-1.7,0.9-1.8
		c0.9-0.3,1.2,0.8,1.7,1.5c14.4,21.3,28.8,42.6,43.2,63.9c1.1,1.6,1.4,2.7-0.4,4c-9.7,7.2-19.4,14.5-29,21.8
		c-1.2,0.9-1.6,0.8-2.4-0.4c-8.7-13.7-17.4-27.3-26.1-40.9C789.5,118.7,789.1,117.9,788.8,117.3z"/>
	<path class="st0" d="M731.2,611.4c0-9.9,0-19.7,0-29.6c0-1.9,0.6-2.5,2.5-2.5c10.2,0.1,20.4,0.1,30.5,0c1.7,0,2.4,0.7,2.9,2.2
		c5.1,17.4,10.2,34.8,15.4,52.1c0.8,2.6-0.1,3.2-2.5,3.5c-13.8,1.8-27.6,3.5-41.4,5.6c-7.5,1.1-7.4,1.4-7.4-6
		C731.2,628.4,731.2,619.9,731.2,611.4z"/>
	<path class="st1" d="M116.8,394.8c0-17,0-33.9,0-50.9c0-2.1,0.5-2.8,2.7-2.8c6.2,0.1,12.4,0.1,18.6,0c1.7,0,2.3,0.5,2.3,2.2
		c0,34.2,0,68.5,0,102.7c0,1.7-0.4,2.3-2.2,2.3c-6.3-0.1-12.6-0.1-18.8,0c-2.2,0.1-2.5-0.8-2.5-2.7
		C116.8,428.7,116.8,411.7,116.8,394.8z"/>
	<path class="st1" d="M138.9,624.6c-0.4-0.7-0.7-1.4-1.1-2c-7-10.4-14-20.7-21.2-31c-1.4-2,0.2-1.9,1.3-2.1
		c23.7-6.1,47.3-12.2,71-18.3c6.5-1.7,13-3.4,19.6-5.1c1.6-0.4,7.4,3.4,7.3,4.9c0,0.5-0.7,1-1.2,1.4c-22.4,15.5-44.8,30.9-67.3,46.4
		C144.8,620.5,142.2,622.3,138.9,624.6z"/>
	<path class="st0" d="M495.9,42.3c-9,0-17.9,0-26.9,0c-1.9,0-2.5-0.5-2.5-2.5c0.1-10.3,0.1-20.5,0-30.8c0-1.9,0.5-2.5,2.5-2.5
		c17.4,0.1,34.7,0.1,52.1,0c3.3,0,5.1,0.6,4.8,4.8c-0.5,9.6-0.5,19.2-0.5,28.8c0,1.8-0.7,2.2-2.3,2.2
		C514,42.3,504.9,42.3,495.9,42.3z"/>
	<path class="st1" d="M876.4,589.4c-1,1.7-2.1,3.5-3.3,5.3c-7.4,11.4-15,22.7-22.3,34.1c-1.3,2-2.3,1.9-3.9,0.6
		c-10.6-8.4-21.3-16.8-31.9-25.2c-1.3-1-1.5-1.9-0.4-3.3c5.8-7.4,11.6-14.8,17.4-22.3c1-1.2,2-1.6,3.5-1.2
		c13.1,3.6,26.2,7.1,39.3,10.6C875.5,588.3,876.4,588.1,876.4,589.4z"/>
	<path class="st1" d="M836.4,190.4c-0.9,0.2-1.3-0.5-1.7-1.1c-5.1-8-10.3-16-15.4-24c-0.8-1.3-0.6-2.2,0.6-3.1
		c9.7-7.3,19.5-14.6,29.1-22c1.3-1,1.8-0.8,2.6,0.4c8.2,12.3,16.5,24.5,24.8,36.8c0.7,1,1.4,1.9-0.6,2.4
		c-12.9,3.4-25.9,6.9-38.8,10.4C836.9,190.3,836.7,190.4,836.4,190.4z"/>
	<path class="st1" d="M787.9,120.4c5.8,9,11.2,17.4,16.7,25.9c3.3,5.1,6.4,10.2,9.7,15.2c0.9,1.3,0.7,2-0.5,2.9
		c-12.7,9.6-25.4,19.2-38.1,28.8c-0.5,0.4-0.9,0.8-1.7,0.4c-3.6-1.5-5.8-5.7-4.7-9.4C775.4,163.1,781.6,142.1,787.9,120.4z"/>
	<path class="st1" d="M768.5,579c1-1.7,3.1-2.6,4.6-4c1.1-1,1.8,0.1,2.5,0.7c11.1,8.8,22.2,17.5,33.3,26.3c1,0.8,1.2,1.4,0.4,2.4
		c-7.6,9.7-15.1,19.3-22.7,29c-0.6,0.8-1.5,2.3-2.2-0.1c-5.2-17.6-10.4-35.3-15.6-52.9C768.7,580,768.7,579.7,768.5,579z"/>
	<path class="st1" d="M785.4,204.2c-2-1.8-4.2-3.9-6.5-5.7c-2.6-2-2.8-3.2,0.2-5.4c12.1-8.8,23.9-17.9,35.8-27
		c1.2-0.9,1.7-1,2.6,0.4c5,7.8,10,15.6,15.1,23.4c0.4,0.7,1.1,1.3-0.4,1.7c-15.3,4.1-30.6,8.2-45.9,12.3
		C786.2,203.9,786,204,785.4,204.2z"/>
	<path class="st1" d="M830.8,576.7c-1,1.4-2.1,2.9-3.2,4.3c-4.7,6.1-9.6,12.1-14.3,18.3c-1.3,1.6-2.2,1.9-3.9,0.5
		c-10.5-8.4-21.1-16.8-31.7-25.1c-1.8-1.4-1.8-2.1-0.1-3.4c2.5-1.9,5-3.9,7.4-5.9c0.8-0.6,1.5-1.1,2.6-0.8
		c13.8,3.8,27.6,7.5,41.4,11.2C829.7,576,830.6,575.7,830.8,576.7z"/>
</g>
<g id="stage">
	<g>
		<rect x="229" y="337.4" class="st2" width="62" height="91"/>
		<polygon class="st2" points="331.4,299 229,299 229,332.5 295.5,332.5 295.5,432.4 229,432.4 229,466.1 331.4,466.1 		"/>
		<polygon class="st2" points="663.4,466.1 765.9,466.1 765.9,432.4 701.1,432.4 701.1,332.5 765.9,332.5 765.9,299 663.4,299 		"/>
		<rect x="705.7" y="337.4" class="st2" width="60.6" height="91"/>
		<path class="st2" d="M335.7,343.9v77.4c20.5-1.2,37.3-18,37.3-38.8C373,361.7,357,345.3,335.7,343.9z"/>
		<path class="st2" d="M659.1,421.3v-77.4c-20.5,1.2-37.3,18-37.3,38.8C622.2,403.7,638.4,420.5,659.1,421.3z"/>
		<path class="st2" d="M501.7,314.7v136c36.2-2.1,65.7-31.6,65.7-68C567.3,345.7,538,316.3,501.7,314.7z"/>
		<path class="st2" d="M429.3,382.5c0,37.3,30.4,67.8,68,68.4V314.4C459.2,315.1,429.3,345.3,429.3,382.5z"/>
		<path class="st2" d="M229,222v72.5h107.1v44.9c23,1.2,42,20.5,42,43.5c0,23-18.4,42-42,43.5v44.9H229v72.5h537.1v-72.5H659v-44.7
			c-23-1.2-42-20.5-42-43.5c0-23,18.4-42,42-43.5v-45.1h107.1V222H229L229,222z M501.7,455.5v86.7h-4.7v-86.7
			c-40.2-0.8-72.7-33.1-72.7-73.2c0-39.9,32.4-72.5,72.7-73.2v-86.2h4.7v86.7c39.2,2.1,70.4,34.1,70.4,73.2
			C572,421.9,540.9,454.2,501.7,455.5z"/>
	</g>
</g>
</svg>
