<?xml version="1.0" encoding="utf-8"?>
<!-- Generator: Adobe Illustrator 21.0.0, SVG Export Plug-In . SVG Version: 6.00 Build 0)  -->
<svg version="1.1" id="Laag_1" xmlns="http://www.w3.org/2000/svg" xmlns:xlink="http://www.w3.org/1999/xlink" x="0px" y="0px"
	 viewBox="0 0 1024 768" style="enable-background:new 0 0 1024 768;" xml:space="preserve">
<style type="text/css">
	.st0{fill:#ACCA5A;}
	.st1{fill:#93B8D2;}
	.st2{fill:#C2C3C3;}
	.st3{fill:#1D1D1B;}
	.st4{fill:#85BB3E;}
</style>
<g>
	<path class="st0" d="M742,580.4c0,6.1,0,11.7,0,18.4c-29.4,0-58.8,0-88.1,0c0,0.6,0,1.1,0,1.7c29.2,0,58.3,0,87.9,0
		c0,28.6,0,56.6,0,85c-29.8,0-59.4,0-89.8,0c0-28.1,0-56,0-84c-0.5,0-1,0-1.6,0c0,27.8,0,55.5,0,83.8c-30.9,0-61,0-91.5,0
		c0-27.7,0-55.7,0-84.4c29.8,0,59.6,0,89.5,0c0-0.6,0-1.2,0-1.8c-29.8,0-59.6,0-89.6,0c0-6.8,0-12.6,0-18.8c30.3,0,60.2,0,90.4,0
		c2.3,5.5-0.2,11.6,2.5,17.1c0-5.5,0-11,0-17C682,580.4,711.6,580.4,742,580.4z"/>
	<path class="st0" d="M281.5,578.1c0,0-0.1,0.1-0.1,0.1c0.5,0.4,1,0.8,1.4,1.1c0.5-0.4,1-0.8,1.4-1.1c0,0-0.1-0.1-0.1-0.1
		c1.5,3.4,4.6,1.6,6.7,1.7c24.3,0.2,48.7,0.1,73,0.1c2.5,0,5.1,0,7.7,0c2.1,6.2-0.4,12.3,2,18.6c2.4-6.1,0.3-11.9,1.7-18
		c29.2,0,58.6,0,88.6,0c1.4,5.4,0.4,11.3,0.6,18.1c-29.6,0-58.9,0-88.2,0c0,0.6,0,1.2,0,1.8c29.1,0,58.2,0,87.8,0
		c0,28.6,0,56.6,0,85c-29.6,0-59,0-88.4,0c-1.5-2.5-0.8-5.1-0.8-7.7c-0.1-23.6,0-47.2-0.1-70.9c0-2,1.9-5-1.8-6.2l0.1,0.1
		c-0.5-4-3.6-1.8-5.2-1.8c-24.9-0.2-49.8-0.1-74.7-0.1c-2.6,0-5.1,0-7.9,0c-2.1-4.7-0.6-9.5-1.2-14c-0.3-1.9,1.7-5-2.3-5.3
		c0,0-0.1-0.1-0.1-0.1c0.1-0.2,0.3-0.3,0.3-0.5C281.7,578.7,281.6,578.4,281.5,578.1z"/>
	<path class="st0" d="M466.9,600.9c29.9,0,59.4,0,89.4,0c0,28.1,0,56,0,84.4c-29.7,0-59.2,0-89.4,0
		C466.9,657.5,466.9,629.6,466.9,600.9z"/>
	<path class="st0" d="M372.8,600.7c-0.1,25-0.3,50-0.4,75c0,3,0,6.1,0,9.6c-29.5,0-58.6,0-88.1,0c0-28,0-56,0-84.5
		c29.7,0,59.1,0,88.5,0C372.9,600.8,372.8,600.7,372.8,600.7z"/>
	<path class="st0" d="M649.7,763.5c-30.5,0-60.4,0-90.7,0c0-25.1,0-50,0-75.4c30.1,0,60.2,0,90.7,0
		C649.7,713.3,649.7,738.1,649.7,763.5z"/>
	<path class="st0" d="M742,688.1c0,25.3,0,50,0,75.2c-29.9,0-59.5,0-89.6,0c0-24.8,0-49.8,0-75.2C682,688.1,711.6,688.1,742,688.1z"
		/>
	<path class="st0" d="M466.6,763.3c0-25.3,0-50,0-75.3c29.8,0,59.4,0,89.6,0c0,25.1,0,50,0,75.3
		C526.5,763.3,496.9,763.3,466.6,763.3z"/>
	<path class="st0" d="M464.2,688.2c0,25.3,0,50,0,75.1c-29.7,0-59.1,0-88.9,0c0-24.8,0-49.7,0-75.1
		C404.7,688.2,434,688.2,464.2,688.2z"/>
	<path class="st0" d="M284.5,688c29.2,0,57.9,0,87.3,0c0,25,0,50.1,0,75.5c-29,0-57.9,0-87.3,0C284.5,738.6,284.5,713.7,284.5,688z"
		/>
	<path class="st0" d="M556.2,598.6c-30.1,0-59.5,0-89.4,0c0-5.8,0-11.3,0-17.3c29.6,0,59.2,0,89.2,0
		C557.4,586.8,556.8,592.3,556.2,598.6z"/>
	<path class="st1" d="M886.5,235.5c0,33.7,0,67.1,0,100.9c-35,0-69.6,0-104.8,0c0-33.4,0-67,0-100.9
		C816.6,235.5,851.4,235.5,886.5,235.5z"/>
	<path class="st1" d="M781.6,440.9c35.2,0,69.8,0,104.9,0c0,32.8,0,65.2,0,98.2c-34.8,0-69.6,0-104.9,0
		C781.6,506.7,781.6,474.1,781.6,440.9z"/>
	<path class="st1" d="M886.4,438.4c-35.3,0-69.9,0-104.9,0c0-32.7,0-64.9,0-97.8c34.7,0,69.5,0,104.9,0
		C886.4,372.8,886.4,405.2,886.4,438.4z"/>
	<path class="st1" d="M889.4,235.4c25.5,0,50.2,0,75.4,0c0,33.8,0,67.2,0,101.1c-25.2,0-50.1,0-75.4,0
		C889.4,302.8,889.4,269.4,889.4,235.4z"/>
	<path class="st1" d="M889.4,539.3c0-33,0-65.4,0-98.3c25.3,0,50.1,0,75.4,0c0,32.8,0,65.3,0,98.3
		C939.7,539.3,914.9,539.3,889.4,539.3z"/>
	<path class="st1" d="M855.1,641.8c32.7-39.6,34.3-50.8,34.3-99.8c25.3,0,50.1,0,75.4,0c0,55.9-20,105.4-57.6,150.8
		C859.6,646.2,885.4,671.4,855.1,641.8z"/>
	<path class="st1" d="M889.6,340.3c25.3,0,50,0,75,0c0,32.8,0,65.2,0,98.2c-25.2,0-49.8,0-75,0C889.6,405.7,889.6,373.3,889.6,340.3
		z"/>
	<path class="st2" d="M969.4,237.7c0.2,1.4-0.7,1.3-2.4,1c1.3-0.4,1.9-0.6,2.6-0.8C969.6,237.8,969.4,237.7,969.4,237.7z"/>
	<path class="st0" d="M671.2,76.7c0,10.6,0,20.9,0,31.2c-29.8,0-59.5,0-89.1,0c0,0,0,0,0,0c-76.5,0-153.1,0-230.1,0
		c0-9.8,0-20.3,0-31.2C458.3,76.7,564.6,76.7,671.2,76.7z"/>
	<path class="st0" d="M284.2,153.5c0-19.7,0-38.9,0-58.5c21.5,0,42.6,0,64.6,0c0,9.8,0,19.5,0,29.8c30.5,0,60.1,0,90.4,0
		c0,8.4,0,16.3,0,24.7c47.9,0,95.3,0,143.2,0c0-7.9,0-15.9,0-24.2c29.8,0,58.9,0,88.7,0c0,9.3,0,18.6,0,28.3
		C542.3,153.5,413.7,153.5,284.2,153.5z"/>
	<path class="st0" d="M351.7,177.6c0-6.8,0-13.2,0-20c123.4,0,246.8,0,370.5,0c0.7,6.6,0.6,13.1,0,20
		C598.8,177.6,475.6,177.6,351.7,177.6z"/>
	<path class="st0" d="M671.2,111.9c0,3.7,0,6.9,0,11.2c-15.1,0-30.1,0-45.1,0c-14.8,0-29.7,0-45.2,0c0,8.5,0,16.4,0,24.7
		c-46.4,0-92.1,0-138.4,0c0-8,0-15.9,0-24.5c-30.5,0-60.3,0-90.6,0c0-4.1,0-7.5,0-11.4C458.1,111.9,564.3,111.9,671.2,111.9z"/>
	<path class="st0" d="M743.9,8.7c-1.4,1.2-1.5,2.8-1.5,4.5c0.1,23.8,0.2,47.6,0.2,71.4c-0.6,0.4-1.1,0.8-1.7,1.2
		c-21.9,0-43.9,0.1-65.8,0.2c-3.1-9.9-0.2-20.2-1.8-30.6c-6.6-2-13.8,0.2-20.9-1.4c0-15.2,0-30.2,0-45.3
		C683.1,8.7,713.5,8.7,743.9,8.7z"/>
	<path class="st0" d="M371.8,54.6c-7.8,0-15,0-23.1,0c0,8.8-0.1,17,0,25.2c0,4.9-2.2,7.4-7.2,7.4c-18.4,0-36.8,0-57,0
		c-1.3-26.1-0.2-52.1-0.6-78.4c29.5,0,58.4,0,87.9,0C371.8,23.6,371.8,38.5,371.8,54.6z"/>
	<path class="st0" d="M741.7,177.5c-5.8,0-11.1,0-17.3,0c0-7.4,0-14.5,0-22.3c-17,0-33.2,0-50,0c0-19.8,0-43.2,0-62.9
		c22.3,0,44.3,0,67.3,0C741.7,119,741.7,150,741.7,177.5z"/>
	<path class="st0" d="M558.8,54.7c0-15.7,0-30.7,0-46.1c30.4,0,60.5,0,90.9,0c0,15.4,0,30.6,0,46.1
		C619.2,54.7,589.3,54.7,558.8,54.7z"/>
	<path class="st0" d="M464,8.7c0,15.4,0,30.6,0,46c-29.9,0-59,0-88.8,0c0-15.2,0-30.4,0-46C404.8,8.7,434.3,8.7,464,8.7z"/>
	<path class="st0" d="M466.7,54.7c0-15.7,0-30.7,0-46.1c30,0,59.6,0,89.4,0c0,15.4,0,30.6,0,46.1C526.1,54.7,496.7,54.7,466.7,54.7z
		"/>
	<path class="st0" d="M671,59.8c0.4,4.1,0.7,7.8-0.2,11.8c-106.4,0-212.3,0-318.9,0c0-4,0-7.7,0-11.8
		C458.2,59.8,564.1,59.8,671,59.8z"/>
	<path class="st0" d="M521.9,196.3c0-5.3,0-10.2,0-15.6c73.2,0,146.2,0,219.5,0c1.6,5,0.7,10.1,0.7,15.6
		C668.7,196.3,595.7,196.3,521.9,196.3z"/>
	<path class="st0" d="M282.3,196.2c0-4.8,0-9.6,0.1-14.4c2.4-0.9,4.8-1.6,7.5-1.6c68.7,0.1,137.4,0.1,206.1,0.1c1.2,0,2.3,0.1,4,0.2
		c0,5.3,0,10.3,0,15.6c-1.9,1.5-4.3,0.7-6.6,0.7c-67.3,0-134.6,0-201.9,0C288.4,196.8,285.3,196.4,282.3,196.2z"/>
	<path class="st0" d="M284.3,177.3c0-6.6,0-12.9,0-19.7c21.2,0,42.3,0,63.9,0c0,6.2,0,12.6,0,19.7
		C327.4,177.3,306.3,177.3,284.3,177.3z"/>
	<path class="st3" d="M783.8,211"/>
</g>
<path class="st1" d="M139.1,234c0,33.7,0,67.1,0,100.9c35,0,69.6,0,104.8,0c0-33.4,0-67,0-100.9C209.1,234,174.3,234,139.1,234z"/>
<path class="st1" d="M244,439.5c-35.2,0-69.8,0-104.9,0c0,32.8,0,65.2,0,98.2c34.8,0,69.6,0,104.9,0C244,505.3,244,472.7,244,439.5z
	"/>
<path class="st1" d="M139.3,339.1c35.4,0,70.2,0,104.9,0c0,32.9,0,65.1,0,97.8c-35,0-69.6,0-104.9,0
	C139.3,403.7,139.3,371.3,139.3,339.1z"/>
<path class="st1" d="M136.3,234c-25.5,0-50.2,0-75.4,0c0,33.8,0,67.2,0,101.1c25.2,0,50.1,0,75.4,0
	C136.3,301.3,136.3,267.9,136.3,234z"/>
<path class="st1" d="M136.3,537.8c0-33,0-65.4,0-98.3c-25.3,0-50.1,0-75.4,0c0,32.8,0,65.3,0,98.3
	C85.9,537.8,110.7,537.8,136.3,537.8z"/>
<path class="st1" d="M136.1,338.8c-25.3,0-50,0-75,0c0,32.8,0,65.2,0,98.2c25.2,0,49.8,0,75,0C136.1,404.2,136.1,371.8,136.1,338.8z
	"/>
<path class="st1" d="M745.4,689.3c61.9-4.3,72.5-10.3,106-45.4c19,16.6,34.9,35.9,53.9,52.5c-49.7,47.3-84.9,66.9-157.9,66.9
	C746.4,705.1,747.2,732.2,745.4,689.3z"/>
<path class="st1" d="M781.6,541.9c35.2,0,69.8,0,104.9,0c0,54.2-7.9,67-36.1,98.6c-79.2-69.2-11.3-10.2-79.2-69.2
	C781.6,541.9,771.2,571.3,781.6,541.9z"/>
<path class="st1" d="M768.4,573c24.8,27.3,38.4,34.7,78,70.2c-39.5,36-56.8,40.9-99.8,40c-1.2-110.2-1.2-10-1.2-101.8
	C774.2,570,739.6,584.4,768.4,573z"/>
<path class="st1" d="M170.7,641.1c-32.7-39.6-34.3-50.8-34.3-99.8c-25.3,0-50.1,0-75.4,0c0,55.9,20,105.4,57.6,150.8
	C166.2,645.4,140.3,670.6,170.7,641.1z"/>
<path class="st1" d="M280.4,688.6c-61.9-4.3-72.5-10.3-106-45.4c-19,16.6-34.9,35.9-53.9,52.5c49.7,47.3,84.9,66.9,157.9,66.9
	C279.3,704.4,278.5,731.5,280.4,688.6z"/>
<path class="st1" d="M244.1,541.2c-35.2,0-69.8,0-104.9,0c0,54.2,7.9,67,36.1,98.6c79.2-69.2,11.3-10.2,79.2-69.2
	C244.1,541.2,254.6,570.6,244.1,541.2z"/>
<path class="st1" d="M257.4,572.2c-24.8,27.3-38.4,34.7-78,70.2c39.5,36,56.8,40.9,99.8,40c1.2-110.2,1.2-10,1.2-101.8
	C251.6,569.2,286.2,583.6,257.4,572.2z"/>
<path class="st1" d="M855.1,132.9c32.7,39.6,34.3,50.8,34.3,99.8c25.3,0,50.1,0,75.4,0c0-55.9-20-105.4-57.6-150.8
	C859.6,128.6,885.4,103.4,855.1,132.9z"/>
<path class="st1" d="M745.4,85.5c61.9,4.3,72.5,10.3,106,45.4c19-16.6,34.9-35.9,53.9-52.5C855.5,31,820.3,11.4,747.3,11.4
	C746.4,69.7,747.2,42.6,745.4,85.5z"/>
<path class="st1" d="M781.6,232.8c35.2,0,69.8,0,104.9,0c0-54.2-7.9-67-36.1-98.6c-79.2,69.2-11.3,10.2-79.2,69.2
	C781.6,232.8,771.2,203.5,781.6,232.8z"/>
<path class="st1" d="M768.4,201.8c24.8-27.3,38.4-34.7,78-70.2c-39.5-36-56.8-40.9-99.8-40c-1.2,110.2-1.2,10-1.2,101.8
	C774.2,204.8,739.6,190.4,768.4,201.8z"/>
<path class="st1" d="M170.7,130.4c-32.7,39.6-34.3,50.8-34.3,99.8c-25.3,0-50.1,0-75.4,0c0-55.9,20-105.4,57.6-150.8
	C166.2,126,140.4,100.8,170.7,130.4z"/>
<path class="st1" d="M280.4,82.9c-61.9,4.3-72.5,10.3-106,45.4c-19-16.6-34.9-35.9-53.9-52.5c49.7-47.3,84.9-66.9,157.9-66.9
	C279.3,67.1,278.5,40,280.4,82.9z"/>
<path class="st1" d="M244.1,230.3c-35.2,0-69.8,0-104.9,0c0-54.2,7.9-67,36.1-98.6c79.2,69.2,11.3,10.2,79.2,69.2
	C244.1,230.3,254.6,200.9,244.1,230.3z"/>
<path class="st1" d="M257.4,199.2c-24.8-27.3-38.4-34.7-78-70.2c39.5-36,56.8-40.9,99.8-40c1.2,110.2,1.2,10,1.2,101.8
	C251.6,202.2,286.2,187.8,257.4,199.2z"/>
<g id="stage">
	<g>
		<rect x="271.3" y="348.2" class="st4" width="56" height="82.2"/>
		<polygon class="st4" points="363.8,313.5 271.3,313.5 271.3,343.8 331.4,343.8 331.4,434.1 271.3,434.1 271.3,464.5 363.8,464.5 
					"/>
		<polygon class="st4" points="664,464.5 756.7,464.5 756.7,434.1 698.1,434.1 698.1,343.8 756.7,343.8 756.7,313.5 664,313.5 		"/>
		<rect x="702.3" y="348.2" class="st4" width="54.7" height="82.2"/>
		<path class="st4" d="M367.8,354.1v69.9c18.5-1.1,33.7-16.3,33.7-35.1S387,355.4,367.8,354.1z"/>
		<path class="st4" d="M660.1,424.1v-69.9c-18.5,1.1-33.7,16.3-33.7,35.1C626.7,408.1,641.4,423.3,660.1,424.1z"/>
		<path class="st4" d="M517.8,327.6v123c32.8-1.9,59.4-28.5,59.4-61.5C577.1,355.7,550.6,329.2,517.8,327.6z"/>
		<path class="st4" d="M452.3,388.9c0,33.7,27.4,61.3,61.5,61.8V327.3C479.4,327.9,452.3,355.4,452.3,388.9z"/>
		<path class="st4" d="M271.3,243.9v65.6h96.8v40.6c20.9,1.1,38,18.5,38,39.4c0,20.9-16.6,38-38,39.4v40.6h-96.8V535h485.6v-65.6
			h-96.8v-40.6c-20.9-1.1-38-18.5-38-39.4c0-20.9,16.6-38,38-39.4v-40.6h96.8v-65.6H271.3L271.3,243.9z M517.8,455v78.4h-4.2V455
			c-36.4-0.8-65.7-30-65.7-66.2c0-36.1,29.3-65.6,65.7-66.2v-77.9h4.2v78.4c35.4,1.9,63.7,30.9,63.7,66.2
			C581.4,424.5,553.3,453.7,517.8,455z"/>
	</g>
</g>
</svg>
