<?xml version="1.0" encoding="utf-8"?>
<!-- Generator: Adobe Illustrator 21.1.0, SVG Export Plug-In . SVG Version: 6.00 Build 0)  -->
<svg version="1.1" id="Laag_1" xmlns="http://www.w3.org/2000/svg" xmlns:xlink="http://www.w3.org/1999/xlink" x="0px" y="0px"
	 viewBox="0 0 1024 768" style="enable-background:new 0 0 1024 768;" xml:space="preserve">
<style type="text/css">
	.st0{fill:#93B8D2;}
	.st1{fill:#ACCA5A;}
	.st2{fill:#F8B65F;}
	.st3{fill:#85BB3E;}
</style>
<g>
	<path class="st0" d="M226.7,325.6c32.3,0,62.7,0,93.7,0c0,13.7,0,25.7,0,39.2c-30.7,1.7-61.6,3.5-92.9,5.2
		C224.1,354.1,224.2,339.5,226.7,325.6z"/>
	<path class="st0" d="M702.1,326.3c30.8-0.7,60.7-0.5,91.7-2.8c2.1,15.8,2,30.3-0.2,46.1c-30.9-1.7-61-3.3-91.5-5
		C702.1,351.8,702.1,339.7,702.1,326.3z"/>
	<path class="st0" d="M226.9,317c0.6-16,3.5-30.5,7.7-46c30.1,4.4,59.7,8.7,90.7,13.2c-3.1,12.1-1.6,23.5-3.7,35.4
		C289.8,320,259.1,319.1,226.9,317z"/>
	<path class="st0" d="M235.2,422.9c-4.3-16.4-7.6-30.7-8-46.5c31.6-1.8,62.3-3.5,93.7-5.2c3.6,12,0.8,23.7,5,36.2
		C295.1,412.6,265.6,417.7,235.2,422.9z"/>
	<path class="st1" d="M486.9,577.8c-14.2,2.5-27.5-2.5-42.6-3.7c-0.8-29.7,2.8-58.9,3.4-88.6c13.5,0,25.8,0,39.2,0
		C486.9,516.6,486.9,546.9,486.9,577.8z"/>
	<path class="st1" d="M541,485.1c13.1,0,25.1,0,38.4,0c1.5,28.4,2.9,57.1,4.4,86.5c-13.8,4.3-27.9,5.3-42.9,7
		C541,547.4,541,517,541,485.1z"/>
	<path class="st0" d="M786,271.7c4.1,15.3,7,29.5,7.3,45.1c-30.5,3.5-60.5,2.4-90.9,3.1c-3-11.7-3.5-22.7-3.3-35.2
		C727.8,280.4,756.5,276.1,786,271.7z"/>
	<path class="st0" d="M702.1,371.5c30.6,0.2,60.2,3.1,90.9,4.6c0,15.8-3.4,30-7.5,45.6c-28.9-4.9-57.4-9.7-86.1-14.5
		C698.5,394.8,699.8,383.8,702.1,371.5z"/>
	<path class="st0" d="M332.1,240c-2.2,13.1-4.2,24.6-6.4,37.8c-29.7-4.3-58.8-8.6-88.6-12.9c2.2-15.8,9.1-28.4,16.1-41.7
		C279.4,228.8,305,234.2,332.1,240z"/>
	<path class="st1" d="M401.7,480.4c14.2,1.2,26.5,2.2,40,3.4c-1.5,29-2.9,57.2-4.4,86.3c-15.2-2.2-28.8-3.9-43.1-8.5
		C396.6,534.8,399.1,508.4,401.7,480.4z"/>
	<path class="st1" d="M535.5,210.3c-14.9,0-28.4,0-43.6,0c1.3-26-2.4-51.3-0.6-77.8c15,0,29.3,0,44.2,0
		C535.5,158.3,535.5,183.9,535.5,210.3z"/>
	<path class="st1" d="M632.6,559.2c-14.3,5.6-27.4,6.9-42.5,10c-1.5-29.1-2.8-56.9-4.3-86c13.6-0.5,25.9-3.8,39.6-2.6
		C628.6,507,631.1,533,632.6,559.2z"/>
	<path class="st0" d="M697.8,278.7c-2.5-13.3-4.7-24.8-7.2-37.6c26-5.5,51.5-10.9,77.7-16.5c7.4,12.6,11.8,25.5,16,40.4
		C755.5,271.2,727.1,273.4,697.8,278.7z"/>
	<path class="st0" d="M325.6,413.8c2.2,12.6,4.1,24,6.2,36.3c-26.3,6.5-51.7,12.7-77.5,19c-8.3-12.5-13.1-25.2-17.6-40
		C266.4,424,295.1,419.1,325.6,413.8z"/>
	<path class="st1" d="M533.1,577.9c-12.9,0-25.3,0-39,0c0-30.3,0-60,0-90.3c3-2,6.7-1.3,10.8-0.5c3.3,7.5-0.1,15.7,2.3,23.6
		c4.1,2.5,8.3,2,13.9,0c0-7.9,0-16.1,0-23.6c4.5-2.7,7.8-2.4,11.9-0.5C533.1,516.4,533.1,546.5,533.1,577.9z"/>
	<path class="st0" d="M783.4,427.8c-3.5,15.2-9.1,27.4-15.7,40c-25.7-6.3-50.8-12.4-76.9-18.7c2.4-12.4,4.5-23.7,6.9-35.9
		C726.7,418.1,754.5,422.9,783.4,427.8z"/>
	<path class="st1" d="M395.6,138.3c14.5-3.4,27.6-5.3,41.9-4.8c2,26.4,4.8,51.8,4.9,78.6c-12.6,0-24.5,0-37.8,0
		C401.8,188.2,398.8,163.9,395.6,138.3z"/>
	<path class="st1" d="M589.5,133.7c14.7-0.1,27.1,2.8,41.2,4.9c-0.1,25.4-6.4,49.8-7.4,74.4c-13.4,0-25.3,0-38.9,0
		C586.1,186.1,587.7,160.4,589.5,133.7z"/>
	<path class="st1" d="M347.7,546.2c2.8-24.4,5.6-47.7,8.4-72c13.7,1.9,26.2,3.6,39.4,5.5c-2.5,27-5,53.1-7.5,79.8
		C373.4,557.2,361.3,551.4,347.7,546.2z"/>
	<path class="st1" d="M631.8,478.8c14.2-1.8,26.5-3.4,39.7-5.1c2.6,23.6,5.1,45.9,7.6,68.1c-12.7,7.4-25.5,11.5-39.6,16
		C636.9,531.3,634.4,505.6,631.8,478.8z"/>
	<path class="st1" d="M444.2,134.3c13.9-3.8,26.3-2.5,40.1-2.8c0,26.6,0,52.1,0,78.6c-11,0-22.6,0-35,0
		C447.6,184.9,445.9,159.8,444.2,134.3z"/>
	<path class="st1" d="M543.3,132.2c13.2-1.2,25.7-1.2,39.8,1.9c-1.7,25.8-3.4,51.2-5,76.9c-12.1,0-22.9,0-34.7,0
		C543.3,184.3,543.3,158.6,543.3,132.2z"/>
	<path class="st0" d="M416.3,63.5c-19.3,2.7-36.7,5.2-54.6,7.7c-8.2-13.8-16.1-27.1-24.4-41.2c21.2-7.8,42.2-11.6,64.5-15.7
		C406.5,30.5,411.2,46.3,416.3,63.5z"/>
	<path class="st1" d="M398.3,214.2c-12.4,0.7-23.4,3.9-36,2.6c-4.4-22.3-10.2-44.2-12.9-67.5c13-5,25.5-8.3,39.6-10
		C393.5,164.3,395.3,188.9,398.3,214.2z"/>
	<path class="st1" d="M637.7,140c14.9,3.1,28,6.1,40.9,11.9c-4.6,22.5-9.1,44.5-13.7,67.1c-12.2-1.5-23.5-2.9-36-4.4
		C631.9,189.8,634.7,165.5,637.7,140z"/>
	<path class="st0" d="M652.9,70.1c-18-3.2-35.4-5.6-54.2-6.5c2.7-16.5,8.3-31.2,13.2-47.5c21.4,2.5,41.9,7.7,63.3,15
		C668.8,45.4,660.3,57.4,652.9,70.1z"/>
	<path class="st1" d="M457.1,613.4c-0.9-8.7-0.6-16.5,1.2-25.6c33.9,1.7,67.7,1.8,102,0.3c1.5,8,3.7,15.9,2.5,25.2
		C527.6,617.8,492.5,617.2,457.1,613.4z"/>
	<path class="st0" d="M538.5,61.8c-21.8,0-41.9,0-62.5,0c-3.6-17.3-4.8-34.5-6.8-51.7c5.5-3,10.5-1.9,15.6-1.4
		c3.3,6.8-0.3,14.1,2.8,21.3c12.5,0,25.2,0,38.1,0c4.3-6.3,0.2-13.7,3-20.7c4.7-2,9.7-1.2,15.5-0.1
		C542.2,26.7,540.4,43.8,538.5,61.8z"/>
	<path class="st2" d="M276.3,54.9c9.8,11.5,18.9,22.3,28.4,33.6c-19.6,8.8-38,17.7-55.2,29.9c-10.2-8.1-19.9-15.7-30.5-24
		C236.6,78.5,255.4,66.5,276.3,54.9z"/>
	<path class="st0" d="M469.1,62.2c-15.2,0-29.7,0-45.8,0c-6.1-14-9.4-30.6-14.9-47.6c17.7-5.1,35.4-3.7,53.5-6.2
		C466,25.9,466.7,43.5,469.1,62.2z"/>
	<path class="st0" d="M544.8,61.6c2.1-17.5,4.1-34,6.2-51.3c18.2-1.4,35.5,1.2,53.7,4.4c-2.9,16.1-8.7,30.9-13.1,46.8
		C576.6,61.6,561.5,61.6,544.8,61.6z"/>
	<path class="st2" d="M793.7,95.6c-9.1,7.1-17.2,13.4-25.5,19.9c-18.2-11.2-36.4-21.1-57.2-29c8.6-10.1,16.6-19.5,25.1-29.5
		C756.8,67.2,774.8,80.3,793.7,95.6z"/>
	<path class="st0" d="M256.6,217.6c9.3-16.6,19.7-29.6,34.8-40.2c16.5,14.7,31.2,31.1,46,47c0,3.8-1.3,6.6-4.3,9.5
		C308.7,228.7,283.7,223.3,256.6,217.6z"/>
	<path class="st0" d="M355.6,72.7c-15.7,4.6-29.6,8.7-44.7,13.2c-9.1-10.6-18.4-21.6-28.7-33.7c16.1-8.7,31.6-15.5,48.9-20.1
		C339.2,45.6,347,58.6,355.6,72.7z"/>
	<path class="st0" d="M525.8,758.6c-9.8,0-19.8,0-30.5,0c0-22.8,0-45.1,0-68c9.8-1.5,19.3-0.8,30.5-0.3
		C525.8,712.9,525.8,735.1,525.8,758.6z"/>
	<path class="st1" d="M355.9,217.7c-4.1,3.2-7.5,3.5-8.8,1.2c-16.4-14.8-32.7-29.6-49.8-45c14.2-9.9,28.6-16.4,45-22.4
		C346.9,174,351.4,195.8,355.9,217.7z"/>
	<path class="st0" d="M734,180.7c12.9,9.9,22.3,22.4,31.1,38c-26.1,5.6-50.8,10.8-74.7,15.9c-4.1-3.5-4.6-6.6-2-9.2
		C703.3,210.6,718.4,195.9,734,180.7z"/>
	<path class="st0" d="M471.5,758.3c-9.8,0-18.4,0-27.4,0c0-23.7,0-46.6,0-70c10.2,0.8,18.8,1.4,28.7,2.2
		C473.3,712.8,474.1,735.1,471.5,758.3z"/>
	<path class="st2" d="M151.9,258.4c-5.5,18.9-8.3,37.4-11.4,56c-11,1.5-21.3-0.4-32.5-1.3c0.9-20.8,6.3-40.4,11.6-61.6
		C130.5,253.9,140.7,256,151.9,258.4z"/>
	<path class="st2" d="M214.5,98.7c9.6,7.6,18.7,14.8,29.5,23.4c-14.5,10.9-26.8,22.8-39.3,35.6c-9.9-5.4-19.5-10.7-29.8-16.3
		C186.9,125.4,199.2,111.3,214.5,98.7z"/>
	<path class="st0" d="M681.8,33.8c17.3,4.5,32.2,11.5,48,19.7c-7.8,11.2-16.1,20.7-25.3,29.9c-14.6-4-28.9-7.9-44.9-12.3
		C666.9,59,674,47,681.8,33.8z"/>
	<path class="st0" d="M549.6,690.2c9,0,16.9,0,25.6,0c3.9,22.5,2.3,44.8,3,67.5c-10,1.6-18.9,1.7-28.7,0.8
		C549.6,735.9,549.6,713.5,549.6,690.2z"/>
	<path class="st1" d="M685,153.8c15.6,5.9,29.3,12.6,42.2,22.2c-16.1,15.3-31.4,29.8-46.8,44.3c-1.7,2.8-4.7,1.2-8.6-0.9
		C675,197.7,679.8,176.3,685,153.8z"/>
	<path class="st0" d="M632.7,749.1c-10.5,3.3-19.4,3.8-29.1,4.9c-1.3-21.9-3.3-43.3-2.5-65.3c9-4,18-3.2,28.3-2.5
		C630.5,707.6,631.6,728.2,632.7,749.1z"/>
	<path class="st2" d="M138.4,374.6c-10.8,1.2-20.6,2.4-31.2,3.6c-1.1-19.8-1.6-38.7-0.5-58.3c11.5,0.6,21.8,1.1,31.7,1.6
		C138.4,339.4,138.4,356.6,138.4,374.6z"/>
	<path class="st0" d="M421.3,686c-2.2,22.2-2,43.5-2.5,65.7c-10.7,0-20.2-1.8-30.1-5.3c2-20.5,0.6-40.9,4.4-62.1
		C401.6,684.9,410.4,685.4,421.3,686z"/>
	<path class="st2" d="M171.3,146.7c9.7,5.3,19.1,10.3,29.5,16c-10.2,13.2-19,26.3-27.1,41c-10.1-3.8-19.7-7.5-30.2-11.5
		C151.5,175.6,160.2,160.9,171.3,146.7z"/>
	<path class="st2" d="M147,431.6c-10.2,2.8-19.5,5.3-29.2,7.9c-5.5-18.3-8.6-35.8-9.9-54.1c10-3.1,19.7-2.9,30.3-4.3
		C140.4,397.7,142.4,414.2,147,431.6z"/>
	<path class="st2" d="M838.2,141.9c-8.4,4.7-15.6,8.7-23.5,13.1c-12.7-12.5-25.7-24.3-40.4-35.2c7.3-7.7,15.4-13.4,24-19.8
		C812.8,112.2,825.3,126.1,838.2,141.9z"/>
	<path class="st1" d="M298.7,518.2c13.1-18.1,31.9-26,47.5-37.9c0.8,0.4,1.6,0.9,2.5,1.3c-2.2,19.7-4.4,39.3-6.8,60.8
		C325.6,536.3,312.5,527.8,298.7,518.2z"/>
	<path class="st2" d="M153.7,252.5c-11.2-2.5-20.9-4.7-31.7-7.1c4.9-16.8,11-32,18.5-47.6c10.4,4,20,7.6,30.2,11.5
		C164,223.7,158.5,237.5,153.7,252.5z"/>
	<path class="st2" d="M884.9,321.8c9.2-2,17.1-1.9,25.9-1.8c4.5,19.1,4,38.3,3.2,58.1c-9.3,0.8-17.6-0.9-26.9-2.7
		C887.1,357.7,887,340.2,884.9,321.8z"/>
	<path class="st2" d="M910.6,313.1c-9.3,0.6-17.1,1.1-25.8,1.6c-3.7-19.4-6.5-38.3-12.4-56.8c6.6-4.8,14.4-4.7,22.4-6.7
		C902.3,271,905,291.7,910.6,313.1z"/>
	<path class="st2" d="M903.7,441c-9.6-1.2-17.7-3.9-26.2-7.1c4.3-16.9,7.1-33.6,8.8-50.7c8.9-1.3,16.8,1.8,26.3,2
		C912.6,404.2,908.7,422.2,903.7,441z"/>
	<path class="st0" d="M657.2,744c-1.4-20.3-2.8-39.5-4.1-58.8c7.8-4.5,15.8-3.5,23.9-4.1c4,18.6,2.7,36.9,5.5,54.8
		C674.7,740,667,741.7,657.2,744z"/>
	<path class="st1" d="M725.5,514.5c-12.3,10.7-25.2,17.8-40,24.8c-2.4-20.1-4.7-39-7.3-60.5C695.8,490.5,712.5,498.8,725.5,514.5z"
		/>
	<path class="st0" d="M364.3,740.1c-9.2-1.8-16.5-3.6-24.3-7.6c-0.1-17.3,1.9-34.7,4-52.2c8-2.3,14.9,0.4,22.7,1.8
		C368.6,701.2,364.9,720,364.3,740.1z"/>
	<path class="st2" d="M870.3,192c-7.7,3.1-14.6,5.9-22.2,9c-9-14.5-18.3-28-29.5-41.3c8.5-4.6,15.7-8.5,23.2-12.5
		C852.9,161.3,861.9,175.8,870.3,192z"/>
	<path class="st0" d="M804.8,488.2c-9.2-5.1-17.5-9.8-26.4-14.8c7.2-12.2,14.1-23.6,21-35.4c9.7,2.4,16.9,8.2,25.4,12.7
		C819.9,464,813.5,475.7,804.8,488.2z"/>
	<path class="st0" d="M220.6,488.5c-8.3-12.7-15.4-23.9-19.6-37.1c8-5.5,15.7-9.9,24.8-13.5c7.1,11.9,13.9,23.3,21.4,36
		C238.3,478.8,230,483.3,220.6,488.5z"/>
	<path class="st0" d="M515.9,88.6c-1.2-7-1.3-12.8,0.1-19.3c20,0,40,0,60.4,0c2.6,6.6-0.8,12.7-1.2,19.3
		C555.3,88.6,536,88.6,515.9,88.6z"/>
	<path class="st0" d="M801,494.1c-7.4,13-16.6,23.1-27,33.6c-7.7-6.8-14.9-13.1-22.4-19.7c7.7-10,15-19.6,22.9-29.9
		C783.2,483.5,791.7,488.5,801,494.1z"/>
	<path class="st0" d="M728.3,672.9c3.1,14.2,4.4,27.8,4.7,42c-6.9,5.4-14.7,8.4-24.2,11.4c-2-16.9-3.9-32.5-5.8-48.3
		C711.3,674.3,718.9,673.1,728.3,672.9z"/>
	<path class="st0" d="M451.2,89c-0.9-7-3.3-12.9-1.5-19.8c19.4,0,38.7,0,58.4,0c1.1,6.3,1.1,12-0.2,18.9
		C489.1,90.2,470.3,89,451.2,89z"/>
	<path class="st0" d="M333.8,460.2c-18.8,13.1-40.4,22.3-56.3,39.7c-8.6-7.1-14.5-14.9-19.7-25.2c25.5-6.2,50.1-12.2,74.7-18.2
		C332.9,457.7,333.3,458.9,333.8,460.2z"/>
	<path class="st2" d="M869.8,250.4c-5.3-15.5-11.6-29.2-18.7-43.8c7.4-3,14.3-5.7,22.1-8.8c8.1,15,14.3,30.1,19.4,46.2
		C885.4,248.3,877.7,248.1,869.8,250.4z"/>
	<path class="st2" d="M160.9,472.6c-9.5,3.8-18,7.1-27.4,10.9c-5.7-12.1-10.3-23.9-13.7-36.8c8.8-4.8,18.4-5.8,28.4-8.9
		C152.4,449.3,156.3,460.2,160.9,472.6z"/>
	<path class="st2" d="M901.6,447.8c-3,13.5-8.2,25.5-13.5,38.6c-8.8-3.5-17-6.7-25.7-10.2c4.5-11.9,8.8-23.1,13.2-34.9
		C884.5,441.5,892.6,445.5,901.6,447.8z"/>
	<path class="st0" d="M311.9,722.4c-9.1-4.4-16.4-8-24-11.7c1.5-13.5,2.9-26.1,4.4-39.1c9.3-1.8,17.1,2.2,25.8,2.9
		C316.3,690.8,316,705.9,311.9,722.4z"/>
	<path class="st0" d="M186.5,401.7c8.7-3.7,16.6-5.5,25.5-5c3.7,11.4,7.3,22.4,11,33.9c-7.1,6.5-16.2,8.9-24.3,14.6
		C191.5,430.8,188.4,416.6,186.5,401.7z"/>
	<path class="st2" d="M854.8,528.4c-11.1,17.5-23.7,33-37.8,48.4c-4.1-7.4-6.5-14.4-8.4-21.5c9.9-12.3,19.7-24.3,29.4-36.3
		C844.4,520.8,849,524.9,854.8,528.4z"/>
	<path class="st0" d="M827.6,443.3c-9.5-2.6-16.9-7.8-25.2-11.9c3.7-11.6,7.2-22.7,10.9-34.3c8.8-1.6,16.8,1.7,25.9,3.7
		C837.6,415.9,833.6,429.6,827.6,443.3z"/>
	<path class="st2" d="M833.9,512.7c-8.5,12.6-16.9,24.2-28.2,35.2c-4.3-11.6-8.2-22.2-12.4-33.3c4.3-5.7,8.6-11.4,13.2-17.5
		C816.2,501.6,825.1,506.5,833.9,512.7z"/>
	<path class="st1" d="M705.2,579c-5.1-9.1-9.8-17.6-15-27c8.5-5.3,16.7-10.3,25.1-15.5c9,6,14,15.4,21.9,23.1
		C728.7,569.5,717.7,574.1,705.2,579z"/>
	<path class="st1" d="M283.7,557.6c8.1-9.1,14.9-16.8,22.2-25c8.2,5.2,15.9,10.2,24.7,15.8c-5.4,10-10.4,19.2-15.8,29.2
		C302.7,573.4,294.5,565,283.7,557.6z"/>
	<path class="st2" d="M191.5,512.7c9.5-5.6,17.8-10.6,26.6-15.8c5.8,4.9,9.2,11.4,14,17.4c-2.9,11.2-6.8,22.1-12,33.6
		C208.9,537.3,200.2,525.9,191.5,512.7z"/>
	<path class="st0" d="M271.2,503.8c-6.9,7.5-13.4,14.6-22.7,19.7c-10-7.9-17.2-17.8-23.6-28.9c8.2-6.3,17-10.3,26.7-15
		C258,487.5,264.4,495.5,271.2,503.8z"/>
	<path class="st0" d="M183,345.8c1.2-16.3,1.9-31.4,6.5-46.7c7.3,1.1,14.1,1.1,20.6,4.6c0.7,14-3.5,27.5-2.2,41.7
		C199.4,347.2,192,346.5,183,345.8z"/>
	<path class="st2" d="M209.7,577.6c-15.8-16.2-28.3-33-39.5-51c4-4.5,8.9-6.3,13.9-9.2c10.5,13.8,20.9,27.7,33.1,40.9
		C214.8,564.6,212.4,570.6,209.7,577.6z"/>
	<path class="st1" d="M253.2,529.2c7.6-6.8,14.7-13.2,22.5-20.2c8.3,6.7,16.2,13.1,24.6,19.8c-6,9.3-13.7,16.1-21.3,24
		C269.4,545.7,260.4,539,253.2,529.2z"/>
	<path class="st0" d="M441.7,69.1c3,6.7,2.3,12.8,1.7,19.5c-16.7,1.5-33.1,3-50,4.6c-2.5-6-3.9-12.1-2.7-19.6
		C407.7,70.7,424.6,68.8,441.7,69.1z"/>
	<path class="st0" d="M814,304.4c7.9-4,14.9-3.5,22.1-5.9c3.1,16.1,6.4,31.1,5.1,47.1c-7.8,1.3-14.8,1.5-22.1,0.1
		C815.1,332,817.7,317.9,814,304.4z"/>
	<path class="st1" d="M742.8,556c-8-7.5-14.7-14.9-20.7-23.7c8.2-6.4,16-12.6,24.1-19c9.4,4.1,15.1,12,22.5,18.8
		C761.6,541.8,752.6,548.7,742.8,556z"/>
	<path class="st0" d="M634.7,73.6c2.8,7.4-0.8,13-1,19.6c-17.2-1.6-33.7-3-50.8-4.6c-0.9-6.3-0.7-12.4,0.5-19.4
		C601.1,68.5,617.9,71.7,634.7,73.6z"/>
	<path class="st0" d="M764.1,473.2c-4.9,8.9-9.6,16.4-17.4,23.2c-16.8-16.5-38.5-25.3-56.5-41C714.6,461.3,738.9,467.1,764.1,473.2z
		"/>
	<path class="st1" d="M375.7,597.9c-11.9-1.8-22.9-5.5-34.7-9.9c1.5-10.5,5-19.5,10.1-29c10.2,4,19.8,7.7,29.9,11.7
		C381,580,378.5,588.5,375.7,597.9z"/>
	<path class="st0" d="M495.2,648.6c10.3,0,19.5,0,29.7,0c0,10.6,0,20.8,0,32.3c-9.5,0.7-19.2,0.8-29.7-0.2
		C495.2,670,495.2,659.9,495.2,648.6z"/>
	<path class="st0" d="M842.1,353.2c2.8,14-0.4,26.9-1.4,40.6c-9.1-0.4-17.2-3-26.5-5.1c3.3-11.8,1-23.8,4.8-35.5
		C826.7,353.2,833.9,353.2,842.1,353.2z"/>
	<path class="st2" d="M276.9,108.6c3.5,6.1,6.3,11.1,9.5,16.8c-14.3,7.9-27.2,16.5-40,26.2c-4.2-3.9-8-7.3-13.4-12.3
		C246,126.8,260.4,117.5,276.9,108.6z"/>
	<path class="st0" d="M341.3,103.8c-3.5-5.8-6.1-11.6-5.7-19.2c15.4-4.2,30.6-8.1,46.7-10c2.8,6.6,4.1,12.8,2.7,19.6
		C370.4,97.4,356,100.6,341.3,103.8z"/>
	<path class="st0" d="M183,353.5c8.6-1.2,15.8-1,23.9-0.2c1.2,11.7,2.3,23.2,3.6,35.7c-8.2,1.8-15.9,3.5-24.7,5.4
		C181.2,381.1,183.4,367.7,183,353.5z"/>
	<path class="st0" d="M336.3,605.3c2.3,7.7-1.1,13.9-1.2,21.4c-14.7,0-28.1-4.4-42.5-6.7c-0.6-7.5,1.3-14.3,2.4-22.7
		C309.3,600,323,602.7,336.3,605.3z"/>
	<path class="st0" d="M210,639.2c1.8-10.2,4.6-19.3,9.4-28.5c8.9,1.5,17.4,3.9,26.2,7.3c-0.2,10.4-2.7,20-5.5,30.4
		C229.4,646.8,219.8,643.4,210,639.2z"/>
	<path class="st1" d="M678.7,587.7c-10.7,5.7-22.4,7.2-33.9,10.4c-5.2-7.5-5-15.8-6.5-24.6c10.3-3.9,20.1-7.7,30.3-11.5
		C673.8,570.1,676.9,578.3,678.7,587.7z"/>
	<path class="st0" d="M814.8,639.9c-10.3,4.4-20.2,7.2-31.2,9.7c-3.3-9.3-4.5-18.8-5.3-29.4c9.2-2.7,18-5.3,27.6-8.1
		C810.3,621.3,813.1,630.2,814.8,639.9z"/>
	<path class="st2" d="M183.3,237.6c-5.6-2-10.1-3.5-15.3-5.3c5.9-17.5,14.6-32.6,24.5-47.8c5.7,1.3,9.1,6.1,14.6,8.8
		C198.3,207.6,189.9,221.4,183.3,237.6z"/>
	<path class="st0" d="M691.1,86.8c-1.9,6.3-2,12.3-6.4,17.2c-14.2-3-28.1-7.3-42.9-8.9c-1.9-6.9-0.9-13,1-19.9
		C659.6,77.7,675.2,81.5,691.1,86.8z"/>
	<path class="st0" d="M289.5,595.7c-2.8,7.9-0.8,15.2-4.9,22.1c-12.9-1.6-25.4-5.2-38.4-8.7c0.4-7.6,2.9-14.4,5.3-22.5
		C263.9,589.5,275.9,592.4,289.5,595.7z"/>
	<path class="st0" d="M777.5,609.2c-15.5,3.8-28.9,8-43.4,9.7c-2.1-6.8-4-12.9-3-20c13.3-3.5,26.3-7,40.1-10.7
		C773.4,595.5,775.2,601.7,777.5,609.2z"/>
	<path class="st0" d="M599.1,649c8.3-5.1,17.2-1.5,25.8-5.9c4.6,11.3,2.8,21.9,3.4,32.7c-9.2,3.1-17.9,4.3-27.8,2.6
		C598.5,668.6,599.1,658.6,599.1,649z"/>
	<path class="st2" d="M167.5,469.8c3.6-4.4,8-5.6,12.6-7.5c4.7,8.7,9.4,17.4,13.9,25.9c5.9-0.3,9.2-4.6,13.8-5.7
		c3.8,1.4,4.9,4.6,6.4,8.9c-8.4,5.1-16.8,10.2-26.3,16C179.6,495.3,173.3,482.5,167.5,469.8z"/>
	<path class="st2" d="M859.7,295.1c5.1-1.7,9.3-3.5,14.6-2.1c4,16.7,5,33.9,6.3,51c-5.1,2.9-9.8,1.9-15.3,0.9
		C863.5,328.6,861.6,312.2,859.7,295.1z"/>
	<path class="st0" d="M394.6,644c9.6-0.6,18.2-0.8,27.9,1.1c-0.5,10.4-1.1,20.6-1.6,31.4c-9.8,0.6-18.9,1.8-28.1-2.1
		C393.4,664.4,394,654.8,394.6,644z"/>
	<path class="st0" d="M385.6,613.2c0.2,7.1,0.8,13-1.9,19.5c-13.6,0.9-26.9-3.2-40.8-4.2c-2.2-7.7,0.2-14.5,2-21.9
		C358.5,608.8,371.7,610.9,385.6,613.2z"/>
	<path class="st2" d="M160.5,344.7c-5.2,1.7-9.6,1.5-14.8,0.3c-1.3-17.6,2.1-34.7,4.8-52c5.6-1.7,10,0.6,15.8,1.6
		C163.4,311.5,161.7,328.2,160.5,344.7z"/>
	<path class="st2" d="M149,408.6c5.2-1.2,9.2-2.1,14.4-3.4c3.7,17.2,8.2,33.7,14,49.5c-3.5,4.3-7.9,5.3-12.8,7.3
		C157.1,445.1,152.1,427.7,149,408.6z"/>
	<path class="st2" d="M861.6,405.8c5.9,0.2,10.2,1,14.7,3.3c-2.5,18.3-8.3,35.5-15.2,53.4c-4.9-2.6-8.7-4.6-13.2-7
		C853.4,439.1,858.7,423.1,861.6,405.8z"/>
	<path class="st0" d="M549.3,648.7c8.4,0,16.2,0,25.1,0c2.5,10.2,1.1,20.5,1.6,31.6c-8.9,1.9-17.4,1-26.7,0.5
		C549.3,670.3,549.3,660.2,549.3,648.7z"/>
	<path class="st0" d="M446,648.4c9.8,0,17.9,0,26.6,0c2,10.8,0.7,21,0.6,31.6c-9.4,2.9-18-0.3-27.1-0.6
		C446,669.1,446,659.3,446,648.4z"/>
	<path class="st0" d="M296.7,629.5c9.8,1.9,17.5,3.3,25.7,4.9c1.4,11.1-2.4,21.1-2.4,32.2c-9.7-1.2-17.5-2-25.5-4.7
		C292.3,651.2,296.3,641.1,296.7,629.5z"/>
	<path class="st0" d="M222,260.1c-3.5,12.2-6.9,24.1-10.4,36.5c-7.1-2.2-13.9-1.2-20.6-5c1.9-13.6,6.6-26,11.6-38.8
		C209.9,254.4,215.9,256.8,222,260.1z"/>
	<path class="st0" d="M834.9,293c-8.1,1.4-14.2,2.4-21.2,3.6c-3.3-12.1-6.6-23.9-9.9-35.7c5.2-4.4,11.6-5.1,17.8-8.1
		C829,265.1,832,278.5,834.9,293z"/>
	<path class="st2" d="M790.8,141.5c-4.2,3.9-7.4,6.9-11,10.3c-12.6-9.6-25.5-18.1-39.2-25.8c1-5.8,4.3-9.6,7.7-14.2
		C763.7,119.7,777.1,129.8,790.8,141.5z"/>
	<path class="st2" d="M152.1,285.2c3-16.8,7.4-31.6,13.2-46.5c5.4,0.3,9.8,2.8,14.9,4.7c-4.3,14.7-8.5,28.9-12.9,43.6
		C162.5,289.1,158,285.7,152.1,285.2z"/>
	<path class="st0" d="M227.9,208.5c5.9,3.2,10.9,6,15.2,10.8c-7.2,10.7-12.9,22-18.1,33.6c-7-0.8-12.5-3.6-19.1-6.2
		C210.9,232.4,218.4,220,227.9,208.5z"/>
	<path class="st0" d="M782.8,218.7c5.2-3.6,9.8-6.7,15.2-10.4c8.8,11.8,16,23.7,21.4,37.1c-5.4,5.4-12.1,5.9-17.9,8.6
		C795.3,242.3,789.3,231,782.8,218.7z"/>
	<path class="st0" d="M753.5,667.6c8.1-4.5,16.3-4.2,24.1-6.9c3.5,9,5,17.7,5.4,27c-7.4,4.7-14,10.3-23,13.2
		C755.5,689.8,755.9,678.4,753.5,667.6z"/>
	<path class="st2" d="M241.5,155.5c-11.3,10.9-21.3,20.9-30,32.3c-5.7-2-9.9-5.4-14.3-9.5c8.5-13,19.1-23.8,30.4-34.5
		C233.3,146.3,236.4,151.5,241.5,155.5z"/>
	<path class="st0" d="M699.5,636.2c8.8-1,16.3-4.3,24.7-2.4c4.1,8.9,0.7,18.6,4.8,28c-9,3.6-17.3,4.8-26.2,5.2
		C699.9,656.9,698.5,647.2,699.5,636.2z"/>
	<path class="st0" d="M368.5,672.3c-8.8,1.6-16-0.9-23.8-2.2c-1.5-10.8,2-20.8,1.7-32.2c8.3,0.9,15.7,1.7,23.6,2.6
		C372.6,651.3,369.2,661.3,368.5,672.3z"/>
	<path class="st2" d="M865,353.2c5.4-1.7,9.8-1.5,15.1-1c1.8,16.2,0.3,32.1-2.4,48.3c-5.3,1.2-9.7,0-14.6-2.5
		C864.6,383.5,865.5,368.7,865,353.2z"/>
	<path class="st0" d="M682.9,609c13.9-2.7,26.7-5.3,39.6-7.8c3.7,6.3,4.2,12.3,3.7,19.2c-13.3,3.6-26.2,6.3-40.3,6.8
		C684.9,621.1,684,615.7,682.9,609z"/>
	<path class="st2" d="M856.1,232c-4.6,3.1-8.4,4.3-13.5,5.3c-6.8-14.4-14-28.9-23.2-42.3c2.1-4.6,6.6-6,11.3-9.2
		C840.9,200.2,849.3,215.3,856.1,232z"/>
	<path class="st0" d="M434.8,636.2c-1.4-6.3-1.3-11.1-0.1-17.5c14.6,1,29.2,1.9,43.8,2.9c3.9,4.8,3.2,9.8,2.5,15.9
		C465.4,637.8,450.3,638.2,434.8,636.2z"/>
	<path class="st1" d="M451.7,585.9c-0.8,9.2-1.5,16.9-2.3,25.7c-10.3,0.5-19.5-1.7-28.8-3.5c-3.1-8.9,1.9-16.5,1.1-24.8
		C432.6,581.9,441.6,585.9,451.7,585.9z"/>
	<path class="st0" d="M637.4,633.1c-1.9-5.5-3.3-10.4-1.9-17.1c13.3-1.8,26.8-3.7,39.8-5.5c4.3,5.8,2,11.8,5.3,17.8
		C665.5,630.7,651.8,633.6,637.4,633.1z"/>
	<path class="st2" d="M845.1,244.4c5-2.6,8.8-4.7,13.9-5.1c6.6,14.5,10.4,29.8,13.9,46c-5.2,1.1-9.5,1.9-14.3,2.9
		C853.7,273.6,851.2,258.9,845.1,244.4z"/>
	<path class="st0" d="M674.5,639.7c2.5,10.8,1.4,20.8,2.2,30.8c-7.7,3.9-15.5,1.8-23.7,4.3c-2.9-11-1.4-21.3-2.4-32.2
		C659,641.6,666.4,640.7,674.5,639.7z"/>
	<path class="st1" d="M383.7,600.8c-0.8-10,1.6-18.1,5.1-26.3c9.3-0.1,17,4.1,25.5,5.9c2.1,8.8,0,16.7-2.1,25.1
		C402.2,606.5,393.7,601.8,383.7,600.8z"/>
	<path class="st1" d="M631.1,576.4c2.8,7.9,5.2,15.4,5.2,23.8c-9.8,3.1-19.3,5.5-30,5.9c-1.1-8.2-2-15.7-3.1-23.7
		C612.7,580.1,621.4,577,631.1,576.4z"/>
	<path class="st1" d="M596,583.1c3.8,8.5,2.7,16.1,3.1,24.5c-9.2,3.1-18.4,3.6-27.9,4.6c-2.6-8.1-3.9-15.8-3.2-24.1
		C576.9,583.9,586.5,585.8,596,583.1z"/>
	<path class="st0" d="M776.9,651c-8.4,3.5-15.7,5-23.9,5.7c-4.3-9-3.6-18.7-5.8-28.1c7.9-4.3,15.7-4.7,24.1-6.3
		C773.2,632.2,775,641.2,776.9,651z"/>
	<path class="st0" d="M268.1,665c-1.7,10.9-3.3,20.7-4.9,31.1c-9.7-2.7-16.3-8.7-23.6-12.9c-0.6-8.7,1.9-15.9,3.6-24
		C251.7,659.7,259.3,662.5,268.1,665z"/>
	<path class="st2" d="M877.5,489.5c-5.1,11.6-11.1,21.6-18.2,31.4c-6.3-1.7-11.1-5.4-16.9-9.2c5.6-9.9,11-19.4,16.6-29.3
		C865.6,483.6,871.1,486.1,877.5,489.5z"/>
	<path class="st2" d="M160.3,352.8c-0.7,15.6,0.7,30.4,2,45c-4.5,3.2-8.9,3.5-14.4,3.4c-3.8-15.9-2.9-32.1-3-48.3
		C150.2,351.6,154.5,352,160.3,352.8z"/>
	<path class="st0" d="M252.7,619.2c7.6,1.9,14.3,3.5,21.7,5.3c-1.6,10.8-3.1,20.9-4.7,32c-7.5-1.8-14.1-3.5-21.5-5.3
		C246.8,640.4,250.7,630.7,252.7,619.2z"/>
	<path class="st2" d="M784.5,155.9c4-3.6,7.3-6.6,11-9.9c12.1,10.2,21.9,21.6,31,34c-3.4,3.9-7,6.4-12,8.1
		C805.4,176.7,795.8,166,784.5,155.9z"/>
	<path class="st2" d="M838.2,506.1c-5.4-0.9-9.1-3.8-13.1-6.9c6.8-12.4,14.5-23.9,19.4-37.1c5.8,0.2,9,4.1,13.8,5.7
		C853.1,482.1,845.9,494.2,838.2,506.1z"/>
	<path class="st0" d="M231.6,202.4c9.1-11.3,18.4-20.3,28.3-28.9c5.2,3.1,8.4,7,12.1,11.5c-8.5,9.5-16.7,18.7-25.3,28.3
		C241.7,209.8,237.3,206.6,231.6,202.4z"/>
	<path class="st0" d="M765.6,174.9c11.5,7.1,19.2,17.6,28.3,28c-5,3.8-9.3,7-14.3,10.7c-8.7-9.2-17-18.2-25.7-27.5
		C756.6,181.2,760.4,177.6,765.6,174.9z"/>
	<path class="st0" d="M626.8,616.6c2.8,6.1,4,11,2.1,17.4c-13.1,2.7-26.9,0.8-40.4,2.3c-2.9-5-2.3-9.7-1.4-14.7
		C600,617,613.6,620.3,626.8,616.6z"/>
	<path class="st0" d="M426,617.8c2.5,5.9,1,11.1,1.6,17.7c-13-0.3-25.1,1.1-37.2-2.4c-0.9-6.6-0.9-12.3,2.4-18.2
		C404.1,613.6,415.1,617,426,617.8z"/>
	<path class="st2" d="M163.4,480.1c5.9,10.8,11.2,20.5,16.6,30.3c-4,4.1-8.7,6.7-14.3,8.4c-7.1-9.5-11.8-20.3-17.4-30.9
		C152.2,483.5,157.9,483.2,163.4,480.1z"/>
	<path class="st1" d="M444.7,114.6c1.5,4.8,2,8.1,0,12c-15.5,1.7-31.2,3.4-46.8,5c-2.3-4.2-2.6-7.9-2.5-12.7
		C411.5,115.5,427.8,114.1,444.7,114.6z"/>
	<path class="st0" d="M790.3,682.5c-4.3-8-3.4-15.4-6.1-23.3c11.5-3.5,22.2-6.7,32.1-9.6c4.1,3.5,4.5,6.9,4.2,11.2
		C811.5,668.4,802.1,676.1,790.3,682.5z"/>
	<path class="st1" d="M630.2,119.3c0.4,4.4,0.7,7.5-1.2,11.8c-15.5-1.6-31.4-3.3-47.2-5c-2.4-3.5-1.1-6.8-0.9-11.3
		C597.9,113.9,614.3,115.2,630.2,119.3z"/>
	<path class="st0" d="M579.4,621.2c1,5.9,1.6,10.3,0.1,15.7c-13.1,0-26.3,0-39.6,0c-2.1-4.2-1.4-8.2-0.5-13.5
		C552.4,623,565.4,620.2,579.4,621.2z"/>
	<path class="st1" d="M299.2,147.6c2.8,5.1,4.9,8.9,7.4,13.5c-9.6,6.5-18.9,12.8-28.1,18.9c-5.6-2.3-8.5-6.6-12.6-10.6
		C275.9,160.2,287.1,154.4,299.2,147.6z"/>
	<path class="st1" d="M343.8,131c1.6,5.2,2.7,8.4,3.9,12.4c-11.7,4.9-23.2,9.7-35.1,14.7c-3.5-3.5-5.5-7.7-6.8-13.4
		C317.9,138.6,329.8,133,343.8,131z"/>
	<path class="st1" d="M720.4,161.9c0.8-5,3.5-8.1,6-12.5c12.8,3.6,22.2,11.9,32.3,19.1c-1.5,6.5-6.2,8.4-10.1,12.4
		C738.9,174.4,729.6,168.1,720.4,161.9z"/>
	<path class="st1" d="M533.3,113.8c1,4.1,1.2,7.5-0.8,12.2c-12.6,1-25.8,0.7-38.5,0.1c-2.1-4.6-2.1-7.9-0.8-12.3
		C506.2,113.8,519.4,113.8,533.3,113.8z"/>
	<path class="st1" d="M684.6,131.1c12.8,3.6,24.2,8.1,35.2,13.9c0.2,5.4-2.3,8.8-6.8,12.5c-10.9-4.4-22.2-9-34-13.8
		C679.8,138.7,680.3,134.4,684.6,131.1z"/>
	<path class="st0" d="M202,657.8c-0.7-4.3,0.1-6.9,2.9-9.9c10.4,1,20.2,6.1,31.6,8.6c-1.2,7.2-0.5,14.1-4.7,21.2
		C221.1,672,211.5,664.9,202,657.8z"/>
	<path class="st1" d="M387.4,119.5c2.9,4.6,2.4,8.4,1.8,13.3c-11.2,2.9-22.7,5.8-34.5,8.8c-3.1-3.9-4.3-8-4.4-13.3
		C362.3,123.8,374.7,121.9,387.4,119.5z"/>
	<path class="st0" d="M698.5,694.3c1.6,11.3,3.1,22.1,4.6,32.9c-3.3,4.7-8.3,4.8-13.7,6.4c-4.6-11-1.1-22.8-4.5-33.6
		C688.3,695,693.1,694.9,698.5,694.3z"/>
	<path class="st1" d="M637.4,132.6c-1.1-4.3-1.2-7.7,1.2-11.9c12.7,0,24.8,4.4,37.3,7.4c-0.2,5.3-1.4,9.1-4.4,13.1
		C660.4,138.4,649.1,135.5,637.4,132.6z"/>
	<path class="st1" d="M451.8,113.7c12,0,22.5,0,32.9,0c1.8,4.3,1.6,7.9,0.2,12.4c-10.4,0-21,0-31.7,0
		C450.2,122.5,451.2,118.6,451.8,113.7z"/>
	<path class="st0" d="M636.5,709.6c4.3-1.2,7.3-2,11.7-3.1c0.9,13.3,3.6,25.6,2.6,38.1c-3.5,2.6-6.8,4.1-11.5,2.5
		C638.4,735,637.5,722.7,636.5,709.6z"/>
	<path class="st0" d="M243.6,584.8c0.7,7.6-1.8,14.2-4.6,21.1c-6.6,0.5-12.2-1.6-18-4.3c-0.8-7.8,3.8-14,4.1-21.6
		C232.1,580.4,237.9,581.9,243.6,584.8z"/>
	<path class="st0" d="M585,720c2.7-1.5,5.2-2.7,9.2-2.1c3.6,11.7,1.9,24,2.4,35.4c-3.9,3.5-7.2,3-11.6,2.2
		C585,743.9,585,732.3,585,720z"/>
	<path class="st2" d="M301.6,97c3.8,5.9,5.9,11.6,7.4,18.2c-5.6,2.5-10.6,4.7-16,7c-4.9-4.3-6.6-10.4-10.1-16.1
		C288.4,101.7,294.6,99.6,301.6,97z"/>
	<path class="st0" d="M322.4,696.1c5.6,1.1,9.3,1.8,12.5,4.7c1.7,9.3-1.2,18.3-1.8,28c-5.5,0.7-9.5-1.6-14-4.5
		C320.1,715.2,321.2,706.1,322.4,696.1z"/>
	<path class="st0" d="M801.7,601.6c-6.1,3.1-11.4,5.1-17.9,4.5c-3.4-6-5.2-12.4-4.9-19.7c4.9-3.1,10.1-4.5,15.8-5.3
		C799.1,587.2,799.3,594.2,801.7,601.6z"/>
	<path class="st1" d="M542.1,125.6c-2.2-4.8-2.1-8.1-0.3-12.4c10.2-0.6,20.7-0.7,31,0.2c1.9,4.5,1.7,8.1,0.2,12.2
		C562.7,125.6,552.5,125.6,542.1,125.6z"/>
	<path class="st0" d="M327.4,87.6c3.2,5.5,4.7,11.1,6.2,17.1c-4.9,5.1-11.5,5.4-17.5,7.3c-3.8-5.3-5.6-10.9-7.3-16.9
		C314,90.3,320.8,89.5,327.4,87.6z"/>
	<path class="st0" d="M748.3,679.4c3.3,8.2,3.3,16.6,5.1,24.6c-3.2,4.3-7.5,6.3-13,8.1c-2.2-9.6-3.7-18.9-3.3-28.5
		C739.6,680.1,743.2,679.2,748.3,679.4z"/>
	<path class="st0" d="M302.1,487c4.4,1.7,7.9,3.8,9.7,7.1c-6.2,6.3-12.2,12.5-18.5,18.9c-3.8-1.5-7.4-3.9-10.3-8.2
		C287.7,497,294.5,491.6,302.1,487z"/>
	<path class="st0" d="M436.7,753.6c-4.3,1.1-7.3,1.2-10.9-0.9c-1.6-9.9-0.1-20-0.2-29.7c4.5-2.6,7.5-0.8,11.5,1.1
		C438.1,733.6,437.7,743.4,436.7,753.6z"/>
	<path class="st0" d="M383.8,714.5c-0.5,10.2,0.3,19.6-1.5,28.6c-3.8,2.1-7,1.2-10.9-0.8c-0.6-10-0.9-20.2,1.8-30.5
		C377.9,710.5,380.8,712.7,383.8,714.5z"/>
	<path class="st2" d="M716.1,114.9c2.7-5.9,4.7-10.2,7-15.1c6.9,1.4,12.4,4.7,18.3,8c-1.1,5.8-4.4,9.7-7.7,14.7
		C728.1,120.1,722.5,117.7,716.1,114.9z"/>
	<path class="st0" d="M693,106.7c-0.5-6.9,2.8-11.4,4.4-17.1c7.3,1.3,13.4,2.9,18.7,7.4c-0.5,5.6-3,10-5.6,15.4
		C704.6,110.5,699.2,108.7,693,106.7z"/>
	<path class="st0" d="M285.3,680.9c-1.1,8.8-2.1,16.9-3.1,25.1c-5.6,0.3-9-2.8-13.1-5.5c1.2-7.6,1-15.5,4-22.8
		C277.7,676.3,280.8,678.7,285.3,680.9z"/>
	<path class="st0" d="M533.1,758.4c0-10.4,0-20.7,0-31.1c2.6-2.7,5.4-2.3,8.9-0.6c0,10.4,0,21,0,31.7
		C539.1,761.2,536.4,760.1,533.1,758.4z"/>
	<path class="st0" d="M716.7,492.1c0.7-1.4,3-3.8,6.7-5.4c8,2.2,12.7,8.6,18.2,14.6c-2.1,4.7-5.9,6.8-11,9.3
		C726.3,504.9,721.9,499.1,716.7,492.1z"/>
	<path class="st1" d="M334.2,584.6c-5.7,0.3-9-2.1-12.9-4.2c2-8.3,7.4-14.2,10.8-21.1c4.1-0.7,6.8,1.2,9.9,4.3
		C339.4,570.3,336.9,577.2,334.2,584.6z"/>
	<path class="st0" d="M337.2,668c-4.2,1.6-7.4,0.8-11.6-0.4c1-8.3,1.9-16.3,2.8-23.9c4.1-2.8,7.2-1.9,10.5,0.6
		C340.3,652,339.2,659.8,337.2,668z"/>
	<path class="st0" d="M377,649.4c4.4-1.7,7.3-1.1,10.2,1.4c0.8,7.6,0.8,15.3-0.8,22.6c-3.8,2.1-6.8,1.8-10.3,0.2
		C374.8,665.7,375.2,657.6,377,649.4z"/>
	<path class="st0" d="M438.8,677.1c-4.8,2.7-7.6,0.5-10.9-0.8c0.1-7.8-1.2-15.2,1.3-22.2c3.7-1.6,6.5-0.2,9.8,1
		C440.3,662.6,440.1,670.2,438.8,677.1z"/>
	<path class="st0" d="M682.7,647.2c2.8-2.8,5.7-3.2,9.2-2.4c2.6,7.3,3.5,14.7,3.1,22.4c-3,3-6.4,4-11,2.8
		C681.8,662.4,682.4,654.6,682.7,647.2z"/>
	<path class="st0" d="M280.5,634c3.3-0.8,5.9-0.6,8.5,1.4c1.4,8.3-1.1,16.2-2.3,24.1c-4.1,1.4-7.2,0.3-10.5-2.2
		C276.9,649.5,277.3,641.3,280.5,634z"/>
	<path class="st0" d="M633.3,653.1c3.9-3.4,7.2-2.7,11.1-1.9c0.6,7.6,1.2,14.8,1.9,22.2c-3,2.7-6.4,3.4-11,2.4
		C634.6,668.3,633.9,660.8,633.3,653.1z"/>
	<path class="st0" d="M733.7,659.8c-0.7-7.5-1.3-14.5-1.9-21.3c3-3.6,6.3-2.9,10.1-2.5c0.9,7.7,3.7,14.8,2.9,22.3
		C741.8,661,738.6,661.1,733.7,659.8z"/>
	<path class="st1" d="M685.9,584.9c-3.6-6.2-5.7-12.3-7.3-18.4c2.6-2.9,5.7-3.4,9-4.2c4.7,5,8,10.9,10.2,17.2
		C694.9,583.9,691.1,584.8,685.9,584.9z"/>
	<path class="st0" d="M582.8,680.1c0-7.3,0-14.8,0-22.6c2.2-2.3,5-2.9,9.4-2c0.6,7.8,1.2,15.8,1.7,23.4
		C590.1,681.9,586.8,681.6,582.8,680.1z"/>
	<path class="st0" d="M541.8,657.5c0,7.7,0,14.9,0,22c-2.7,2.6-5.6,2.1-9.2,0.5c0-6.9,0-14,0-21.6
		C534.6,655.6,537.7,656.6,541.8,657.5z"/>
	<path class="st0" d="M480.4,728.5c2.6-1.6,4.5-1.5,7.2-0.2c0,9.4,0,19.3,0,29c-2.3,2.1-4.4,2-7.2-0.2
		C480.4,748.1,480.4,738.5,480.4,728.5z"/>
	<path class="st0" d="M480.3,657.7c3.1-1.3,5-1.7,7.4,0.5c0,6.9,0,14.3,0,21.4c-2.4,2.2-4.6,2-7.4,0.4
		C480.3,672.8,480.3,665.4,480.3,657.7z"/>
</g>
<g id="stage">
	<g>
		<rect x="353.7" y="316.1" class="st3" width="36.4" height="53.4"/>
		<polygon class="st3" points="413.8,293.5 353.7,293.5 353.7,313.2 392.8,313.2 392.8,372 353.7,372 353.7,391.8 413.8,391.8 		"/>
		<polygon class="st3" points="609.1,391.8 669.3,391.8 669.3,372 631.2,372 631.2,313.2 669.3,313.2 669.3,293.5 609.1,293.5 		"/>
		<rect x="633.9" y="316.1" class="st3" width="35.6" height="53.4"/>
		<path class="st3" d="M416.4,319.9v45.5c12-0.7,21.9-10.6,21.9-22.8C438.3,330.4,429,320.8,416.4,319.9z"/>
		<path class="st3" d="M606.5,365.4v-45.5c-12,0.7-21.9,10.6-21.9,22.8C584.8,355,594.3,364.9,606.5,365.4z"/>
		<path class="st3" d="M514,302.7v80c21.3-1.2,38.7-18.6,38.7-40C552.6,321,535.3,303.8,514,302.7z"/>
		<path class="st3" d="M471.4,342.6c0,21.9,17.8,39.9,40,40.2v-80.2C489,302.9,471.4,320.8,471.4,342.6z"/>
		<path class="st3" d="M353.7,248.3v42.6h63v26.4c13.5,0.7,24.7,12,24.7,25.6c0,13.5-10.8,24.7-24.7,25.6v26.4h-63v42.6h315.7v-42.6
			h-63v-26.4c-13.5-0.7-24.7-12-24.7-25.6c0-13.5,10.8-24.7,24.7-25.6v-26.4h63v-42.6H353.7L353.7,248.3z M514,385.5v51h-2.7v-51
			c-23.7-0.5-42.8-19.5-42.8-43c0-23.4,19.1-42.6,42.8-43v-50.7h2.7v51c23.1,1.2,41.4,20.1,41.4,43
			C555.3,365.8,537.1,384.8,514,385.5z"/>
	</g>
</g>
</svg>
