<?xml version="1.0" encoding="utf-8"?>
<!-- Generator: Adobe Illustrator 21.1.0, SVG Export Plug-In . SVG Version: 6.00 Build 0)  -->
<svg version="1.1" id="Laag_1" xmlns="http://www.w3.org/2000/svg" xmlns:xlink="http://www.w3.org/1999/xlink" x="0px" y="0px"
	 viewBox="0 0 1024 768" style="enable-background:new 0 0 1024 768;" xml:space="preserve">
<style type="text/css">
	.st0{fill:#ACCA5A;}
	.st1{fill:#93B8D2;}
	.st2{fill:#B2B2B2;}
	.st3{fill:#85BB3E;}
</style>
<g>
	<path class="st0" d="M164.3,63.3c2.1-0.1,4.2-0.3,6.3-0.3c34.9,0,69.6,0,104.5,0c7.4,0,14.6-0.1,22-0.1c0.6,0,1.1,0,1.7,0
		c1,0,2.1,0.1,3.1,0.1c56,0,112,0,167.9,0c1,0,2.1-0.1,3.1-0.1c0.6,0,1.1,0,1.7,0c1.8,0,3.6,0.1,5.4,0.1c47.8,0,95.5,0,143.3,0
		c1.7,0,3.3-0.1,4.9-0.1c0.6,0,1.1,0,1.7,0c1.7,0,3.3,0.1,4.9,0.1c47.9,0,95.7,0,143.7,0c1.7,0,3.3-0.1,4.9-0.1c0.6,0,1.1,0,1.7,0
		c1.7,0,3.3,0.1,4.9,0.1c24.2,0,48.4,0,72.4,0c1.5,0,3.3-1,4.4,1c-2.6,4.4-5.1,9-7.9,13.3c-2.2,3.5-3.6,7.5-7.1,10.1
		c-1.1,0-2.1,0-3.2,0c-219.8,0-439.6,0-659.5,0c-0.8,0-1.8,0-2.6,0c-1.4,0-1.9,0.7-1.5,2.1c1.9,0.8,4,0.4,6.1,0.4
		c217.7,0,435.5,0,653.1,0c1.9,0,4.2-0.8,6,0.7c-0.6,1-1.1,1.8-1.7,2.8c-5.6,7.6-11.1,15.3-16.5,22.9c-1.7,0.8-3.5,0.4-5.3,0.4
		c-206.8,0-413.5,0-620.4,0c-1.7,0-3.3,0.6-4.9-0.4c-2.2-2.5-4.2-5.3-6.1-8.1"/>
	<path class="st1" d="M853.2,87.5c3.5-2.6,4.9-6.7,7.1-10.1c2.8-4.3,5.3-8.9,7.9-13.3c2.1-0.8,3.1-2.8,4.2-4.4
		c11.1-16.5,22.2-32.9,33.3-49.5c0.8,0.7,1.7,1.3,2.4,1.9c32.2,32.2,64.3,64.3,96.6,96.6c0.6,0.6,1,1.1,1.4,1.5
		c0.4,1.5-0.8,1.8-1.7,2.5c-20.8,13.8-41.8,27.5-62.5,41.4c-5.1,3.5-10.7,6.4-15.3,10.7c-0.4,0.1-0.8,0.1-1.3,0.3
		c-14.6-14.6-29.2-29-43.6-43.6c-10.1-10.1-20.1-20.3-30.2-30.4C852.1,89.7,852.7,88.6,853.2,87.5z"/>
	<path class="st1" d="M925.9,525.3c27.1,0,54.3,0,81.7,0c0,43.9,0,87.4,0,131c-0.4,0.8-1.5,0.3-2.4,0.4c-0.7-0.6-1.3-1.3-1.9-1.7
		c-23.1-15.3-46-30.6-69.1-45.7c-2.1-1.4-3.8-3.5-6.5-3.5c-0.4-0.3-1-0.6-1.4-1l0,0c-1-1.7-0.8-3.3-0.8-5.1c0-14.9,0-29.7,0-44.6
		C925.6,545.3,925.8,535.3,925.9,525.3z"/>
	<path class="st1" d="M831.7,650.5c-0.7-0.8-1.4-1.7-2.1-2.4c-0.8-3.6-3.6-6.1-5.6-9c-9.4-13.5-18.3-27.4-28.5-40.3
		c-0.8-1.5-1.3-2.9,0.3-4.4c15-14.9,30-29.9,45-44.9c1.8,1,3.3,1.8,4.9,2.8c0.7,0.6,1.3,1.3,1.9,1.7c23.5,15.6,47.1,31.1,70.6,46.7
		c1.3,0.8,3.1,1.4,3.3,2.4c-24.3,24.3-48.2,48.2-72.1,72.1C843.6,667.2,837.7,658.8,831.7,650.5z"/>
	<path class="st1" d="M833.5,116.5c5.6-7.6,11.1-15.3,16.5-22.9c1.3,1.1,2.5,2.1,3.8,3.2c21.8,21.7,43.5,43.5,65.3,65.2
		c1.3,1.3,2.2,2.8,4,3.5c0.1,1.1-0.6,1.9-1.3,2.6c-4.3,1.5-8.2,4.4-11.8,6.9c-10.4,7.6-21.5,14.5-32.2,21.8
		c-11.7,8.1-23.5,16-35.2,23.9c-1.3,0-1.8-0.8-2.5-1.7c-14-14-27.9-28.1-42-42.1c-1-1-2.4-1.9-2.2-3.6c4.9-5.7,8.6-12.1,12.6-18.2
		c7.6-11.5,15.7-22.6,22.6-34.6C832.5,119.4,833.8,118.3,833.5,116.5z"/>
	<path class="st0" d="M127.9,8.7c-0.1-0.7-1-1.5,0.3-1.8c1-0.3,2.1-0.1,3.1-0.1c53.4,0,106.7,0,159.9,0c1.3,0,2.4,0,4.2,0
		c0,18.1,0,36,0,53.8c-1.9,0-3.9,0.1-5.8,0.1c-37.9,0-75.9-0.3-113.8,0.3c-8.3,0.1-14.3-1.5-17.9-9.4c-1-2.2-2.8-4.2-4.3-6.3
		C145,33,136.5,20.9,127.9,8.7z"/>
	<path class="st1" d="M1007.2,237.1c0,1.5-1,1.9-2.4,1.9c-26,0-52,0-77.7,0c-1.4-1.5-1-3.1-1-4.6c0-21,0-42.1,0-63.1
		c0-1.8-0.4-3.6,1.1-5c1.7-1,3.3-1.8,5-2.9c18.8-12.5,37.5-25,56.3-37.4c5.7-3.8,11.4-7.5,17.1-11.3c1.4,2.2,1,4,1,5.8
		c0,37.1,0,74.2,0,111.3C1006.8,233.5,1006.3,235.4,1007.2,237.1z"/>
	<path class="st1" d="M958,707.3c-0.3,0.1-0.4,0.3-0.7,0.4c-0.4,0-0.8-0.1-1.3-0.1c-0.6-0.1-1-0.3-1.5-0.6v0.1
		c0-1.4-1.1-1.8-1.9-2.6c-0.3-0.4-0.4-0.8-0.7-1.1c-16-15.3-32.1-30.4-47.9-45.7c-5.3-5.1-10-11-15.1-16.7
		c11.1-11.1,22.9-22.9,34.7-34.9c1-1,2.1-1,3.2-1.3l0,0c0,0.3,0,0.7,0,1c26.1,17.9,52.5,35.4,79.1,52.8c-0.1,1.8-2.1,2.4-2.9,3.8
		c-0.3,0.3-0.6,0.6-0.8,0.8l0,0c-0.3,0.3-0.6,0.6-0.8,0.8l0,0c-0.3,0.3-0.6,0.6-0.8,0.8l0,0c-0.3,0.3-0.6,0.6-0.8,0.8l0,0
		c-0.3,0.3-0.6,0.6-0.8,0.8l0,0c-0.3,0.3-0.6,0.6-0.8,0.8l0,0c-0.3,0.3-0.6,0.6-0.8,0.8l0,0c-0.3,0.3-0.6,0.6-0.8,0.8l0,0
		c-0.3,0.3-0.6,0.6-0.8,0.8l0,0c-0.3,0.3-0.6,0.6-0.8,0.8l0,0c-0.3,0.3-0.6,0.6-0.8,0.8l0,0c-0.3,0.3-0.6,0.6-0.8,0.8l0,0
		c-0.3,0.3-0.6,0.6-0.8,0.8l0,0c-0.3,0.3-0.6,0.6-0.8,0.8l0,0c-0.3,0.3-0.6,0.6-0.8,0.8l0,0c-0.3,0.3-0.6,0.6-0.8,0.8l0,0
		c-0.3,0.3-0.6,0.6-0.8,0.8l0,0c-0.3,0.3-0.6,0.6-0.8,0.8l0,0c-0.3,0.3-0.6,0.6-0.8,0.8l0,0c-0.3,0.3-0.6,0.6-0.8,0.8l0,0
		c-0.3,0.3-0.6,0.6-0.8,0.8l0,0c-0.3,0.3-0.6,0.6-0.8,0.8l0,0c-0.3,0.3-0.6,0.6-0.8,0.8l0,0c-0.3,0.3-0.6,0.6-0.8,0.8l0,0
		c-0.3,0.3-0.6,0.6-0.8,0.8l0,0c-0.3,0.3-0.6,0.6-0.8,0.8l0,0c-0.3,0.3-0.6,0.6-0.8,0.8l0,0c-0.3,0.3-0.6,0.6-0.8,0.8l0,0
		c-0.3,0.3-0.6,0.6-0.8,0.8l0,0c-0.3,0.3-0.6,0.6-0.8,0.8l0,0c-0.3,0.3-0.6,0.6-0.8,0.8l0,0c-0.3,0.3-0.6,0.6-0.8,0.8l0,0
		c-0.3,0.3-0.6,0.6-0.8,0.8l0,0c-0.3,0.3-0.6,0.6-0.8,0.8l0,0c-0.3,0.3-0.6,0.6-0.8,0.8l0,0c-0.3,0.3-0.6,0.6-0.8,0.8l0,0
		c-0.3,0.3-0.6,0.6-0.8,0.8l0,0c-0.3,0.3-0.6,0.6-0.8,0.8l0,0c-0.3,0.3-0.6,0.6-0.8,0.8l0,0c-0.3,0.3-0.6,0.6-0.8,0.8l0,0
		c-0.3,0.3-0.6,0.6-0.8,0.8l0,0c-0.3,0.3-0.6,0.6-0.8,0.8l0,0c-0.3,0.3-0.6,0.6-0.8,0.8l0,0c-0.3,0.3-0.6,0.6-0.8,0.8l0,0
		c-0.3,0.3-0.6,0.6-0.8,0.8l0,0c-0.3,0.3-0.6,0.6-0.8,0.8l0,0c-0.3,0.3-0.6,0.6-0.8,0.8l0,0c-0.3,0.3-0.6,0.6-0.8,0.8l0,0
		c-0.3,0.3-0.6,0.6-0.8,0.8l0,0C958.5,706.8,958.3,707,958,707.3z"/>
	<path class="st0" d="M786.7,59.7c0-17.4,0-34.9,0-52c1.8-1.4,3.3-1,4.7-1c36,0,72,0,108,0c1.5,0,3.3-0.8,4.6,1
		c-0.7,0.8-1.4,1.5-1.9,2.5c-10.6,15.7-21.1,31.4-31.5,47.2c-1.7,2.5-3.3,3.3-6.1,3.3c-24.3-0.1-48.6,0-72.9,0
		C789.7,60.6,788.1,60.9,786.7,59.7z"/>
	<path class="st0" d="M298.8,59.8c0-17.5,0-35.2,0-52.7c1.3-0.1,2.6-0.6,3.9-0.6c29.5,0,58.9,0,88.4,0c1.1,0,2.4-0.3,3.6,0.7
		c0,17.6,0,35.3,0,53.2c-1,0.1-1.7,0.1-2.4,0.1c-29.9,0-59.7,0-89.6,0C301.3,60.6,299.9,60.9,298.8,59.8z"/>
	<path class="st0" d="M204.2,119.3c34.3,0,68.8,0,103.4,0c0,18.1,0,35.8,0,53.9c-1.7,0-3.1,0-4.6,0c-19.5,0-38.9,0-58.4,0
		c-1.7,0-3.6,0.6-5.1-1c-0.7-1.1-1.3-2.4-1.9-3.5c-10.4-15-20.7-29.9-31.1-44.9C205.3,122.5,203.8,121.2,204.2,119.3z"/>
	<path class="st1" d="M923.7,409.8c-26.8,0-53.4,0-80.3,0c0-18.3,0-36.5,0-55c26.7,0,53.4,0,80.3,0
		C923.7,373,923.7,391.2,923.7,409.8z"/>
	<path class="st1" d="M1006.8,409.7c-26.8,0-53.4,0-80.2,0c0-18.2,0-36.4,0-54.9c26.5,0,53.2,0,80.2,0
		C1006.8,372.9,1006.8,391.1,1006.8,409.7z"/>
	<path class="st1" d="M843.2,466.2c0-18.2,0-35.8,0-53.9c26.8,0,53.4,0,80.2,0c0,17.8,0,35.7,0,53.9
		C896.9,466.2,870.3,466.2,843.2,466.2z"/>
	<path class="st1" d="M843.4,469c26.8,0,53.4,0,80.2,0c0,17.9,0,35.7,0,53.9c-26.5,0-53.2,0-80.2,0
		C843.4,504.9,843.4,487.1,843.4,469z"/>
	<path class="st1" d="M926.6,468.9c27,0,53.4,0,80,0c0,17.9,0,35.8,0,54.1c-26.5,0-53.2,0-80,0C926.6,505,926.6,487.1,926.6,468.9z"
		/>
	<path class="st1" d="M843.2,351.7c0-18.1,0-35.6,0-53.5c26.8,0,53.5,0,80.5,0c0,17.8,0,35.6,0,53.5
		C896.9,351.7,870.2,351.7,843.2,351.7z"/>
	<path class="st1" d="M1006.9,298.2c0,17.9,0,35.7,0,53.6c-26.8,0-53.5,0-80.3,0c0-17.9,0-35.7,0-53.6
		C953.3,298.2,979.9,298.2,1006.9,298.2z"/>
	<path class="st1" d="M926.6,412.2c26.8,0,53.2,0,80,0c0,17.8,0,35.4,0,53.5c-26.5,0-53.2,0-80,0C926.6,448,926.6,430.4,926.6,412.2
		z"/>
	<path class="st1" d="M843.2,295.2c0-18.1,0-35.6,0-53.5c26.8,0,53.5,0,80.5,0c0,17.8,0,35.6,0,53.5
		C896.9,295.2,870.2,295.2,843.2,295.2z"/>
	<path class="st1" d="M926.4,295.3c0-18.1,0-35.7,0-53.6c26.8,0,53.4,0,80.3,0c0,17.8,0,35.6,0,53.6
		C980.1,295.3,953.5,295.3,926.4,295.3z"/>
	<path class="st0" d="M710.4,119.4c0,17.9,0,35.6,0,53.5c-26.1,0-52,0-78.1,0c0-17.8,0-35.4,0-53.5
		C658.3,119.4,684.1,119.4,710.4,119.4z"/>
	<path class="st0" d="M469,172.9c-25.7,0-51.3,0-77.1,0c0-17.8,0-35.4,0-53.4c25.6,0,51.1,0,77.1,0C469,137.1,469,154.7,469,172.9z"
		/>
	<path class="st0" d="M311.3,172.8c0-17.8,0-35.4,0-53.4c25.8,0,51.5,0,77.7,0c0,17.6,0,35.3,0,53.4
		C363.4,172.8,337.6,172.8,311.3,172.8z"/>
	<path class="st0" d="M472.2,119.4c25.8,0,51.4,0,77.1,0c0,17.9,0,35.6,0,53.5c-25.8,0-51.3,0-77.1,0
		C472.2,155.1,472.2,137.5,472.2,119.4z"/>
	<path class="st0" d="M629.8,119.6c0,17.8,0,35.3,0,53.1c-25.8,0-51.5,0-77.5,0c0-17.5,0-35.2,0-53.1
		C577.8,119.6,603.5,119.6,629.8,119.6z"/>
	<path class="st1" d="M845.7,550.2c-2.1-1.3-2.9-2.9-2.8-5.6c0.1-6.3,0-12.4,0-19.3c27.1,0,53.8,0,80.3,0c0.1,1,0.4,2.1,0.4,3.1
		c0,23.6,0,47.2,0,70.7c0,0.6,0.3,1.3-0.8,1.5c-0.8-0.6-1.9-1.1-2.9-1.7c-14.2-9.4-28.3-18.9-42.5-28.2
		C867,564.1,856.7,556.5,845.7,550.2z"/>
	<path class="st0" d="M707.9,60.8c-0.1-0.6-0.3-1.3-0.4-1.8c0-17.2,0-34.5,0-51.4c2.4-1.3,4-0.8,5.6-0.8c18.2,0,36.4,0,54.6,0
		c5.1,0,10.4,0.1,15.6,0.3c0,17.6,0,35.3,0,52.9c-1.5,1.3-3.5,0.7-5.1,0.7C754.7,60.6,731.4,60.6,707.9,60.8z"/>
	<path class="st0" d="M397.6,60.6c-0.1-17.9-0.1-35.8-0.3-53.8c11.4,0,22.9,0,34.3-0.1c13.1,0,26.1-0.1,39.2-0.3
		c2.6,0.7,1.7,2.8,1.7,4.4c0.1,16.3,0.1,32.5,0.1,48.8c-1.5,1.3-3.5,0.8-5.1,0.8C444.3,60.6,421,60.6,397.6,60.6z"/>
	<path class="st0" d="M705.4,6.9c-0.1,17.9-0.1,35.8-0.3,53.8c-23.3,0-46.7,0-69.9-0.1c-1.8,0-3.6,0.4-5.1-0.8
		c0-16.3,0-32.5,0.1-48.8c0-1.5-1-3.8,1.7-4.4c1.8,0.1,3.6,0.3,5.3,0.3C659.8,6.9,682.6,6.9,705.4,6.9z"/>
	<path class="st0" d="M475,7c0.6-0.1,1-0.3,1.5-0.4c1.7,0.1,3.3,0.3,4.9,0.3c21.3,0,42.4,0,63.6,0c1.5,0,3.3-0.4,4.9,0.6
		c0,17.5,0,35.2,0,52.8c-25,0-49.6,0-74.9,0C475,42.2,475,24.7,475,7z"/>
	<path class="st0" d="M626.2,6.6c0.6,0.1,1,0.3,1.5,0.4c0,17.6,0,35.3,0,53.6c-25.4,0-50.2,0-74.9,0c-0.1-0.6-0.3-1.3-0.6-1.8
		c0-17.2,0-34.5,0-52.1c5.4,0,9.9,0,14.3,0C586.4,6.7,606.3,6.6,626.2,6.6z"/>
	<path class="st1" d="M922.1,169c1.5,0.1,1.8,1.1,1.8,2.5c0,22.2,0,44.5,0,67.1c-27,0-53.8,0-80.9,0c0.4-5.7-1.1-11.3,0.8-16.8
		c1.7-1,3.3-1.8,5-2.9c14-9.3,28.1-18.6,42-28.1c10.3-7.1,21.1-13.5,31-21.1C922,169.6,922,169.3,922.1,169L922.1,169z"/>
	<path class="st0" d="M770.3,127.2c-0.1,0.4-0.3,0.7-0.4,1.1l-0.3,0.3v0.4c-0.3,0.6-0.4,1.3-0.7,1.8c-6,12.9-11.1,26.1-16.1,39.5
		c-0.8,1.1-0.8,2.9-2.9,2.9c-12.4,0-24.7,0-37.2,0c0-18.1,0-35.7,0-53.6c19.9,0,39.9,0,60.2,0c0.3,2.5-1.8,4.4-2.1,6.8
		C770.5,126.6,770.4,126.9,770.3,127.2z"/>
	<path class="st1" d="M933.9,731.6c-0.6,0-1.1,0-1.5,0.1c-0.4-0.6-0.7-1.3-1.1-1.8c-16.3-17.9-32.5-35.7-48.8-53.6
		c-4.6-5-9-10.1-12.8-14.3c5.6-6.3,10.6-11.9,15.8-17.9c1.7,1.4,2.9,2.5,4.2,3.6c16.8,16.1,33.6,32.2,50.6,48.2
		c3.8,3.6,7.2,7.5,11.5,10.4c0.4,0.4,0.7,0.7,1.1,1.1c0.1,1.3,1.4,1.8,2.1,2.6c-0.1,0.4-0.3,0.8-0.6,1.3c-0.6,0-0.7,0.1-0.7,0.7
		l-0.1,0.1c-0.6,0-0.8,0.1-0.7,0.7l-0.1,0.1c-0.6,0-0.8,0.1-0.7,0.7l-0.1,0.1c-0.6,0-0.8,0.1-0.7,0.7l-0.1,0.1
		c-0.6,0-0.8,0.1-0.7,0.7l-0.1,0.1c-0.6,0-0.8,0.1-0.7,0.7l-0.1,0.1c-0.6,0-0.8,0.1-0.7,0.7l-0.1,0.1c-0.6,0-0.8,0.1-0.7,0.7
		l-0.1,0.1c-0.6,0-0.8,0.1-0.7,0.7l-0.1,0.1c-0.6,0-0.8,0.1-0.7,0.7l-0.1,0.1c-0.6,0-0.8,0.1-0.7,0.7l-0.1,0.1
		c-0.6,0-0.8,0.1-0.7,0.7l-0.1,0.1c-0.6,0-0.8,0.1-0.7,0.7l-0.1,0.1c-0.6,0-0.8,0.1-0.7,0.7l-0.1,0.1c-0.6,0-0.8,0.1-0.7,0.7
		l-0.1,0.1c-0.6,0-0.8,0.1-0.7,0.7l-0.1,0.1c-0.6,0-0.8,0.1-0.7,0.7l-0.1,0.1c-0.6,0-0.8,0.1-0.7,0.7l-0.1,0.1
		c-0.6,0-0.8,0.1-0.7,0.7l-0.1,0.1c-0.6,0-0.8,0.1-0.7,0.7l-0.1,0.1c-0.6,0-0.8,0.1-0.7,0.7l-0.1,0.1c-0.6,0-0.8,0.1-0.7,0.7
		l-0.1,0.1C934.1,730.8,933.8,731.1,933.9,731.6z"/>
	<path class="st1" d="M929.2,731.2c0.6,0.8,1,1.7,1.5,2.6c-7.9,7.8-15.8,15.6-24,23.5c-1.7-0.7-2.1-3.1-3.6-4.3
		c-7.5-12.2-16.1-23.6-24.2-35.3c-2.5-3.6-4.2-7.9-8.1-10.4c-0.7-2.9-2.8-4.9-4.4-7.2c-4.9-7.2-9.7-14.6-14.5-22
		c5.4-4.9,10.6-9.6,16-14.5c11,12.1,22.4,24.9,33.9,37.5C910.9,711.3,920.1,721.2,929.2,731.2z"/>
	<path class="st0" d="M770.8,130.8c1.7-3.8,3.3-7.6,5.1-11.5c17.6,0,35.3,0,52.9,0c0,0.8,0.1,1.5,0.1,2.2h0.1
		c-0.3,0-0.6,0.1-0.8,0.1c-1,1.1-1.9,2.2-2.6,3.5c-9.9,14.7-19.9,29.3-29.6,44.2c-1.8,2.8-3.8,3.6-6.8,3.6
		c-11.1-0.1-22.4,0.1-33.5,0.1c-0.6-0.1-1-0.1-1.5-0.3c0-0.3-0.1-0.6-0.1-0.8c0.3-0.6,0.4-1.3,0.7-1.8c1.7-1.9,2.2-4.4,3.2-6.8
		C762.1,152.6,767.2,142.1,770.8,130.8z"/>
	<path class="st2" d="M786.7,61.1c1.4,1.3,3.1,1,4.7,1c24.3,0,48.6,0,72.9,0c2.9,0,4.6-0.8,6.1-3.3c10.4-15.8,21-31.5,31.5-47.2
		c0.6-0.8,1.3-1.7,1.9-2.5c0.4,0.8,1.1,1,1.9,1.1c-11.1,16.5-22.2,32.9-33.3,49.5c-1.1,1.7-2.1,3.6-4.2,4.4c-1.1-1.9-2.9-1-4.4-1
		c-24.2,0-48.4,0-72.4,0c-1.7,0-3.3-0.1-4.9-0.1C786.5,62.3,786.5,61.6,786.7,61.1z"/>
	<path class="st0" d="M827.8,649.8c0.7-1.9-0.8-3.1-1.8-4.3c-10-14.3-20-28.6-30-42.9c-0.8-1.3-1.5-2.5-2.2-3.8c0.7,0,1.3,0,1.9,0
		c10.1,13.1,19,27,28.5,40.3c2.1,2.9,4.7,5.4,5.6,9C829,648.7,828.3,649.2,827.8,649.8z"/>
	<path class="st2" d="M870.9,707.3c3.9,2.5,5.6,6.8,8.1,10.4c8.2,11.7,16.7,23.2,24.2,35.3c-0.8,0.4-0.8,1.1-1,1.8
		c-11.3-15.3-22.1-30.7-32.4-46.7C870.2,707.9,870.4,707.6,870.9,707.3z"/>
	<path class="st0" d="M472.4,8c-13.1,0.1-26.1,0.1-39.2,0.3c-11.4,0-22.9,0-34.3,0.1c-0.1-1.4,0.8-0.8,1.4-0.8c23.3,0,46.7,0,70,0
		C471,7.4,471.7,7.7,472.4,8z"/>
	<path class="st0" d="M706.8,8.3c-22.8,0-45.4,0-68.2-0.1c-1.8,0-3.6-0.1-5.3-0.3c1.1-0.8,2.2-0.6,3.5-0.6c22.5,0,44.9,0,67.4,0
		C704.8,7.4,706.4,6.5,706.8,8.3z"/>
	<path class="st2" d="M954.9,709.8c-0.7-0.8-1.9-1.4-2.1-2.6c0.6,0,1.1,0,1.5,0V707C954.4,708,955.6,708.8,954.9,709.8z"/>
	<path class="st2" d="M940.2,725.2c0-0.6,0.1-0.8,0.7-0.7C940.6,724.8,940.5,725.1,940.2,725.2z"/>
	<path class="st2" d="M941,724.4c0-0.6,0.1-0.8,0.7-0.7C941.6,724,941.3,724.1,941,724.4z"/>
	<path class="st2" d="M942,723.6c0-0.6,0.1-0.8,0.7-0.7C942.4,723,942.3,723.3,942,723.6z"/>
	<path class="st2" d="M942.8,722.6c0-0.6,0.1-0.8,0.7-0.7C943.4,722.2,943.1,722.3,942.8,722.6z"/>
	<path class="st2" d="M943.8,721.8c0-0.6,0.1-0.8,0.7-0.7C944.2,721.2,944.1,721.5,943.8,721.8z"/>
	<path class="st2" d="M944.6,720.8c0-0.6,0.1-0.8,0.7-0.7C945.2,720.4,944.9,720.5,944.6,720.8z"/>
	<path class="st2" d="M945.6,720c0-0.6,0.1-0.8,0.7-0.7C946,719.4,945.8,719.7,945.6,720z"/>
	<path class="st2" d="M946.5,719c0-0.6,0.1-0.8,0.7-0.7C947,718.6,946.7,718.8,946.5,719z"/>
	<path class="st2" d="M947.4,718.1c0-0.6,0.1-0.8,0.7-0.7C947.8,717.6,947.6,717.9,947.4,718.1z"/>
	<path class="st1" d="M1001.9,663.3c0.3-0.3,0.6-0.6,0.8-0.8C1002.5,662.7,1002.2,663,1001.9,663.3z"/>
	<path class="st2" d="M948.3,717.2c0-0.6,0.1-0.8,0.7-0.7C948.8,716.8,948.5,717,948.3,717.2z"/>
	<path class="st2" d="M949.2,716.3c0-0.6,0.1-0.8,0.7-0.7C949.7,715.8,949.4,716.1,949.2,716.3z"/>
	<path class="st2" d="M950.1,715.4c0-0.6,0.1-0.8,0.7-0.7C950.5,715,950.3,715.2,950.1,715.4z"/>
	<path class="st2" d="M950.9,714.5c0-0.6,0.1-0.8,0.7-0.7C951.5,714.1,951.2,714.3,950.9,714.5z"/>
	<path class="st2" d="M951.9,713.7c0-0.6,0.1-0.8,0.7-0.7C952.3,713.1,952.2,713.4,951.9,713.7z"/>
	<path class="st2" d="M952.7,712.7c0-0.6,0.1-0.8,0.7-0.7C953.3,712.3,953,712.4,952.7,712.7z"/>
	<path class="st1" d="M998.3,666.9c0.3-0.3,0.6-0.6,0.8-0.8C998.8,666.3,998.6,666.6,998.3,666.9z"/>
	<path class="st1" d="M997.4,667.8c0.3-0.3,0.6-0.6,0.8-0.8C998,667.2,997.7,667.6,997.4,667.8z"/>
	<path class="st2" d="M933.9,731.6c0-0.6,0.1-0.8,0.7-0.7C934.4,731.1,934.1,731.3,933.9,731.6z"/>
	<path class="st1" d="M996.5,668.7c0.3-0.3,0.6-0.6,0.8-0.8C997,668.1,996.8,668.4,996.5,668.7z"/>
	<path class="st2" d="M934.8,730.7c0-0.6,0.1-0.8,0.7-0.7C935.3,730.2,935.1,730.4,934.8,730.7z"/>
	<path class="st2" d="M935.8,729.8c0-0.6,0.1-0.8,0.7-0.7C936.2,729.3,935.9,729.5,935.8,729.8z"/>
	<path class="st2" d="M936.6,728.8c0-0.6,0.1-0.8,0.7-0.7C937.1,728.4,936.9,728.7,936.6,728.8z"/>
	<path class="st1" d="M999.3,666c0.3-0.3,0.6-0.6,0.8-0.8C999.8,665.5,999.5,665.8,999.3,666z"/>
	<path class="st1" d="M995.6,669.7c0.3-0.3,0.6-0.6,0.8-0.8C996.2,669,995.9,669.2,995.6,669.7z"/>
	<path class="st1" d="M1000.1,665.1c0.3-0.3,0.6-0.6,0.8-0.8C1000.6,664.5,1000.4,664.8,1000.1,665.1z"/>
	<path class="st0" d="M755.3,170.8c0,0.3,0.1,0.6,0.1,0.8c-0.1-0.1-0.3-0.4-0.3-0.6C755.1,171,755.3,170.8,755.3,170.8z"/>
	<path class="st1" d="M1000.9,664.2c0.3-0.3,0.6-0.6,0.8-0.8C1001.6,663.7,1001.3,664,1000.9,664.2z"/>
	<path class="st1" d="M994.7,670.5c0.3-0.3,0.6-0.6,0.8-0.8C995.2,669.9,994.9,670.2,994.7,670.5z"/>
	<path class="st2" d="M937.6,728c0-0.6,0.1-0.8,0.7-0.7C938,727.5,937.7,727.7,937.6,728z"/>
	<path class="st2" d="M938.4,727c0-0.6,0.1-0.8,0.7-0.7C938.8,726.6,938.7,726.9,938.4,727z"/>
	<path class="st2" d="M939.4,726.2c0-0.6,0.1-0.8,0.7-0.7C939.8,725.6,939.5,725.9,939.4,726.2z"/>
	<path class="st2" d="M969.5,695.6c0.3-0.3,0.6-0.6,0.8-0.8C970.2,695.1,969.9,695.4,969.5,695.6z"/>
	<path class="st2" d="M970.5,694.7c0.3-0.3,0.6-0.6,0.8-0.8C971,694.1,970.8,694.4,970.5,694.7z"/>
	<path class="st2" d="M971.3,693.8c0.3-0.3,0.6-0.6,0.8-0.8C971.9,693.3,971.6,693.6,971.3,693.8z"/>
	<path class="st2" d="M972.3,692.9c0.3-0.3,0.6-0.6,0.8-0.8C972.9,692.3,972.6,692.6,972.3,692.9z"/>
	<path class="st2" d="M973.1,692c0.3-0.3,0.6-0.6,0.8-0.8C973.7,691.5,973.4,691.7,973.1,692z"/>
	<path class="st2" d="M974.1,691.1c0.3-0.3,0.6-0.6,0.8-0.8C974.7,690.5,974.4,690.8,974.1,691.1z"/>
	<path class="st1" d="M990.2,674.9c0.3-0.3,0.6-0.6,0.8-0.8C990.8,674.4,990.5,674.7,990.2,674.9z"/>
	<path class="st2" d="M974.9,690.2c0.3-0.3,0.6-0.6,0.8-0.8C975.5,689.7,975.2,689.9,974.9,690.2z"/>
	<path class="st2" d="M975.9,689.4c0.3-0.3,0.6-0.6,0.8-0.8C976.5,688.7,976.2,689.1,975.9,689.4z"/>
	<path class="st2" d="M976.7,688.4c0.3-0.3,0.6-0.6,0.8-0.8C977.3,687.9,977,688.1,976.7,688.4z"/>
	<path class="st1" d="M989.4,675.9c0.3-0.3,0.6-0.6,0.8-0.8C989.9,675.4,989.7,675.6,989.4,675.9z"/>
	<path class="st2" d="M977.7,687.6c0.3-0.3,0.6-0.6,0.8-0.8C978.3,687,978,687.3,977.7,687.6z"/>
	<path class="st2" d="M978.6,686.6c0.3-0.3,0.6-0.6,0.8-0.8C979.1,686,978.8,686.3,978.6,686.6z"/>
	<path class="st2" d="M979.4,685.8c0.3-0.3,0.6-0.6,0.8-0.8C980.1,685.2,979.8,685.5,979.4,685.8z"/>
	<path class="st1" d="M988.4,676.7c0.3-0.3,0.6-0.6,0.8-0.8C989,676.2,988.7,676.5,988.4,676.7z"/>
	<path class="st2" d="M980.4,684.8c0.3-0.3,0.6-0.6,0.8-0.8C980.9,684.2,980.6,684.5,980.4,684.8z"/>
	<path class="st2" d="M981.2,684c0.3-0.3,0.6-0.6,0.8-0.8C981.9,683.4,981.5,683.7,981.2,684z"/>
	<path class="st2" d="M982.2,683c0.3-0.3,0.6-0.6,0.8-0.8C982.7,682.4,982.4,682.7,982.2,683z"/>
	<path class="st0" d="M771.1,127.6v-0.4l0.3-0.3C771.4,127.2,771.2,127.5,771.1,127.6z"/>
	<path class="st1" d="M987.6,677.7c0.3-0.3,0.6-0.6,0.8-0.8C988.1,677.2,987.9,677.4,987.6,677.7z"/>
	<path class="st2" d="M983,682.2c0.3-0.3,0.6-0.6,0.8-0.8C983.6,681.6,983.3,681.9,983,682.2z"/>
	<path class="st2" d="M984,681.2c0.3-0.3,0.6-0.6,0.8-0.8C984.5,680.6,984.2,680.9,984,681.2z"/>
	<path class="st2" d="M984.8,680.4c0.3-0.3,0.6-0.6,0.8-0.8C985.4,679.8,985.1,680.1,984.8,680.4z"/>
	<path class="st1" d="M986.6,678.5c0.3-0.3,0.6-0.6,0.8-0.8C987.2,678,986.9,678.3,986.6,678.5z"/>
	<path class="st2" d="M985.8,679.5c0.3-0.3,0.6-0.6,0.8-0.8C986.3,678.8,986.1,679.1,985.8,679.5z"/>
	<path class="st2" d="M953.7,711.9c0-0.6,0.1-0.8,0.7-0.7C954.1,711.3,954,711.6,953.7,711.9z"/>
	<path class="st2" d="M955.9,707.6c0.4,0,0.8,0.1,1.3,0.1C956.7,708.1,956.3,708.1,955.9,707.6z"/>
	<path class="st0" d="M771.7,125.8c0.1-0.3,0.3-0.6,0.4-0.8C771.9,125.3,771.8,125.5,771.7,125.8z"/>
	<path class="st1" d="M993.8,671.3c0.3-0.3,0.6-0.6,0.8-0.8C994.4,670.8,994.1,671,993.8,671.3z"/>
	<path class="st2" d="M958,707.3c0.3-0.3,0.6-0.6,0.8-0.8C958.5,706.8,958.3,707,958,707.3z"/>
	<path class="st2" d="M958.8,706.3c0.3-0.3,0.6-0.6,0.8-0.8C959.4,705.8,959.1,706.1,958.8,706.3z"/>
	<path class="st1" d="M992.9,672.3c0.3-0.3,0.6-0.6,0.8-0.8C993.4,671.7,993.1,672,992.9,672.3z"/>
	<path class="st2" d="M959.7,705.5c0.3-0.3,0.6-0.6,0.8-0.8C960.3,704.9,959.9,705.2,959.7,705.5z"/>
	<path class="st1" d="M992,673.1c0.3-0.3,0.6-0.6,0.8-0.8C992.6,672.6,992.3,672.8,992,673.1z"/>
	<path class="st2" d="M960.6,704.5c0.3-0.3,0.6-0.6,0.8-0.8C961.2,704,960.9,704.3,960.6,704.5z"/>
	<path class="st2" d="M961.5,703.7c0.3-0.3,0.6-0.6,0.8-0.8C962,703.1,961.7,703.4,961.5,703.7z"/>
	<path class="st2" d="M962.4,702.7c0.3-0.3,0.6-0.6,0.8-0.8C963,702.2,962.7,702.4,962.4,702.7z"/>
	<path class="st2" d="M963.3,701.9c0.3-0.3,0.6-0.6,0.8-0.8C963.8,701.3,963.5,701.6,963.3,701.9z"/>
	<path class="st2" d="M964.2,701.1c0.3-0.3,0.6-0.6,0.8-0.8C964.8,700.4,964.5,700.6,964.2,701.1z"/>
	<path class="st2" d="M965.1,700.1c0.3-0.3,0.6-0.6,0.8-0.8C965.6,699.5,965.4,699.8,965.1,700.1z"/>
	<path class="st2" d="M966,699.2c0.3-0.3,0.6-0.6,0.8-0.8C966.6,698.7,966.3,699,966,699.2z"/>
	<path class="st2" d="M966.9,698.3c0.3-0.3,0.6-0.6,0.8-0.8C967.4,697.7,967.2,698,966.9,698.3z"/>
	<path class="st2" d="M967.9,697.4c0.3-0.3,0.6-0.6,0.8-0.8C968.4,696.9,968.1,697.2,967.9,697.4z"/>
	<path class="st2" d="M968.7,696.5c0.3-0.3,0.6-0.6,0.8-0.8C969.2,695.9,969,696.2,968.7,696.5z"/>
	<path class="st1" d="M991.1,674.1c0.3-0.3,0.6-0.6,0.8-0.8C991.8,673.5,991.3,673.8,991.1,674.1z"/>
	<path class="st1" d="M947.7,95.8c-0.3-1.3-1.1-1.8-2.2-1.5c-1,0.1-1.7,0.8-1.7,1.8c0,1.3,0.8,1.9,2.1,1.9
		C947.1,97.9,947.7,97,947.7,95.8z"/>
	<path class="st1" d="M927.8,605.9c-0.4,0-0.8,0-1.4,0c0-0.3,0-0.7,0-1C926.9,605.3,927.4,605.6,927.8,605.9z"/>
	<path class="st2" d="M954.4,707.2c-0.6,0-1.1,0-1.5,0c-0.4-0.4-0.7-0.7-1.1-1.1c0-0.6,0.1-1.3,0.7-1.5
		C953.3,705.4,954.4,705.8,954.4,707.2z"/>
	<path class="st1" d="M900.6,219.5c0.1-1-0.4-2.5-2.2-2.5c-1.5,0-2.4,1-2.4,2.6c0,1.5,0.4,2.8,2.1,2.9
		C899.6,222.8,900.5,221.8,900.6,219.5z"/>
	<path class="st1" d="M922,169.9c-0.7-0.4-0.4-0.7,0.1-0.8C922,169.3,922,169.6,922,169.9z"/>
	<path class="st2" d="M897.7,712.2c0.1-0.3,0.3-0.4,0.6-0.6C898.1,711.9,898,712,897.7,712.2z"/>
	<path class="st2" d="M898.5,711.5c0.3-0.3,0.4-0.4,0.7-0.7C899.1,710.9,898.8,711.2,898.5,711.5z"/>
	<path class="st2" d="M899.4,710.5v-0.4c0.1,0.1,0.1,0.3,0.3,0.4C899.6,710.5,899.5,710.5,899.4,710.5z"/>
	<path class="st2" d="M830.4,120.2c-0.1,0.7-0.4,0.8-0.8,0.1C829.9,120.4,830.2,120.4,830.4,120.2z"/>
	<path class="st1" d="M947.7,95.8c0,1.3-0.7,2.1-1.9,2.1c-1.3,0-2.1-0.7-2.1-1.9c0-1,0.7-1.7,1.7-1.8
		C946.7,94,947.6,94.5,947.7,95.8z"/>
	<path class="st1" d="M900.6,219.5c-0.1,2.4-1,3.2-2.6,3.1c-1.7-0.1-2.1-1.4-2.1-2.9c0-1.7,1-2.6,2.4-2.6
		C900.2,217.1,900.6,218.5,900.6,219.5z"/>
</g>
<g>
	<path class="st0" d="M863.2,706.5c-2.1,0.1-4.2,0.3-6.3,0.3c-34.9,0-69.6,0-104.5,0c-7.4,0-14.6,0.1-22,0.1c-0.6,0-1.1,0-1.7,0
		c-1,0-2.1-0.1-3.1-0.1c-56,0-112,0-167.9,0c-1,0-2.1,0.1-3.1,0.1c-0.6,0-1.1,0-1.7,0c-1.8,0-3.6-0.1-5.4-0.1
		c-47.8,0-95.5,0-143.3,0c-1.7,0-3.3,0.1-4.9,0.1c-0.6,0-1.1,0-1.7,0c-1.7,0-3.3-0.1-4.9-0.1c-47.9,0-95.7,0-143.7,0
		c-1.7,0-3.3,0.1-4.9,0.1c-0.6,0-1.1,0-1.7,0c-1.7,0-3.3-0.1-4.9-0.1c-24.2,0-48.4,0-72.4,0c-1.5,0-3.3,1-4.4-1
		c2.6-4.4,5.1-9,7.9-13.3c2.2-3.5,3.6-7.5,7.1-10.1c1.1,0,2.1,0,3.2,0c219.8,0,439.6,0,659.5,0c0.8,0,1.8,0,2.6,0
		c1.4,0,1.9-0.7,1.5-2.1c-1.9-0.8-4-0.4-6.1-0.4c-217.7,0-435.5,0-653.1,0c-1.9,0-4.2,0.8-6-0.7c0.6-1,1.1-1.8,1.7-2.8
		c5.6-7.6,11.1-15.3,16.5-22.9c1.7-0.8,3.5-0.4,5.3-0.4c206.8,0,413.5,0,620.4,0c1.7,0,3.3-0.6,4.9,0.4c2.2,2.5,4.2,5.3,6.1,8.1"/>
	<path class="st1" d="M174.3,682.3c-3.5,2.6-4.9,6.7-7.1,10.1c-2.8,4.3-5.3,8.9-7.9,13.3c-2.1,0.8-3.1,2.8-4.2,4.4
		c-11.1,16.5-22.2,32.9-33.3,49.5c-0.8-0.7-1.7-1.3-2.4-1.9c-32.2-32.2-64.3-64.3-96.6-96.6c-0.6-0.6-1-1.1-1.4-1.5
		c-0.4-1.5,0.8-1.8,1.7-2.5C44,643.4,65,629.6,85.7,615.7c5.1-3.5,10.7-6.4,15.3-10.7c0.4-0.1,0.8-0.1,1.3-0.3
		c14.6,14.6,29.2,29,43.6,43.6c10.1,10.1,20.1,20.3,30.2,30.4C175.3,680.1,174.7,681.2,174.3,682.3z"/>
	<path class="st1" d="M101.5,244.5c-27.1,0-54.3,0-81.7,0c0-43.9,0-87.4,0-131c0.4-0.8,1.5-0.3,2.4-0.4c0.7,0.6,1.3,1.3,1.9,1.7
		c23.1,15.3,46,30.6,69.1,45.7c2.1,1.4,3.8,3.5,6.5,3.5c0.4,0.3,1,0.6,1.4,1l0,0c1,1.7,0.8,3.3,0.8,5.1c0,14.9,0,29.7,0,44.6
		C101.8,224.6,101.6,234.5,101.5,244.5z"/>
	<path class="st1" d="M195.9,119.4c0.7,0.8,1.4,1.7,2.1,2.4c0.8,3.6,3.6,6.1,5.6,9c9.4,13.5,18.3,27.4,28.5,40.3
		c0.8,1.5,1.3,2.9-0.3,4.4c-15,14.9-30,29.9-45,44.9c-1.8-1-3.3-1.8-4.9-2.8c-0.7-0.6-1.3-1.3-1.9-1.7
		c-23.5-15.6-47.1-31.1-70.6-46.7c-1.3-0.8-3.1-1.4-3.3-2.4c24.3-24.3,48.2-48.2,72.1-72.1C183.8,102.7,189.9,111.1,195.9,119.4z"/>
	<path class="st1" d="M193.9,653.3c-5.6,7.6-11.1,15.3-16.5,22.9c-1.3-1.1-2.5-2.1-3.8-3.2c-21.8-21.7-43.5-43.5-65.3-65.2
		c-1.3-1.3-2.2-2.8-4-3.5c-0.1-1.1,0.6-1.9,1.3-2.6c4.3-1.5,8.2-4.4,11.8-6.9c10.4-7.6,21.5-14.5,32.2-21.8
		c11.7-8.1,23.5-16,35.2-23.9c1.3,0,1.8,0.8,2.5,1.7c14,14,27.9,28.1,42,42.1c1,1,2.4,1.9,2.2,3.6c-4.9,5.7-8.6,12.1-12.6,18.2
		c-7.6,11.5-15.7,22.6-22.6,34.6C195,650.5,193.8,651.5,193.9,653.3z"/>
	<path class="st0" d="M899.6,761.1c0.1,0.7,1,1.5-0.3,1.8c-1,0.3-2.1,0.1-3.1,0.1c-53.4,0-106.7,0-159.9,0c-1.3,0-2.4,0-4.2,0
		c0-18.1,0-36,0-53.8c1.9,0,3.9-0.1,5.8-0.1c37.9,0,75.9,0.3,113.8-0.3c8.3-0.1,14.3,1.5,17.9,9.4c1,2.2,2.8,4.2,4.3,6.3
		C882.4,736.8,891,749,899.6,761.1z"/>
	<path class="st1" d="M20.2,532.6c0-1.5,1-1.9,2.4-1.9c26,0,52,0,77.7,0c1.4,1.5,1,3.1,1,4.6c0,21,0,42.1,0,63.1
		c0,1.8,0.4,3.6-1.1,5c-1.7,1-3.3,1.8-5,2.9c-18.8,12.5-37.5,25-56.3,37.4c-5.7,3.8-11.4,7.5-17.1,11.3c-1.4-2.2-1-4-1-5.8
		c0-37.1,0-74.2,0-111.3C20.6,536.3,21.1,534.5,20.2,532.6z"/>
	<path class="st1" d="M69.5,62.6c0.3-0.1,0.4-0.3,0.7-0.4c0.4,0,0.8,0.1,1.3,0.1c0.6,0.1,1,0.3,1.5,0.6v-0.1c0,1.4,1.1,1.8,1.9,2.6
		c0.3,0.4,0.4,0.8,0.7,1.1c16,15.3,32.1,30.4,47.9,45.7c5.3,5.1,10,11,15.1,16.7c-11.1,11.1-22.9,22.9-34.7,34.9c-1,1-2.1,1-3.2,1.3
		l0,0c0-0.3,0-0.7,0-1c-26.1-17.9-52.5-35.4-79.1-52.8c0.1-1.8,2.1-2.4,2.9-3.8c0.3-0.3,0.6-0.6,0.8-0.8l0,0
		c0.3-0.3,0.6-0.6,0.8-0.8l0,0c0.3-0.3,0.6-0.6,0.8-0.8l0,0c0.3-0.3,0.6-0.6,0.8-0.8l0,0c0.3-0.3,0.6-0.6,0.8-0.8l0,0
		c0.3-0.3,0.6-0.6,0.8-0.8l0,0c0.3-0.3,0.6-0.6,0.8-0.8l0,0c0.3-0.3,0.6-0.6,0.8-0.8l0,0c0.3-0.3,0.6-0.6,0.8-0.8l0,0
		c0.3-0.3,0.6-0.6,0.8-0.8l0,0c0.3-0.3,0.6-0.6,0.8-0.8l0,0c0.3-0.3,0.6-0.6,0.8-0.8l0,0c0.3-0.3,0.6-0.6,0.8-0.8l0,0
		c0.3-0.3,0.6-0.6,0.8-0.8l0,0c0.3-0.3,0.6-0.6,0.8-0.8l0,0c0.3-0.3,0.6-0.6,0.8-0.8l0,0c0.3-0.3,0.6-0.6,0.8-0.8l0,0
		c0.3-0.3,0.6-0.6,0.8-0.8l0,0c0.3-0.3,0.6-0.6,0.8-0.8l0,0c0.3-0.3,0.6-0.6,0.8-0.8l0,0c0.3-0.3,0.6-0.6,0.8-0.8l0,0
		c0.3-0.3,0.6-0.6,0.8-0.8l0,0c0.3-0.3,0.6-0.6,0.8-0.8l0,0c0.3-0.3,0.6-0.6,0.8-0.8l0,0c0.3-0.3,0.6-0.6,0.8-0.8l0,0
		c0.3-0.3,0.6-0.6,0.8-0.8l0,0c0.3-0.3,0.6-0.6,0.8-0.8l0,0c0.3-0.3,0.6-0.6,0.8-0.8l0,0c0.3-0.3,0.6-0.6,0.8-0.8l0,0
		c0.3-0.3,0.6-0.6,0.8-0.8l0,0c0.3-0.3,0.6-0.6,0.8-0.8l0,0c0.3-0.3,0.6-0.6,0.8-0.8l0,0c0.3-0.3,0.6-0.6,0.8-0.8l0,0
		c0.3-0.3,0.6-0.6,0.8-0.8l0,0c0.3-0.3,0.6-0.6,0.8-0.8l0,0c0.3-0.3,0.6-0.6,0.8-0.8l0,0c0.3-0.3,0.6-0.6,0.8-0.8l0,0
		c0.3-0.3,0.6-0.6,0.8-0.8l0,0c0.3-0.3,0.6-0.6,0.8-0.8l0,0c0.3-0.3,0.6-0.6,0.8-0.8l0,0c0.3-0.3,0.6-0.6,0.8-0.8l0,0
		c0.3-0.3,0.6-0.6,0.8-0.8l0,0c0.3-0.3,0.6-0.6,0.8-0.8l0,0c0.3-0.3,0.6-0.6,0.8-0.8l0,0c0.3-0.3,0.6-0.6,0.8-0.8l0,0
		c0.3-0.3,0.6-0.6,0.8-0.8l0,0c0.3-0.3,0.6-0.6,0.8-0.8l0,0c0.3-0.3,0.6-0.6,0.8-0.8l0,0c0.3-0.3,0.6-0.6,0.8-0.8l0,0
		C69,63.1,69.3,62.9,69.5,62.6z"/>
	<path class="st0" d="M240.9,710.1c0,17.4,0,34.9,0,52c-1.8,1.4-3.3,1-4.7,1c-36,0-72,0-108,0c-1.5,0-3.3,0.8-4.6-1
		c0.7-0.8,1.4-1.5,1.9-2.5c10.6-15.7,21.1-31.4,31.5-47.2c1.7-2.5,3.3-3.3,6.1-3.3c24.3,0.1,48.6,0,72.9,0
		C237.8,709.1,239.5,708.8,240.9,710.1z"/>
	<path class="st0" d="M728.6,710.1c0,17.5,0,35.2,0,52.7c-1.3,0.1-2.6,0.6-3.9,0.6c-29.5,0-58.9,0-88.4,0c-1.1,0-2.4,0.3-3.6-0.7
		c0-17.6,0-35.3,0-53.2c1-0.1,1.7-0.1,2.4-0.1c29.9,0,59.7,0,89.6,0C726.2,709.1,727.6,708.8,728.6,710.1z"/>
	<path class="st0" d="M823.3,650.6c-34.3,0-68.8,0-103.4,0c0-18.1,0-35.8,0-53.9c1.7,0,3.1,0,4.6,0c19.5,0,38.9,0,58.4,0
		c1.7,0,3.6-0.6,5.1,1c0.7,1.1,1.3,2.4,1.9,3.5c10.4,15,20.7,29.9,31.1,44.9C822.1,647.3,823.6,648.5,823.3,650.6z"/>
	<path class="st1" d="M103.9,359.9c26.8,0,53.4,0,80.3,0c0,18.3,0,36.5,0,55c-26.7,0-53.4,0-80.3,0
		C103.9,396.8,103.9,378.7,103.9,359.9z"/>
	<path class="st1" d="M20.8,360.1c26.8,0,53.4,0,80.2,0c0,18.2,0,36.4,0,54.9c-26.5,0-53.2,0-80.2,0
		C20.8,396.9,20.8,378.8,20.8,360.1z"/>
	<path class="st1" d="M184.2,303.7c0,18.2,0,35.8,0,53.9c-26.8,0-53.4,0-80.2,0c0-17.8,0-35.7,0-53.9
		C130.5,303.7,157.2,303.7,184.2,303.7z"/>
	<path class="st1" d="M184.2,300.9c-26.8,0-53.4,0-80.2,0c0-17.9,0-35.7,0-53.9c26.5,0,53.2,0,80.2,0
		C184.2,264.9,184.2,282.7,184.2,300.9z"/>
	<path class="st1" d="M100.8,300.9c-27,0-53.4,0-80,0c0-17.9,0-35.8,0-54.1c26.5,0,53.2,0,80,0C100.8,264.9,100.8,282.7,100.8,300.9
		z"/>
	<path class="st1" d="M184.3,418c0,18.1,0,35.6,0,53.5c-26.8,0-53.5,0-80.5,0c0-17.8,0-35.6,0-53.5C130.5,418,157.2,418,184.3,418z"
		/>
	<path class="st1" d="M20.6,471.7c0-17.9,0-35.7,0-53.6c26.8,0,53.5,0,80.3,0c0,17.9,0,35.7,0,53.6
		C74.1,471.7,47.5,471.7,20.6,471.7z"/>
	<path class="st1" d="M100.8,357.6c-26.8,0-53.2,0-80,0c0-17.8,0-35.4,0-53.5c26.5,0,53.2,0,80,0
		C100.8,321.7,100.8,339.5,100.8,357.6z"/>
	<path class="st1" d="M184.3,474.6c0,18.1,0,35.6,0,53.5c-26.8,0-53.5,0-80.5,0c0-17.8,0-35.6,0-53.5
		C130.5,474.6,157.2,474.6,184.3,474.6z"/>
	<path class="st1" d="M101,474.4c0,18.1,0,35.7,0,53.6c-26.8,0-53.4,0-80.3,0c0-17.8,0-35.6,0-53.6C47.5,474.4,74,474.4,101,474.4z"
		/>
	<path class="st0" d="M317.2,650.3c0-17.9,0-35.6,0-53.5c26.1,0,52,0,78.1,0c0,17.8,0,35.4,0,53.5
		C369.3,650.3,343.4,650.3,317.2,650.3z"/>
	<path class="st0" d="M558.5,596.8c25.7,0,51.3,0,77.1,0c0,17.8,0,35.4,0,53.4c-25.6,0-51.1,0-77.1,0
		C558.5,632.7,558.5,615,558.5,596.8z"/>
	<path class="st0" d="M716.1,597c0,17.8,0,35.4,0,53.4c-25.8,0-51.5,0-77.7,0c0-17.6,0-35.3,0-53.4C664.1,597,689.8,597,716.1,597z"
		/>
	<path class="st0" d="M555.3,650.3c-25.8,0-51.4,0-77.1,0c0-17.9,0-35.6,0-53.5c25.8,0,51.3,0,77.1,0
		C555.3,614.6,555.3,632.4,555.3,650.3z"/>
	<path class="st0" d="M397.7,650.2c0-17.8,0-35.3,0-53.1c25.8,0,51.5,0,77.5,0c0,17.5,0,35.2,0,53.1
		C449.7,650.2,423.9,650.2,397.7,650.2z"/>
	<path class="st1" d="M181.7,219.6c2.1,1.3,2.9,2.9,2.8,5.6c-0.1,6.3,0,12.4,0,19.3c-27.1,0-53.8,0-80.3,0c-0.1-1-0.4-2.1-0.4-3.1
		c0-23.6,0-47.2,0-70.7c0-0.6-0.3-1.3,0.8-1.5c0.8,0.6,1.9,1.1,2.9,1.7c14.2,9.4,28.3,18.9,42.5,28.2
		C160.6,205.8,170.7,213.3,181.7,219.6z"/>
	<path class="st0" d="M319.5,709.1c0.1,0.6,0.3,1.3,0.4,1.8c0,17.2,0,34.5,0,51.4c-2.4,1.3-4,0.8-5.6,0.8c-18.2,0-36.4,0-54.6,0
		c-5.1,0-10.4-0.1-15.6-0.3c0-17.6,0-35.3,0-52.9c1.5-1.3,3.5-0.7,5.1-0.7C272.7,709.1,296.2,709.1,319.5,709.1z"/>
	<path class="st0" d="M629.8,709.1c0.1,17.9,0.1,35.8,0.3,53.8c-11.4,0-22.9,0-34.3,0.1c-13.1,0-26.1,0.1-39.2,0.3
		c-2.6-0.7-1.7-2.8-1.7-4.4c-0.1-16.3-0.1-32.5-0.1-48.8c1.5-1.3,3.5-0.8,5.1-0.8C583.1,709.1,606.4,709.1,629.8,709.1z"/>
	<path class="st0" d="M322.2,762.9c0.1-17.9,0.1-35.8,0.3-53.8c23.3,0,46.7,0,69.9,0.1c1.8,0,3.6-0.4,5.1,0.8
		c0,16.3,0,32.5-0.1,48.8c0,1.5,1,3.8-1.7,4.4c-1.8-0.1-3.6-0.3-5.3-0.3C367.6,762.9,344.9,762.9,322.2,762.9z"/>
	<path class="st0" d="M552.4,762.7c-0.6,0.1-1,0.3-1.5,0.4c-1.7-0.1-3.3-0.3-4.9-0.3c-21.3,0-42.4,0-63.6,0c-1.5,0-3.3,0.4-4.9-0.6
		c0-17.5,0-35.2,0-52.8c25,0,49.6,0,74.9,0C552.4,727.6,552.4,745.1,552.4,762.7z"/>
	<path class="st0" d="M401.2,763.3c-0.6-0.1-1-0.3-1.5-0.4c0-17.6,0-35.3,0-53.6c25.4,0,50.2,0,74.9,0c0.1,0.6,0.3,1.3,0.6,1.8
		c0,17.2,0,34.5,0,52.1c-5.4,0-9.9,0-14.3,0C441,763,421.1,763.2,401.2,763.3z"/>
	<path class="st1" d="M105.3,600.7c-1.5-0.1-1.8-1.1-1.8-2.5c0-22.2,0-44.5,0-67.1c27,0,53.8,0,80.9,0c-0.4,5.7,1.1,11.3-0.8,16.8
		c-1.7,1-3.3,1.8-5,2.9c-14,9.3-28.1,18.6-42,28.1c-10.3,7.1-21.1,13.5-31,21.1C105.4,600.3,105.4,600.6,105.3,600.7L105.3,600.7z"
		/>
	<path class="st0" d="M257.1,642.6c0.1-0.4,0.3-0.7,0.4-1.1l0.3-0.3v-0.4c0.3-0.6,0.4-1.3,0.7-1.8c6-12.9,11.1-26.1,16.1-39.5
		c0.8-1.1,0.8-2.9,2.9-2.9c12.4,0,24.7,0,37.2,0c0,18.1,0,35.7,0,53.6c-19.9,0-39.9,0-60.2,0c-0.3-2.5,1.8-4.4,2.1-6.8
		C256.9,643.1,257,642.8,257.1,642.6z"/>
	<path class="st1" d="M93.6,38.3c0.6,0,1.1,0,1.5-0.1c0.4,0.6,0.7,1.3,1.1,1.8c16.3,17.9,32.5,35.7,48.8,53.6
		c4.6,5,9,10.1,12.8,14.3c-5.6,6.3-10.6,11.9-15.8,17.9c-1.7-1.4-2.9-2.5-4.2-3.6C121,106.1,104.1,90,87.2,74
		c-3.8-3.6-7.2-7.5-11.5-10.4c-0.4-0.4-0.7-0.7-1.1-1.1c-0.1-1.3-1.4-1.8-2.1-2.6c0.1-0.4,0.3-0.8,0.6-1.3c0.6,0,0.7-0.1,0.7-0.7
		l0.1-0.1c0.6,0,0.8-0.1,0.7-0.7l0.1-0.1c0.6,0,0.8-0.1,0.7-0.7l0.1-0.1c0.6,0,0.8-0.1,0.7-0.7l0.1-0.1c0.6,0,0.8-0.1,0.7-0.7
		l0.1-0.1c0.6,0,0.8-0.1,0.7-0.7l0.1-0.1c0.6,0,0.8-0.1,0.7-0.7l0.1-0.1c0.6,0,0.8-0.1,0.7-0.7l0.1-0.1c0.6,0,0.8-0.1,0.7-0.7
		l0.1-0.1c0.6,0,0.8-0.1,0.7-0.7l0.1-0.1c0.6,0,0.8-0.1,0.7-0.7l0.1-0.1c0.6,0,0.8-0.1,0.7-0.7l0.1-0.1c0.6,0,0.8-0.1,0.7-0.7
		l0.1-0.1c0.6,0,0.8-0.1,0.7-0.7l0.1-0.1c0.6,0,0.8-0.1,0.7-0.7l0.1-0.1c0.6,0,0.8-0.1,0.7-0.7l0.1-0.1c0.6,0,0.8-0.1,0.7-0.7
		l0.1-0.1c0.6,0,0.8-0.1,0.7-0.7l0.1-0.1c0.6,0,0.8-0.1,0.7-0.7l0.1-0.1c0.6,0,0.8-0.1,0.7-0.7l0.1-0.1c0.6,0,0.8-0.1,0.7-0.7
		l0.1-0.1c0.6,0,0.8-0.1,0.7-0.7l0.1-0.1C93.3,39,93.6,38.7,93.6,38.3z"/>
	<path class="st1" d="M98.2,38.5c-0.6-0.8-1-1.7-1.5-2.6c7.9-7.8,15.8-15.6,24-23.5c1.7,0.7,2.1,3.1,3.6,4.3
		c7.5,12.2,16.1,23.6,24.2,35.3c2.5,3.6,4.2,7.9,8.1,10.4c0.7,2.9,2.8,4.9,4.4,7.2c4.9,7.2,9.7,14.6,14.5,22
		c-5.4,4.9-10.6,9.6-16,14.5c-11-12.1-22.4-24.9-33.9-37.5C116.7,58.6,107.3,48.6,98.2,38.5z"/>
	<path class="st0" d="M256.7,638.9c-1.7,3.8-3.3,7.6-5.1,11.5c-17.6,0-35.3,0-52.9,0c0-0.8-0.1-1.5-0.1-2.2h-0.1
		c0.3,0,0.6-0.1,0.8-0.1c1-1.1,1.9-2.2,2.6-3.5c9.9-14.7,19.9-29.3,29.6-44.2c1.8-2.8,3.8-3.6,6.8-3.6c11.1,0.1,22.4-0.1,33.5-0.1
		c0.6,0.1,1,0.1,1.5,0.3c0,0.3,0.1,0.6,0.1,0.8c-0.3,0.6-0.4,1.3-0.7,1.8c-1.7,1.9-2.2,4.4-3.2,6.8
		C265.5,617.1,260.3,627.8,256.7,638.9z"/>
	<path class="st0" d="M240.9,708.7c-1.4-1.3-3.1-1-4.7-1c-24.3,0-48.6,0-72.9,0c-2.9,0-4.6,0.8-6.1,3.3
		c-10.4,15.8-21,31.5-31.5,47.2c-0.6,0.8-1.3,1.7-1.9,2.5c-0.4-0.8-1.1-1-1.9-1.1c11.1-16.5,22.2-32.9,33.3-49.5
		c1.1-1.7,2.1-3.6,4.2-4.4c1.1,1.9,2.9,1,4.4,1c24.2,0,48.4,0,72.4,0c1.7,0,3.3,0.1,4.9,0.1C241,707.6,240.9,708.1,240.9,708.7z"/>
	<path class="st0" d="M199.7,120c-0.7,1.9,0.8,3.1,1.8,4.3c10,14.3,20,28.6,30,42.9c0.8,1.3,1.5,2.5,2.2,3.8c-0.7,0-1.3,0-1.9,0
		c-10.1-13.1-19-27-28.5-40.3c-2.1-2.9-4.7-5.4-5.6-9C198.5,121.2,199,120.5,199.7,120z"/>
	<path class="st2" d="M156.7,62.4c-3.9-2.5-5.6-6.8-8.1-10.4c-8.2-11.7-16.7-23.2-24.2-35.3c0.8-0.4,0.8-1.1,1-1.8
		c11.3,15.3,22.1,30.7,32.4,46.7C157.4,61.9,156.9,62.2,156.7,62.4z"/>
	<path class="st0" d="M555,761.9c13.1-0.1,26.1-0.1,39.2-0.3c11.4,0,22.9,0,34.3-0.1c0.1,1.4-0.8,0.8-1.4,0.8c-23.3,0-46.7,0-70,0
		C556.4,762.3,555.7,762.1,555,761.9z"/>
	<path class="st0" d="M320.8,761.5c22.8,0,45.4,0,68.2,0.1c1.8,0,3.6,0.1,5.3,0.3c-1.1,0.8-2.2,0.6-3.5,0.6c-22.5,0-44.9,0-67.4,0
		C322.6,762.3,321.2,763.3,320.8,761.5z"/>
	<path class="st1" d="M72.6,59.9c0.7,0.8,1.9,1.4,2.1,2.6c-0.6,0-1.1,0-1.5,0v0.1C73,61.8,71.9,61.1,72.6,59.9z"/>
	<path class="st2" d="M87.3,44.5c0,0.6-0.1,0.8-0.7,0.7C86.8,44.9,87.1,44.7,87.3,44.5z"/>
	<path class="st2" d="M86.4,45.4c0,0.6-0.1,0.8-0.7,0.7C85.9,45.9,86.1,45.6,86.4,45.4z"/>
	<path class="st2" d="M85.5,46.3c0,0.6-0.1,0.8-0.7,0.7C85,46.7,85.3,46.5,85.5,46.3z"/>
	<path class="st2" d="M84.6,47.2c0,0.6-0.1,0.8-0.7,0.7C84.1,47.7,84.3,47.4,84.6,47.2z"/>
	<path class="st2" d="M83.7,48.1c0,0.6-0.1,0.8-0.7,0.7C83.2,48.6,83.4,48.3,83.7,48.1z"/>
	<path class="st2" d="M82.7,49c0,0.6-0.1,0.8-0.7,0.7C82.3,49.4,82.6,49.2,82.7,49z"/>
	<path class="st2" d="M81.9,49.9c0,0.6-0.1,0.8-0.7,0.7C81.4,50.4,81.6,50.1,81.9,49.9z"/>
	<path class="st1" d="M80.9,50.8c0,0.6-0.1,0.8-0.7,0.7C80.5,51.2,80.8,51.1,80.9,50.8z"/>
	<path class="st1" d="M80.1,51.6c0,0.6-0.1,0.8-0.7,0.7C79.6,52.2,79.8,51.9,80.1,51.6z"/>
	<path class="st1" d="M25.6,106.5c-0.3,0.3-0.6,0.6-0.8,0.8C25.1,107,25.4,106.8,25.6,106.5z"/>
	<path class="st1" d="M79.1,52.6c0,0.6-0.1,0.8-0.7,0.7C78.7,53,79,52.9,79.1,52.6z"/>
	<path class="st1" d="M78.3,53.4c0,0.6-0.1,0.8-0.7,0.7C77.9,54,78,53.7,78.3,53.4z"/>
	<path class="st1" d="M77.5,54.4c0,0.6-0.1,0.8-0.7,0.7C76.9,54.8,77.2,54.7,77.5,54.4z"/>
	<path class="st1" d="M76.5,55.2c0,0.6-0.1,0.8-0.7,0.7C76.1,55.8,76.2,55.5,76.5,55.2z"/>
	<path class="st1" d="M75.7,56.2c0,0.6-0.1,0.8-0.7,0.7C75.1,56.6,75.4,56.3,75.7,56.2z"/>
	<path class="st1" d="M74.7,57c0,0.6-0.1,0.8-0.7,0.7C74.3,57.6,74.4,57.3,74.7,57z"/>
	<path class="st1" d="M29.1,102.9c-0.3,0.3-0.6,0.6-0.8,0.8C28.6,103.4,28.8,103.2,29.1,102.9z"/>
	<path class="st1" d="M30.1,102c-0.3,0.3-0.6,0.6-0.8,0.8C29.5,102.6,29.8,102.3,30.1,102z"/>
	<path class="st2" d="M93.6,38.3c0,0.6-0.1,0.8-0.7,0.7C93,38.7,93.3,38.4,93.6,38.3z"/>
	<path class="st1" d="M30.9,101.1c-0.3,0.3-0.6,0.6-0.8,0.8C30.4,101.6,30.6,101.4,30.9,101.1z"/>
	<path class="st2" d="M92.6,39.1c0,0.6-0.1,0.8-0.7,0.7C92.2,39.5,92.5,39.4,92.6,39.1z"/>
	<path class="st2" d="M91.8,39.9c0,0.6-0.1,0.8-0.7,0.7C91.2,40.5,91.5,40.2,91.8,39.9z"/>
	<path class="st2" d="M90.8,40.9c0,0.6-0.1,0.8-0.7,0.7C90.4,41.3,90.7,41.2,90.8,40.9z"/>
	<path class="st1" d="M28.3,103.9c-0.3,0.3-0.6,0.6-0.8,0.8C27.7,104.4,28,104.1,28.3,103.9z"/>
	<path class="st1" d="M31.9,100.2c-0.3,0.3-0.6,0.6-0.8,0.8C31.3,100.8,31.6,100.5,31.9,100.2z"/>
	<path class="st1" d="M27.4,104.7c-0.3,0.3-0.6,0.6-0.8,0.8C26.8,105.2,27,105,27.4,104.7z"/>
	<path class="st2" d="M272.1,599.1c0-0.3-0.1-0.6-0.1-0.8c0.1,0.1,0.3,0.4,0.3,0.6C272.4,598.8,272.3,598.9,272.1,599.1z"/>
	<path class="st1" d="M26.5,105.5c-0.3,0.3-0.6,0.6-0.8,0.8C25.9,106.2,26.2,105.9,26.5,105.5z"/>
	<path class="st1" d="M32.7,99.3c-0.3,0.3-0.6,0.6-0.8,0.8C32.2,99.8,32.4,99.5,32.7,99.3z"/>
	<path class="st2" d="M90,41.7c0,0.6-0.1,0.8-0.7,0.7C89.6,42.3,89.7,42,90,41.7z"/>
	<path class="st2" d="M89,42.7c0,0.6-0.1,0.8-0.7,0.7C88.6,43.1,88.9,43,89,42.7z"/>
	<path class="st2" d="M88.2,43.5c0,0.6-0.1,0.8-0.7,0.7C87.8,44.1,87.9,43.8,88.2,43.5z"/>
	<path class="st1" d="M57.9,74.1c-0.3,0.3-0.6,0.6-0.8,0.8C57.3,74.8,57.6,74.5,57.9,74.1z"/>
	<path class="st1" d="M57,75.1c-0.3,0.3-0.6,0.6-0.8,0.8C56.5,75.6,56.8,75.4,57,75.1z"/>
	<path class="st1" d="M56.1,75.9c-0.3,0.3-0.6,0.6-0.8,0.8C55.5,76.5,55.8,76.2,56.1,75.9z"/>
	<path class="st1" d="M55.2,76.9c-0.3,0.3-0.6,0.6-0.8,0.8C54.7,77.5,55,77.2,55.2,76.9z"/>
	<path class="st1" d="M54.3,77.7c-0.3,0.3-0.6,0.6-0.8,0.8C53.7,78.3,54,78,54.3,77.7z"/>
	<path class="st1" d="M53.4,78.7c-0.3,0.3-0.6,0.6-0.8,0.8C52.9,79.3,53.2,79,53.4,78.7z"/>
	<path class="st1" d="M37.3,94.8c-0.3,0.3-0.6,0.6-0.8,0.8C36.6,95.4,37,95.1,37.3,94.8z"/>
	<path class="st1" d="M52.5,79.5c-0.3,0.3-0.6,0.6-0.8,0.8C51.9,80.1,52.2,79.8,52.5,79.5z"/>
	<path class="st1" d="M51.6,80.5c-0.3,0.3-0.6,0.6-0.8,0.8C51.1,81.1,51.3,80.8,51.6,80.5z"/>
	<path class="st1" d="M50.7,81.3c-0.3,0.3-0.6,0.6-0.8,0.8C50.1,81.9,50.4,81.6,50.7,81.3z"/>
	<path class="st1" d="M38.1,94c-0.3,0.3-0.6,0.6-0.8,0.8C37.6,94.5,37.9,94.3,38.1,94z"/>
	<path class="st1" d="M49.8,82.3c-0.3,0.3-0.6,0.6-0.8,0.8C49.3,82.9,49.5,82.6,49.8,82.3z"/>
	<path class="st1" d="M49,83.2c-0.3,0.3-0.6,0.6-0.8,0.8C48.3,83.7,48.6,83.4,49,83.2z"/>
	<path class="st1" d="M48,84c-0.3,0.3-0.6,0.6-0.8,0.8C47.5,84.7,47.7,84.4,48,84z"/>
	<path class="st1" d="M39,93c-0.3,0.3-0.6,0.6-0.8,0.8C38.4,93.6,38.7,93.3,39,93z"/>
	<path class="st1" d="M47.2,85c-0.3,0.3-0.6,0.6-0.8,0.8C46.5,85.5,46.9,85.2,47.2,85z"/>
	<path class="st1" d="M46.2,85.8c-0.3,0.3-0.6,0.6-0.8,0.8C45.6,86.5,45.9,86.1,46.2,85.8z"/>
	<path class="st1" d="M45.4,86.8c-0.3,0.3-0.6,0.6-0.8,0.8C44.8,87.3,45.1,87,45.4,86.8z"/>
	<path class="st0" d="M256.4,642.1v0.4l-0.3,0.3C256.2,642.6,256.2,642.3,256.4,642.1z"/>
	<path class="st1" d="M40,92.2c-0.3,0.3-0.6,0.6-0.8,0.8C39.4,92.7,39.7,92.5,40,92.2z"/>
	<path class="st1" d="M44.4,87.6c-0.3,0.3-0.6,0.6-0.8,0.8C43.8,88.2,44.1,87.9,44.4,87.6z"/>
	<path class="st1" d="M43.6,88.6c-0.3,0.3-0.6,0.6-0.8,0.8C43,89.1,43.3,88.8,43.6,88.6z"/>
	<path class="st1" d="M42.6,89.4c-0.3,0.3-0.6,0.6-0.8,0.8C42,90,42.3,89.7,42.6,89.4z"/>
	<path class="st1" d="M40.8,91.2c-0.3,0.3-0.6,0.6-0.8,0.8C40.2,91.8,40.5,91.5,40.8,91.2z"/>
	<path class="st1" d="M41.8,90.4c-0.3,0.3-0.6,0.6-0.8,0.8C41.2,90.9,41.5,90.7,41.8,90.4z"/>
	<path class="st1" d="M73.9,58c0,0.6-0.1,0.8-0.7,0.7C73.3,58.4,73.6,58.1,73.9,58z"/>
	<path class="st1" d="M71.6,62.2c-0.4,0-0.8-0.1-1.3-0.1C70.8,61.6,71.2,61.6,71.6,62.2z"/>
	<path class="st0" d="M255.7,643.9c-0.1,0.3-0.3,0.6-0.4,0.8C255.5,644.5,255.6,644.2,255.7,643.9z"/>
	<path class="st1" d="M33.7,98.4c-0.3,0.3-0.6,0.6-0.8,0.8C33.1,99,33.4,98.7,33.7,98.4z"/>
	<path class="st1" d="M69.5,62.6c-0.3,0.3-0.6,0.6-0.8,0.8C69,63.1,69.3,62.9,69.5,62.6z"/>
	<path class="st1" d="M68.7,63.4c-0.3,0.3-0.6,0.6-0.8,0.8C68,64,68.4,63.7,68.7,63.4z"/>
	<path class="st1" d="M34.5,97.5c-0.3,0.3-0.6,0.6-0.8,0.8C34,98,34.3,97.7,34.5,97.5z"/>
	<path class="st1" d="M67.7,64.3c-0.3,0.3-0.6,0.6-0.8,0.8C67.2,64.9,67.5,64.5,67.7,64.3z"/>
	<path class="st1" d="M35.5,96.6c-0.3,0.3-0.6,0.6-0.8,0.8C35,97.2,35.2,96.9,35.5,96.6z"/>
	<path class="st1" d="M66.9,65.2c-0.3,0.3-0.6,0.6-0.8,0.8C66.4,65.8,66.6,65.5,66.9,65.2z"/>
	<path class="st1" d="M65.9,66.1c-0.3,0.3-0.6,0.6-0.8,0.8C65.4,66.6,65.7,66.3,65.9,66.1z"/>
	<path class="st1" d="M65.1,67c-0.3,0.3-0.6,0.6-0.8,0.8C64.5,67.6,64.8,67.3,65.1,67z"/>
	<path class="st1" d="M64.1,67.9c-0.3,0.3-0.6,0.6-0.8,0.8C63.6,68.4,63.9,68.1,64.1,67.9z"/>
	<path class="st1" d="M63.3,68.8c-0.3,0.3-0.6,0.6-0.8,0.8C62.7,69.4,63,69.1,63.3,68.8z"/>
	<path class="st1" d="M62.3,69.7c-0.3,0.3-0.6,0.6-0.8,0.8C61.8,70.2,62,70,62.3,69.7z"/>
	<path class="st1" d="M61.5,70.6c-0.3,0.3-0.6,0.6-0.8,0.8C60.9,71.2,61.2,70.9,61.5,70.6z"/>
	<path class="st1" d="M60.5,71.5c-0.3,0.3-0.6,0.6-0.8,0.8C60,72,60.2,71.8,60.5,71.5z"/>
	<path class="st1" d="M59.7,72.5c-0.3,0.3-0.6,0.6-0.8,0.8C59.1,73,59.4,72.7,59.7,72.5z"/>
	<path class="st1" d="M58.8,73.3c-0.3,0.3-0.6,0.6-0.8,0.8C58.2,73.8,58.4,73.6,58.8,73.3z"/>
	<path class="st1" d="M36.3,95.7c-0.3,0.3-0.6,0.6-0.8,0.8C35.8,96.4,36.1,95.9,36.3,95.7z"/>
	<path class="st1" d="M79.7,674c0.3,1.3,1.1,1.8,2.2,1.5c1-0.1,1.7-0.8,1.7-1.8c0-1.3-0.8-1.9-2.1-1.9C80.4,672,79.8,672.7,79.7,674
		z"/>
	<path class="st1" d="M99.7,163.9c0.4,0,0.8,0,1.4,0c0,0.3,0,0.7,0,1C100.5,164.6,100.1,164.2,99.7,163.9z"/>
	<path class="st1" d="M73,62.6c0.6,0,1.1,0,1.5,0c0.4,0.4,0.7,0.7,1.1,1.1c0,0.6-0.1,1.3-0.7,1.5C74.3,64.4,73.2,64,73,62.6z"/>
	<path class="st1" d="M126.9,550.3c-0.1,1,0.4,2.5,2.2,2.5c1.5,0,2.4-1,2.4-2.6c0-1.5-0.4-2.8-2.1-2.9
		C127.8,547.1,127.1,548.1,126.9,550.3z"/>
	<path class="st1" d="M105.5,600c0.7,0.4,0.4,0.7-0.1,0.8C105.4,600.6,105.4,600.3,105.5,600z"/>
	<path class="st1" d="M129.7,57.6c-0.1,0.3-0.3,0.4-0.6,0.6C129.4,58,129.6,57.7,129.7,57.6z"/>
	<path class="st1" d="M128.9,58.4c-0.3,0.3-0.4,0.4-0.7,0.7C128.5,58.8,128.7,58.6,128.9,58.4z"/>
	<path class="st1" d="M128,59.3v0.4c-0.1-0.1-0.1-0.3-0.3-0.4C127.8,59.3,127.9,59.3,128,59.3z"/>
	<path class="st2" d="M197.1,649.5c0.1-0.7,0.4-0.8,0.8-0.1C197.7,649.4,197.4,649.4,197.1,649.5z"/>
	<path class="st1" d="M79.7,674c0-1.3,0.7-2.1,1.9-2.1c1.3,0,2.1,0.7,2.1,1.9c0,1-0.7,1.7-1.7,1.8C80.8,675.8,80,675.2,79.7,674z"/>
	<path class="st1" d="M126.9,550.3c0.1-2.4,1-3.2,2.6-3.1c1.7,0.1,2.1,1.4,2.1,2.9c0,1.7-1,2.6-2.4,2.6
		C127.4,552.8,126.8,551.3,126.9,550.3z"/>
</g>
<g id="stage">
	<g>
		<rect x="237.7" y="337.8" class="st3" width="63.4" height="93.1"/>
		<polygon class="st3" points="342.9,298.5 237.7,298.5 237.7,333 305.9,333 305.9,435.8 237.7,435.8 237.7,470.3 342.9,470.3 		"/>
		<polygon class="st3" points="684,470.3 789.3,470.3 789.3,435.8 722.5,435.8 722.5,333 789.3,333 789.3,298.5 684,298.5 		"/>
		<rect x="727.3" y="337.8" class="st3" width="62.2" height="93.1"/>
		<path class="st3" d="M347.4,344.7v79.6c21.3-1.3,38.2-18.6,38.2-39.7S369.1,346.2,347.4,344.7z"/>
		<path class="st3" d="M679.4,424.1v-79.6c-21.3,1.3-38.2,18.6-38.2,39.7C641.5,405.8,658.3,423.2,679.4,424.1z"/>
		<path class="st3" d="M517.9,314.5v139.6c37.4-1.9,67.5-32.5,67.5-69.9C585,346.6,555,316.2,517.9,314.5z"/>
		<path class="st3" d="M443.3,384.4c0,38.2,31.3,69.5,69.9,70.4V314.6C474.2,314.9,443.3,346.2,443.3,384.4z"/>
		<path class="st3" d="M237.7,219.3v74.3h109.9v46.1c23.6,1.3,43.1,21,43.1,44.6s-18.8,43.2-43.1,44.6v46.1H237.7v74.3h551.6v-74.3
			H679.4V429c-23.6-1.3-43.1-21-43.1-44.6s18.8-43.2,43.1-44.6v-46.1h109.9v-74.3H237.7L237.7,219.3z M517.9,459.1v89.2h-4.9v-89.2
			c-41.3-0.8-74.8-34-74.8-75.2s33.2-74.3,74.8-75.2V220h4.9v89.2c40.2,1.9,72.4,35,72.4,75.2C589.8,424.8,558.1,457.6,517.9,459.1z
			"/>
	</g>
</g>
</svg>
