<?xml version="1.0" encoding="utf-8"?>
<!-- Generator: Adobe Illustrator 21.1.0, SVG Export Plug-In . SVG Version: 6.00 Build 0)  -->
<svg version="1.1" id="Laag_1" xmlns="http://www.w3.org/2000/svg" xmlns:xlink="http://www.w3.org/1999/xlink" x="0px" y="0px"
	 viewBox="0 0 1024 768" style="enable-background:new 0 0 1024 768;" xml:space="preserve">
<style type="text/css">
	.st0{fill:#93B8D2;}
	.st1{fill:#ACCA5A;}
	.st2{fill:#85BB3E;}
</style>
<g id="blocks">
	<g id="OSPITI">
		<path class="st0" d="M169,127.8l-45.5-43.2c-16.3,16.3-30.2,34.6-41.7,54.8l55.5,29C137.3,168.3,156,140.5,169,127.8z"/>
		<path class="st0" d="M80,142.3c-16.5,30.2-26.8,64.4-29.3,100.6h62.9c2.5-25.8,10.3-49.9,22-71.7L80,142.3z"/>
		<path class="st0" d="M182.4,136.7c-12.4,12.2-23.1,26.1-31.5,41.4l-0.3,1l0,0C139,200,131.5,223.4,129,248h122.1
			c3.4-10.9,10-20.5,18.3-27.8L182.4,136.7z"/>
	</g>
	<g id="EST_CENTRALE">
		<polygon class="st1" points="458.2,11.4 375.2,11.4 375.6,74.2 458.5,74.2 		"/>
		<polygon class="st1" points="639,74.2 639,11.4 556,11.4 556,74.2 		"/>
		<polygon class="st1" points="461.9,11.4 462.3,74.2 552.3,74.2 552.3,11.4 		"/>
		<polygon class="st1" points="554.9,85 555.2,205.6 634.9,205.6 634.6,85 		"/>
		<polygon class="st1" points="381.2,85 381.5,205.6 461.4,205.6 461.1,85 		"/>
		<polygon class="st1" points="464.5,85 464.8,205.6 551.6,205.6 551.5,85 		"/>
	</g>
	<g id="NORD">
		<path class="st0" d="M131.7,591.1l0.3,0.3l-57,26.1c12.2,24.9,28.3,47.7,47.7,67.3l42.7-46.1C151.5,624.7,140.4,608.6,131.7,591.1
			L131.7,591.1z"/>
		<path class="st0" d="M130.3,588.2L130.3,588.2c-9.7-20.2-15.6-42.7-17.1-66.3H50.3c1.9,32.7,10,63.9,23.1,92.3L130.3,588.2
			L130.3,588.2z"/>
		<rect x="49.6" y="331.4" class="st0" width="62.6" height="108.7"/>
		<path class="st0" d="M112.4,508.5v-64.4H49.8v64.4c0,3.4,0,6.6,0.3,10h62.6C112.7,515.1,112.4,511.6,112.4,508.5z"/>
		<path class="st0" d="M112.4,261.7c0-4.9,0.3-10,0.7-14.9H50.3c-0.3,4.9-0.7,10-0.7,14.9v66.1h62.6v-66.1H112.4z"/>
		<path class="st0" d="M248.6,265.8c0-4.9,0.7-9.7,1.9-14.4H128.8c-0.3,4.7-0.7,9.3-0.7,14.4v63.6h120.6v-63.6H248.6z"/>
		<rect x="128.1" y="332.8" class="st0" width="120.6" height="104.6"/>
		<path class="st0" d="M249.4,512.2c-0.7-3.1-1-6.3-1-9.3v-62.1H128.1v62.1c0,3.1,0,6.3,0.3,9.3H249.4z"/>
		<path class="st0" d="M250.1,516H128.5c3.1,43.2,21.5,82.6,50.2,112.1l81.9-89C255.7,532.3,251.9,524.5,250.1,516z"/>
	</g>
	<g id="FAMILY">
		<polygon class="st1" points="638.3,85 638.6,205.6 711.2,205.6 710.9,85 		"/>
		<path class="st1" d="M714.3,85l0.3,120.6c11.9,0,23.1,3.7,32.4,10l88.5-83.3C803.5,102.8,761.1,85,714.3,85z"/>
	</g>
	<g id="PREMIUM_CLUB">
		<polygon class="st1" points="557.6,696.1 557.9,758.7 640.8,758.7 640.8,696.1 		"/>
		<polygon class="st1" points="377.3,696.1 377.5,758.7 460.4,758.7 460,696.1 		"/>
		<polygon class="st1" points="463.8,696.1 463.8,758.7 554.2,758.7 554.2,696.1 		"/>
		<path class="st1" d="M218.2,590.4l-37.1,40.2c29.8,29.8,70,49.2,114.6,52.4l-0.3-63.6C236.3,615.7,221.8,597.9,218.2,590.4z"/>
		<path class="st1" d="M379.1,620.1h-60.9c-6.8,0-13.1-0.3-18.7-0.3l0.3,63.9c3.1,0,6.3,0.3,9.3,0.3h70.4L379.1,620.1z"/>
		<polygon class="st1" points="382.9,620.1 382.9,683.4 462.6,683.4 462.3,620.1 		"/>
		<path class="st1" d="M710.5,620.6c-9,0-14.6-1-14.9-1h-56.1l0.3,63.6h72.6l-0.3-62.6C711.9,620.6,711.2,620.6,710.5,620.6z"/>
		<polygon class="st1" points="466,683.4 553,683.4 552.6,620.1 466,620.1 		"/>
		<polygon class="st1" points="636.1,620.1 556.4,620.1 556.4,683.4 636.1,683.4 		"/>
		<polygon class="st1" points="635.8,563 556,563 556.4,616.4 636.1,616.4 		"/>
		<path class="st1" d="M696,616.4c0.3,0,6.6,1,16.3,1v-54.3h-72.6v53.3H696L696,616.4z"/>
		<polygon class="st1" points="462.3,616.4 462.3,563 382.5,563 382.5,616.4 		"/>
		<path class="st1" d="M379.1,616.4v-53.3h-70.4c-3.1,0-6.6-0.3-9.7-1V616c5.9,0.3,12.2,0.7,19,0.7h61.1V616.4z"/>
		<polygon class="st1" points="552.6,616.4 552.6,563 465.6,563 466,616.4 		"/>
		<path class="st1" d="M799.1,589.6c-27.8,24.9-61.7,30.2-83.3,31.2l0.3,62.6c25.8-0.3,50.2-5.9,72.2-15.9l1-0.7l0,0
			c18.3-8.5,34.9-19.7,49.2-33.6l1.2-1.2l0,0c0.3-0.3,0.3-0.3,0.7-0.7L799.1,589.6z"/>
	</g>
	<g id="SUD">
		<path class="st0" d="M886.1,171l54.6-30.9c-11.9-21.5-26.8-40.9-44.3-58l-45.6,43.4C864.9,138.6,876.8,154.2,886.1,171z"/>
		<path class="st0" d="M887.9,595.7l61.1,17.8c13.1-28,20.9-58.9,22.7-91.6h-62.9C907.3,548.4,899.8,573.3,887.9,595.7z"/>
		<rect x="909.5" y="331.4" class="st0" width="62.6" height="108.7"/>
		<path class="st0" d="M908.5,243.3h62.9c-2.5-35.8-12.7-69.9-29-99.7l-54.6,30.9C899.5,195.6,905.9,218.2,908.5,243.3z"/>
		<path class="st0" d="M909.5,508.5c0,3.4,0,6.6-0.3,10h62.6c0-3.1,0.3-6.6,0.3-10v-64.4h-62.6V508.5z"/>
		<path class="st0" d="M971.7,247h-62.9c0.3,4.9,0.7,10,0.7,14.9v66.1h62.6v-66.3C972.1,256.7,972.1,251.7,971.7,247z"/>
		<path class="st0" d="M886.9,597.4c-8.5,15.6-19,29.8-31.2,42.4l43.9,44.6c19.3-19.7,35.4-42.4,47.7-67.7l-61.1-17.8L886.9,597.4z"
			/>
		<path class="st0" d="M873.5,586.7h0.3c11.2-21.5,18.3-45.5,20.2-71.1H772.4c-2.2,10.5-7.5,20-14.6,27.8l84.8,85.6
			c11.9-12.2,22-25.8,30.2-40.9L873.5,586.7z"/>
		<path class="st0" d="M774.5,502.9c0,3.1-0.3,6.3-1,9.3h120.9c0.3-3.1,0.3-6.3,0.3-9.3v-62.1H774.1v62.1H774.5z"/>
		<rect x="774.5" y="332.8" class="st0" width="120.6" height="104.6"/>
		<path class="st0" d="M894.7,265.8c0-4.7-0.3-9.7-0.7-14.4H772.4c1.2,4.7,1.9,9.3,1.9,14.4v63.6h120.6v-63.6H894.7z"/>
		<path class="st0" d="M893.9,247.7c-2.5-24.3-9.7-47.3-20.9-68l-1-1.5l0,0c-9-16.5-20.5-31.2-33.9-43.9l-88.2,82.9
			c10,7.5,17.8,18.1,21.5,30.2h122.5L893.9,247.7L893.9,247.7z"/>
	</g>
	<g id="OVEST_LATERALE">
		<path class="st1" d="M715.6,563v54.3c20.9-0.7,53.9-6.3,80.7-29.8l-40.5-41.2C745.5,556.2,731.2,562.4,715.6,563z"/>
		<path class="st1" d="M263.1,541.9l-42.4,45.8c1.5,4.1,12.2,24.3,75.1,28v-54.3C282.8,558.7,271.3,551.6,263.1,541.9z"/>
		<path class="st0" d="M853.3,642.8c-14.9,14.4-34.6,27.8-53.6,36.5l29.7,55.5c24.9-11.9,47.3-27.8,67-46.8L853.3,642.8z"/>
		<path class="st0" d="M167.5,640.3l-42.7,46.5c26.8,24.9,52.4,45.1,84.8,56.1L226,684l-4.9-3.1
			C197.2,668.9,187.2,658.4,167.5,640.3z"/>
	</g>
	<g id="OVEST-2">
		<path class="st1" d="M796.7,680.8c0,0-30.2,15.3-72.9,15.3l0.3,62.6c36.5-0.3,71.1-8.5,102.3-22.7L796.7,680.8z"/>
		<polygon class="st1" points="644.2,696.1 644.6,758.7 720,758.7 720,696.1 		"/>
		<path class="st1" d="M304,696.1c-3.1,0-6.6,0-9.7-0.3l0.3,62.6c3.1,0,6.3,0.3,9.3,0.3h69.9l-0.3-62.6H304z"/>
		<path class="st1" d="M212.4,743.7c26.1,9,51.7,14.4,78.9,14.4v-62.1c-20.5-0.3-42.1-3.7-61.7-10.9L212.4,743.7z"/>
	</g>
	<g id="NORD-SUD_EST-2_LATERALE">
		<path class="st0" d="M126.1,82l45.5,43.2c13.4-12.7,29-23.4,45.8-31.7l-28.7-55.8C165.6,49.2,144.4,64.2,126.1,82z"/>
		<path class="st0" d="M828.4,34l-28.7,55.8c16.8,8.5,34.3,21.2,47.7,33.9l43.2-45.5C872.3,60.4,851.5,45.5,828.4,34z"/>
	</g>
	<g id="EST_LATERALE">
		<path class="st1" d="M230.4,102.8l-1.5,1l0,0c-16.3,8.1-30.9,18.3-43.9,30.5l87.5,83.4c6.6-4.9,14.1-8.6,22-10.5l-0.3-121.6
			C271.6,87.6,250.1,93.5,230.4,102.8z"/>
		<path class="st1" d="M308.6,85c-3.7,0-7.1,0-10.9,0.3l0.3,121.3c3.4-0.7,6.8-1,10.5-1h69.2L377.5,85L308.6,85L308.6,85z"/>
		<path class="st1" d="M300.3,74.2H372l-0.3-62.6h-71.4c-3.7,0-7.5,0-11.5,0.3l0.3,62.6C292.8,74.2,296.6,74.2,300.3,74.2z"/>
		<path class="st1" d="M218.9,92.5c20.2-10,42.7-15.9,66.3-17.8l-0.3-62.6C251.4,14,220.1,22.4,191.7,36l28.7,55.8L218.9,92.5z"/>
		<polygon class="st1" points="642.7,11.4 642.7,74.2 718.3,74.2 718.2,11.4 		"/>
		<path class="st1" d="M725.8,11.4L725.5,74c26.5-1,42.7,1.9,59.5,8.1l9.3,4.7l27.5-56.3C793.5,16.8,766.3,11.4,725.8,11.4z"/>
	</g>
</g>
<g id="stage">
	<g>
		<rect x="276.2" y="343.9" class="st2" width="54.3" height="79.8"/>
		<polygon class="st2" points="366.3,310.2 276.2,310.2 276.2,339.8 334.7,339.8 334.7,427.8 276.2,427.8 276.2,457.4 366.3,457.4 
					"/>
		<polygon class="st2" points="658.5,457.4 748.8,457.4 748.8,427.8 691.6,427.8 691.6,339.8 748.8,339.8 748.8,310.2 658.5,310.2 
					"/>
		<rect x="695.7" y="343.9" class="st2" width="53.4" height="79.8"/>
		<path class="st2" d="M370.2,349.7v68.1c18.1-1.2,32.8-15.9,32.8-34.1S388.8,351.1,370.2,349.7z"/>
		<path class="st2" d="M654.6,417.8v-68.1c-18.1,1.2-32.8,15.9-32.8,34.1C622,402.1,636.5,416.9,654.6,417.8z"/>
		<path class="st2" d="M516.2,323.8v119.6c32-1.7,57.8-27.9,57.8-59.9C573.7,351.4,548.1,325.4,516.2,323.8z"/>
		<path class="st2" d="M452.4,383.8c0,32.8,26.8,59.5,59.9,60.3v-120C478.8,324.3,452.4,351.1,452.4,383.8z"/>
		<path class="st2" d="M276.2,242.4v63.6h94.2v39.5c20.3,1.2,36.9,17.9,36.9,38.2s-16.1,37-36.9,38.2v39.5h-94.2v63.6h472.6v-63.6
			h-94.2V422c-20.3-1.2-36.9-17.9-36.9-38.2s16.1-37,36.9-38.2v-39.5h94.2v-63.6L276.2,242.4L276.2,242.4z M516.2,447.8v76.4h-4.1
			v-76.4c-35.3-0.7-64-29.2-64-64.5s28.5-63.6,64-64.5v-76.1h4.1v76.4c34.5,1.7,62,30,62,64.5C577.8,418.5,550.7,446.5,516.2,447.8z
			"/>
	</g>
</g>
</svg>
