<?xml version="1.0" encoding="utf-8"?>
<!-- Generator: Adobe Illustrator 21.0.0, SVG Export Plug-In . SVG Version: 6.00 Build 0)  -->
<svg version="1.1" id="Laag_1" xmlns="http://www.w3.org/2000/svg" xmlns:xlink="http://www.w3.org/1999/xlink" x="0px" y="0px"
	 viewBox="0 0 1024 768" style="enable-background:new 0 0 1024 768;" xml:space="preserve">
<style type="text/css">
	.st0{fill:#ACCA5A;}
	.st1{fill:#93B8D2;}
	.st2{fill:#85BB3E;}
</style>
<g>
	<path class="st0" d="M844.5,632.5c0,41.6,0,82.4,0,124.2c-26.2,0-51.8,0-78.6,0c0-41.1,0-82.1,0-124.2
		C791.4,632.5,817.4,632.5,844.5,632.5z"/>
	<path class="st1" d="M847.8,386.4c41.3,0,81.3,0,122.2,0c0,26.6,0,52.4,0,79.5c-40.4,0-80.9,0-122.2,0
		C847.8,439.5,847.8,413.4,847.8,386.4z"/>
	<path class="st1" d="M847.8,296c0-26.5,0-52.6,0-79.8c40.7,0,80.9,0,122,0c0,26.7,0,52.7,0,79.8C929.4,296,889.4,296,847.8,296z"/>
	<path class="st1" d="M847.9,301.6c41,0,81.2,0,122.1,0c0,26.7,0,52.4,0,79.3c-40.8,0-80.9,0-122.1,0
		C847.9,354.6,847.9,328.3,847.9,301.6z"/>
	<path class="st1" d="M970.1,551.7c-41,0-81.2,0-122.3,0c0-26.7,0-52.7,0-79.9c40.7,0,81.1,0,122.3,0
		C970.1,498.4,970.1,524.1,970.1,551.7z"/>
	<path class="st0" d="M437.5,8.9c26.1,0,50.8,0,76.4,0c0,41.1,0,81.7,0,123c-25.3,0-50.3,0-76.4,0C437.5,91.2,437.5,50.7,437.5,8.9z
		"/>
	<path class="st0" d="M765.7,131.9c0-40.9,0-81.5,0-122.7c25.6,0,50.2,0,76.1,0c0,40.8,0,81.3,0,122.7
		C816.7,131.9,791.5,131.9,765.7,131.9z"/>
	<path class="st0" d="M432.4,131.8c-26.2,0-51.2,0-77,0c0-41,0-81.5,0-122.9c25.9,0,51.1,0,77,0C432.4,49.9,432.4,90.2,432.4,131.8z
		"/>
	<path class="st0" d="M596.3,131.9c-25.6,0-50.6,0-76.5,0c0-40.7,0-81.3,0-122.7c25.2,0,50.2,0,76.5,0
		C596.3,50.2,596.3,90.7,596.3,131.9z"/>
	<path class="st1" d="M969.8,210.6c-40.7,0-80.5,0-121.2,0c0-24.6,0-48.4,0-73c40.5,0,80.3,0,121.2,0
		C969.8,161.6,969.8,185.4,969.8,210.6z"/>
	<path class="st0" d="M684.8,10c25.5,0,49.8,0,74.8,0c0,40.5,0,80.4,0,121.1c-24.6,0-49.2,0-74.8,0C684.8,91,684.8,50.9,684.8,10z"
		/>
	<path class="st0" d="M601.4,131.3c0-40.9,0-81.5,0-122.5c25.9,0,51,0,77,0c0,40.9,0,81.2,0,122.5
		C652.7,131.3,627.5,131.3,601.4,131.3z"/>
	<path class="st0" d="M266.7,130.9c-27.5,0-50.2,0-74.2,0c0-41.4,0-80.8,0-121.1c24.6,0,48.9,0,74.2,0
		C266.7,50.7,266.7,91.7,266.7,130.9z"/>
	<path class="st1" d="M848.2,628.6c0-23.9,0-47.2,0-71.4c40.9,0,81,0,121.4,0c0,24.2,0,47.4,0,71.4
		C929,628.6,889.5,628.6,848.2,628.6z"/>
	<path class="st0" d="M274.3,10.8c25.2,0,49.4,0,74.7,0c0,39.5,0,79.6,0,120.4c-24.7,0-49.2,0-74.7,0
		C274.3,91.3,274.3,51.5,274.3,10.8z"/>
	<path class="st0" d="M193.7,755.5c0-40.6,0-80.5,0-121.3c23.9,0,48.1,0,73.4,0c0,40.1,0,80.2,0,121.3
		C243,755.5,219.2,755.5,193.7,755.5z"/>
	<path class="st1" d="M841.6,295.6c-24.4,0-48.3,0-73.1,0c0-26.3,0-52,0-78.5c24.3,0,48.2,0,73.1,0
		C841.6,242.8,841.6,268.5,841.6,295.6z"/>
	<path class="st1" d="M768.4,472.2c24.7,0,48.5,0,73.3,0c0,26.1,0,52,0,78.5c-24.6,0-48.7,0-73.3,0
		C768.4,524.2,768.4,498.6,768.4,472.2z"/>
	<path class="st1" d="M768.4,302.1c24.5,0,48.4,0,73.3,0c0,25.9,0,51.6,0,78.2c-24.1,0-48.2,0-73.3,0
		C768.4,354.4,768.4,329,768.4,302.1z"/>
	<path class="st1" d="M768.8,387.2c24.5,0,48.3,0,73.1,0c0,26.1,0,51.8,0,78.3c-24.1,0-48,0-73.1,0
		C768.8,439.9,768.8,414.3,768.8,387.2z"/>
	<path class="st0" d="M355.2,211c0-25.2,0-49.1,0-73.8c25.9,0,51.1,0,77.1,0c0,24.8,0,48.9,0,73.8C406.6,211,381.3,211,355.2,211z"
		/>
	<path class="st1" d="M195.4,295.2c0-26.4,0-52.1,0-78.4c23.9,0,47,0,71.2,0c0,25.9,0,51.6,0,78.4
		C243.5,295.2,220.1,295.2,195.4,295.2z"/>
	<path class="st1" d="M268,466.6c-24.6,0-48.5,0-73.3,0c0-26.5,0-52.9,0-80.1c24.3,0,48.4,0,73.3,0C268,412.9,268,439,268,466.6z"/>
	<path class="st1" d="M194.3,381.1c0-27,0-52.9,0-79.7c24.6,0,48.7,0,73.7,0c0,26.5,0,52.7,0,79.7
		C243.6,381.1,219.4,381.1,194.3,381.1z"/>
	<path class="st1" d="M195.4,551.2c0-27,0-52.7,0-79.3c24.1,0,47.5,0,71.8,0c0,26.4,0,52.4,0,79.3
		C243.3,551.2,219.9,551.2,195.4,551.2z"/>
	<path class="st0" d="M514.2,137.4c0,24.8,0,48.4,0,72.9c-25.4,0-50.4,0-76.6,0c0-23.6,0-47.7,0-72.9
		C463.2,137.4,488.1,137.4,514.2,137.4z"/>
	<path class="st0" d="M274.3,137.6c24.7,0,49.4,0,74.8,0c0,24.1,0,47.5,0,71.9c-24.8,0-49.3,0-74.8,0
		C274.3,185.7,274.3,162.2,274.3,137.6z"/>
	<path class="st0" d="M685.8,137.9c24.5,0,48.8,0,73.7,0c0,24.1,0,47.5,0,71.8c-24.4,0-48.2,0-73.7,0
		C685.8,186.3,685.8,162.5,685.8,137.9z"/>
	<path class="st0" d="M601.3,136.8c26.3,0,51,0,76.8,0c0,24.4,0,48.6,0,73.8c-25.3,0-50.6,0-76.8,0
		C601.3,186.2,601.3,162.1,601.3,136.8z"/>
	<path class="st0" d="M520,137.3c25.3,0,50,0,75.8,0c0,24.3,0,48.1,0,72.9c-25.1,0-50.1,0-75.8,0C520,186.1,520,161.9,520,137.3z"/>
	<path class="st0" d="M267.5,204.7c-22.3-22.9-43.9-45-65.4-67c20.6,0,42.5,0,65.4,0C267.5,159.9,267.5,182,267.5,204.7z"/>
	<path class="st1" d="M196.7,143.7c21.6,21.7,43,43.2,65.3,65.6c-21.8,0-43.1,0-65.3,0C196.7,187.8,196.7,166,196.7,143.7z"/>
</g>
<path class="st1" d="M839.1,624.2c-22.3-22.9-43.9-45-65.4-67c20.6,0,42.5,0,65.4,0C839.1,579.4,839.1,601.5,839.1,624.2z"/>
<path class="st0" d="M768.3,563.2c21.6,21.7,43,43.2,65.3,65.6c-21.8,0-43.1,0-65.3,0C768.3,607.3,768.3,585.5,768.3,563.2z"/>
<path class="st0" d="M769.7,207.7c22.3-22.9,43.9-45,65.4-67c-20.6,0-42.5,0-65.4,0C769.7,162.9,769.7,185,769.7,207.7z"/>
<path class="st1" d="M840.5,146.7c-21.6,21.7-43,43.2-65.3,65.6c21.8,0,43.1,0,65.3,0C840.5,190.8,840.5,169.1,840.5,146.7z"/>
<path class="st1" d="M197.1,624.2c22.3-22.9,43.9-45,65.4-67c-20.6,0-42.5,0-65.4,0C197.1,579.4,197.1,601.5,197.1,624.2z"/>
<path class="st0" d="M267.9,563.2c-21.6,21.7-43,43.2-65.3,65.6c21.8,0,43.1,0,65.3,0C267.9,607.3,267.9,585.5,267.9,563.2z"/>
<path class="st1" d="M65.9,387.3c41.3,0,81.3,0,122.2,0c0,26.6,0,52.4,0,79.5c-40.4,0-80.9,0-122.2,0
	C65.9,440.4,65.9,414.3,65.9,387.3z"/>
<path class="st1" d="M66,296.9c0-26.5,0-52.6,0-79.8c40.7,0,80.9,0,122,0c0,26.7,0,52.7,0,79.8C147.5,296.9,107.6,296.9,66,296.9z"
	/>
<path class="st1" d="M66.1,302.5c41,0,81.2,0,122.1,0c0,26.7,0,52.4,0,79.3c-40.8,0-80.9,0-122.1,0
	C66.1,355.5,66.1,329.2,66.1,302.5z"/>
<path class="st1" d="M188.2,552.6c-41,0-81.2,0-122.3,0c0-26.7,0-52.7,0-79.9c40.7,0,81.1,0,122.3,0
	C188.2,499.3,188.2,525,188.2,552.6z"/>
<path class="st1" d="M188,211.5c-40.7,0-80.5,0-121.2,0c0-24.6,0-48.4,0-73c40.5,0,80.3,0,121.2,0C188,162.5,188,186.3,188,211.5z"
	/>
<path class="st1" d="M66.4,629.5c0-23.9,0-47.2,0-71.4c40.9,0,81,0,121.4,0c0,24.2,0,47.4,0,71.4
	C147.2,629.5,107.7,629.5,66.4,629.5z"/>
<path class="st0" d="M438,757.9c26.1,0,50.8,0,76.4,0c0-41.1,0-81.7,0-123c-25.3,0-50.3,0-76.4,0C438,675.6,438,716.2,438,757.9z"/>
<path class="st0" d="M433,635c-26.2,0-51.2,0-77,0c0,41,0,81.5,0,122.9c25.9,0,51.1,0,77,0C433,716.9,433,676.7,433,635z"/>
<path class="st0" d="M596.8,635c-25.6,0-50.6,0-76.5,0c0,40.7,0,81.3,0,122.7c25.2,0,50.2,0,76.5,0
	C596.8,716.6,596.8,676.1,596.8,635z"/>
<path class="st0" d="M685.4,756.9c25.5,0,49.8,0,74.8,0c0-40.5,0-80.4,0-121.1c-24.6,0-49.2,0-74.8,0
	C685.4,675.9,685.4,716,685.4,756.9z"/>
<path class="st0" d="M601.9,635.6c0,40.9,0,81.5,0,122.5c25.9,0,51,0,77,0c0-40.9,0-81.2,0-122.5C653.3,635.6,628,635.6,601.9,635.6
	z"/>
<path class="st0" d="M274.9,635.6c25.4,0,50,0,74.7,0c0,40.8,0,80.9,0,120.4c-25.2,0-49.5,0-74.7,0
	C274.9,715.3,274.9,675.5,274.9,635.6z"/>
<path class="st0" d="M355.8,555.9c0,25.2,0,49.1,0,73.8c25.9,0,51.1,0,77.1,0c0-24.8,0-48.9,0-73.8
	C407.1,555.9,381.8,555.9,355.8,555.9z"/>
<path class="st0" d="M514.8,629.4c0-24.8,0-48.4,0-72.9c-25.4,0-50.4,0-76.6,0c0,23.6,0,47.7,0,72.9
	C463.8,629.4,488.7,629.4,514.8,629.4z"/>
<path class="st0" d="M274.9,629.2c24.7,0,49.4,0,74.8,0c0-24.1,0-47.5,0-71.9c-24.8,0-49.3,0-74.8,0
	C274.9,581.1,274.9,604.6,274.9,629.2z"/>
<path class="st0" d="M686.3,629c24.5,0,48.8,0,73.7,0c0-24.1,0-47.5,0-71.8c-24.4,0-48.2,0-73.7,0
	C686.3,580.5,686.3,604.3,686.3,629z"/>
<path class="st0" d="M601.9,630c26.3,0,51,0,76.8,0c0-24.4,0-48.6,0-73.8c-25.3,0-50.6,0-76.8,0C601.9,580.6,601.9,604.8,601.9,630z
	"/>
<path class="st0" d="M520.6,629.5c25.3,0,50,0,75.8,0c0-24.3,0-48.1,0-72.9c-25.1,0-50.1,0-75.8,0
	C520.6,580.7,520.6,604.9,520.6,629.5z"/>
<g id="stage">
	<g>
		<rect x="287.3" y="342.7" class="st2" width="53" height="77.8"/>
		<polygon class="st2" points="374.9,309.9 287.3,309.9 287.3,338.5 344.2,338.5 344.2,424 287.3,424 287.3,452.8 374.9,452.8 		"/>
		<polygon class="st2" points="658.9,452.8 746.6,452.8 746.6,424 691.1,424 691.1,338.5 746.6,338.5 746.6,309.9 658.9,309.9 		"/>
		<rect x="695.1" y="342.7" class="st2" width="51.8" height="77.8"/>
		<path class="st2" d="M378.6,348.3v66.2c17.5-1,31.9-15.4,31.9-33.2C410.5,363.5,396.8,349.5,378.6,348.3z"/>
		<path class="st2" d="M655.2,414.5v-66.2c-17.5,1-31.9,15.4-31.9,33.2C623.6,399.4,637.5,413.8,655.2,414.5z"/>
		<path class="st2" d="M520.6,323.3v116.3c31-1.8,56.2-27,56.2-58.2C576.7,349.8,551.6,324.7,520.6,323.3z"/>
		<path class="st2" d="M458.6,381.3c0,31.9,26,58,58.2,58.5V323C484.2,323.6,458.6,349.5,458.6,381.3z"/>
		<path class="st2" d="M287.3,244v62h91.6v38.4c19.7,1,35.9,17.5,35.9,37.2s-15.7,35.9-35.9,37.2v38.4h-91.6v62h459.4v-62h-91.6V419
			c-19.7-1-35.9-17.5-35.9-37.2c0-19.7,15.7-35.9,35.9-37.2V306h91.6v-62H287.3L287.3,244z M520.6,443.7v74.2h-4v-74.2
			c-34.4-0.7-62.2-28.3-62.2-62.6c0-34.1,27.7-62,62.2-62.6v-73.7h4V319c33.5,1.8,60.2,29.2,60.2,62.6
			C580.7,415,554.1,442.6,520.6,443.7z"/>
	</g>
</g>
</svg>
