<?xml version="1.0" encoding="utf-8"?>
<!-- Generator: Adobe Illustrator 21.1.0, SVG Export Plug-In . SVG Version: 6.00 Build 0)  -->
<svg version="1.1" id="venueMap-327-415" xmlns="http://www.w3.org/2000/svg" xmlns:xlink="http://www.w3.org/1999/xlink" x="0px"
	 y="0px" viewBox="0 0 1024 768" style="enable-background:new 0 0 1024 768;" xml:space="preserve">
<style type="text/css">
	.st0{fill:#ACCA5A;}
	.st1{fill:#93B8D2;}
	.st2{fill:#85BB3E;}
</style>
<g>
	<path class="st0" d="M232.9,67.8l-9.4-41.4c-1.2-5.2-0.2-9.9,2.6-13.4c2.8-3.5,7.3-5.7,12.7-5.7h511.4c5.2,0,9.7,1.9,12.7,5.7
		c2.8,3.5,3.8,8.5,2.6,13.4l-9.4,41.4H232.9z"/>
	<rect x="280.3" y="541.8" class="st0" width="218.7" height="21"/>
	<path class="st0" d="M265.2,706c-4.9,0-8.9-4-8.9-8.9V550.8c0-4.9,4-8.9,8.9-8.9h8.2V706H265.2z"/>
	<path class="st0" d="M560.5,563v-21h181.1c5.2,0,10.4,4.2,11.3,9.2l2.6,11.8H560.5z"/>
	<rect x="506.1" y="541.8" class="st0" width="47.6" height="155.9"/>
	<path class="st0" d="M442.3,706.9c-1.4-0.5-3.1-0.9-4.7-0.9h-121v-76.3h125.7V706.9z"/>
	<path class="st0" d="M728.1,706v-77.7h41.2l14.8,69.7c0.5,2.1,0,4.2-1.2,5.9c-1.2,1.4-3.1,2.4-5.4,2.4h-49.4V706z"/>
	<path class="st0" d="M608.5,628.3h112.8V706H612.7c-1.4,0-2.8,0.2-4.2,0.7V628.3L608.5,628.3z"/>
	<path class="st1" d="M89.5,548.4c-7.5,0-12.5-4-12.5-10.1V121.5c0-5.9,4.9-10.1,12.5-10.1c1.2,0,2.6,0.2,3.8,0.5l33.9,6.4v423.6
		l-33.9,6.4C91.9,548.1,90.7,548.4,89.5,548.4L89.5,548.4z"/>
	<polygon class="st1" points="863.2,543.7 863.2,502 863.4,502 863.4,495.2 863.2,495.2 863.2,276.2 863.4,276.2 863.4,269.1 
		863.2,269.1 863.2,120.6 879.9,118 879.9,546.5 	"/>
	<rect x="807.9" y="254.8" class="st1" width="12.7" height="156.8"/>
	<polygon class="st1" points="886.7,413.5 886.7,249.6 903.5,249.6 903.5,264.9 903.2,264.9 903.2,271.7 903.5,271.7 903.5,413.5 	
		"/>
	<rect x="526.5" y="74.6" class="st0" width="54.6" height="47.1"/>
	<polygon class="st0" points="588.2,121.7 588,74.6 640.5,74.6 640.5,121.7 	"/>
	<rect x="406.4" y="74.6" class="st0" width="25" height="47.1"/>
	<rect x="437.3" y="74.6" class="st0" width="25" height="47.1"/>
	<rect x="354.2" y="74.6" class="st0" width="45.2" height="47.1"/>
	<rect x="295.5" y="74.6" class="st0" width="51.6" height="47.1"/>
	<path class="st0" d="M703.1,121.7V74.6h51.3l-6.1,27.1c-2.6,11.1-13.9,20.2-25.2,20.2h-20V121.7z"/>
	<rect x="647.3" y="74.6" class="st0" width="48.7" height="47.1"/>
	<path class="st0" d="M265.9,121.7c-11.3,0-22.6-8.9-25.2-20.2l-6.1-27.1h53.9v47.1h-22.6V121.7z"/>
	<rect x="469.3" y="74.6" class="st0" width="50.1" height="47.1"/>
	<rect x="827.4" y="276.2" class="st1" width="28.7" height="37.7"/>
	<polygon class="st1" points="886.7,444.3 886.7,420.5 910.5,420.5 910.5,398.4 940.4,398.4 940.4,444.3 	"/>
	<rect x="827.4" y="320.7" class="st1" width="28.7" height="37.7"/>
	<rect x="807.9" y="456.3" class="st1" width="48.5" height="38.8"/>
	<rect x="827.4" y="365.4" class="st1" width="28.7" height="37.9"/>
	<polygon class="st1" points="807.9,449.2 807.9,418.4 827.4,418.4 827.4,410.2 856.4,410.2 856.4,449.2 	"/>
	<polygon class="st1" points="827.4,269.1 827.4,247.7 807.9,247.7 807.9,229.6 856.4,229.6 856.4,269.1 	"/>
	<rect x="807.9" y="184.6" class="st1" width="48.5" height="38.1"/>
	<path class="st1" d="M807.9,177.5v-31.8c0-8.9,10.6-18.1,23.3-20l25.2-4v55.8H807.9z"/>
	<rect x="886.7" y="451.4" class="st1" width="53.7" height="42.4"/>
	<path class="st1" d="M886.7,157.5v-40.7l31.1-4.9c1.6-0.2,3.3-0.5,4.9-0.5c10.1,0,17.4,5.2,17.4,12.5v33.7H886.7z"/>
	<path class="st1" d="M831.2,538.7c-12.7-2.1-23.3-11.3-23.3-20v-16.5h48.5v40.5L831.2,538.7z"/>
	<path class="st1" d="M923,552.8c-1.6,0-3.3-0.2-4.9-0.5l-31.1-4.9v-46.9h53.4v40c0,4.5-2.6,7.1-4.7,8.7
		C932.7,551.7,927.9,552.8,923,552.8L923,552.8z"/>
	<polygon class="st1" points="910.5,264.9 910.5,242.8 886.7,242.8 886.7,213.1 940.4,213.1 940.4,264.9 	"/>
	<rect x="910.5" y="336.9" class="st1" width="30.1" height="54.6"/>
	<rect x="886.7" y="164.6" class="st1" width="53.7" height="41.7"/>
	<rect x="910.5" y="271.7" class="st1" width="30.1" height="58.2"/>
	<rect x="405.8" y="569.9" class="st0" width="37.2" height="53"/>
	<rect x="280.3" y="569.9" class="st0" width="30.1" height="53"/>
	<rect x="361.8" y="569.9" class="st0" width="37.2" height="53"/>
	<rect x="317.5" y="569.9" class="st0" width="37.2" height="53"/>
	<rect x="450.1" y="569.9" class="st0" width="49" height="53"/>
	<rect x="648.3" y="569.9" class="st0" width="32.3" height="51.3"/>
	<rect x="687.4" y="569.9" class="st0" width="32.3" height="51.3"/>
	<polygon class="st0" points="605.9,569.9 603.3,569.9 560.5,569.9 560.5,621.4 603.3,621.4 605.9,621.4 641.5,621.4 641.5,569.9 	
		"/>
	<polygon class="st0" points="727.4,621.4 727.4,569.9 756.8,569.9 767.9,621.4 	"/>
	<rect x="280.3" y="629.9" class="st0" width="29.2" height="76.3"/>
	<path class="st0" d="M460.2,766c-4.9,0-8.9-4-8.9-8.9v-37.4c0-2.6-0.7-4.9-1.9-7.1v-82.9H499v74.9h61.5v-76.3h41.2v83.6
		c-1.6,2.4-2.6,4.9-2.6,7.8V757c0,4.9-4,8.9-8.9,8.9L460.2,766L460.2,766z"/>
	<path class="st1" d="M136.6,119.9l32.3,5.9c9.7,1.9,18.1,10.1,18.1,17.9v372.7c0,7.8-8.5,16-18.1,17.7l-32.3,5.9
		C136.6,539.9,136.6,119.9,136.6,119.9z"/>
</g>
<g>
	<g id="shape-5-executive_boxes">
		<path class="st1" d="M89.4,548.3c-7.5,0-12.5-4-12.5-10V121.6c0-6,5-10,12.6-10c1.3,0,2.5,0.1,3.9,0.4l33.9,6.2v423.6L93.3,548
			C92,548.2,90.7,548.3,89.4,548.3L89.4,548.3z"/>
	</g>
	<g id="shape-5-glaziers_lounge">
		<path class="st0" d="M442.3,706.9c-1.5-0.6-3.1-0.9-4.7-0.9H316.5v-76.2h125.8V706.9z"/>
	</g>
	<g id="shape-5-the_director_x27_s_area">
		<path class="st0" d="M506,542h47.5v155.9H506V542z"/>
	</g>
	<g id="shape-5-wright__x26__bright_lounge">
		<path class="st0" d="M608.5,628.3h112.7v77.8H612.7c-1.4,0-2.8,0.2-4.2,0.7L608.5,628.3L608.5,628.3z"/>
	</g>
</g>
<g>
	<g id="shape-1-sainsbury_x27_s">
		<path class="st0" d="M265.3,706.1c-4.9,0-8.9-4-8.9-8.9V550.9c0-4.9,4-8.9,8.9-8.9h8.1v164.1H265.3z"/>
	</g>
	<g id="shape-1-main">
		<path class="st0" d="M280.4,542H499v21H280.4V542z"/>
	</g>
	<g id="shape-1-stand">
		<path class="st0" d="M560.4,562.9v-21h181.1c5.1,0,10.3,4.2,11.3,9.2l2.5,11.8H560.4z"/>
	</g>
	<g id="shape-1-1000327008">
		<path class="st0" d="M280.4,629.9h29.2v76.2h-29.2V629.9z"/>
	</g>
	<g id="shape-1-stephenson_lounge">
		<path class="st0" d="M460.1,766c-4.9,0-8.9-4-8.9-8.9v-37.4c0-2.5-0.7-4.9-2-7v-82.8H499v74.9h61.4v-76.5h41.2v83.7
			c-1.6,2.3-2.5,5-2.5,7.7v37.4c0,4.9-4,8.9-8.9,8.9L460.1,766L460.1,766z"/>
	</g>
	<g id="shape-1-family_lounge">
		<path class="st0" d="M728.2,706.1v-77.8h41.1l14.9,69.6c0.5,2.2,0.1,4.3-1.2,5.8c-1.2,1.5-3.2,2.4-5.4,2.4H728.2z"/>
	</g>
	<g id="shape-1-a">
		<path class="st0" d="M280.4,569.9h30.1v53h-30.1V569.9z"/>
	</g>
	<g id="shape-1-b">
		<path class="st0" d="M317.5,569.9h37.3v53h-37.3V569.9z"/>
	</g>
	<g id="shape-1-c">
		<path class="st0" d="M361.7,569.9h37.3v53h-37.3V569.9z"/>
	</g>
	<g id="shape-1-d">
		<path class="st0" d="M405.9,569.9h37.3v53h-37.3V569.9z"/>
	</g>
	<g id="shape-1-e">
		<path class="st0" d="M450.1,569.9H499v53h-48.9V569.9z"/>
	</g>
	<g id="shape-1-f">
		<path class="st0" d="M605.9,569.9h-2.6h-42.9v51.4h42.9h2.6h35.5v-51.4H605.9z"/>
	</g>
	<g id="shape-1-g">
		<path class="st0" d="M648.3,569.9h32.2v51.4h-32.2V569.9z"/>
	</g>
	<g id="shape-1-h">
		<path class="st0" d="M687.5,569.9h32.2v51.4h-32.2V569.9z"/>
	</g>
	<g id="shape-1-j">
		<path class="st0" d="M727.3,621.3v-51.4h29.6l11,51.4H727.3z"/>
	</g>
	<g id="shape-1-arthur_wait_stand">
		<path class="st0" d="M233,67.7l-9.4-41.5c-1.2-5.1-0.2-9.9,2.6-13.5s7.3-5.6,12.6-5.6h511.4c5.3,0,9.7,2,12.6,5.6
			c2.9,3.6,3.8,8.4,2.6,13.5l-9.4,41.5L233,67.7L233,67.7z"/>
	</g>
	<g id="shape-1-u">
		<path class="st0" d="M437.3,74.7h25.1v47.1h-25.1V74.7z"/>
	</g>
	<g id="shape-1-v">
		<path class="st0" d="M469.3,74.7h50.2v47.1h-50.2V74.7z"/>
	</g>
	<g id="shape-1-w">
		<path class="st0" d="M526.5,74.7h54.6v47.1h-54.6V74.7z"/>
	</g>
	<g id="shape-1-x">
		<path class="st0" d="M588.1,121.8l0-47.1h52.3v47.1H588.1z"/>
	</g>
	<g id="shape-1-y">
		<path class="st0" d="M647.3,74.7h48.8v47.1h-48.8V74.7z"/>
	</g>
	<g id="shape-1-z">
		<path class="st0" d="M703.1,121.8V74.7h51.5l-6.1,27c-2.5,11.1-13.8,20.1-25.2,20.1C723.2,121.8,703.1,121.8,703.1,121.8z"/>
	</g>
</g>
<g>
	<g id="shape-3-upper_tier">
		<path class="st1" d="M886.8,413.6V249.7h16.6v15.2h-0.3v7h0.3v141.7H886.8z"/>
	</g>
	<g id="shape-3-k">
		<path class="st1" d="M886.8,157.6v-40.8l31.1-5c1.7-0.3,3.4-0.4,5.1-0.4c10.1,0,17.5,5.2,17.5,12.4v33.8
			C940.5,157.6,886.8,157.6,886.8,157.6z"/>
	</g>
	<g id="shape-3-l">
		<path class="st1" d="M886.8,164.6h53.7v41.7h-53.7V164.6z"/>
	</g>
	<g id="shape-3-m">
		<path class="st1" d="M910.4,264.9v-22.2h-23.6v-29.5h53.7v51.7H910.4z"/>
	</g>
	<g id="shape-3-n">
		<path class="st1" d="M910.4,271.8h30.1v58.1h-30.1V271.8z"/>
	</g>
	<g id="shape-3-p">
		<path class="st1" d="M910.4,336.9h30.1v54.5h-30.1V336.9z"/>
	</g>
	<g id="shape-3-q">
		<path class="st1" d="M886.8,444.3v-23.8h23.6v-22.2h30.1v45.9H886.8z"/>
	</g>
	<g id="shape-3-r">
		<path class="st1" d="M886.8,451.3h53.7v42.4h-53.7V451.3z"/>
	</g>
	<g id="shape-3-s">
		<path class="st1" d="M923,552.9c-1.7,0-3.4-0.1-5.1-0.4l-31.1-5v-46.9h53.7v39.9c0,4.4-2.6,7.2-4.7,8.7
			C932.6,551.6,928.1,552.9,923,552.9L923,552.9z"/>
	</g>
</g>
<g>
	<g id="shape-2-whitehorse_lane_stand">
		<path class="st1" d="M136.6,119.9l32.2,5.9c9.7,1.8,18.1,10.1,18.1,17.8v372.6c0,7.7-8.5,16-18.1,17.8l-32.2,5.9
			C136.6,540,136.6,119.9,136.6,119.9z"/>
	</g>
	<g id="shape-2-lower_tier">
		<path class="st1" d="M807.8,254.7h12.7v156.8h-12.7V254.7z"/>
	</g>
	<g id="shape-2-a">
		<path class="st1" d="M807.8,177.6v-31.8c0-8.9,10.7-18.1,23.3-20.1l25.2-4v55.9L807.8,177.6L807.8,177.6z"/>
	</g>
	<g id="shape-2-b">
		<path class="st1" d="M807.8,184.6h48.5v38.1h-48.5V184.6z"/>
	</g>
	<g id="shape-2-c">
		<path class="st1" d="M827.5,269.1v-21.4h-19.7v-18.1h48.5v39.5H827.5z"/>
	</g>
	<g id="shape-2-d">
		<path class="st1" d="M827.5,276.1h28.8v37.7h-28.8V276.1z"/>
	</g>
	<g id="shape-2-e">
		<path class="st1" d="M827.5,320.8h28.8v37.6h-28.8V320.8z"/>
	</g>
	<g id="shape-2-f">
		<path class="st1" d="M827.5,365.3h28.8v38h-28.8V365.3z"/>
	</g>
	<g id="shape-2-g">
		<path class="st1" d="M807.8,449.3v-30.9h19.7v-8.1h28.8v39.1H807.8z"/>
	</g>
	<g id="shape-2-h">
		<path class="st1" d="M807.8,456.3h48.5v38.8h-48.5V456.3z"/>
	</g>
	<g id="shape-2-j">
		<path class="st1" d="M831.1,538.6c-12.6-2-23.3-11.2-23.3-20.1V502h48.5v40.6L831.1,538.6z"/>
	</g>
</g>
<g>
	<g id="shape-4-r">
		<path class="st0" d="M265.9,121.8c-11.4,0-22.7-9-25.2-20.1l-6.1-27h54v47.1C288.6,121.8,265.9,121.8,265.9,121.8z"/>
	</g>
	<g id="shape-4-s">
		<path class="st0" d="M295.6,74.7h51.7v47.1h-51.7V74.7z"/>
	</g>
	<g id="shape-4-t">
		<path class="st0" d="M354.2,74.7h45.2v47.1h-45.2V74.7z"/>
	</g>
	<g id="shape-4-u">
		<path class="st0" d="M406.4,74.7h25.1v47.1h-25.1V74.7z"/>
	</g>
</g>
<g id="stage">
	<g>
		<rect x="212.6" y="289.3" class="st2" width="65.5" height="96.2"/>
		<polygon class="st2" points="320.9,248.7 212.6,248.7 212.6,284.1 283,284.1 283,389.9 212.6,389.9 212.6,425.5 320.9,425.5 		"/>
		<polygon class="st2" points="672.5,425.5 781,425.5 781,389.9 712.4,389.9 712.4,284.1 781,284.1 781,248.7 672.5,248.7 		"/>
		<rect x="717.3" y="289.3" class="st2" width="64.1" height="96.2"/>
		<path class="st2" d="M325.5,296.2v81.9c21.6-1.2,39.4-19.2,39.4-41.1S348.2,297.8,325.5,296.2z"/>
		<path class="st2" d="M667.9,378.1v-81.9c-21.6,1.2-39.4,19.2-39.4,41.1C628.8,359.4,646,377.2,667.9,378.1z"/>
		<path class="st2" d="M501.3,265.2v144c38.4-2.1,69.6-33.4,69.6-71.9C570.8,298.1,539.7,267.1,501.3,265.2z"/>
		<path class="st2" d="M424.6,337c0,39.4,32.1,71.8,71.9,72.4V264.9C456.4,265.5,424.6,297.8,424.6,337z"/>
		<path class="st2" d="M212.6,167.2v76.7H326v47.6c24.4,1.2,44.5,21.6,44.5,46S351,382,326,383.5v47.6H212.6v76.7h568.5v-76.7H667.7
			v-47.6c-24.4-1.2-44.5-21.6-44.5-46s19.5-44.5,44.5-46v-47.6h113.4v-76.7H212.6L212.6,167.2z M501.3,414.3v91.9h-4.9v-91.9
			c-42.6-0.9-77-35.1-77-77.5c0-42.2,34.4-76.7,77-77.5v-91.3h4.9V260c41.6,2.1,74.6,36.2,74.6,77.5
			C575.7,378.8,542.9,413,501.3,414.3z"/>
	</g>
</g>
</svg>
