<?xml version="1.0" encoding="utf-8"?>
<!-- Generator: Adobe Illustrator 21.1.0, SVG Export Plug-In . SVG Version: 6.00 Build 0)  -->
<svg version="1.1" id="Laag_1" xmlns="http://www.w3.org/2000/svg" xmlns:xlink="http://www.w3.org/1999/xlink" x="0px" y="0px"
	 viewBox="0 0 1024 768" style="enable-background:new 0 0 1024 768;" xml:space="preserve">
<style type="text/css">
	.st0{fill:#ACCA5A;}
	.st1{fill:#93B8D2;}
	.st2{fill:#85BB3E;}
</style>
<g>
	<path class="st0" d="M667.3,104.6c0,39,0,77.5,0,116.4c-62.4,0-124.7,0-187.2,0c0-38.6,0-77.3,0-116.4
		C542.4,104.6,604.7,104.6,667.3,104.6z"/>
	<path class="st0" d="M342.5,104.6c44.3,0,88.4,0,132.9,0c0,38.9,0,77.6,0,116.5c-44.3,0-88.4,0-132.9,0
		C342.5,182.3,342.5,143.6,342.5,104.6z"/>
	<path class="st1" d="M919,755c-26.8-28.5-53-56.3-78.4-83.3c5.2-5.7,12.2-13.4,19.4-21c2-2.1,2.7-3.9,2.7-6.8
		c-0.1-28.3-0.1-56.4-0.1-85c26.7,0,53.2,0,80.2,0c0,1.5,0,2.9,0,4.5c0,54.5,0,108.9,0.1,163.4c0,2.7-0.7,4.7-2.7,6.7
		C933.5,740.1,926.9,747,919,755z"/>
	<path class="st0" d="M772,221.1c-33.6,0-66.7,0-100.3,0c0-38.9,0-77.6,0-116.5c33.2,0,66.5,0,100.3,0C772,143.3,772,182,772,221.1z
		"/>
	<path class="st0" d="M543.9,12.7c41.4,0,82.2,0,123.5,0c0,29.2,0,58.2,0,87.5c-41.1,0-82.1,0-123.5,0
		C543.9,71.1,543.9,42.2,543.9,12.7z"/>
	<path class="st0" d="M416.6,100c0-29.1,0-58,0-87.3c41,0,81.8,0,122.9,0c0,29.1,0,58,0,87.3C498.8,100,458,100,416.6,100z"/>
	<path class="st1" d="M78.8,448c0-24.5,0-48.7,0-73.3c47.9,0,95.8,0,143.9,0c0,24.3,0,48.6,0,73.3C174.8,448,127.1,448,78.8,448z"/>
	<path class="st0" d="M290.9,28.5c40.7-5.1,81.1-10.2,121.9-15.3c0,29.4,0,58,0,87.5c-41-0.5-82.3-3.6-121.9,14
		C290.9,85.1,290.9,57.1,290.9,28.5z"/>
	<path class="st1" d="M942.8,441.6c0,37.8,0,75.2,0,112.8c-26.7,0-53.2,0-79.7,0c0-37.8,0-75.2,0-112.8
		C889.6,441.6,915.9,441.6,942.8,441.6z"/>
	<path class="st0" d="M772.4,12.9c0,29.6,0,58.3,0,87.3c-33.8,0-67.4,0-101.2,0c0-29.2,0-58.2,0-87.3
		C705,12.9,738.7,12.9,772.4,12.9z"/>
	<path class="st0" d="M338,221c-25.2,0-50.2,0-75.4,0c0-32.1,0-64,0-96.6c24.8-6.3,49.9-12.8,75.4-19.3C338,144.2,338,182.5,338,221
		z"/>
	<path class="st1" d="M222.7,501.7c-47.9,0-95.7,0-143.8,0c0-15.8,0-31.7,0-47.9c47.9,0,95.6,0,143.8,0
		C222.7,469.6,222.7,485.4,222.7,501.7z"/>
	<path class="st0" d="M120.8,665c42.9,0,85.6,0,128.7,0c0,17.8,0,35.4,0,53.4c-42.8,0-85.5,0-128.7,0
		C120.8,700.7,120.8,683,120.8,665z"/>
	<path class="st0" d="M208.8,134.4c0-32.1,0-63.5,0-95.5c25.8-3.3,51.4-6.4,77.4-9.7c0,28.7,0,56.8,0,85.5
		C260.6,121.1,234.9,127.7,208.8,134.4z"/>
	<path class="st1" d="M222.6,369c-48,0-95.8,0-143.9,0c0-15.5,0-30.7,0-46.2c47.9,0,95.7,0,143.9,0
		C222.6,337.8,222.6,353.1,222.6,369z"/>
	<path class="st1" d="M222.6,270.5c0,15.7,0,30.8,0,46.3c-48,0-95.8,0-143.8,0c0-15.4,0-30.7,0-46.3
		C126.7,270.5,174.4,270.5,222.6,270.5z"/>
	<path class="st1" d="M859.2,496.1c-41,0-81.7,0-122.7,0c0-18.1,0-36,0-54.3c40.8,0,81.7,0,122.7,0
		C859.2,459.8,859.2,477.6,859.2,496.1z"/>
	<path class="st1" d="M863,355.9c26.7,0,52.9,0,79.5,0c0,27.1,0,54.1,0,81.4c-26.5,0-52.8,0-79.5,0C863,410.2,863,383.3,863,355.9z"
		/>
	<path class="st1" d="M736.5,327.9c41.1,0,81.8,0,122.7,0c0,17.6,0,34.9,0,52.5c-41,0-81.7,0-122.7,0
		C736.5,363,736.5,345.7,736.5,327.9z"/>
	<path class="st1" d="M859.3,501.3c0,17.6,0,35,0,52.8c-40.9,0-81.7,0-122.9,0c0-17.6,0-35,0-52.8
		C777.3,501.3,818,501.3,859.3,501.3z"/>
	<path class="st1" d="M736.5,272.1c41,0,81.8,0,122.7,0c0,17.1,0,34,0,51.3c-40.8,0-81.6,0-122.7,0
		C736.5,306.5,736.5,289.6,736.5,272.1z"/>
	<path class="st1" d="M942.8,272.1c0,26.5,0,52.8,0,79.5c-26.5,0-52.9,0-79.6,0c0-26.5,0-52.8,0-79.5
		C889.7,272.1,916,272.1,942.8,272.1z"/>
	<path class="st1" d="M859.4,384.9c0,17.4,0,34.3,0,51.7c-40.9,0-81.8,0-122.9,0c0-17.1,0-34.2,0-51.7
		C777.5,384.9,818.2,384.9,859.4,384.9z"/>
	<path class="st1" d="M78.8,551.6c0-14.9,0-29.5,0-44.3c47.9,0,95.7,0,143.8,0c0,14.7,0,29.5,0,44.3
		C174.7,551.6,126.8,551.6,78.8,551.6z"/>
	<path class="st0" d="M707.7,719c-36,0-71.6,0-107.4,0c0-18,0-35.7,0-53.9c35.9,0,71.5,0,107.4,0C707.7,683.1,707.7,700.8,707.7,719
		z"/>
	<path class="st0" d="M817.9,665.1c0,18.2,0,35.8,0,53.8c-35.3,0-70.4,0-105.7,0c0-17.9,0-35.7,0-53.8
		C747.4,665.1,782.4,665.1,817.9,665.1z"/>
	<path class="st0" d="M341,718.9c0-18.2,0-36,0-53.9c28.5,0,56.7,0,85.3,0c0,18.1,0,35.8,0,53.9C398,718.9,369.6,718.9,341,718.9z"
		/>
	<path class="st0" d="M542.5,615.8c-37.5,0-74.6,0-111.8,0c0-13.4,0-26.6,0-40.2c37.2,0,74.3,0,111.8,0
		C542.5,588.8,542.5,602.2,542.5,615.8z"/>
	<path class="st0" d="M658.4,575.5c0,13.4,0,26.6,0,40.2c-37.2,0-74.1,0-111.4,0c0-13.4,0-26.5,0-40.2
		C583.9,575.5,620.9,575.5,658.4,575.5z"/>
	<path class="st0" d="M254.1,718.4c0-18.1,0-35.5,0-53.3c27.8,0,55.4,0,83.3,0c0,17.9,0,35.4,0,53.3
		C309.6,718.4,282.1,718.4,254.1,718.4z"/>
	<path class="st0" d="M513.7,718.9c0-18.1,0-35.8,0-53.9c27.5,0,54.7,0,82.4,0c0,17.9,0,35.7,0,53.9
		C568.8,718.9,541.4,718.9,513.7,718.9z"/>
	<path class="st0" d="M249.3,660.3c-42.6,0-84.9,0-127.2,0c-0.5-1.5,0.8-2.1,1.5-2.8c11.6-11.7,23.4-23.4,35-35.1
		c1.4-1.4,2.7-2.4,4.8-2.4c28.1,0.1,56.2,0.1,84.2,0.1c0.4,0,0.9,0.2,1.7,0.3C249.3,633.6,249.3,646.7,249.3,660.3z"/>
	<path class="st0" d="M510.1,665c0,18.1,0,35.8,0,53.9c-26.5,0-52.7,0-79.4,0c0-18,0-35.8,0-53.9C457.1,665,483.5,665,510.1,665z"/>
	<path class="st1" d="M863,214.6c26.8,0,53.1,0,79.7,0c0,17.8,0,35.4,0,53.3c-26.5,0-53,0-79.7,0C863,250.1,863,232.5,863,214.6z"/>
	<path class="st0" d="M258.1,125.6c0,32.4,0,63.7,0,95.3c-16.4,0-32.8,0-49.3,0c0-27.7,0-55.1,0-82.9
		C225.1,133.9,241.3,129.8,258.1,125.6z"/>
	<path class="st1" d="M859.4,594.8c0,17,0,33.7-0.1,50.5c0,0.9-0.6,2-1.3,2.6c-7.7,7.4-15.5,14.6-24.6,23.1
		c-10.2-10.7-20.2-21.2-30.3-31.7c-3.9-4.1-7.6-8.7-12.2-12c-11.6-8.2-13.6-19.3-10.7-32.6C806.2,594.8,832.4,594.8,859.4,594.8z"/>
	<path class="st1" d="M859.3,558.9c0,10.4,0,20.6,0,31.4c-27.7,0-55.3,0-83.4,0c0,7.1,0,13.6,0,21.2c-4.8-4.5-8.7-8-12.6-11.7
		c-7-6.8-13.5-14.5-21.1-20.6c-7.1-5.7-6.3-12.6-5.7-20.3C777.3,558.9,818,558.9,859.3,558.9z"/>
	<path class="st0" d="M701.8,660.5c0-13.4,0-26.5,0-40.2c1.5,0,2.8,0,4.2,0c22.1,0,44.2,0,66.4,0c1.4,0,2.8-0.4,4,0.8
		c12.4,12.8,24.9,25.7,38.2,39.4C776.3,660.5,739.2,660.5,701.8,660.5z"/>
	<path class="st0" d="M771.5,615.8c-37,0-72.7,0-108.7,0c0-13.4,0-26.7,0-40.6c2.3,0,4.4,0,6.5,0c19.3,0,38.8,0.1,58.1-0.1
		c3.4,0,5.8,0.9,8.2,3.3C747.3,590.7,759,602.8,771.5,615.8z"/>
	<path class="st0" d="M697.2,620.5c0,13.7,0,27.1,0,40.7c-29,0-57.7,0-86.7,0c0-13.5,0-27,0-40.7
		C639.4,620.5,668.2,620.5,697.2,620.5z"/>
	<path class="st0" d="M253.5,615.8c0-13.6,0-26.8,0-40.3c28,0,55.9,0,84,0c0,13.4,0,26.8,0,40.3
		C309.5,615.8,281.7,615.8,253.5,615.8z"/>
	<path class="st0" d="M430.8,620.4c28.9,0,57.4,0,86,0c0,13.5,0,26.9,0,40.6c-28.7,0-57.3,0-86,0C430.8,647.6,430.8,634,430.8,620.4
		z"/>
	<path class="st0" d="M254.2,620.5c27.9,0,55.3,0,83.1,0c0,13.6,0,26.9,0,40.5c-27.8,0-55.3,0-83.1,0
		C254.2,647.6,254.2,634.2,254.2,620.5z"/>
	<path class="st0" d="M635.6,266c-27.3,0-54.2,0-81.3,0c0-13.5,0-26.9,0-40.5c27.1,0,54.1,0,81.3,0C635.6,239,635.6,252.3,635.6,266
		z"/>
	<path class="st0" d="M521.3,620.5c28.3,0,56.4,0,84.8,0c0,13.5,0,26.9,0,40.6c-28.2,0-56.3,0-84.8,0
		C521.3,647.6,521.3,634.2,521.3,620.5z"/>
	<path class="st0" d="M425.9,615.8c-28.3,0-56.3,0-84.6,0c0-13.5,0-26.8,0-40.4c28.3,0,56.2,0,84.6,0
		C425.9,588.8,425.9,602.1,425.9,615.8z"/>
	<path class="st0" d="M341.4,620.4c28.3,0,56.4,0,84.8,0c0,13.5,0,26.9,0,40.6c-28.3,0-56.3,0-84.8,0
		C341.4,647.6,341.4,634.1,341.4,620.4z"/>
	<path class="st0" d="M719.2,266c-26.7,0-52.9,0-79.4,0c0-13.6,0-26.9,0-40.5c26.5,0,52.7,0,79.4,0C719.2,239,719.2,252.3,719.2,266
		z"/>
	<path class="st1" d="M78.8,577.8c0-7,0-13.8,0-20.7c46.1,0,91.9,0,139.4,0c-8.3,7.5-15.6,14.2-22.9,20.7c-0.5,0.4-1.6,0.3-2.5,0.3
		c-37.3,0-74.7,0-112.1,0C80.2,578.1,79.7,577.9,78.8,577.8z"/>
	<path class="st1" d="M215.8,265.3c-45.5,0-91.1,0-137,0c0-6.6,0-13,0-20.1c1.7,0,3.3,0,4.7,0c36.6,0,73,0.1,109.6-0.1
		c3.4,0,5.8,1.1,8.2,3.5c5.1,5.1,10.7,9.8,16,14.6C216.8,263.9,216.3,264.6,215.8,265.3z"/>
	<path class="st0" d="M249.4,615.7c-27.9,0-55.4,0-85.5,0c3.9-3.3,6.6-5.1,8.8-7.4c10.3-10.1,20.5-20.3,30.6-30.6
		c2-2,3.9-2.9,6.8-2.9c13.1,0.2,26.1,0.1,39.5,0.1C249.4,588.7,249.4,601.9,249.4,615.7z"/>
	<path class="st0" d="M352.8,266c-17.4,0-34.5,0-51.9,0c0-13.5,0-26.9,0-40.5c17.3,0,34.5,0,51.9,0C352.8,239,352.8,252.3,352.8,266
		z"/>
	<path class="st0" d="M296.4,266c-17.7,0-35.3,0-53.1,0c0-13.5,0-26.9,0-40.5c17.7,0,35.3,0,53.1,0C296.4,239,296.4,252.3,296.4,266
		z"/>
	<path class="st1" d="M801.1,241.3c19.5,0,38.7,0,58.2,0c0,8.8,0,17.5,0,26.5c-19.3,0-38.7,0-58.2,0
		C801.1,259.1,801.1,250.5,801.1,241.3z"/>
	<path class="st0" d="M723.7,265.9c0-13.4,0-26.8,0-40.4c14.6,0,29,0,44.5,0"/>
	<path class="st0" d="M356.5,266.3c0-6.8,0-13.4,0-20.4c17.7,0,35.3,0,53.2,0c0,6.8,0,13.4,0,20.4
		C392,266.3,374.3,266.3,356.5,266.3z"/>
	<path class="st0" d="M549.7,246c0,6.8,0,13.4,0,20.2c-15.5,0-31,0-46.7,0c0-6.6,0-13.3,0-20.2C518.4,246,533.9,246,549.7,246z"/>
	<path class="st0" d="M414.2,266.2c0-6.8,0-13.4,0-20.2c15.3,0,30.5,0,45.9,0c0,6.7,0,13.3,0,20.2
		C444.9,266.2,429.7,266.2,414.2,266.2z"/>
	<path class="st0" d="M208.3,225.4c10.8,0,20.5,0,30.7,0c0,13.5,0,26.9,0,40.5c-3.9,0-7.9,0-12.2,0
		C220.7,252.8,214.6,239.3,208.3,225.4z"/>
</g>
<g id="stage">
	<g>
		<rect x="251.7" y="382.7" class="st2" width="52.1" height="76.5"/>
		<polygon class="st2" points="338,350.4 251.7,350.4 251.7,378.8 307.7,378.8 307.7,463.2 251.7,463.2 251.7,491.6 338,491.6 		"/>
		<polygon class="st2" points="618.4,491.6 704.9,491.6 704.9,463.2 650,463.2 650,378.8 704.9,378.8 704.9,350.4 618.4,350.4 		"/>
		<rect x="654" y="382.7" class="st2" width="51.2" height="76.5"/>
		<path class="st2" d="M341.8,388.3v65.3c17.4-1.1,31.4-15.2,31.4-32.7S359.6,389.6,341.8,388.3z"/>
		<path class="st2" d="M614.6,453.6v-65.3c-17.4,1.1-31.4,15.2-31.4,32.7C583.3,438.6,597.2,452.8,614.6,453.6z"/>
		<path class="st2" d="M481.9,363.5v114.7c30.7-1.6,55.5-26.8,55.5-57.4C537,389.9,512.4,364.9,481.9,363.5z"/>
		<path class="st2" d="M420.7,421c0,31.4,25.7,57.1,57.4,57.8V363.7C446,363.9,420.7,389.6,420.7,421z"/>
		<path class="st2" d="M251.7,285.4v61H342v37.9c19.4,1.1,35.4,17.2,35.4,36.6s-15.4,35.5-35.4,36.6v37.9h-90.3v61h453.3v-61h-90.3
			v-37.9c-19.4-1.1-35.4-17.2-35.4-36.6c0-19.4,15.4-35.5,35.4-36.6v-37.9h90.3v-61L251.7,285.4L251.7,285.4z M481.9,482.4v73.3
			h-3.9v-73.3c-33.9-0.7-61.4-28-61.4-61.8s27.3-61,61.4-61.8v-72.9h3.9v73.3c33,1.6,59.4,28.8,59.4,61.8
			C541,454.2,514.9,481.1,481.9,482.4z"/>
	</g>
</g>
</svg>
