<?xml version="1.0" encoding="utf-8"?>
<!-- Generator: Adobe Illustrator 21.1.0, SVG Export Plug-In . SVG Version: 6.00 Build 0)  -->
<svg version="1.1" id="Laag_1" xmlns="http://www.w3.org/2000/svg" xmlns:xlink="http://www.w3.org/1999/xlink" x="0px" y="0px"
	 viewBox="0 0 1024 768" style="enable-background:new 0 0 1024 768;" xml:space="preserve">
<style type="text/css">
	.st0{fill:#FFFFFF;}
	.st1{fill:#93B8D2;}
	.st2{fill:#ACCA5A;}
	.st3{fill:#F8B65F;}
	.st4{fill:#85BB3E;}
</style>
<g id="background">
	<path class="st0" d="M544.6,733.6l-2,0.3c-13,1.5-25.3,2.3-37.1,2.3c-14.6,0-25.3-1.2-31.6-2l-2-0.3l0.9-25.2l3.9,0.3
		c11.5,0.5,22.9,0.8,33.9,0.8c8.9,0,18.2-0.3,26.8-0.5c1.5,0,3,0,4.7-0.3h2.3L544.6,733.6L544.6,733.6z"/>
	<path class="st0" d="M537,707.7h-2.2c-8,0.3-16,0.5-24.1,0.5c-10.2,0-20.6-0.3-30.9-0.8h-2.3l0.5-32.9h2.3
		c6.8,0.3,20.2,0.5,26.8,0.5c9.2,0,18.4-0.3,27.4-0.5h2.3L537,707.7L537,707.7L537,707.7L537,707.7z"/>
	<path class="st0" d="M530.8,617.8c-5.7,0.3-11.9,0.3-18.2,0.3c-8.4,0-17.2-0.3-25.6-0.5h-2.3l2-34.8h45.4l0.9,35.1H530.8
		L530.8,617.8z"/>
	<path class="st0" d="M532.4,662.8c-8.4,0.3-16.9,0.5-25.3,0.5c-7.5,0-14.9-0.3-22.4-0.5h-2.3l0.5-11.5h2.3
		c9.5,0.5,19.1,0.8,28.3,0.8c6,0,12.2,0,18.4-0.3h2.3l0.3,10.7L532.4,662.8z"/>
	<path class="st0" d="M580.1,658.7c-6.8,0.8-13.1,1.5-19.9,2.3c-7.5,0.8-14.9,1.2-22.4,1.8h-2.3l-0.3-10.7h2.3
		c14-0.8,27.6-2,41.3-3.8l2.3-0.3l1.2,10.7H580.1z"/>
	<path class="st0" d="M481.1,662.8h-2.3c-7.5-0.5-14.9-0.9-22.2-1.5c-9.5-0.8-16.9-1.8-21.4-2.4l-2.3-0.3l1.8-12.2l2.3,0.3
		c8.9,1.5,23.7,3.5,42.3,4.7l2.3,0.3L481.1,662.8z"/>
	<path class="st0" d="M574.7,614.4c-12.2,1.5-24.9,2.7-38.1,3.3h-2.3l-1.5-48.2h2.3c11.7-0.3,23.2-0.8,34.1-1.5l2-0.3l5.7,46.6
		L574.7,614.4z"/>
	<path class="st0" d="M483.4,617.4h-2.3c-18.4-0.9-32.7-2.7-39.6-3.5l-2.3-0.3l6.5-46.3l2,0.3c11.5,0.8,23.7,1.5,35.6,2h2.3
		L483.4,617.4z"/>
	<path class="st0" d="M354.1,690.5l-2.3-0.5c-12.7-3-24.9-6.5-36.9-9.9l-2.3-0.8l9.5-30.1l2.3,0.8c5.7,1.8,11.7,3.5,17.6,5.3
		c5.4,1.5,11,2.7,16.4,4.2l2.3,0.5L354.1,690.5z"/>
	<path class="st0" d="M271,664.1l-2.3-0.9c-22.2-9.2-38.3-17.6-47.8-23.2l-1.8-0.9l15.2-29.1l2,1.2c8.4,5,17.5,9.9,26.7,14.5
		c5.4,2.7,11.2,5.3,16.7,7.7l2,0.8L271,664.1z"/>
	<path class="st0" d="M311.9,679l-2.3-0.8c-12.2-3.9-23.8-8.3-35.4-12.7l-2-0.8l10.4-30.1l2.3,0.9c5.7,2.4,11.7,4.7,17.2,6.8
		c5.4,2,11.2,3.9,16.9,6l2,0.8L311.9,679z"/>
	<path class="st0" d="M796,642.4c-9.5,5.4-25.6,14-47.8,22.9l-2.3,0.8L735.4,637l2-0.8c5-2,9.9-3.9,14.6-6.2
		c10.2-4.5,20.5-9.5,29.7-14.6l2-0.9l14,27.1L796,642.4z"/>
	<path class="st0" d="M742.7,667.6c-11.9,4.7-24.4,8.9-37.1,13l-2.3,0.8l-9.5-29.8l2.3-0.8c5-1.5,10.2-3,15.2-4.7
		c6.9-2.3,14-4.7,20.6-7.5l2.3-0.8l10.4,29.1L742.7,667.6z"/>
	<path class="st0" d="M700.2,682c-11.7,3.5-23.8,6.8-36,9.5l-2.3,0.5l-6.8-31.2l2.3-0.5c6.2-1.2,12.2-2.7,18.4-4.2
		c5.3-1.2,10.2-2.7,14.9-3.9l2-0.5l9.5,29.8L700.2,682z"/>
	<path class="st0" d="M756.9,706.8c-12.7,4.7-25.6,8.9-38.9,13l-2,0.5l-11.9-38.1l2.3-0.8c12.7-3.9,25.2-8.3,37.1-12.7l2.3-0.8
		l13.7,38.1L756.9,706.8z"/>
	<path class="st0" d="M712.4,721.4c-13,3.8-26.4,6.9-40.1,9.9l-2.3,0.5l-8.3-38.6l2.3-0.5c12.5-2.7,24.7-6,36.3-9.5l2-0.8l11.9,38.1
		L712.4,721.4z"/>
	<path class="st0" d="M815.5,680.8c-16.7,8.7-34.5,16.9-53.2,23.8l-2.3,0.8l-13.7-38.1l2-0.8c22.2-8.9,38.3-17.5,48.1-22.9l2-1.2
		l19,37.1L815.5,680.8z"/>
	<path class="st0" d="M346.2,727.9l-2.3-0.5c-13.4-3.3-26.8-6.8-40.1-10.7l-2.3-0.8l11-35.6l2.3,0.8c12.2,3.8,24.7,7.2,37.1,10.2
		l2.3,0.5L346.2,727.9z"/>
	<path class="st0" d="M258.1,701l-2.3-0.8c-18.7-7.5-36.6-15.7-53.5-24.4l-2-0.9l17.9-34.5l2.3,1.2c9.5,5.4,25.6,14,48.1,23.4l2,0.8
		L258.1,701z"/>
	<path class="st0" d="M300.4,715.7l-2.3-0.8c-12.7-3.9-24.9-8.3-36.9-12.7l-2-0.8l12.5-35.6l2.3,0.8c11.2,4.5,23.2,8.7,35.4,12.7
		l2.3,0.8L300.4,715.7z"/>
	<path class="st0" d="M342,653.7l-2.3-0.5c-6-1.8-11.7-3.5-17.5-5.3c-5.7-1.8-11.5-3.8-16.9-5.7l-2-0.8l32.7-90.6l16,4.5l4.2-2
		l0.8,0.3c2.4,0.5,5,1.2,7.7,1.8l2.3,0.5L342,653.7z"/>
	<path class="st0" d="M301.8,640.8l-2.3-0.8c-5.7-2.3-11.5-4.5-17.2-6.9c-5.7-2.4-11.5-5-16.7-7.5l-2-0.9l32.1-78.7l10.2,4.2
		l2.3-4.7l24.4,9.5L301.8,640.8z"/>
	<path class="st0" d="M382.3,662.9l-2.3-0.5c-6.2-1.2-12.2-2.4-18.4-3.9c-5.4-1.2-11-2.7-16.4-3.9l-2.3-0.5l24.7-97.8l2,0.5
		c9.5,2,19.1,3.8,29.4,5.3l2.3,0.3L382.3,662.9z"/>
	<path class="st0" d="M781.6,614.4c-8.4,4.7-17.6,9.2-26.8,13.4l-2.3,0.9l-31.8-79.7l17.9-7.2l5,8.9l6.9-2l2,6.8l0.9-0.8l29.8,58.3
		L781.6,614.4z"/>
	<path class="st0" d="M262.8,624.1l-2.3-0.9c-8.3-4.2-16.4-8.4-24.1-13.1l-1.8-0.9l32.9-63.5l6.5,3.8l4.5-10.7l16.1,6.9L262.8,624.1
		z"/>
	<path class="st0" d="M708.2,645.4c-5.3,1.8-10.2,3.3-15.2,4.7c-4.7,1.5-9.8,2.7-14.9,3.9l-2.3,0.5l-25.3-96.9l2.3-0.5
		c9.2-1.8,18.2-3.9,26.7-6.2l2-0.5l28.6,94.3L708.2,645.4z"/>
	<path class="st0" d="M672.5,655.7c-5.7,1.5-11.9,2.7-18.4,4.2c-6,1.2-12.5,2.4-19,3.8l-2.3,0.5L615,564.1l2.3-0.3
		c10.2-1.5,20.2-3,29.8-4.7l2-0.5l25.3,97.1L672.5,655.7L672.5,655.7z"/>
	<path class="st0" d="M749.2,630c-4.7,2-9.8,4.2-14.6,6c-6.8,2.4-13.7,5.3-20.6,7.5l-2.3,0.8l-28.6-94l6.9,4.2l20.6-6.5l8.7,1.2
		l31.8,79.9L749.2,630z"/>
	<path class="st0" d="M590.8,744.3c-14.2,1.5-28.3,2.4-42.5,3H546v-38.5h2.3c12.7-0.8,25.3-1.5,38.1-3l2.3-0.3l4.7,38.6L590.8,744.3
		z"/>
	<path class="st0" d="M620.5,740.7c-7.7,0.9-16,2-23.8,3l-2.3,0.3l-4.7-38.6l2.3-0.3c8-0.9,15.7-2,23.4-3l2.3-0.3l5,38.9H620.5z"/>
	<path class="st0" d="M666.6,732.5c-13.1,2.7-26.7,5.3-40.5,7.2l-2.3,0.3l-5-38.9l2.3-0.3c12.7-2,25.2-4.2,37.5-6.9l2.3-0.5
		l8.3,38.6L666.6,732.5z"/>
	<path class="st0" d="M420,741.3l-2.3-0.3c-8-0.9-16-2.3-23.7-3.5l-2.3-0.5l7.2-36.3l2.3,0.3c7.2,1.2,14.5,2.3,21.7,3l2.3,0.3
		L420,741.3z"/>
	<path class="st0" d="M470.1,746.5l-2.3-0.3c-14.6-0.9-29.7-2.4-44.3-4.2l-2.3-0.3l5.3-37.1l2.3,0.3c13.1,1.5,26.8,2.7,40.5,3.5h2.3
		L470.1,746.5z"/>
	<path class="st0" d="M390.5,737l-2.3-0.5c-13.1-2.3-26.1-5-38.9-7.7l-2.3-0.5l7.7-36l2.3,0.5c12.5,2.7,25.2,5.4,38.1,7.5l2.3,0.5
		L390.5,737z"/>
	<path class="st0" d="M581.6,670.6c-5.4,0.5-11.2,0.9-16.9,1.5l-2,0.3l-1.2-9.9l2.3-0.3c5.4-0.5,11.2-1.2,16.9-2l2.3-0.3l1.2,10.7
		H581.6z"/>
	<path class="st0" d="M454.7,672.2l-2.3-0.3c-6.2-0.5-12.7-0.9-19-1.8l-2.3-0.3l1.5-10.4l2.3,0.3c3.8,0.5,10.2,1.5,18.4,2.3l2.3,0.3
		L454.7,672.2z"/>
	<path class="st0" d="M558.7,672.4c-6.5,0.5-13.4,0.8-20.5,0.9H536l-0.3-9.5h2.3c6.8-0.3,13.4-0.8,19.6-1.5l2.3-0.3l1.2,9.9
		L558.7,672.4z"/>
	<path class="st0" d="M480.3,673.3h-3c-6.5-0.3-12.7-0.5-19-0.9l-2.3-0.3l1.2-9.8l2.3,0.3c6.2,0.5,12.7,0.9,19.4,1.2h2.3
		L480.3,673.3z"/>
	<path class="st0" d="M923.2,305.2l-0.5-2c-2.4-8.7-5.3-17.5-8.7-25.6l-0.8-2l80.3-31.8l0.8,2c4.7,11.9,8.7,24.7,11.9,37.4l0.5,2.3
		L923.2,305.2z"/>
	<path class="st0" d="M911.5,274l-0.8-2c-3.5-8.4-7.5-16.7-11.7-24.4l-0.9-2l75.2-41.6l0.9,2c6.2,11,11.9,22.4,16.7,34.1l0.9,2
		L911.5,274z"/>
	<path class="st0" d="M1000.9,459.4c-3.5,12.7-7.7,25.2-12.5,37.1l-0.8,2l-72.9-27.4l0.8-2c3.3-8.9,6.2-18.2,8.7-27.4l0.5-2.3
		l77,17.9L1000.9,459.4z"/>
	<path class="st0" d="M986.4,501.7c-5,11.9-10.7,23.7-17.2,35.1l-0.9,2l-68.4-35.9l0.9-2c4.7-8.7,8.9-17.6,12.7-26.7l0.8-2
		l72.9,27.4L986.4,501.7z"/>
	<path class="st0" d="M922.9,441c-2.4,10.2-5.7,20.5-9.5,29.8c-3.9,9.9-8.4,19.6-13.7,29.1l-0.9,2l-80.9-42.5l1.2-2
		c6.5-11.7,11.7-24.4,14.9-37.4l0.5-2.3l89.1,21.1L922.9,441z"/>
	<path class="st0" d="M831.6,327.6l-0.8-2c-3.5-11-8.3-21.7-14-32.1l-0.9-2l81.8-45.3l0.9,2c4.7,8.7,8.9,17.6,12.7,26.8
		c3.8,8.9,6.9,18.4,9.8,28.2l0.8,2.3L831.6,327.6z"/>
	<path class="st0" d="M956.1,374.6h-23.7v-2.3c0-8-0.5-16-1.2-23.8l-0.3-2.4h25.2L956.1,374.6L956.1,374.6z"/>
	<path class="st0" d="M955,344.5h-24.4l-0.3-2c-1.5-11.5-3.5-22.9-6.2-33.9l-0.5-2.3l83.6-20.5l0.5,2.3c2,8.9,3.8,17.9,5,26.8
		l0.3,1.5L955,344.5z"/>
	<path class="st0" d="M956.1,401.7h-24.9l0.3-2.4c0.5-6.9,0.9-14.2,0.9-21.1v-2.3h23.7V401.7z"/>
	<path class="st0" d="M1007.7,430.9c-1.5,7.5-3.3,15.2-5.3,22.6l-0.5,2.3l-77-17.9l0.5-2.3c2.3-9.9,3.9-20.2,5.3-30.6l0.3-2h22.6
		l54.5,26.4L1007.7,430.9z"/>
	<path class="st0" d="M839,374.6v-2.3c-0.3-13.7-2.4-27.4-6.5-41.1l-0.8-2.3l90.1-21.9l0.5,2.3c3,11.7,5.3,23.8,6.5,36
		c0.9,8.9,1.5,17.9,1.8,26.8v2.3H839L839,374.6L839,374.6z"/>
	<path class="st0" d="M930.9,378c0,8-0.5,16.1-1.2,24.1c-1.2,11.5-3,22.4-5.4,33.1l-0.5,2.3l-89.1-20.9l0.5-2.3
		c2.4-11.7,3.9-23.8,3.9-36.6v-2.3h91.9V378z"/>
	<path class="st0" d="M50.3,533.8l-0.9-2c-6.2-11.2-11.7-22.9-16.4-34.8l-0.8-2l76.7-29.8l0.8,2c3.5,8.9,7.7,17.9,12.2,26.4l0.9,2
		L50.3,533.8z"/>
	<path class="st0" d="M31.3,493.8l-0.8-2.3c-4.5-11.7-8.3-24.1-11.2-36.6l-0.5-2.3l79.9-20.2l0.5,2.3c2.3,8.9,5,17.9,8.3,26.8l0.8,2
		L31.3,493.8z"/>
	<path class="st0" d="M125.3,241.1c-4.7,8.3-8.9,16.4-12.7,25.2l-0.9,2l-75.9-30.9l0.9-2c4.7-11.2,10.2-22.4,16.1-33.1l0.9-2
		l72.5,39L125.3,241.1z"/>
	<path class="st0" d="M110.4,271.3c-3.5,8.3-6.5,16.7-8.9,25.3l-0.5,2l-79.1-20.9l0.8-2.3c3.5-11.7,7.7-23.7,12.5-35.4l0.3-2
		l75.9,30.9L110.4,271.3z"/>
	<path class="st0" d="M204,283.5c-6.8,11.5-11.5,23.4-14.9,36.3l-0.5,2.3l-86.4-22.9l0.8-2.3c2.7-9.5,6.2-18.7,9.9-27.6
		c3.9-9.5,8.7-18.7,14-27.6l0.9-2l77.4,41.9L204,283.5z"/>
	<path class="st0" d="M123.7,494.9l-0.9-2c-5-9.5-9.2-19.1-13-29.1c-3.8-9.5-6.8-19.4-9.2-29.4L100,432l87.9-22.2l0.5,2.3
		c3.3,13.4,8,26.4,14.2,38.3l0.9,2L123.7,494.9z"/>
	<path class="st0" d="M99.7,302.2c-2.7,10.2-5,20.9-6.5,31.6l-0.3,2H65.4l-51.8-25.2l0.3-1.8c1.8-9.2,3.9-18.7,6.5-27.9l0.5-2.3
		l79,21L99.7,302.2z"/>
	<path class="st0" d="M92.5,339.5c-0.9,8.9-1.5,17.9-1.8,26.7v2.3H67.2V337h25.6L92.5,339.5z"/>
	<path class="st0" d="M67.2,396v-25.9h23.7v2.3c0,6.9,0.5,14,1.2,21.1l0.3,2.4H67.2z"/>
	<path class="st0" d="M18.3,451.3l-0.5-2.3c-1.8-7.5-3.3-15.4-4.5-23.2L13,424l58-27.4h21.4l0.3,2c1.2,10.2,3,20.5,5,30.1l0.5,2.3
		L18.3,451.3z"/>
	<path class="st0" d="M187.6,325.5c-3,13-4.5,26.8-4.5,41.1v2.3H92.3v-2.3c0-9.9,0.8-19.9,2-29.8c1.5-11.5,3.8-23.2,6.8-34.1
		l0.5-2.3l86.3,22.9L187.6,325.5z"/>
	<path class="st0" d="M99.4,430.9l-0.5-2.3c-2.4-10.4-4.2-21.4-5.3-32.4c-0.8-8.3-1.2-16.1-1.5-24.1v-2.3H183v2.3
		c0.3,11.9,1.5,23.4,3.8,34.5l0.5,2L99.4,430.9z"/>
	<path class="st0" d="M915.2,608.3c-8.7,8.7-17.9,17.2-27.6,25.2l-1.8,1.4l-49.7-56.1l1.8-1.5c7.2-6,14-12.5,20.2-19l1.5-1.5
		l57.3,49.7L915.2,608.3z"/>
	<path class="st0" d="M966.5,541.6c-6.2,10.4-12.7,20.5-19.9,30.1l-1.2,1.8l-63.3-43.1l1.2-1.8c5.3-7.2,10.2-14.9,14.6-22.6l0.9-2
		l68.6,35.9L966.5,541.6z"/>
	<path class="st0" d="M882.8,637.3c-9.8,7.7-19.9,15.2-30.6,22.2l-2,1.2L810,598.5l1.8-1.2c7.5-5,14.5-10.4,21.1-16l1.8-1.2l49.9,56
		L882.8,637.3z"/>
	<path class="st0" d="M943.1,576.3c-7.5,9.5-15.4,19-23.8,27.9l-1.5,1.5l-57.4-49.6l1.5-1.8c6.5-6.8,12.5-14,18.2-21.4l1.2-1.8
		l63.3,43.1L943.1,576.3z"/>
	<path class="st0" d="M847.3,662.5c-8.4,5.4-17.5,10.7-26.7,15.7l-2,0.8L785,613.6l1.8-0.9c6.9-3.9,13.7-8.3,20.5-12.5l2-1.2
		l40,62.2L847.3,662.5z"/>
	<path class="st0" d="M806.7,598.9c-6.5,4.2-13.1,8.4-20.2,12.5l-2,1.2l-29.8-58.5l15.7-9.8l-5.7-11l8.9-6.5l29.8,35.9l3.8,32.7
		l1.2,2L806.7,598.9z"/>
	<path class="st0" d="M856.8,557.9c-6.9,6.9-14.5,14-22.2,20.5c-7.2,6-14.9,11.7-22.9,17.5l-3,2l-4.2-35.1l-29.4-35.4v-1.5
		l-0.5-18.4l0.9-0.8c3.9-3,7.7-6.2,11.5-9.5l1.5-1.2l69.9,60.4L856.8,557.9z"/>
	<path class="st0" d="M896.8,505c-5,8.4-10.4,16.9-16.1,24.9c-6,8.3-12.7,16.1-19.9,23.7l-1.5,1.5l-69.9-60.3l1.8-1.8
		c9.8-9.5,17.9-19.6,24.9-30.6l0.9-1.8l80.9,42.5L896.8,505z"/>
	<path class="st0" d="M101.2,601.6l-1.5-1.5c-8.4-8.7-16.4-17.9-23.7-27.4l-1.5-2L141,525l1.2,2c5,6.9,10.4,14,16.1,20.5l1.5,1.8
		L101.2,601.6z"/>
	<path class="st0" d="M72.6,569.8l-1.2-1.8c-7.5-9.9-14.6-20.5-20.9-31.2l-1.2-2l73.7-38.3l0.9,2c4.5,8,9.8,16,15.2,23.7l1.2,2
		L72.6,569.8z"/>
	<path class="st0" d="M134.8,632l-1.8-1.2c-10.4-8.4-20.5-17.5-29.7-26.4l-1.8-1.8l58.9-52.6l1.5,1.8c6.5,7.2,13.4,14.2,20.9,20.6
		l1.8,1.5L134.8,632z"/>
	<path class="st0" d="M169.9,657.1l-1.8-1.2c-10.4-6.8-20.6-14-30.1-21.4l-1.8-1.5l50-58.3l1.8,1.5c6.9,6,14.2,11.9,21.9,17.5
		l1.8,1.2L169.9,657.1z"/>
	<path class="st0" d="M199.3,674.3l-2-0.9c-8.3-4.5-16.4-9.2-24.4-14.2l-2-1.2l41.1-61.9l2,1.2c5.4,3.9,11.5,7.7,17.2,11.2l1.8,0.9
		L199.3,674.3z"/>
	<path class="st0" d="M160.9,548.1l-1.5-1.8c-6.5-7.2-12.5-14.9-17.6-22.4c-6-8.4-11.5-17.2-16.4-25.9l-0.9-2l79.7-42.3l0.9,2
		c6.2,11,13.7,21.1,22.4,30.3l1.5,1.8L160.9,548.1z"/>
	<path class="st0" d="M247.7,519l-29.8,37.8l-3.8,33.9l-2,3l-2-1.5c-8.3-6-16.1-12.5-23.7-19c-8-6.9-15.7-14.6-22.9-22.4l-1.5-1.8
		l68-60.7l1.5,1.5c4.7,4.7,9.9,9.5,15.4,13.7l0.8,0.8L247.7,519L247.7,519z"/>
	<path class="st0" d="M233.7,608.3l-2-1.2c-5.7-3.5-11.5-7.2-16.9-11.2l-1.8-1.2l2.3-3.3l3.8-33.9l29.4-36.9l10.7,6.5l-6.5,9.8l14,8
		L233.7,608.3z"/>
	<path class="st0" d="M834.8,165.7l-1.8-1.5c-5.4-5-11.2-9.8-16.9-14.2c-1.5-1.2-3-2.4-4.5-3.5l-1.8-1.2L853,79l2,1.2
		c10.4,6.9,20.6,14.5,30.3,22.4l1.8,1.5L834.8,165.7z"/>
	<path class="st0" d="M809,144.4l-2-1.5c-7.7-5.4-13.7-9.2-16.7-11l-1.2-0.8l11.2-77.6l2.3,0.5c3.5,0.8,6.9,1.2,10.4,2h0.3h0.3
		c1.5,0.8,16,7.7,36.6,20.9l2,1.2L809,144.4z"/>
	<path class="st0" d="M898.2,244.5l-0.9-2c-4.7-8.3-9.9-16.4-15.4-24.1l-1.2-1.8l69-49l1.2,1.8c8,10.2,15.2,20.9,21.4,31.6l1.2,2
		L898.2,244.5z"/>
	<path class="st0" d="M879.8,215.5l-1.2-1.8c-5.3-7.2-11.2-14.5-17.2-21.4l-1.5-1.8l60.3-57l1.5,1.5c9.2,9.5,17.9,19.1,25.9,29.4
		l1.5,1.8L879.8,215.5z"/>
	<path class="st0" d="M859,189.6l-1.5-1.8c-6.2-6.9-13-13.7-19.9-19.9l-1.5-1.5l52.3-61.8l1.8,1.5c9.5,8,18.7,16.1,27.4,24.9
		l1.8,1.8L859,189.6z"/>
	<path class="st0" d="M787.6,186.7l-5.7-4.7l7.2-49.6l3,1.8c3.8,2.3,9.5,6,16.9,11.5c1.5,0.9,3,2.3,4.5,3.3l1.8,1.2L787.6,186.7z"/>
	<path class="st0" d="M790,255.1l-1.5-1.8c-6-6.8-11-11.5-14-14.2l-0.8-0.8l7.5-53.8l3,2.4c0.9,0.8,2.3,1.5,3.3,1.8h0.5l28.2-37.1
		l1.8,1.5c5.7,4.5,11.2,9.2,16.7,14.2c7.7,6.9,15.2,14.5,21.9,21.9l1.5,1.8L790,255.1z"/>
	<path class="st0" d="M815.5,290.6l-0.9-2c-6.2-11-13.7-21.4-21.9-31.2l-1.2-1.8l68-64.2l1.5,1.8c6.8,7.7,13,15.7,18.7,23.4
		c6.2,8.4,11.9,17.5,16.9,26.4l1.2,2L815.5,290.6z"/>
	<path class="st0" d="M231.4,130.7c-2.4,1.5-7.5,4.7-14.2,9.5l-2,1.5L170.3,72l2-1.2c12.7-7.7,25.6-14,37.8-18.4h0.3h0.3
		c0.8,0,3-0.5,6.9-0.9l2.3-0.3l12.7,79.1L231.4,130.7z"/>
	<path class="st0" d="M212.7,143.6c-0.9,0.8-2.3,1.8-3.3,2.4c-5.4,4.2-11.2,8.9-16.9,13.7l-1.8,1.5l-55.5-63.3l1.8-1.5
		c9.9-8.4,20.2-16.1,30.3-22.9l2-1.2l44.8,69.6L212.7,143.6z"/>
	<path class="st0" d="M188.3,163.6c-6.9,6.2-13.7,13-20.2,19.6l-1.5,1.8l-60.3-58.5l1.5-1.5c8-8.7,16.4-16.9,24.9-24.4l1.8-1.5
		l55.5,63.3L188.3,163.6z"/>
	<path class="st0" d="M142.8,213.8c-5.3,7.2-10.2,14.6-14.6,22.2l-1.1,1.8l-72.5-39l1.2-2c6.2-11.2,13.1-21.9,20.5-32.4l1.2-2
		l66.7,49.6L142.8,213.8z"/>
	<path class="st0" d="M164.2,187.7c-6.2,6.9-12.2,14.2-17.9,21.7l-1.2,1.8l-66.8-49.6l1.2-1.8c7.7-10.4,16-20.9,24.7-30.3l1.5-1.8
		l60,58.3L164.2,187.7z"/>
	<path class="st0" d="M248.1,230.7c-5,4.5-10.2,9.8-15.7,15.2l-1.5,1.8l-63.3-61.8l1.5-1.5c6.9-7.5,14.5-14.6,22.2-21.7
		c5.4-4.7,11-9.5,16.4-13.7l2-1.5l23.8,34.4l6.9-5l8.4,53L248.1,230.7z"/>
	<path class="st0" d="M228.4,250.3c-8.7,9.5-15.7,18.7-21.7,28.2l-0.9,1.8l-77.4-41.9l1.2-2c5-8.3,10.2-16.1,16.1-24.1
		c6-8,12.5-16,19.4-23.7l1.5-1.8l63.3,61.8L228.4,250.3z"/>
	<path class="st0" d="M234,180.2l-23.2-33.3l1.8-1.2c1.2-0.8,2.3-1.8,3.3-2.4c6.2-4.7,11.5-8,14.5-9.9l3-1.8l7.2,44.3L234,180.2z"/>
	<path class="st0" d="M476.4,707.2l-3.9-0.3c-14.5-0.8-29.1-2-43.4-3.5l-2.3-0.3l4.5-31.8l2.3,0.3c7.2,0.8,14.6,1.5,21.9,2
		c6.5,0.5,13,0.8,19.1,0.9h2.3L476.4,707.2z"/>
	<path class="st0" d="M585.8,704.2c-11.7,1.2-23.7,2.3-35.4,2.7l1.5,1.5h-13.1l0.8-0.9h-1.5v-33.1h2.3c6.9-0.3,14.5-0.8,21.7-1.2
		c6.8-0.5,13.4-0.9,19.9-1.5l2.3-0.3l3.9,32.4L585.8,704.2z"/>
	<path class="st0" d="M397.9,699.3l-2.3-0.3c-13-2.3-25.9-4.7-38.3-7.5l-2.3-0.5l6.8-30.9l2.3,0.5c6,1.2,12.2,2.4,18.4,3.8
		c6,1.2,12.5,2.3,19.1,3.3l2.3,0.3L397.9,699.3z"/>
	<path class="st0" d="M425.4,703.1l-2.3-0.3c-7.5-0.9-14.6-2-21.7-3l-2.3-0.3l6.2-31.4l2,0.3c6.8,0.9,13.4,1.8,19.9,2.4l2.3,0.3
		L425.4,703.1z"/>
	<path class="st0" d="M615.2,700.7c-7.7,1.2-15.7,2.3-23.7,3l-2.3,0.3l-3.9-32.4l2.3-0.3c7.7-0.8,15.4-1.8,23.2-2.7l2.3-0.3
		l4.2,32.1L615.2,700.7z"/>
	<path class="st0" d="M658.4,692.7c-12.2,2.7-24.7,5-37.4,6.9l-2.3,0.3l-4.2-32.1l2.3-0.3c5.7-0.8,11-1.8,16.1-2.4
		c6.5-0.9,13-2.3,19-3.5l2.3-0.5l6.8,31.2L658.4,692.7z"/>
	<path class="st0" d="M629.7,664.4c-5.3,0.8-10.4,1.8-16,2.4l-2.3,0.3l-16.1-101.3l2.3-0.3c4.7-0.5,9.5-0.9,14-1.5l2-0.3L632,663.8
		L629.7,664.4z"/>
	<path class="st0" d="M406.7,666.8l-2.3-0.3c-6.5-0.9-12.7-2-18.7-3l-2.3-0.5l19.1-100.8l2,0.3c4.7,0.8,9.8,1.2,15.4,2l2.3,0.3
		L406.7,666.8z"/>
	<path class="st0" d="M531.9,650.6c-6.2,0.3-12.5,0.3-18.4,0.3c-9.2,0-19-0.3-28.3-0.8h-2.3l0.8-15.7h2.3c7.2,0.3,14.5,0.5,21.4,0.5
		c8,0,16-0.3,23.8-0.5h2.3l0.5,16.1L531.9,650.6L531.9,650.6z"/>
	<path class="st0" d="M578.6,646.5c-13.4,1.8-27.1,3-41.1,3.8h-2.3l-0.5-16.1h2.3c13.4-0.8,26.7-2,39.6-3.5l2.3-0.3l2,16.1H578.6
		L578.6,646.5z"/>
	<path class="st0" d="M481.6,649.9l-2.3-0.3c-18.7-1.2-33.3-3.3-42.3-4.7l-2.3-0.3l2-14.5l2.3,0.3c8.4,1.2,22.6,2.7,41.1,3.5h2.3
		L481.6,649.9z"/>
	<path class="st0" d="M611.3,667.1c-8.3,1.2-16.4,2-23.8,3l-2.3,0.3l-12.7-102.6l2.3-0.3c6.8-0.5,13.7-0.9,20.5-1.8l2-0.3
		l16.1,101.1L611.3,667.1z"/>
	<path class="st0" d="M430,669.8l-2.3-0.3c-6.8-0.8-13.7-1.8-20.9-2.7l-2.3-0.3l16-102l2.3,0.3c6.5,0.8,13.1,1.5,19.6,2l2.4,0.3
		L430,669.8z"/>
	<path class="st0" d="M636,114.5l-2.3-0.3c-10.7-0.8-21.4-1.5-32.1-2h-2.3l3.3-80.2h2.3c11.2,0.5,22.4,1.2,33.6,2l2.3,0.3L636,114.5
		z"/>
	<path class="st0" d="M598.3,112.1H596c-8.7-0.5-17.5-0.8-25.9-1.2c-3.9-0.3-8-0.3-11.7-0.5h-2.3l1.5-79.7h2.3
		c13,0.3,26.4,0.8,39.6,1.2h2.3L598.3,112.1z"/>
	<path class="st0" d="M506,109.4c-4.7,0-9.2,0-13.7,0c-8.3,0-16.4,0-24.7,0.3h-2.3L463.9,31h2.3c13.1-0.3,26.4-0.5,39-0.5h2.3
		l0.8,79.1L506,109.4z"/>
	<path class="st0" d="M554.8,110.4h-2.3c-13.7-0.5-27.4-0.8-40.5-0.8h-2.3l-0.8-79.1h5.7c13.1,0,26.4,0.3,39.3,0.5h2.3L554.8,110.4z
		"/>
	<path class="st0" d="M633.4,166.3l-2.3-0.3c-14.5-1.2-28.9-2.3-43.1-3h-2.3l0.3-15.7h2.3c14.5,0.8,28.9,1.8,43.4,2.7l2.3,0.3
		L633.4,166.3z"/>
	<path class="st0" d="M584.6,163h-2.3c-14.5-0.8-29.1-1.2-43.8-1.8h-2.3l0.3-15.7h2.3c14.5,0.3,29.4,0.9,43.8,1.5h2.3L584.6,163z"/>
	<path class="st0" d="M535.2,161.2h-2.3c-11.7-0.3-23.2-0.3-34.4-0.3c-3.3,0-6.8,0-9.9,0h-2.3l-0.3-15.7h6.8
		c13.4,0,27.1,0.3,40.1,0.5h2.3L535.2,161.2L535.2,161.2z"/>
	<path class="st0" d="M482.9,160.9c-15.2,0.3-30.3,0.5-45.3,0.9h-2.3l-0.3-16h2.3c15.2-0.5,30.6-0.8,45.5-0.8h2.3l0.3,15.7
		L482.9,160.9L482.9,160.9z"/>
	<path class="st0" d="M506.3,132.5c-3.3,0-6.5,0-9.5,0c-14.5,0-29.4,0.3-43.8,0.5h-2.3l-0.9-21.9h2.3c4.2,0,8.4-0.3,13-0.3
		c9.2-0.3,18.4-0.3,27.6-0.3c4.5,0,9.2,0,13.7,0h2.3l0.3,21.9H506.3z"/>
	<path class="st0" d="M447.1,133.1c-19.9,0.5-40.4,1.2-60.3,2.4h-2.2l-0.9-21.9l2.3-0.3c19.4-1.2,39.8-2,60.3-2.4h2.3l0.9,21.9
		L447.1,133.1z"/>
	<path class="st0" d="M567.3,133.8c-18.7-0.8-37.4-0.9-55.3-1.2h-2.3l-0.3-21.9h2.3c14.2,0.3,28.9,0.5,43.6,0.9
		c3.8,0,7.5,0.3,11.2,0.3h3l0.3,21.7L567.3,133.8z"/>
	<path class="st0" d="M634.7,137.2l-2.3-0.3c-19.4-1.2-39.3-2.3-59.2-3h-2.3l-0.3-21.7h2.3c8.4,0.3,17.2,0.8,25.9,1.2
		c11.5,0.5,23.2,1.2,34.8,2.3l2.3,0.3L634.7,137.2z"/>
	<path class="st0" d="M420.7,110.8c-11.7,0.5-23.4,0.9-34.5,1.8l-2.3,0.3l-3.3-77.9l2.3-0.3c11.5-0.8,23.2-1.2,35.9-2h2.3l2,78.4
		L420.7,110.8z"/>
	<path class="st0" d="M462,109.7c-4.5,0-8.7,0.3-13,0.3c-7.5,0.3-14.9,0.5-22.6,0.8h-2.3l-2-78.4h2.3c12.7-0.5,24.9-0.9,36.3-1.2
		h2.3l1.5,78.7L462,109.7L462,109.7z"/>
	<path class="st0" d="M431.8,162c-13.7,0.5-27.9,1.2-42.1,2.3l-2.3,0.3l-0.9-16.4l2.3-0.3c14.5-0.8,28.9-1.5,42.8-2h2.3l0.3,16.1
		L431.8,162L431.8,162z"/>
	<path class="st0" d="M383.8,164.6c-14.5,0.9-28.6,2.3-41.9,3.5l-2.4,0.3l-0.5-16.7l2.3-0.3c13.1-1.2,27.4-2.3,41.9-3.3l2.3-0.3
		l0.9,16.4L383.8,164.6z"/>
	<path class="st0" d="M286.4,174.5c-19.1,2.7-33.3,5-41.9,6.5l-2.3,0.5l-0.9-6l-1.2-11.5l2-0.3c8.4-1.5,22.6-3.8,42.3-6.5l2.3-0.3
		l1.5,16.9L286.4,174.5z"/>
	<path class="st0" d="M402,195.5c-16,0.8-30.1,1.5-43.4,2.7l-2.3,0.3l-2.4-21.1l2.3-0.3c14.6-1.2,29.8-2.4,44.8-3.3l2.3-0.3
		l0.9,21.9H402z"/>
	<path class="st0" d="M511.4,193.8h-2.3c-6.8,0-13,0-19.4,0c-11.9,0-23.2,0-33.6,0.3h-2.3l-0.9-22.9h2.3c13.4-0.3,27.1-0.5,40.8-0.5
		c4.2,0,8.7,0,13,0h2.3L511.4,193.8L511.4,193.8L511.4,193.8z"/>
	<path class="st0" d="M780.5,182.2l-0.5,3.5l-2.3-0.5c-14.9-2.7-29.8-5.3-45.1-7.5l-2-0.3l1.5-17.2l2.3,0.3
		c15.2,2,30.6,4.2,45.5,6.5l2.3,0.3L780.5,182.2z"/>
	<path class="st0" d="M617.3,197.8l-2.3-0.3c-13.1-0.9-27.1-1.8-41.6-2.3h-2.3l0.9-22.9h2.3c14,0.8,27.9,1.5,41.9,2.4l2.3,0.3
		L617.3,197.8z"/>
	<path class="st0" d="M570,195.2h-2.3c-16.7-0.5-34.4-0.9-52.8-1.2h-2.3v-23.2h2.3c17.6,0.3,35.9,0.8,53.8,1.5h2.3L570,195.2z"/>
	<path class="st0" d="M450.2,193.8c-15.7,0.3-29.7,0.5-42.5,0.9h-2.3l-0.9-21.9h2.3c13.7-0.8,28.2-1.5,42.8-1.8h2.3l0.9,22.9
		L450.2,193.8z"/>
	<path class="st0" d="M352.7,198.5c-16,1.5-29.4,3.3-41.3,5.4l-2.3,0.5l-3.3-22.4l2.3-0.3c13.7-1.8,27.9-3.3,42.1-4.5l2.3-0.3
		l2.4,21.1L352.7,198.5z"/>
	<path class="st0" d="M305.9,205.2c-6.5,1.2-12.5,2.7-17.9,4.5l-1.8,0.5l-13.7-23.4l3.3-0.5c8.4-1.2,17.5-2.4,26.8-3.8l2.3-0.3
		l3.3,22.4L305.9,205.2z"/>
	<path class="st0" d="M665.8,202.7l-2.3-0.3c-13.4-1.8-27.6-3.3-42.8-4.2l-2.3-0.3l1.2-22.6l2.3,0.3c14.6,0.9,29.8,2.4,44.8,3.9
		l2.3,0.3L665.8,202.7z"/>
	<path class="st0" d="M683.9,171.4l-2.4-0.3c-14.5-1.8-29.4-3.3-44.6-4.5l-2.3-0.3l0.5-16l2.3,0.3c15.2,1.2,30.1,2.4,44.8,3.9l2,0.3
		L683.9,171.4z"/>
	<path class="st0" d="M729.3,177.2l-2.3-0.3c-13-2-26.1-3.8-39.6-5.3l-2-0.3l0.8-16.7l2.3,0.3c13,1.2,26.4,3,40.4,4.7l2.3,0.3
		L729.3,177.2z"/>
	<path class="st0" d="M736.8,217.4l-1.8-0.5c-3.9-1.2-8.4-2.4-13-3.8l-2-0.5l3-26.7l2.3,0.3c8.4,1.2,16.7,2.3,24.7,3.5l3.5,0.5
		L736.8,217.4z"/>
	<path class="st0" d="M719,212.4l-2.4-0.5c-13.7-3.3-29.7-6.2-47.3-8.4l-2.3-0.3l3.8-23.2l2,0.3c15.4,1.8,31.4,3.5,47,5.7l2.3,0.3
		L719,212.4z"/>
	<path class="st0" d="M336,168.8c-14.9,1.5-29.7,3.3-43.8,5l-2.3,0.3l-1.5-16.9l2.3-0.3c14.5-1.8,29.4-3.5,44.8-4.7l2.3-0.3
		l0.5,16.7L336,168.8z"/>
	<path class="st0" d="M267.6,146.3c-9.9,1.2-19.4,2.4-27.9,3.9l-2.3,0.3l-3.3-19.6l2.3-0.5c4.5-0.8,14.2-2.7,28.6-4.7l2.3-0.3
		l2.4,20.6L267.6,146.3z"/>
	<path class="st0" d="M381,135.9c-20.5,1.2-40.5,2.7-60.3,4.5l-2.3,0.3l-2.4-21.1l2.3-0.3c3-0.3,6-0.5,8.9-0.9
		c16.9-1.5,34.5-3,52.8-4.2l2.3-0.3l0.9,21.9L381,135.9z"/>
	<path class="st0" d="M315,140.9c-14.5,1.2-28.3,3-41.6,4.5l-2.3,0.3l-2.4-20.6l2.3-0.3c13.1-1.8,27.1-3.5,41.9-5.3l2.3-0.3
		l2.4,21.1L315,140.9z"/>
	<path class="st0" d="M784.8,152.8l-2.3-0.3c-8.9-1.2-18.2-2.4-27.4-3.8l-2.3-0.3l2.4-20.9l2.3,0.3c9.2,1.2,18.7,2.4,27.9,3.8
		l2.3,0.3L784.8,152.8z"/>
	<path class="st0" d="M702.2,142.6l-2.3-0.3c-20.6-2-41.3-3.8-61.8-5.3l-2.3-0.3l1.2-21.4l2.3,0.3c16.9,1.2,34.1,2.7,51.1,4.2
		l14,1.2L702.2,142.6z"/>
	<path class="st0" d="M751.4,148.3l-2.3-0.3c-14.6-1.8-29.4-3.5-43.8-5l-2.3-0.3l2.4-20.9l2.3,0.3c14.6,1.5,29.7,3.3,44,5l2.3,0.3
		L751.4,148.3z"/>
	<path class="st0" d="M245.9,108.5l2.4,18.4l-2.3,0.3c-4.5,0.8-8,1.5-9.9,1.8l-2.3,0.5l-12.7-78.9l2.3-0.3
		c6.8-0.9,17.6-2.4,31.6-4.2l2.3-0.3l7.5,60L245.9,108.5z"/>
	<path class="st0" d="M286.7,121.2c-5.7,0.8-31.6,4.5-34.5,5l-2.3,0.3l-2.4-16.9l39-5.7l2.4,17.2L286.7,121.2z"/>
	<path class="st0" d="M380,112.8c-9.2,0.5-18.7,1.2-27.9,2l-2.3,0.3l-2-19l-21.9,2l-5-58.9l2.3-0.3c17.6-1.5,35.6-3,53.5-3.9
		l2.3-0.3l3.4,77.9L380,112.8z"/>
	<path class="st0" d="M303.1,100.4l2,19l-2.3,0.3c-3.5,0.5-6.9,0.8-10.4,1.2l-2.3,0.3l-2.4-18.4l-21.4,3.3l-7.5-60l2.3-0.3
		c18.4-2.3,37.5-4.2,56.8-6l2.3-0.3l5,58.9L303.1,100.4z"/>
	<path class="st0" d="M346.4,115.1c-4.5,0.5-35.9,3.5-38.1,3.8l-2.3,0.3l-1.8-17.6l42.5-3.9l1.8,17.6L346.4,115.1L346.4,115.1z"/>
	<path class="st0" d="M692.2,98.6l-19.6-2l-1.8,20.6l-2.3-0.3c-11.2-0.9-20.5-1.8-28.9-2.3l-2.3-0.3l5-80.2l2.3,0.3
		c17.5,1.2,34.5,2.7,51.5,4.5l2.3,0.3L692.2,98.6z"/>
	<path class="st0" d="M756.9,105.6l-19.9-2.4l-2.3,20.6l-2.3-0.3c-6.8-0.8-13.4-1.5-20.2-2.3l-2.3-0.3l2.3-20.2l-19-2l6.2-59.5
		l2.3,0.3c20.5,2.3,40.5,4.7,60,7.7l2.3,0.3L756.9,105.6z"/>
	<path class="st0" d="M708.8,120.7l-3.8-0.3c-3-0.3-5.7-0.5-8.7-0.8l-1.8-0.3c-5-0.5-16.4-1.5-20.6-2l-2.3-0.3l1.8-19.4l37.4,3.9
		L708.8,120.7z"/>
	<path class="st0" d="M788,130.4l-2.3-0.3c-3-0.5-6.2-0.8-9.2-1.2l-2.3-0.3l2.7-20.6l-18.7-2.3l7.2-58l2.6,0.3
		c9.9,1.5,19.9,3.3,29.4,4.7l2.3,0.5L788,130.4z"/>
	<path class="st0" d="M772.8,128.4l-2.3-0.3c-3.5-0.5-6.8-0.9-10.2-1.2c-5.4-0.8-17.9-2.3-22.2-2.7l-2.3-0.3l2-19.4l37.4,4.7
		L772.8,128.4z"/>
</g>
<g id="blocks">
	<path class="st1" d="M505.5,733.9c-14.2,0-24.4-0.9-31.4-2l0.8-20.9h1.8c11.5,0.5,22.9,0.8,34.1,0.8c8.9,0,18.2-0.3,26.8-0.5
		c1.5,0,3.3,0,4.7-0.3v20.6C529.7,733.2,517.1,733.9,505.5,733.9L505.5,733.9z"/>
	<path class="st1" d="M510.8,706.1c-10.2,0-20.6-0.3-30.9-0.8l0.5-28.3c6.2,0.3,19.9,0.5,26.8,0.5c8.9,0,18.2-0.3,27.4-0.5v28.6
		C527,705.8,518.6,706.1,510.8,706.1L510.8,706.1z"/>
	<path class="st2" d="M512.7,616c-8.4,0-16.9-0.3-25.6-0.5l1.8-30.3h41.1l0.8,30.6C524.9,616,518.6,616,512.7,616L512.7,616z"/>
	<path class="st2" d="M507,660.9c-7.5,0-14.9-0.3-22.2-0.5l0.5-6.9c9.5,0.5,19.1,0.8,28.3,0.8c6.2,0,12.5,0,18.4-0.3l0.3,6.2
		C523.6,660.9,515.2,660.9,507,660.9L507,660.9z"/>
	<path class="st2" d="M538.1,660.2l-0.3-6.2c14-0.8,27.9-2,41.3-3.8l0.8,6.2c-6.8,0.8-13.1,1.5-19.6,2.3
		C552.8,659.1,545.3,659.8,538.1,660.2L538.1,660.2z"/>
	<path class="st2" d="M478.8,660.4c-7.5-0.5-14.9-0.9-21.9-1.5c-9.5-0.8-16.7-1.8-21.1-2.4l0.9-7.7c8.7,1.5,23.4,3.5,42.5,4.7
		L478.8,660.4L478.8,660.4z"/>
	<path class="st2" d="M536.6,615.3l-1.5-43.8c11.7-0.3,23.2-0.8,34.1-1.5l5.3,41.9C562.2,613.7,549.5,614.8,536.6,615.3L536.6,615.3
		z"/>
	<path class="st2" d="M481.4,615.1c-18.2-0.9-32.1-2.7-39.3-3.5l6-42.1c11.5,0.8,23.4,1.5,35.6,2L481.4,615.1L481.4,615.1z"/>
	<g id="TRIBUNA_MONTE_MARIO">
		<path class="st1" d="M352.4,687.8l5.7-26.4c-5.7-1.2-11.2-2.7-16.7-4.2c-6-1.5-11.9-3.3-17.6-5.3l-7.9,25.7
			C327.9,681.7,340.1,684.8,352.4,687.8z"/>
		<path class="st1" d="M278.7,635.4c-5.7-2.4-11.2-5-16.9-7.7c-9.2-4.5-18.2-9.5-26.8-14.5l-13,25.2c8.9,5.3,25.2,13.7,47.6,23.2
			L278.7,635.4z"/>
		<path class="st1" d="M275,663.4c11.5,4.5,23.2,8.7,35.4,12.7l8-25.9c-5.7-1.8-11.5-3.8-16.9-6c-5.7-2.3-11.5-4.5-17.2-6.8
			L275,663.4z"/>
		<path class="st1" d="M738.2,638.5l8.9,24.9c21.7-8.7,37.5-16.9,47.6-22.6l-11.9-23.2c-9.5,5.3-19.4,10.2-29.8,14.6
			C748.1,634.3,743.3,636.5,738.2,638.5z"/>
		<path class="st1" d="M732.8,640.5c-6.9,2.7-14,5.3-20.9,7.5c-5.3,1.8-10.2,3.3-15.2,4.7l8.3,25.6c12.7-3.9,25.2-8.3,36.9-12.7
			L732.8,640.5z"/>
		<path class="st1" d="M699.4,680.1l-8.1-25.5c-4.7,1.2-9.8,2.7-15.2,3.9c-6.2,1.5-12.5,3-18.4,4.2l5.7,26.7
			C675.5,686.6,687.7,683.3,699.4,680.1z"/>
		<path class="st1" d="M706.7,683.8l10.7,33.9c13.1-3.9,26.1-8.3,38.6-13l-12.2-33.9C732,675.6,719.5,679.8,706.7,683.8z"/>
		<path class="st1" d="M664.5,695l7.2,34.1c13.7-3,27.1-6.2,40.1-9.9l-10.7-33.9C689.2,689.2,677,692.3,664.5,695z"/>
		<path class="st1" d="M761.4,702.7c18.4-7.2,36.3-15.2,53-23.8l-16.9-33.1c-10.2,6-26.4,14.2-48.2,23.2L761.4,702.7z"/>
		<path class="st1" d="M314,683.3l-9.8,31.2c13.1,3.9,26.7,7.5,40.1,10.7l6.8-31.8C338.7,690.5,326.2,687.1,314,683.3z"/>
		<path class="st1" d="M219.2,643.2l-15.7,30.6c16.7,8.7,34.5,16.9,53.2,24.4l11-31.4C245.6,657.6,229.6,649.2,219.2,643.2z"/>
		<path class="st1" d="M273,668.8L262,700c11.7,4.5,24.1,8.7,36.6,12.7l9.8-31.4C296.4,677.7,284.5,673.3,273,668.8z"/>
		<path class="st2" d="M337.3,553.6L306,640.1c5.4,2,11.2,3.9,16.7,5.7c5.7,1.8,11.7,3.5,17.5,5.3l23.7-93.3
			c-2.4-0.5-5.3-1.2-7.7-1.8l-3.3,1.5L352,558l-0.9-0.3L337.3,553.6z"/>
		<path class="st2" d="M308.6,550.7l-1.2,2.4l-2.4-0.9l-7.5-3.3l-30.6,74.5c5.4,2.7,11,5.3,16.7,7.5c5.7,2.4,11.5,4.7,17.2,6.9
			l29.4-81.7l-2.4-0.9l-17.9-6.9L308.6,550.7z"/>
		<path class="st2" d="M369.6,558.6l-23.7,93.6c5.3,1.5,10.7,2.7,16.4,3.9c6,1.2,11.9,2.7,18.2,3.8l18.4-96.3
			C388.8,562.4,379.1,560.6,369.6,558.6z"/>
		<path class="st2" d="M753.4,625.5c9.2-4.2,18.4-8.7,26.8-13.4l-27.9-54.3l-1.5,0.9l-0.9-3.5l-0.9-3.8l-4.2,1.2l-2.3,0.5l-0.9-2
			l-3.9-6.8l-14,5.4L753.4,625.5z"/>
		<path class="st2" d="M292.1,546.8l-12.2-5.3l-3.3,8l-1.2,3l-2.7-1.5l-3.9-2.3l-31.2,59.2c7.7,4.5,15.7,8.9,23.8,13L292.1,546.8z"
			/>
		<path class="st2" d="M707.6,643.5l-27.4-90.1c-8.4,2.3-17.5,4.5-26.7,6.2l23.8,92.4c5.3-1.2,10.2-2.7,14.9-3.9
			C697.5,646.5,702.3,645.1,707.6,643.5z"/>
		<path class="st2" d="M653.6,657.5c6-1.2,12.2-2.7,18.2-4.2l-24.1-92.8c-9.8,1.8-19.6,3.5-29.8,4.7l17.2,95.7
			C641.4,660,647.6,659,653.6,657.5z"/>
		<path class="st2" d="M748.1,628.2l-30.6-76.7l-6.9-0.9l-19.9,6.2l-1.2,0.5l-1.2-0.8l-1.8-0.9l26.6,86c6.9-2.3,13.7-4.7,20.5-7.5
			C738.5,632,743.5,630,748.1,628.2z"/>
		<path class="st1" d="M548.3,710.8v23.4V745c14.2-0.5,28.3-1.5,42.3-3l-4.2-34.1C573.6,709.2,561,710.2,548.3,710.8z"/>
		<path class="st1" d="M592.1,707.2l4.3,34.1c8-0.8,16-1.8,23.7-3l-4.5-34.4C608,705.2,600.2,706.2,592.1,707.2z"/>
		<path class="st1" d="M621.2,703.4l4.5,34.4c13.4-2,27.1-4.5,40.4-7.2l-7.2-34.1C646.7,699.1,634.1,701.4,621.2,703.4z"/>
		<path class="st1" d="M401,703.4l-6.5,32.1c8,1.2,15.7,2.4,23.7,3.5l4.7-32.7C415.4,705.4,408.2,704.5,401,703.4z"/>
		<path class="st1" d="M428.3,706.9l-4.7,32.7c14.6,1.8,29.7,3.3,44,4.2l1.2-33.3C455.5,709.6,441.8,708.5,428.3,706.9z"/>
		<path class="st1" d="M356.9,694.7l-6.8,31.8c12.7,3,25.6,5.4,38.6,7.7l6.2-32.1C382.3,700.4,369.3,697.7,356.9,694.7z"/>
	</g>
	<path class="st2" d="M564.4,669.7l-0.8-5.7c5.4-0.5,11.2-1.2,16.9-2l0.8,6.2C575.9,668.8,570.4,669.5,564.4,669.7L564.4,669.7z"/>
	<path class="st2" d="M452.8,669.7c-6.2-0.5-12.7-0.9-19-1.8l0.8-6c4.2,0.5,10.4,1.5,18.7,2.3L452.8,669.7L452.8,669.7z"/>
	<path class="st2" d="M538.4,671.2l-0.3-5c6.8-0.3,13.1-0.8,19.9-1.5l0.8,5.4C552.1,670.3,545,670.9,538.4,671.2L538.4,671.2z"/>
	<path class="st2" d="M478.4,671.2h-0.8c-6.5-0.3-13-0.5-19-0.9l0.5-5.3c6.2,0.5,13,0.9,19.4,1.2L478.4,671.2L478.4,671.2z"/>
	<g id="CURVA_SUD">
		<path class="st3" d="M924.7,302.8l79.1-19.4c-3.3-12.5-6.9-24.9-11.9-36.9l-76.1,30.3C919.5,285.2,922.2,293.7,924.7,302.8z"/>
		<path class="st3" d="M900.8,246.7c4.2,8,8.3,16.1,11.7,24.7l76.1-30.3c-4.7-11.5-10.4-22.9-16.7-33.9L900.8,246.7z"/>
		<path class="st3" d="M917.8,469.6l69,25.9c4.7-11.7,8.7-24.1,12.2-36.9l-72.5-16.9C924,451.1,921,460.6,917.8,469.6z"/>
		<path class="st3" d="M902.7,501.7l64.5,33.9c6.2-11.2,11.9-22.9,16.9-34.8l-68.7-25.9C911.9,484,907.7,492.9,902.7,501.7z"/>
		<path class="st1" d="M920.7,440.4l-84.7-19.6c-3.5,13.4-8.4,26.1-15.2,38.1l77,40.4c5.3-9.5,9.8-19.1,13.4-28.9
			C914.9,460.6,918.2,450.6,920.7,440.4z"/>
		<path class="st1" d="M909.5,276.1c-3.8-8.9-8-17.9-12.7-26.7l-77.9,43.1c5.7,10.4,10.4,21.4,14.2,32.4L919,304
			C916.4,294.6,913.3,285.3,909.5,276.1z"/>
		<path class="st3" d="M953.8,372.3v-24.1h-20.5c0.8,8,1.2,16.1,1.2,24.1H953.8z"/>
		<path class="st3" d="M932.7,342.5h21.9l55.5-26.7c-1.2-8.9-2.7-17.9-4.7-26.7l-79.3,19.2C928.9,319.2,931.2,330.7,932.7,342.5z"/>
		<path class="st3" d="M953.8,399.4V378h-19.1c0,6.9-0.5,14.2-0.9,21.4H953.8z"/>
		<path class="st3" d="M1000.4,453.2c2-7.5,3.8-14.9,5-22.4l-52.6-25.3h-20.2c-1.2,10.4-3,20.9-5.3,30.9L1000.4,453.2z"/>
		<path class="st1" d="M834.8,330.7c3.9,13.7,6.2,27.9,6.5,41.6h87.4c0-8.7-0.8-17.6-1.8-26.7c-1.2-12.2-3.5-24.1-6.5-35.9
			L834.8,330.7z"/>
		<path class="st1" d="M922,434.6c2.4-10.7,4.2-21.7,5.3-32.9c0.8-8,1.2-16.1,1.2-23.8h-87.4c0,12.7-1.5,25.2-3.9,37.1L922,434.6z"
			/>
	</g>
	<g id="CURVA_NORD">
		<path class="st3" d="M34.8,496.2c4.7,11.9,10.2,23.7,16.4,34.5l68.4-36.3c-4.5-8.7-8.7-17.6-12.2-26.7L34.8,496.2z"/>
		<path class="st3" d="M97,435.3l-75.5,19.1c3,12.5,6.9,24.7,11.2,36.3l72.5-28.3C102,453.6,99.3,444.5,97,435.3z"/>
		<path class="st3" d="M38.7,235.8l71.7,29.4c3.8-8.7,8.3-17.2,12.7-25.3l-68.4-37.1C48.9,213.8,43.5,224.9,38.7,235.8z"/>
		<path class="st3" d="M108.2,270.4L36.6,241c-4.7,11.5-8.9,23.4-12.5,35.1L99,295.7C101.7,287.6,104.7,278.8,108.2,270.4z"/>
		<path class="st1" d="M104.7,297.5l82.1,21.7c3.5-13,8.4-25.2,15.2-36.9l-73.7-39.8c-5,8.9-9.8,18.2-13.7,27.4
			C111,279.2,107.4,288.3,104.7,297.5z"/>
		<path class="st1" d="M111.6,463c3.8,9.9,8.3,19.4,13,28.9l75.7-40.4c-6.2-11.9-11.2-25.2-14.5-38.9l-83.5,21.1
			C105,443.7,108.2,453.6,111.6,463z"/>
		<path class="st3" d="M22.6,281.9c-2.4,9.2-4.7,18.4-6.5,27.6l49.6,24.1h25.2c1.5-11,3.8-21.7,6.5-31.8L22.6,281.9z"/>
		<path class="st3" d="M69.4,339.4v26.8h19.1c0-8.9,0.8-17.9,1.8-26.8H69.4z"/>
		<path class="st3" d="M89.8,393.7c-0.8-7.2-0.9-14.5-1.2-21.4H69.4v21.4H89.8z"/>
		<path class="st3" d="M90.5,399.4h-19l-0.9,0.5l-55,25.9c1.2,7.7,2.7,15.4,4.5,22.9l75.5-19.1C93.2,419.7,91.6,409.5,90.5,399.4z"
			/>
		<path class="st1" d="M96.5,336.8c-1.2,9.9-2,19.9-2,29.7h86.4c0-14.5,1.5-28.3,4.5-41.6l-82.1-21.7
			C100.3,314,97.9,325.5,96.5,336.8z"/>
		<path class="st1" d="M101.2,428.2l83.6-21.1c-2.3-11.2-3.5-22.9-3.9-34.8H94.6c0,8,0.5,16,1.5,23.8
			C97,407.1,98.8,417.7,101.2,428.2z"/>
	</g>
	<g id="DISTINTI_SUD_OVEST">
		<path class="st3" d="M839.3,579l46.7,52.8c9.8-8,19-16.4,27.6-25.2l-54.1-46.6C853.3,566.6,846.2,573.1,839.3,579z"/>
		<path class="st3" d="M944.9,570.4c6.9-9.5,13.7-19.4,19.6-29.8L900,506.7c-4.5,8-9.5,15.7-14.9,22.9L944.9,570.4z"/>
		<path class="st3" d="M813.4,598.9l37.5,58.5c10.7-6.9,20.9-14.5,30.3-21.9L834.6,583C827.8,588.2,820.9,593.7,813.4,598.9z"/>
		<path class="st3" d="M863.4,555.9l54.1,46.6c8.4-8.7,16.4-18.2,23.7-27.6l-59.5-40.5C876.2,541.6,869.9,549.1,863.4,555.9z"/>
		<path class="st3" d="M788,614.7l31.6,61.5c9.2-5,17.9-10.2,26.7-15.4l-37.5-58.5C801.9,606.4,795,610.6,788,614.7z"/>
		<path class="st1" d="M805.2,596.9l-0.3-0.5v-0.8l-3.8-31.8l-28.2-33.9l-5.7,3.9l4.5,8.7l1.2,2.4l-2.3,1.5l-13.4,8.3l27.9,54.5
			C792.3,605.6,798.9,601.5,805.2,596.9L805.2,596.9z"/>
		<path class="st1" d="M806.7,561.7v0.8l3.8,31.4c8-5.4,15.7-11.2,22.6-17.2c7.7-6.5,15.2-13.1,21.9-20.2l-66.7-57.4
			c-3.8,3.5-7.5,6.8-11.5,9.8l0.5,17.2v0.8l28.9,34.5L806.7,561.7z"/>
		<path class="st1" d="M792.7,494.9l66.5,57.2c6.9-7.5,13.7-15.4,19.6-23.4c5.7-8,11.2-16.1,16.1-24.7l-77.2-40.4
			C810.9,474.8,802.5,485.1,792.7,494.9z"/>
	</g>
	<g id="DISTINTI_NORD_OVEST">
		<path class="st3" d="M140.6,528.4l-62.7,43.1c7.2,9.5,15.2,18.4,23.4,27.1l55.8-49.7C151.3,542.3,145.8,535.5,140.6,528.4z"/>
		<path class="st3" d="M121.9,500l-69.6,36c6.2,10.7,13.1,20.9,20.6,30.9l64.5-43.1C131.5,516.2,126.7,507.8,121.9,500z"/>
		<path class="st3" d="M160.7,553.1l-55.5,49.6c8.9,9.2,19,17.9,29.4,26.4l47-55C174.4,567.2,167.5,560.3,160.7,553.1z"/>
		<path class="st3" d="M186.1,577.8l-47,54.7c9.5,7.5,19.6,14.5,30.1,21.4l38.9-58.5C200.5,589.7,193.1,584,186.1,577.8z"/>
		<path class="st3" d="M174.2,657.1c7.7,5,16,9.8,24.1,14.2l31.6-61c-6-3.8-11.7-7.5-17.2-11.5L174.2,657.1z"/>
		<path class="st1" d="M127.3,496.9c4.7,8.7,10.2,17.5,16.1,25.9c5.4,7.7,11.5,15.2,17.6,22.4l64.5-57.4
			c-8.7-9.5-16.4-19.6-22.6-30.9L127.3,496.9z"/>
		<path class="st1" d="M187.9,571.7c7.5,6.5,15.4,13,23.4,19l0.3-0.5l3.9-33.1v-0.8l0.5-0.8l29.4-36.9v-13
			c-5.4-4.5-10.7-8.9-15.4-14l-64.9,57.9C172.2,557.2,179.9,564.5,187.9,571.7z"/>
		<path class="st1" d="M217.2,591.2v0.8l-0.5,0.5l-0.8,1.2c5.4,3.8,11,7.5,16.7,11l30.9-59.2l-11.5-6.5l-2.7-1.5l1.8-2.4l4.7-6.9
			l-6.9-4.2l-27.9,34.5L217.2,591.2z"/>
	</g>
	<g id="DISTINTI_SUD_EST">
		<path class="st3" d="M817.6,148.1c5.7,4.5,11.5,9.2,17.2,14.2l49.3-58c-9.8-8-19.9-15.4-30.3-22.4l-40.6,62.7
			C814.4,146,815.9,147,817.6,148.1z"/>
		<path class="st3" d="M791.5,130.2c3,1.8,8.9,5.4,16.7,11.2L848.7,79c-19.6-13-34.1-19.6-36.3-20.9c-3.5-0.8-6.9-1.2-10.2-2
			L791.5,130.2z"/>
		<path class="st3" d="M899.3,241.5l71.1-39.3c-6.5-10.7-13.4-21.1-21.4-31.6L883.6,217C889.3,225,894.6,233.4,899.3,241.5z"/>
		<path class="st3" d="M880.4,212.4l65.2-46.3c-8-9.9-16.7-19.9-25.6-29.1l-57,54.1C869,197.9,874.9,205.2,880.4,212.4z"/>
		<path class="st3" d="M859,186.4l56.8-53.8c-8.4-8.4-17.6-16.7-27.4-24.7l-49.6,58.3C845.9,172.7,852.7,179.5,859,186.4z"/>
		<path class="st1" d="M807.5,147.6c-7.2-5.3-13-8.9-16.7-11.5l-6.5,44.8l3,2.3l24.7-32.7C810.2,149.8,808.7,149,807.5,147.6z"/>
		<path class="st1" d="M833.1,168.8c-5.4-5-11-9.8-16.7-14.2L790,189.4l-0.9,1.5l-1.8-0.3c-1.8-0.3-3-1.2-4.2-2.3l-6.8,48.8
			c3,2.7,8.3,7.7,14.2,14.5l64.5-61C848,183,840.5,175.8,833.1,168.8z"/>
		<path class="st1" d="M858.7,195.1l-64.8,61.2c8.4,9.9,15.7,20.5,22.2,31.4l77.9-43.1c-5-8.9-10.7-17.6-16.9-26.1
			C871.7,210.1,865.2,202.5,858.7,195.1z"/>
	</g>
	<g id="DISTINTI_NORD_EST">
		<path class="st3" d="M211.2,54.3c-12.2,4.5-24.9,10.4-37.5,18.2l42.3,65.7c6.8-5,11.7-8,14.2-9.5L218,52.9
			C214.5,53.9,212,54.2,211.2,54.3z"/>
		<path class="st3" d="M208,144.4c1.2-0.9,2.3-1.8,3.5-2.4l-42.5-66.3c-10.2,6.5-20.5,14.2-30.1,22.6l52.6,59.7
			C196.9,153.5,202.3,148.7,208,144.4z"/>
		<path class="st3" d="M186.8,162l-52.6-60c-8.4,7.5-16.7,15.7-24.7,24.1l57,55.5C172.9,175.1,179.9,168.4,186.8,162z"/>
		<path class="st3" d="M78,165.9c-7.2,10.2-14,21.1-20.2,32.1l68.6,37.1c4.5-7.5,9.5-14.9,14.9-22.4L78,165.9z"/>
		<path class="st3" d="M162.7,186.3l-57-55.5c-8.4,9.8-16.7,19.6-24.4,30.3l63.3,46.7C150.2,200.5,156.2,193.2,162.7,186.3z"/>
		<path class="st1" d="M232.9,185.3l-1.8-2.4L208.9,151c-5.4,4.2-11,8.9-16.4,13.7c-7.7,6.8-15.2,14-22.2,21.4l60.3,58.8
			c5.4-5.7,11-10.7,15.7-15.4l-7.7-48.2l-3.5,2.4L232.9,185.3z"/>
		<path class="st1" d="M147.5,213.8c-5.7,8-11.2,16-16.1,23.8l73.7,39.8c6-9.8,13.1-19.1,21.9-28.6l-60-58.5
			C160,197.8,153.5,205.6,147.5,213.8z"/>
		<path class="st1" d="M213.8,147.1l20.6,29.8l3.5-2.4l-6.5-39.6c-3.3,2-8.3,5.3-14.2,9.9C216,145.6,215,146.4,213.8,147.1z"/>
	</g>
	<path class="st1" d="M455.2,675.6c-7.2-0.5-14.6-1.2-21.9-2l-3.9,27.4c14.2,1.8,28.6,2.7,43.1,3.5h1.8l0.5-28.2
		C467.7,676.3,461.2,676,455.2,675.6z"/>
	<path class="st1" d="M562.2,675.6c-6.9,0.5-14.5,0.8-21.7,1.2v28.3c1.5,0,3-0.3,4.7-0.3l-0.9,1.2h2.3l-1.2-1.2
		c13.4-0.5,27.1-1.8,40.4-3l-3.5-28.2C575.8,674.7,569,675.1,562.2,675.6z"/>
	<g id="TRIBUNA_SUPERIORE_MONTE_MARIO">
		<path class="st1" d="M382.3,666.5c-6.2-1.2-12.5-2.4-18.4-3.8l-5.7,26.4c12.5,2.7,25.3,5.4,38.1,7.5l5.3-26.8
			C394.9,668.6,388.6,667.6,382.3,666.5z"/>
		<path class="st1" d="M407.4,670.6l-5.3,26.8c6.9,0.9,14.2,2.3,21.4,3l3.9-27.4C420.8,672.4,414.2,671.6,407.4,670.6z"/>
		<path class="st1" d="M588,673.6l3.5,27.9c8-0.9,15.7-2,23.4-3l-3.8-27.6C603.3,672,595.6,672.6,588,673.6z"/>
		<path class="st1" d="M617,669.8l3.8,27.6c12.5-2,25.2-4.2,37.1-6.9l-5.7-26.8c-6.2,1.2-12.5,2.4-19,3.5
			C628,668.2,622.5,669.3,617,669.8z"/>
		<path class="st2" d="M613.5,664.8c5.4-0.8,10.7-1.5,15.7-2.4L612,566.6c-4.5,0.5-9.2,0.9-14,1.5L613.5,664.8z"/>
		<path class="st2" d="M420.1,566.8c-5.3-0.5-10.4-1.2-15.4-2l-18.4,96.3c6,0.9,12.2,2.3,18.7,3L420.1,566.8z"/>
	</g>
	<g id="TRIBUNA_DONERE">
		<path class="st2" d="M513.5,648.7c6,0,12.2,0,18.2-0.3l-0.5-11.7c-8,0.3-16,0.5-23.8,0.5c-7.2,0-14.5-0.3-21.4-0.5l-0.5,11.2
			C494.8,648.5,504.3,648.7,513.5,648.7z"/>
		<path class="st2" d="M576.9,632.9c-13,1.8-26.4,3-39.8,3.5l0.5,11.7c14-0.8,27.6-2,40.8-3.8L576.9,632.9z"/>
		<path class="st2" d="M439,632.9l-1.5,9.9c8.4,1.2,23.2,3.5,42.1,4.7l0.5-11.2C461.4,635.7,447.2,634,439,632.9z"/>
		<path class="st2" d="M587.2,667.6c8-0.8,16-1.8,23.8-2.7L595.6,568c-6.8,0.8-13.7,1.2-20.6,1.8L587.2,667.6z"/>
		<path class="st2" d="M422.7,567.1l-15.2,97.5c6.9,0.9,14,2,20.9,2.7l14-98.4C435.6,568.3,429.1,567.8,422.7,567.1z"/>
	</g>
	<g id="TRIBUNA_TEVERE_PARTERRE">
		<path class="st2" d="M383.5,162.3l-0.8-11.9c-14.2,0.9-28.2,2-41.9,3.3l0.5,12.2C355.4,164.6,369.3,163.4,383.5,162.3z"/>
		<path class="st2" d="M284.9,159.8c-19.9,2.4-34.4,5-42.3,6.5l0.9,9.2l0.5,3.5c7.2-1.2,21.7-3.8,41.9-6.5L284.9,159.8z"/>
		<path class="st2" d="M402,193.2l-0.8-17.5c-14.9,0.9-30.1,2-44.6,3.3l2,16.9C371.6,194.8,385.7,193.7,402,193.2z"/>
		<path class="st2" d="M496,172.7c-13.7,0-27.4,0.3-40.8,0.5l0.8,18.4c10.7-0.3,21.9-0.3,33.6-0.3c6.2,0,12.7,0,19.4,0v-18.7
			C504.8,172.7,500.5,172.7,496,172.7z"/>
		<path class="st2" d="M778.1,183l0.3-0.9l1.5-13c-15.2-2.3-30.6-4.5-45.5-6.5l-0.9,13C748,177.9,763.2,180.2,778.1,183z"/>
		<path class="st2" d="M574.4,174.7l-0.8,18.4c14.5,0.5,28.3,1.5,41.6,2.3l0.9-18.2C602.6,176.2,588.4,175.4,574.4,174.7z"/>
		<path class="st2" d="M515,173.1v18.7c18.4,0.3,36,0.5,53,1.2l0.8-18.4C550.7,173.8,532.8,173.4,515,173.1z"/>
		<path class="st2" d="M449.5,173.5c-14.5,0.5-28.6,0.9-42.8,1.8l0.8,17.6c13.1-0.5,27.1-0.8,42.8-0.9L449.5,173.5z"/>
		<path class="st2" d="M352.7,196.4l-2-16.9c-14.2,1.2-28.3,3-42.1,4.5l2.4,17.9C323,199.8,336.7,197.9,352.7,196.4z"/>
		<path class="st2" d="M302.7,184.9c-9.2,1.2-18.2,2.4-26.8,3.8l11.2,19c5.4-1.8,11.7-3.3,18.2-4.5L302.7,184.9z"/>
		<path class="st2" d="M663.9,200.2l3-18.7c-14.9-1.5-30.1-2.7-44.8-3.9l-0.9,18.2C636.2,197.1,650.6,198.5,663.9,200.2z"/>
		<path class="st2" d="M681.7,168.8l0.5-11.9c-14.6-1.5-29.8-2.7-44.8-3.9l-0.5,11.5C652.1,165.7,667,167,681.7,168.8z"/>
		<path class="st2" d="M727.3,174.7l0.9-12.7c-13.4-1.8-27.1-3.3-40.4-4.7l-0.5,12.2C700.8,171.1,714.4,172.7,727.3,174.7z"/>
		<path class="st2" d="M735.9,214.7l14-22.6c-8-1.2-16.1-2.4-24.7-3.5l-2.7,22.4C727.3,212.1,731.7,213.4,735.9,214.7z"/>
		<path class="st2" d="M669.8,200.9c17.6,2.4,33.6,5.3,47.6,8.7l2.4-21.7c-15.7-2-31.4-3.9-47-5.7L669.8,200.9z"/>
		<path class="st2" d="M335.7,166.6l-0.5-12.2c-15.2,1.5-30.3,3-44.6,4.7l1.2,12.5C306.2,169.7,320.8,168,335.7,166.6z"/>
		<path class="st2" d="M265.3,127.7c-14.5,2.3-24.1,3.9-28.6,4.7l2.4,15.2c6.5-0.9,16-2.4,28.2-3.9L265.3,127.7z"/>
		<path class="st2" d="M381,133.8l-0.8-17.5c-18.2,1.2-35.9,2.4-52.8,4.2c-3,0.3-6,0.5-8.9,0.9l2,16.9
			C340.2,136.1,360.6,134.8,381,133.8z"/>
		<path class="st2" d="M314.9,138.8l-2-16.7c-14.6,1.5-28.6,3.3-41.9,5.3l2,16.1C286.4,141.5,300.8,139.9,314.9,138.8z"/>
		<path class="st2" d="M782.8,150.1l2.4-16.4c-9.2-1.2-18.7-2.4-27.9-3.8l-2,16.4C764.4,147.6,773.6,149,782.8,150.1z"/>
		<path class="st2" d="M638.4,135.2c20.6,1.5,41.3,3.3,61.8,5.3l2-16.7c-3.9-0.5-7.7-0.8-11.5-1.2c-16.9-1.8-34.1-3-51.1-4.2
			L638.4,135.2z"/>
		<path class="st2" d="M705.9,140.9c14.5,1.5,29.1,3.3,43.8,5l2-16.4c-14.5-1.8-29.1-3.5-43.8-5L705.9,140.9z"/>
		<path class="st1" d="M243.3,106.7l19-2.7l-6.9-55.8c-13.4,1.8-24.1,3.3-31.6,4.2l11.9,74.4c2.3-0.5,5.4-0.9,9.9-1.8L243.3,106.7z"
			/>
		<path class="st1" d="M284.5,106.3l-34.5,5l1.8,12.5c3.3-0.5,29.1-4.2,34.5-5L284.5,106.3z"/>
		<path class="st1" d="M350.2,93.5l2,19c9.2-0.8,18.4-1.5,27.9-2l-3-73.4c-17.6,1.2-35.6,2.4-53.2,3.9l4.5,54.5L350.2,93.5z"/>
		<path class="st1" d="M289.4,100l2.4,18.7c3.5-0.5,6.9-0.8,10.4-1.2l-2-19l21.9-2L317.7,42c-19.4,1.8-38.3,3.8-56.8,6l6.9,55.5
			L289.4,100z"/>
		<path class="st1" d="M344.9,100l-38.1,3.8l1.2,13.1c2.3-0.3,33.6-3.3,38.1-3.8L344.9,100z"/>
		<path class="st1" d="M668.5,114.9l1.8-20.6l19.6,2l5.7-55c-16.7-1.8-34.1-3.3-51.2-4.5l-4.7,75.7
			C649.4,113.1,659.1,114.2,668.5,114.9z"/>
		<path class="st1" d="M714.8,98.9l-2.3,20.2c6.8,0.8,13.4,1.5,20.2,2.3l2.3-20.6l19.9,2.4l6.8-53.5c-19.4-3-39.6-5.4-60-7.7L696,97
			L714.8,98.9z"/>
		<path class="st1" d="M697.5,102.9l-21.7-2.3l-1.2,14.6c4.2,0.5,15.7,1.5,20.6,2c3.5,0.3,6.9,0.8,10.2,0.9c0.5,0,0.9,0,1.5,0.3
			l1.5-14.5L697.5,102.9z"/>
		<path class="st1" d="M779.3,106.1l-2.7,20.6c3.3,0.5,6.2,0.8,9.2,1.2L796.2,55c-9.5-1.8-19.4-3.3-29.4-4.7l-6.8,53.5L779.3,106.1z
			"/>
		<path class="st1" d="M771,126l2-14.6l-9.5-1.2l-23.2-3l-1.5,14.9c4.2,0.5,16.7,2,22.2,2.7C764.1,125,767.6,125.4,771,126z"/>
	</g>
	<g id="TRIBUNA_TEVERE">
		<path class="st1" d="M634.1,112.1l4.7-75.7c-11-0.8-22.2-1.2-33.6-2l-3.3,75.7C612.4,110.5,623.2,111.5,634.1,112.1z"/>
		<path class="st1" d="M570.4,108.5c8.7,0.3,17.5,0.8,25.9,1.2l3.3-75.5c-13.1-0.5-26.4-0.9-39.3-1.2l-1.5,75.2
			C562.2,108.4,566.3,108.5,570.4,108.5z"/>
		<path class="st1" d="M492.3,107c4.5,0,9.2,0,13.7,0l-0.5-74.7c-12.7,0-25.9,0.3-39,0.5l1.2,74.4C475.7,107,484.1,107,492.3,107z"
			/>
		<path class="st1" d="M511.2,32.5l0.5,74.7c13.4,0.3,27.1,0.5,40.8,0.8l1.5-75.2c-12.7-0.3-25.9-0.3-39.3-0.3H511.2z"/>
		<path class="st2" d="M631.5,163.9l0.5-11.5c-14.5-0.9-28.9-2-43.4-2.7v11.2C602.6,161.6,617.3,162.5,631.5,163.9z"/>
		<path class="st2" d="M582.7,160.5l0.3-11.2c-14.5-0.8-29.1-1.2-43.8-1.5V159C553.3,159.3,567.9,159.8,582.7,160.5z"/>
		<path class="st2" d="M488.5,158.5c3.3,0,6.8,0,9.9,0c11.5,0,22.9,0,34.4,0.3v-11.2c-13.4-0.3-26.8-0.5-40.1-0.5c-1.5,0-3,0-4.5,0
			L488.5,158.5z"/>
		<path class="st2" d="M482.9,158.6l-0.3-11.5c-14.9,0-30.3,0.3-45.3,0.8l0.3,11.5C452.5,159.2,467.7,158.6,482.9,158.6z"/>
		<path class="st2" d="M452,113.2l0.8,17.5c14.5-0.3,29.4-0.5,43.8-0.5c3.3,0,6.2,0,9.5,0l-0.3-17.5c-4.7,0-9.2,0-13.7,0
			c-9.2,0-18.4,0-27.4,0.3C460.4,113.1,456.2,113.2,452,113.2z"/>
		<path class="st2" d="M446.3,113.5c-20.5,0.5-40.5,1.2-60.3,2.4l0.8,17.5c19.9-0.9,40.4-2,60.3-2.4L446.3,113.5z"/>
		<path class="st2" d="M567.3,131.4l-0.3-17.2c-3.9-0.3-8-0.3-11.9-0.5c-14.6-0.5-29.1-0.8-43.4-0.9l0.3,17.5
			C530.1,130.4,548.8,131.1,567.3,131.4z"/>
		<path class="st2" d="M632.4,134.8l0.9-16.9c-11.7-0.8-23.4-1.5-34.8-2.3c-8.7-0.5-17.5-0.8-25.9-1.2l0.3,17.2
			C592.9,132.5,612.8,133.4,632.4,134.8z"/>
		<path class="st1" d="M418.6,34.7c-11.9,0.5-23.8,1.2-35.6,2l3,73.7c11.5-0.8,23.2-1.2,34.5-1.8L418.6,34.7z"/>
		<path class="st1" d="M449,107.7c4.2,0,8.4-0.3,13-0.3l-1.2-74.2c-11.9,0.3-24.1,0.8-36,1.2l2,74
			C433.8,108.1,441.3,107.8,449,107.7z"/>
		<path class="st2" d="M431.5,148.1c-14.5,0.5-28.6,1.2-42.8,2l0.8,11.9c14-0.9,28.2-1.8,42.3-2.3L431.5,148.1z"/>
	</g>
</g>
<g id="stage">
	<g>
		<rect x="283.3" y="337.7" class="st4" width="52.1" height="76.6"/>
		<polygon class="st4" points="369.7,305.3 283.3,305.3 283.3,333.7 339.4,333.7 339.4,418.2 283.3,418.2 283.3,446.5 369.7,446.5 
					"/>
		<polygon class="st4" points="650.1,446.5 736.6,446.5 736.6,418.2 681.8,418.2 681.8,333.7 736.6,333.7 736.6,305.3 650.1,305.3 
					"/>
		<rect x="685.7" y="337.7" class="st4" width="51.2" height="76.6"/>
		<path class="st4" d="M373.5,343.2v65.3c17.4-1.1,31.4-15.2,31.4-32.7C404.9,358.4,391.3,344.5,373.5,343.2z"/>
		<path class="st4" d="M646.3,408.6v-65.3c-17.4,1.1-31.4,15.2-31.4,32.7C615.1,393.5,628.9,407.7,646.3,408.6z"/>
		<path class="st4" d="M513.6,318.4v114.7c30.7-1.6,55.5-26.8,55.5-57.5C568.7,344.9,544.1,319.9,513.6,318.4z"/>
		<path class="st4" d="M452.4,376c0,31.4,25.7,57.1,57.5,57.8V318.7C477.7,318.8,452.4,344.5,452.4,376z"/>
		<path class="st4" d="M283.3,240.3v61.1h90.3v37.9c19.4,1.1,35.4,17.2,35.4,36.7s-15.4,35.5-35.4,36.7v37.9h-90.3v61.1h453.3v-61.1
			h-90.3v-37.9c-19.4-1.1-35.4-17.2-35.4-36.7s15.4-35.5,35.4-36.7v-37.9h90.3v-61.1L283.3,240.3L283.3,240.3z M513.6,437.4v73.3
			h-3.9v-73.3c-33.9-0.7-61.4-28-61.4-61.8s27.3-61.1,61.4-61.8v-73h3.9V314c33.1,1.6,59.4,28.8,59.4,61.8
			C572.7,409.2,546.6,436.1,513.6,437.4z"/>
	</g>
</g>
</svg>
