<?xml version="1.0" encoding="utf-8"?>
<!-- Generator: Adobe Illustrator 21.1.0, SVG Export Plug-In . SVG Version: 6.00 Build 0)  -->
<svg version="1.1" id="Laag_1" xmlns="http://www.w3.org/2000/svg" xmlns:xlink="http://www.w3.org/1999/xlink" x="0px" y="0px"
	 viewBox="0 0 1024 768" style="enable-background:new 0 0 1024 768;" xml:space="preserve">
<style type="text/css">
	.st0{fill:#B2B2B2;}
	.st1{fill:#F8B65F;}
	.st2{fill:#93B8D2;}
	.st3{fill:#ACCA5A;}
	.st4{fill:#85BB3E;}
</style>
<g>
	<path class="st0" d="M509.7,144.6c77.1,0,154.1-0.2,231,0.2c24.9,0.2,48.2,8,70.1,20.3c12.5,7,23.6,15.5,33.6,25.4
		c23.1,23.1,37.9,50.6,44.7,82.8c2.6,12.5,3.3,25.1,3.3,37.6c0,95.2,0,190.6,0,285.8c0,25.7-5.7,50.4-17.4,73.4
		c-16.2,31.7-40.2,55.5-72,71.1c-19.3,9.4-39.5,15.1-60.9,16.2c-6.8,0.5-13.6,0.7-20.5,0.7c-140.9,0-281.7,0-422.5,0
		c-20.3,0-40.2-1.5-59.6-7.8c-17.7-5.7-34.1-14.2-48.7-25.7c-33.4-26.2-53.5-60.2-60.7-101.7c-1.4-7.2-1.9-14.4-1.9-21.6
		c0-100.2-0.2-200.5,0.2-300.7c0-28.2,8.3-54.4,22.9-78.4c19.7-32.5,47.6-55,83-68.3c16.8-6.1,34.1-9.2,52.2-9.2
		C360.5,144.4,435.1,144.4,509.7,144.6C509.7,144.4,509.7,144.4,509.7,144.6z M510.6,746.7L510.6,746.7c73.2,0,146.1,0,219.3,0
		c8.7,0,17.4-0.2,26.2-1.7c38.2-6.3,69.2-24.9,93.2-55c21.9-27.3,32.3-58.8,32.3-93.9c-0.2-96.9,0-193.9,0-290.8
		c0-8.3-0.5-16.4-1.7-24.7c-5-30.6-18.3-57.2-39.5-79.7c-14.2-15.1-30.8-26.4-49.8-34.5c-16.8-7.2-34.5-11.8-52.9-11.8
		c-147.8-0.2-295.6-0.2-443.5-0.2c-10.1,0-19.8,0.5-29.7,1.9c-37.4,6.3-68.3,24-92.4,53.2c-22.9,27.7-33.9,59.8-34.1,95.6
		c-0.2,96.7-0.2,193.7,0,290.4c0,9.6,0.9,19.3,2.6,28.8c7.2,36.5,25.1,66.4,54.1,89.5c26.2,21,56.3,32.3,89.9,32.5
		C360.2,747,435.3,746.7,510.6,746.7z"/>
	<path class="st1" d="M167.6,182c-5.9-6.6-11.3-12.7-17-19c38.4-37.4,84-56.5,137.6-57.9c0,10.3,0,20.3,0,31
		C241.4,133.3,201.4,149.2,167.6,182z"/>
	<path class="st2" d="M398.6,67.1c0,22.9,0,45.6,0,68.5c-17.9,0-35.6,0-53.5,0c0-22.9,0-45.6,0-68.5
		C362.8,67.1,380.5,67.1,398.6,67.1z"/>
	<path class="st1" d="M123.7,300.1c-10.5,0-20,0-29.7,0c-5-36.5,24.2-109.9,53.2-133.2c5.4,6.1,11.1,12.5,17,19
		c-13.7,15.7-25.4,32.7-32.3,52.9C125.2,258.4,122.1,278.7,123.7,300.1z"/>
	<path class="st2" d="M671.8,135.6c-16.8,0-33.4,0-50.4,0c0-22.8,0-45.6,0-68.5c16.8,0,33.4,0,50.4,0
		C671.8,89.8,671.8,112.5,671.8,135.6z"/>
	<path class="st2" d="M724.1,114.7c0,6.8,0,13.6,0,20.7c-16.6,0-33,0-49.8,0c0-22.8,0-45.6,0-68.5c16.4,0,32.7,0,49.8,0
		c0,12.5,0,24.9,0,37.4"/>
	<path class="st1" d="M899.9,548.3c0-16.4,0-32.3,0-48.7c22.9,0,45.6,0,68.7,0c0,16.2,0,32.1,0,48.7
		C945.8,548.3,923,548.3,899.9,548.3z"/>
	<path class="st1" d="M900.1,355.8c22.9,0,45.4,0,68.3,0c0,15.5,0,30.8,0,46.5c-22.8,0-45.4,0-68.3,0
		C900.1,386.9,900.1,371.4,900.1,355.8z"/>
	<path class="st2" d="M619,97.6c0,12.5,0,25.1,0,37.8c-10.9,0-21.9,0-33,0c0-8.5,0-17.2,0-26.6c-7.5,0-14.2,0-21.4,0
		c0-14.2,0-28,0-41.9c17.9,0,36,0,54.4,0c0,7.6,0,15.1,0,22.8"/>
	<path class="st2" d="M433.7,135.3c-11.1,0-21.6,0-32.5,0c0-22.9,0-45.9,0-68.7c17.7,0,35.3,0,53.2,0c0,13.9,0,27.7,0,42.4
		c-6.8,0-13.4,0-20.5,0C433.7,117.8,433.7,126.3,433.7,135.3z"/>
	<path class="st1" d="M122.5,499.4c0,15.3,0,30.1,0,45.4c-22.9,0-45.6,0-68.5,0c0-15.1,0-29.9,0-45.4
		C76.6,499.4,99.6,499.4,122.5,499.4z"/>
	<path class="st1" d="M122.5,447.6c-22.9,0-45.6,0-68.5,0c0-14.8,0-29.7,0-44.5c22.9,0,45.6,0,68.5,0
		C122.5,417.8,122.5,432.6,122.5,447.6z"/>
	<path class="st1" d="M968.9,495.7c-23.1,0-45.9,0-68.7,0c0-14.2,0-28.7,0-43c22.9,0,45.9,0,68.7,0
		C968.9,467.1,968.9,481.3,968.9,495.7z"/>
	<path class="st1" d="M968.7,449.2c-23.1,0-45.6,0-68.5,0c0-14.2,0-28.4,0-43c22.8,0,45.6,0,68.5,0
		C968.7,420.6,968.7,434.7,968.7,449.2z"/>
	<path class="st1" d="M122.7,354.9c0,14.6,0,29,0,43.7c-22.9,0-45.6,0-68.7,0c0-14.4,0-29,0-43.7C76.6,354.9,99.6,354.9,122.7,354.9
		z"/>
	<path class="st1" d="M968.9,352.1c-23.1,0-45.9,0-69,0c0-13.7,0-27.5,0-41.2c22.9,0,45.9,0,69,0C968.9,324.5,968.9,338,968.9,352.1
		z"/>
	<path class="st1" d="M53.9,495.2c0-14.6,0-28.8,0-43.3c22.9,0,45.6,0,68.5,0c0,14.4,0,28.7,0,43.3
		C99.8,495.2,77.1,495.2,53.9,495.2z"/>
	<path class="st1" d="M53.9,350.5c0-13.6-1-26.6-1-40c22.9,0,45.6,0,68.5,0c0,13.1,1,26.4,1,40C99.8,350.5,76.8,350.5,53.9,350.5z"
		/>
	<path class="st1" d="M53.9,548.8c23.1,0,45.6,0,68.5,0c0,13.6,0,27.1,0,40.7c-22.9,0-45.6,0-68.5,0
		C53.9,576.1,53.9,562.5,53.9,548.8z"/>
	<path class="st1" d="M968.9,551.6c0,12,0,23.8,0,36c-23.1,0-45.9,0-69,0c0-12,0-23.8,0-36C923,551.6,945.8,551.6,968.9,551.6z"/>
	<path class="st1" d="M226.6,72.1C246.9,66,267,62.7,288,61.8c0,13.9,0,27.5,0,41.7c-17.4,0.5-34.9,2.2-52.2,6.6
		C232.9,97.5,229.8,85,226.6,72.1z"/>
	<path class="st2" d="M510.1,67.1c0,13.9,0,27.7,0,41.5c-17.9,0-35.3,0-53.2,0c0-13.9,0-27.5,0-41.5
		C474.6,67.1,492.2,67.1,510.1,67.1z"/>
	<path class="st2" d="M562.5,95.8c0,4.2,0,8.5,0,12.7l-0.2,0.2c-16.3-0.1-32.3-0.3-48.1,0.3c-2.2-0.2-1.5-1.9-1.5-3.3
		c0-12.7,0-25.6,0-38.2c0.2-0.2,0.2-0.5,0.5-0.9c16.4-0.2,32.7-0.5,49.4,0.2c0,8.5,0,17,0,26.6"/>
	<path class="st1" d="M222.1,73.7c3.1,13.1,6.1,25.4,9.2,37.9c-14.4,4.8-28.4,9.9-41.7,17.7c-6.8-10.9-13.4-21.2-19.8-32.1
		C185.9,86.7,203.6,80,222.1,73.7z"/>
	<path class="st2" d="M618.6,22.8c0,11.6,0,22.8,0,34.1c-18.1,0-36.2,0-54.4,0c0-11.3,0-22.8,0-34.1
		C582.4,22.8,600.3,22.8,618.6,22.8z"/>
	<path class="st2" d="M510.1,57.1c-17.7,0-35.3,0-53.2,0c0-11.3,0-22.8,0-34.1c17.7,0,35.3,0,53.2,0
		C510.1,34.1,510.1,45.3,510.1,57.1z"/>
	<path class="st1" d="M52.5,297.9c-0.2-18.1,1.9-35.1,5.7-52.7c12.2,3.3,24,6.3,36.2,9.4c-3.5,15.3-5.4,30.1-5.2,45.9
		C77,299.6,65,298.7,52.5,297.9z"/>
	<path class="st2" d="M343.3,109c-15.7,0-30.6,0-45.6,0c0-13.9,0-28,0-42.1c14.8,0,29.7,0,45.2,0c0,5.9,0,11.8,0,17.7"/>
	<path class="st2" d="M398.4,57.1c-17.9,0-35.3,0-53.2,0c0-11.3,0-22.5,0-34.1c17.4,0,35.1,0,53.2,0
		C398.4,34.1,398.4,45.6,398.4,57.1z"/>
	<path class="st2" d="M454.4,23c0,11.6,0,22.8,0,34.1c-17.9,0-35.3,0-53.2,0c0-11.3,0-22.8,0-34.1C419.1,23,436.5,23,454.4,23z"/>
	<path class="st2" d="M671.8,56.9c-16.8,0-33.6,0-50.4,0c0-11.3,0-22.3,0-33.9c16.8,0,33.4,0,50.4,0
		C671.8,34.1,671.8,45.3,671.8,56.9z"/>
	<path class="st2" d="M561.7,57.1c-16.4,0-32.5,0-49.2,0c0-11.6,0-22.8,0-34.1c16.4,0,32.5,0,49.2,0
		C561.7,34.1,561.7,45.6,561.7,57.1z"/>
	<path class="st2" d="M720.5,23c0,11.3,0,22.5,0,33.9c-15.3,0-30.6,0-46.1,0c0-11.3,0-22.5,0-33.9C689.6,23,704.7,23,720.5,23z"/>
	<path class="st2" d="M342.6,23c0,11.3,0,22.5,0,34.1c-15.1,0-29.9,0-44.7,0c0-11.3,0-22.5,0-34.1C312.7,23,327.4,23,342.6,23z"/>
	<path class="st1" d="M98.8,193.3c-0.7,0.7-1.4,0.7-1.9,0.2c-5.2-3.3-10.5-6.6-16.2-9.9c9.6-18.3,22.8-33.2,37.4-46.3
		c9.2,8.9,18.1,17.9,27.5,27.1c-4.2,4.2-7.6,9.2-12.7,12.7c-4.2-4.5-8.3-8.9-12.7-13.7C111.5,173.2,104.3,182.4,98.8,193.3z"/>
	<path class="st1" d="M83.1,227.1c5.9,2.6,11.6,5,17.2,7.5c-1.5,5-3.1,10.1-4.8,15.5c-11.8-3.1-23.8-6.1-36.2-9.4
		c4.2-18.3,10.9-35.6,19.3-52.9c5.7,3.7,11.1,7,16.8,10.6C90.9,207.9,86.4,216.8,83.1,227.1z"/>
	<path class="st1" d="M131.3,178.5c0.5,1.4-0.5,2.2-1.4,3.1c-12.2,14.6-20.7,31.5-28,48.9c-0.2,0.5-0.5,0.9-1.1,1.9
		c-5-2.2-10.1-4.2-15.3-6.3c3.5-11.1,8.9-21,13.7-31c6.3-9.4,12-19,19.8-27.3C124,171.2,127,175.4,131.3,178.5z"/>
	<path class="st2" d="M297.9,135.4c0-7.6,0-14.8,0-22.3c14.6,0,29.2,0,44.1,0c0,7.5,0,14.6,0,22.3
		C327.6,135.4,313,135.4,297.9,135.4z"/>
	<path class="st1" d="M140.7,142.9c-1.5,1.4-3.1,2.4-5,4c-4.2-4.5-8-9.2-12.7-13.9c12.7-12.7,26.8-23.1,42.1-33.2
		c3.5,5.4,6.6,10.6,9.9,16c0.9,1.5-0.2,1.9-1.1,2.6C162.1,125.4,150.6,133,140.7,142.9z"/>
	<path class="st2" d="M545,135.6c-12,0-23.3,0-35.1,0c0-7,0-13.9,0-21c11.8,0,23.3,0,35.1,0C545,121.7,545,128.5,545,135.6z"/>
	<path class="st2" d="M437,135.6c0-7,0-13.7,0-21c11.1,0,22.1,0,33.2,0c0,6.8,0,13.7,0,21C459.3,135.6,448.2,135.6,437,135.6z"/>
	<path class="st2" d="M548.3,114.7c10.9,0,21.9,0,32.7,0c0,7,0,13.7,0,21c-10.6,0-21.6,0-32.7,0
		C548.3,128.8,548.3,121.9,548.3,114.7z"/>
	<path class="st2" d="M473.5,114.7c11.1,0,22.3,0,33.4,0c0,7,0,13.7,0,20.7c-11.1,0-22.1,0-33.4,0
		C473.5,128.6,473.5,121.9,473.5,114.7z"/>
	<path class="st1" d="M175.6,119.7c1.5-0.7,2.2,0,3.1,1.4c1.9,3.5,4.2,6.8,6.6,10.5c-13.1,8.5-25.7,17.7-37.1,28.8
		c-3.5-4-6.8-7.6-10.1-11.3c0.9-2.6,3.3-3.5,4.4-5.4C152.9,134.7,164,126.9,175.6,119.7z"/>
	<path class="st1" d="M734.6,136.8c0-10.8,0-20.7,0-31c53.6,1.4,99.2,20.5,137.6,57.9c-5.7,6.3-11.1,12.5-17,19
		C821.4,149.9,781.4,133.9,734.6,136.8z"/>
	<path class="st1" d="M890.8,239.5c-6.9-20.2-18.6-37.1-32.3-52.9c5.9-6.6,11.6-12.9,17-19c29,23.3,58.2,96.7,53.2,133.2
		c-9.6,0-19.1,0-29.7,0C900.7,279.4,897.6,259.1,890.8,239.5z"/>
	<path class="st1" d="M787.1,110.7c-17.3-4.4-34.8-6.1-52.2-6.6c0-14.2,0-27.7,0-41.7c21,0.9,41.1,4.2,61.4,10.3
		C792.9,85.7,789.9,98.2,787.1,110.7z"/>
	<path class="st1" d="M853,97.9c-6.5,10.9-13,21.2-19.8,32.1c-13.3-7.8-27.3-12.9-41.7-17.7c3.1-12.6,6.1-24.8,9.2-37.9
		C819.2,80.7,836.9,87.4,853,97.9z"/>
	<path class="st1" d="M933.6,301.2c0.2-15.7-1.7-30.6-5.2-45.9c12.2-3.1,24-6.1,36.2-9.4c3.7,17.6,5.9,34.5,5.7,52.7
		C957.8,299.4,945.8,300.3,933.6,301.2z"/>
	<path class="st1" d="M902.6,164.1c-4.4,4.8-8.5,9.2-12.7,13.7c-5.1-3.5-8.5-8.5-12.7-12.7c9.4-9.2,18.3-18.1,27.5-27.1
		c14.6,13.1,27.7,28,37.4,46.3c-5.7,3.3-11,6.6-16.2,9.9c-0.6,0.5-1.2,0.5-1.9-0.2C918.5,183.1,911.3,173.9,902.6,164.1z"/>
	<path class="st1" d="M927.5,199.2c5.7-3.6,11.1-6.9,16.8-10.6c8.4,17.3,15.1,34.5,19.3,52.9c-12.5,3.3-24.5,6.3-36.2,9.4
		c-1.7-5.4-3.3-10.5-4.8-15.5c5.7-2.5,11.3-4.9,17.2-7.5C936.4,217.5,931.9,208.6,927.5,199.2z"/>
	<path class="st1" d="M903.7,168.4c7.8,8.3,13.5,17.9,19.8,27.3c4.8,10.1,10.2,19.9,13.7,31c-5.2,2.2-10.3,4.2-15.3,6.3
		c-0.7-1-0.9-1.5-1.1-1.9c-7.2-17.4-15.7-34.3-28-48.9c-0.9-0.9-1.8-1.7-1.4-3.1C895.8,176.1,898.8,171.9,903.7,168.4z"/>
	<path class="st1" d="M848.9,119c-0.9-0.7-2-1.1-1.1-2.6c3.3-5.3,6.3-10.5,9.9-16c15.3,10.1,29.4,20.5,42.1,33.2
		c-4.6,4.8-8.5,9.4-12.7,13.9c-1.9-1.6-3.5-2.6-5-4C872.2,133.7,860.7,126.1,848.9,119z"/>
	<path class="st1" d="M880.4,144.2c1.1,1.9,3.5,2.8,4.4,5.4c-3.3,3.7-6.6,7.4-10.1,11.3c-11.4-11.1-24-20.3-37.1-28.8
		c2.4-3.7,4.6-7,6.6-10.5c0.9-1.4,1.6-2,3.1-1.4C858.7,127.6,869.8,135.4,880.4,144.2z"/>
	<path class="st3" d="M514.1,109c16-0.7,31.8-0.2,47.8-0.2c-0.9,0.9-2.2,0.5-3.3,0.5c-13.9,0-27.7,0-41.7,0
		C516,109.5,514.9,109,514.1,109z"/>
	<path class="st3" d="M512.7,66.7c-0.2,0.2-0.2,0.5-0.5,0.9C512.5,67.4,512.7,66.9,512.7,66.7z"/>
	<path class="st1" d="M188.7,114.9c-2.4-3.3-3.1-6.3-4.4-9.2"/>
	<path class="st1" d="M105.4,201.2c-0.7-0.2-1.4-0.5-1.4-1.4c0.9-0.5,1.4,0.5,1.5,1.1C105.8,200.8,105.4,201.2,105.4,201.2z"/>
	<path class="st1" d="M247.5,648.6c-2.6-2.8-5.4-5.7-8-8.3c-4.4-5.7-8.3-11.6-11.6-18.1c-2.6-7.8-5.7-15.5-5.2-24.2
		c23.6,0,47,0,70.3,0c0,49.2,0,98.1,0,147.3c-21.9-1.4-42.1-7-61.8-16.6c12-21.9,23.8-43.5,35.8-65.2c7.8,2.4,25.9,6.3,25.9,4.2
		c-0.2-1.9-21.4-4.2-30.1-8.5C257.7,655.4,252.5,652.1,247.5,648.6z"/>
	<path class="st1" d="M233.5,248.8c-0.7,0.5-1.4,1.1-2.2,1.7c-14.2-15.7-28.2-31.5-42.4-47.3c28.8-27.3,62.6-41.5,102.2-42.6
		c0,20.3,0,40.4,0,60.9c-10.1,0.9-20.3,1.9-29.7,6.6C250.1,232.6,240.7,239.4,233.5,248.8z"/>
	<path class="st1" d="M759.2,662c8.5-4.8,16.6-9.4,23.1-16.4c6.6-6.8,11.6-14.6,16-23.3c20.5,9.2,40.9,18.3,61.8,27.7
		c-16,30.6-36.2,56.5-65.9,75.8C782.3,704.4,770.7,683.4,759.2,662z"/>
	<path class="st1" d="M222.6,265.8c-5.7,10.6-7.8,22.5-7.6,34.9c-23.8,0-47.6,0-71.1,0c-4.8-19.7,21.4-78.8,41.9-93.7
		c5.7,6.3,11.3,12.5,17,18.8c7.2,8,14.4,16,21.6,24.2c1.5,1.7,4.4,3.3,3.5,6.3C225.4,259.2,223.7,262.3,222.6,265.8z"/>
	<path class="st1" d="M228.7,258.2c1.9-2.6,4-5.2,5.9-7.8c8-9.2,17.9-16.2,28.8-21.4c8.9-3.1,17.9-5.2,27.7-5c0,25.6,0,51.1,0,76.7
		c-24.5,0-48.9,0-73.6,0c-0.9-11.3,1.7-22.1,5.7-32.5C225.2,265,227,261.5,228.7,258.2z"/>
	<path class="st1" d="M755.8,229.7c-9.4-4.6-19.6-5.7-29.7-6.6c0-20.5,0-40.7,0-60.9c39.5,1.1,73.4,15.3,102.2,42.6
		c-14.2,15.9-28.2,31.6-42.4,47.3c-0.8-0.6-1.5-1.2-2.2-1.7C776.6,241,767.2,234.2,755.8,229.7z"/>
	<path class="st1" d="M789.4,258c-0.9-3.1,2-4.6,3.5-6.3c7.2-8.3,14.4-16.2,21.6-24.2c5.7-6.3,11.3-12.5,17-18.8
		c20.5,14.8,46.7,74,41.9,93.7c-23.6,0-47.3,0-71.1,0c0.2-12.3-1.9-24.2-7.6-34.9C793.6,263.9,791.9,260.8,789.4,258z"/>
	<path class="st1" d="M794.1,269.8c4,10.4,6.6,21.2,5.7,32.5c-24.7,0-49.2,0-73.6,0c0-25.6,0-51.1,0-76.7c9.9-0.2,18.8,1.9,27.7,5
		c10.9,5.2,20.7,12.2,28.8,21.4c1.9,2.6,4,5.2,5.9,7.8C790.3,263.1,792.1,266.6,794.1,269.8z"/>
	<path class="st1" d="M729.7,598.3c23.8,0,47.3,0,71.3,0c-1.1,16.4-7.2,30.4-17.4,42.6c-13.9,16.6-38.6,26.2-53.9,24.5
		C729.7,643.1,729.7,621,729.7,598.3z"/>
	<path class="st3" d="M296.4,670.2c15.1,0,29.7,0,44.5,0c0,23.3,0,46.5,0,70.1c-14.6,0-29.4,0-44.5,0
		C296.4,716.8,296.4,693.7,296.4,670.2z"/>
	<path class="st3" d="M297.5,226c0-22.1,0-43.9,0-65.9c15.1,0,29.9,0,45.2,0c0,21.9,0,43.7,0,65.9C327.8,226,312.7,226,297.5,226z"
		/>
	<path class="st3" d="M720.7,160.1c0,20.5,0,41,0,61.4c0,1.4,0,2.8,0,4.5c-15.5,0-31,0-46.8,0c0-21.9,0-43.7,0-65.9
		C689.4,160.1,704.9,160.1,720.7,160.1z"/>
	<path class="st1" d="M729.7,738.7c0-23.6,0-46.8,0-70.1c8.7-1.1,17.4-1.9,25.9-5.4c11.8,21.4,23.3,42.6,34.9,63.8
		C784.1,731.3,766.6,734.5,729.7,738.7z"/>
	<path class="st3" d="M344,708.4c0-12.7,0-25.4,0-38.2c13.9,0,27.5,0,41.5,0c0,23.3,0,46.5,0,70.1c-13.6,0-27.3,0-41.5,0
		c0-8.9,0-17.9,0-26.8"/>
	<path class="st3" d="M629.9,159.9c14.2,0,28,0,41.9,0c0,22.1,0,43.9,0,66.1c-13.9,0-28,0-41.9,0C629.9,204,629.9,182.2,629.9,159.9
		z"/>
	<path class="st3" d="M433.5,225.8c-15.1,0-29.7,0-44.5,0c0-21.9,0-43.5,0-65.5c14.8,0,29.4,0,44.5,0
		C433.5,182,433.5,203.8,433.5,225.8z"/>
	<path class="st1" d="M804,387.6c23.6,0,46.8,0,70.3,0c0,13.6,0,26.8,0,40.4c-23.3,0-46.8,0-70.3,0C804,414.7,804,401.3,804,387.6z"
		/>
	<path class="st3" d="M386.6,202.5c0,7.8,0,15.5,0,23.6c-13.9,0-27.5,0-41.5,0c0-21.9,0-43.7,0-65.9c13.6,0,27.3,0,41.5,0
		c0,12.5,0,24.9,0,37.4"/>
	<path class="st1" d="M238.1,641.8c1.1,1.5,0.7,2.4-0.7,3.7c-17,15.7-34.1,31.5-51.1,47.1c-0.5,0.5-0.9,0.7-1.9,1.1
		c-11.6-12.7-21.4-26.2-28.8-42.1c11.1-5,22.1-9.9,32.7-14.6c10.6-4.8,21.4-9.6,32.3-14.4c1.7-0.7,3.3-1.9,5-0.2
		C228.7,629.5,232.7,636.1,238.1,641.8z"/>
	<path class="st1" d="M154.1,648.1c-7.2-16.4-11.8-33-13.6-50.6c26.4,0,52.9,0,79.3,0c0.7,6.6,1.9,12.9,4.2,19.7
		C200.5,627.4,177.6,637.6,154.1,648.1z"/>
	<path class="st3" d="M627.4,225.8c-13.7,0-27.5,0-41.5,0c0-21.9,0-43.5,0-65.5c13.7,0,27.5,0,41.5,0
		C627.4,182,627.4,203.8,627.4,225.8z"/>
	<path class="st1" d="M262.8,660.6c0.5,1.4-0.5,2.4-0.9,3.5c-11.1,20.3-22.3,40.7-33.4,60.9c-0.2,0.5-0.5,0.7-1.1,1.4
		c-14.4-7.8-28-17-39.5-29.4c18.1-16.8,36-33.4,53.7-49.9c2.2,0,2.8,1.9,4.2,2.4C250.6,654.2,256.5,658,262.8,660.6z"/>
	<path class="st1" d="M804,512.3c23.3,0,46.5,0,70.1,0c0,12.5,0,24.9,0,37.6c-23.3,0-46.5,0-70.1,0C804,537.5,804,525.2,804,512.3z"
		/>
	<path class="st1" d="M804,469.3c0-12.7,0-25.1,0-37.8c23.6,0,46.8,0,70.3,0c0,12.7,0,24.9,0,37.8C851,469.3,827.6,469.3,804,469.3z
		"/>
	<path class="st3" d="M722.2,662.9c-15.5,0-30.8,0-46.1,0c0-17.2,0-34.3,0-51.5c15.5,0,30.6,0,46.1,0
		C722.2,628.4,722.2,645.5,722.2,662.9z"/>
	<path class="st1" d="M874.4,383.9c-23.3,0-46.8,0-70.3,0c0-12,0-24,0-36.2c23.3,0,46.8,0,70.3,0
		C874.4,359.9,874.4,371.7,874.4,383.9z"/>
	<path class="st3" d="M342.9,286.3c-15.3,0-30.1,0-45.4,0c0-16.8,0-33.6,0-50.8c15.1,0,30.1,0,45.4,0
		C342.9,252.5,342.9,269.1,342.9,286.3z"/>
	<path class="st1" d="M874.4,473c0,12.2,0,23.8,0,35.8c-23.3,0-46.5,0-70.3,0c0-11.8,0-23.6,0-35.8C827.4,473,850.8,473,874.4,473z"
		/>
	<path class="st3" d="M720.5,286.2c-15.5,0-30.8,0-46.3,0c0-16.8,0-33.6,0-50.6c15.5,0,30.8,0,46.3,0
		C720.5,252.3,720.5,269.1,720.5,286.2z"/>
	<path class="st3" d="M341.2,611.6c0,17.2,0,34.1,0,51.3c-14.8,0-29.7,0-44.7,0c0-17,0-33.9,0-51.3
		C311.3,611.6,326.1,611.6,341.2,611.6z"/>
	<path class="st3" d="M673.2,663.8c-14.2,0-28.4,0-42.6,0c0-17.4,0-34.8,0-52.4c14.2,0,28.2,0,42.6,0
		C673.2,628.6,673.2,646,673.2,663.8z"/>
	<path class="st3" d="M390.7,662.7c0-17,0-33.9,0-50.8c14.8,0,29.7,0,44.7,0c0,17,0,33.9,0,50.8
		C420.7,662.7,405.7,662.7,390.7,662.7z"/>
	<path class="st1" d="M799.4,618.9c2.4-7.2,3.5-13.7,4.5-20.5c23.6,0,46.8,0,70.3,0c-1.7,16.8-5.9,32.5-12.9,48
		C840.4,637.2,820.1,628.1,799.4,618.9z"/>
	<path class="st3" d="M387.5,662.9c-14.6,0-28.8,0-43.3,0c0-17.2,0-34.1,0-51.5c14.4,0,28.7,0,43.3,0
		C387.5,628.6,387.5,645.5,387.5,662.9z"/>
	<path class="st3" d="M436.8,286.2c-16.2,0-31.8,0-48,0c0-16.6,0-33.2,0-49.9c16,0,31.8,0,48,0C436.8,252.7,436.8,269.3,436.8,286.2
		z"/>
	<path class="st3" d="M532.9,286.2c0-17,0-33.4,0-49.9c16.2,0,32.3,0,48.5,0c0,16.8,0,33.2,0,49.9
		C565.2,286.2,549,286.2,532.9,286.2z"/>
	<path class="st3" d="M537.7,662.7c0-17.2,0-33.9,0-50.8c14.8,0,29.7,0,44.7,0c0,17,0,33.9,0,50.8
		C567.3,662.7,552.7,662.7,537.7,662.7z"/>
	<path class="st1" d="M804,587.6c0-11.3,0-22.3,0-33.6c23.3,0,46.5,0,70.1,0c0,11.1,0,22.3,0,33.6C851,587.6,827.8,587.6,804,587.6z
		"/>
	<path class="st1" d="M874.1,344.1c-23.3,0-46.5,0-70.1,0c0-10.9,0-22.1,0-33.4c23.3,0,46.5,0,70.1,0
		C874.1,321.9,874.1,332.8,874.1,344.1z"/>
	<path class="st1" d="M145.1,376.3c22.8,0,45.2,0,68,0c0,11.8,0,23.3,0,35.3c-22.5,0-45,0-68,0C145.1,400.1,145.1,388.3,145.1,376.3
		z"/>
	<path class="st1" d="M274.8,401.2c0,15.5,0,30.8,0,46.5c-16.6,0-33,0-49.8,0c0-15.3,0-30.8,0-46.5
		C241.4,401.2,257.9,401.2,274.8,401.2z"/>
	<path class="st3" d="M671.8,286.2c-13.9,0-28,0-42.1,0c0-16.8,0-33.6,0-50.6c13.9,0,28,0,42.1,0
		C671.8,252.3,671.8,269.1,671.8,286.2z"/>
	<path class="st1" d="M224.7,542.9c0-15.3,0-30.4,0-45.6c16.8,0,33.2,0,49.8,0c0,15.3,0,30.4,0,45.6
		C258.2,542.9,241.9,542.9,224.7,542.9z"/>
	<path class="st3" d="M386.8,272.6c0,4.4,0,8.7,0,13.4c-13.9,0-27.7,0-41.7,0c0-16.8,0-33.4,0-50.4c13.7,0,27.5,0,41.7,0
		c0,9.9,0,19.7,0,29.2"/>
	<path class="st3" d="M439.1,235.9c14.8,0,29.7,0,44.7,0c0,16.6,0,33.2,0,49.9c-14.6,0-29.4,0-44.7,0
		C439.1,269.5,439.1,253.1,439.1,235.9z"/>
	<path class="st1" d="M213,415.6c0,11.6,0,22.9,0,34.3c-22.8,0-45.2,0-68.2,0c0-11.6,0-22.8,0-34.3
		C167.6,415.6,190.3,415.6,213,415.6z"/>
	<path class="st3" d="M481.2,662.5c-14.2,0-28.2,0-42.4,0c0-17,0-33.6,0-50.6c14.2,0,28.2,0,42.4,0
		C481.2,628.6,481.2,645.5,481.2,662.5z"/>
	<path class="st3" d="M627.6,271.9c0,4.5,0,9.4,0,14.2c-14.8,0-29.2,0-44.1,0c0-16.6,0-33.2,0-49.9c14.6,0,29,0,44.1,0
		c0,10.1,0,19.8,0,29.7"/>
	<path class="st1" d="M144.9,485.7c22.9,0,45.4,0,68.2,0c0,11.1,0,22.3,0,33.6c-22.8,0-45.2,0-68.2,0
		C144.9,508.1,144.9,497,144.9,485.7z"/>
	<path class="st3" d="M627.6,611.9c0,17,0,33.9,0,50.8c-13.9,0-27.5,0-41.5,0c0-16.8,0-33.6,0-50.8
		C599.6,611.9,613.4,611.9,627.6,611.9z"/>
	<path class="st3" d="M530.8,265.1c0,0.2,0,0.7,0,0.9c-1.1,7,0.1,13.6-0.6,20.3c-14.4,0-28.7,0-43.3,0c0-16.8,0-33.2,0-50.4
		c14.4,0,29,0,43.7,0c0,9.4,0,18.8,0,28.2"/>
	<path class="st1" d="M224.7,397c0-14.2,0-28.2,0-42.1c16.6,0,33,0,49.8,0c0,13.9,0,28,0,42.1C258.2,397,241.9,397,224.7,397z"/>
	<path class="st1" d="M274.6,493.1c-16.4,0-32.7,0-49.6,0c0-13.6,0-27.1,0-41c16.4,0,32.7,0,49.6,0
		C274.6,465.3,274.6,478.9,274.6,493.1z"/>
	<path class="st1" d="M144.9,523.2c22.9,0,45.4,0,68.2,0c0,10.6,0,21.4,0,32.3c-22.8,0-45.2,0-68.2,0
		C144.9,544.6,144.9,534.2,144.9,523.2z"/>
	<path class="st1" d="M274.8,589.6c-16.8,0-33.2,0-49.9,0c0-14.2,0-28.2,0-42.6c16.6,0,33.2,0,49.9,0
		C274.8,561.2,274.8,575.2,274.8,589.6z"/>
	<path class="st1" d="M213,341.8c-22.9,0-45.4,0-68.3,0c0-10.5,0-20.7,0-31.3c22.9,0,45.4,0,68.3,0C213,321,213,331.3,213,341.8z"/>
	<path class="st1" d="M224.7,350.7c0-13.6,0-26.6,0-40.2c16.6,0,33,0,49.8,0c0,13.4,0,26.6,0,40.2
		C258.2,350.7,241.9,350.7,224.7,350.7z"/>
	<path class="st1" d="M744.5,383.9c0-12,0-24,0-36c17.7,0,35.1,0,52.9,0c0,12,0,24,0,36C779.8,383.9,762.4,383.9,744.5,383.9z"/>
	<path class="st1" d="M797.5,387.6c0,12.5,0,24.5,0,37.1c-17.4,0-34.9,0-52.7,0c0-12.2,0-24.5,0-37.1
		C762.4,387.6,779.8,387.6,797.5,387.6z"/>
	<path class="st3" d="M675,709.9c-15.1,0-29.7,0-44.5,0c0-13.4,0-26.2,0-39.5c14.6,0,29.4,0,44.5,0C675,683.2,675,696.3,675,709.9z"
		/>
	<path class="st1" d="M213,559.9c0,10.1,0,19.7,0,29.7c-22.9,0-45.6,0-68.3,0c0-10.1,0-19.7,0-29.7
		C167.6,559.9,190.1,559.9,213,559.9z"/>
	<path class="st3" d="M627.4,709.5c-15.1,0-29.9,0-45,0c0-13.1,0-25.9,0-39.1c14.8,0,29.7,0,45,0
		C627.4,683.4,627.4,696.3,627.4,709.5z"/>
	<path class="st3" d="M439,695.2c0-8.5,0-16.6,0-24.9c22.9,0,45.4,0,68.5,0c0,8.3,0,16.4,0,24.9C484.5,695.2,462.1,695.2,439,695.2z
		"/>
	<path class="st3" d="M484.2,701.6c0,12.9,0,25.6,0,38.4c-14.8,0-29.9,0-45,0c0-12.7,0-25.4,0-38.4
		C453.9,701.6,468.9,701.6,484.2,701.6z"/>
	<path class="st1" d="M144.9,453.8c22.8,0,45.2,0,68.2,0c0,9.2,0,18.3,0,27.7c-22.8,0-45.2,0-68.2,0
		C144.9,472.3,144.9,463.2,144.9,453.8z"/>
	<path class="st3" d="M511,695.2c0-8.3,0-16.4,0-24.7c21.9,0,43.5,0,65.5,0c0,8,0,16.4,0,24.7C554.9,695.2,533.2,695.2,511,695.2z"
		/>
	<path class="st1" d="M744.9,310.7c17.4,0,34.9,0,52.7,0c0,11.1,0,22.1,0,33.2c-17.4,0-34.8,0-52.7,0
		C744.9,333,744.9,322.2,744.9,310.7z"/>
	<path class="st3" d="M679.6,704.1c54.8,0-12.3,0,42.6,0c0,12,0,24.2,0,36.7c-13.9-0.2-28-0.2-42.6-0.2"/>
	<path class="st1" d="M144.7,372.3c0-8.7,0-17.4,0-26.6c22.8,0,45.4,0,68.2,0c0,8.9,0,17.7,0,26.6
		C190.3,372.3,167.6,372.3,144.7,372.3z"/>
	<path class="st3" d="M392.6,720.8c0-6.3,0-12.7,0-19.3c14.4,0,28.4,0,42.8,0c0,12.9,0,25.7,0,38.6c-14.4,0-28.4,0-42.8,0
		c0-4.4,0-8.5,0-12.9"/>
	<path class="st3" d="M530.4,160.1c0,12,0,24,0,36.2c-14.6,0-29,0-43.7,0c0-12,0-24,0-36.2C501.2,160.1,515.8,160.1,530.4,160.1z"/>
	<path class="st3" d="M532.9,160.1c14.8,0,29.2,0,44.1,0c0,12,0,24,0,36.2c-14.6,0-29.2,0-44.1,0
		C532.9,184.3,532.9,172.3,532.9,160.1z"/>
	<path class="st3" d="M484.2,184.6c0,4,0,7.6,0,11.8c-13.7,0-27.5,0-41.5,0c0-12,0-24,0-36.2c13.7,0,27.5,0,41.7,0
		c0,6.1,0,12.5,0,18.6"/>
	<path class="st3" d="M679.8,687.9c0-5.9,0-11.6,0-17.4c14.2,0,28.2,0,42.4,0c0,10.3,0,20.5,0,31c-13.9,0-27.7,0-41.9,0
		c-0.9-2.8-0.2-5.9-0.5-8.9"/>
	<path class="st3" d="M601.1,740.2c-10.3,0-20.3,0-30.6,0c-1.1-6.1,2.8-12.5-1.4-19c-10.1,0-20.7,0-31.7,0c-0.5-2.8-0.5-5.2,0-7.8
		c21.2,0,42.1,0,64,0"/>
	<path class="st1" d="M797.2,587.4c-7.6,0-15.1,0-22.5,0c0-16.4,0-32.5,0-48.9c7.6,0,14.8,0,22.5,0
		C797.2,554.7,797.2,570.9,797.2,587.4z"/>
	<path class="st1" d="M797.5,435.2c0,16.4,0,32.5,0,48.9c-7.5,0-14.8,0-22.5,0c0-16.2,0-32.5,0-48.9
		C782.2,435.2,789.6,435.2,797.5,435.2z"/>
	<path class="st3" d="M640.7,740.6c-12.7,0-24.2,0-36.5,0c0-9.2,0-18.1,0-27.5c11.8,0,23.6,0,36,0"/>
	<path class="st3" d="M435.5,687.2c0,2.6,0,5.2,0,8.3c-14.2,0-28.4,0-42.6,0c0-8.3,0-16.6,0-25.1c31.6,0,10.9,0,42.6,0"/>
	<path class="st1" d="M797.2,534.5c-7.6,0-15.1,0-22.5,0c0-15.5,0-30.8,0-46.5c7.5,0,14.8,0,22.5,0
		C797.2,503.4,797.2,518.7,797.2,534.5z"/>
	<path class="st3" d="M642.3,713c11.1,0,21.7,0,32.7,0c0,9.2,0,18.3,0,27.5c-10.6,0-21.4,0-32.5,0c0-2.8,0-5.7,0-8.7"/>
	<path class="st3" d="M487.5,720.8c0-6.6,0-12.9,0-19.5c13.9,0,28,0,41.9,0c0,6.6,0,12.9,0,19.5
		C515.4,720.8,501.6,720.8,487.5,720.8z"/>
	<path class="st3" d="M487.5,722.7c14.2,0,28.2,0,42.1,0c0,5.9,0,11.3,0,17.4c-13.9,0-28,0-42.1,0
		C487.5,734.5,487.5,728.9,487.5,722.7z"/>
	<path class="st3" d="M577,203.8c0,7.5,0,14.4,0,21.6c-14.8,0-29.2,0-44.1,0c0-7.2,0-14.4,0-21.6C547.3,203.8,561.9,203.8,577,203.8
		z"/>
	<path class="st3" d="M530.2,225.6c-14.4,0-28.8,0-43.5,0c0-7.5,0-14.4,0-21.9c14.4,0,28.7,0,43.5,0
		C530.2,210.7,530.2,218,530.2,225.6z"/>
	<path class="st3" d="M442.4,225.5c0-7.5,0-14.4,0-21.9c13.9,0,27.5,0,41.7,0c0,7.2,0,14.4,0,21.9
		C470.2,225.5,456.5,225.5,442.4,225.5z"/>
	<path class="st1" d="M756,484.3c-4.2,0-7.6,0-11.6,0c0-16.6,0-32.7,0-49.4c3.7-0.9,7.6-0.2,11.6-0.5C756,451.2,756,467.6,756,484.3
		z"/>
	<path class="st1" d="M744.5,538c4,0,7.6,0,11.8,0c0,16.6,0,33,0,49.6c-4,0.5-7.6,0.5-11.8,0C744.5,571,744.5,554.7,744.5,538z"/>
	<path class="st1" d="M756.2,534.5c-4,0-7.6,0-11.6,0c0-15.5,0-31,0-46.8c4-0.9,7.6-0.7,11.6-0.2
		C756.2,503.4,756.2,518.7,756.2,534.5z"/>
	<path class="st3" d="M567.6,722.3c0,5.9,0,11.8,0,17.7c-9.9,0-19.7,0-29.7,0c0-5.9,0-11.8,0-17.7
		C547.7,722.3,557.5,722.3,567.6,722.3z"/>
	<path class="st3" d="M537.4,711.2c0-3.1,0-6.3,0-9.6c54.5,0-15.1,0,39.5,0c0,3.1,0,6.1,0,9.6C563.8,711.2,550.8,711.2,537.4,711.2z
		"/>
	<path class="st1" d="M171.1,257.5"/>
	<path class="st3" d="M423.3,272.8c2.2-3.1,2.2-5.2-0.5-8.3C421.7,267.8,421,270,423.3,272.8z"/>
	<path class="st3" d="M385.7,271.7c-0.5-0.9-0.7-1.4-0.9-1.7"/>
</g>
<g id="stage">
	<g>
		<rect x="303.7" y="415.9" class="st4" width="47" height="68.7"/>
		<polygon class="st4" points="381.5,386.9 303.7,386.9 303.7,412.4 354.2,412.4 354.2,488.4 303.7,488.4 303.7,514 381.5,514 		"/>
		<polygon class="st4" points="633.8,514 711.6,514 711.6,488.4 662.2,488.4 662.2,412.4 711.6,412.4 711.6,386.9 633.8,386.9 		"/>
		<rect x="666" y="415.9" class="st4" width="46.1" height="68.7"/>
		<path class="st4" d="M384.9,420.9v59c15.7-0.9,28.2-13.7,28.2-29.4C413.1,434.7,400.8,422,384.9,420.9z"/>
		<path class="st4" d="M630.3,479.7v-59c-15.7,0.9-28.2,13.7-28.2,29.4C602.4,466.2,614.8,479,630.3,479.7z"/>
		<path class="st4" d="M510.9,398.7V502c27.7-1.5,49.9-24,49.9-51.8C560.6,422.5,538.4,400,510.9,398.7z"/>
		<path class="st4" d="M455.7,450.5c0,28.2,23.1,51.3,51.8,52.2V398.9C478.5,398.9,455.7,422,455.7,450.5z"/>
		<path class="st4" d="M303.7,328.4v54.8h81.2v34.1c17.4,0.9,31.8,15.5,31.8,33c0,17.4-13.9,31.8-31.8,33v34.1h-81.2v55h407.9v-55
			h-81.2v-34.1c-17.4-0.9-31.8-15.5-31.8-33c0-17.4,13.9-31.8,31.8-33v-34.1h81.2v-55H303.7V328.4z M510.9,505.7v65.9h-3.5v-65.9
			c-30.6-0.7-55.3-25.1-55.3-55.7c0-30.4,24.5-55,55.3-55.7v-65.7h3.5v65.9c29.7,1.5,53.5,25.9,53.5,55.7
			C564.1,480.4,540.6,504.6,510.9,505.7z"/>
	</g>
</g>
</svg>
