<?xml version="1.0" encoding="utf-8"?>
<!-- Generator: Adobe Illustrator 21.1.0, SVG Export Plug-In . SVG Version: 6.00 Build 0)  -->
<svg version="1.1" id="Laag_1" xmlns="http://www.w3.org/2000/svg" xmlns:xlink="http://www.w3.org/1999/xlink" x="0px" y="0px"
	 viewBox="0 0 1024 768" style="enable-background:new 0 0 1024 768;" xml:space="preserve">
<style type="text/css">
	.st0{fill:#93B8D2;}
	.st1{fill:#ACCA5A;}
	.st2{fill:#F8B65F;}
	.st3{fill:#B2B2B2;}
	.st4{fill:#85BB3E;}
</style>
<g>
	<path class="st0" d="M567.5,762c-18.9,1.1-37.1,1.8-55.9,1.6c0-23.9,0-47.2,0-71.2c18.1,0,36.1,0,54.7,0"/>
	<path class="st0" d="M568.8,692.4c15.2-0.6,41.2-1.9,56.6-0.9c0,22.3,0,44.4,0,67.1c-17.8,1.8-36.7,3.7-55.9,3.6"/>
	<path class="st1" d="M510.7,689.3c2.5-1.3-0.3-64.5-0.3-67.8c17.3,0,34.3,0,52.1,0c0,22.7,0,45.4,0,68.7
		C545.3,690.2,528,691.1,510.7,689.3c-1.4-0.5-1.9,1.2-3.7,1.2c-16-0.1-31.9,0-47.9,0c0-23.4,0-46.1,0-69.1c17,0,33.6,0,50.2,0
		C510.3,624.6,509.3,687.7,510.7,689.3z"/>
	<path class="st0" d="M767.4,169.7c1,0.3,1.5,0.8,2.5-0.8c12.8-19.3,25.8-38.3,38.8-57.5c0.2-0.3,0.5-0.4,1.1-0.7
		c17.7,11.1,30.9,26.7,43.6,43.6c-19.1,13.9-37.9,27.6-56.7,41.4c-4.3-4.8-7.7-10.1-13.4-13c1.4,1.6,2.7,3.1,3.9,4.5
		c-6.4,6.6-12.7,12.9-19.1,19.5c-12.5-7.5-22.6-18.6-37.3-23.5c2.6-8.2,5.1-16,7.5-23.9c9.3,3.5,17.9,8.2,25.8,14.4
		C765.5,171.9,766.5,170.8,767.4,169.7z"/>
	<path class="st0" d="M255.1,170.7c-1,0.3-1.5,0.8-2.5-0.8c-12.8-19.3-25.8-38.3-38.8-57.5c-0.2-0.3-0.5-0.4-1.1-0.7
		c-17.7,11.1-30.9,26.7-43.6,43.6c19.1,13.9,37.9,27.6,56.7,41.4c4.3-4.8,7.7-10.1,13.4-13c-1.4,1.6-2.7,3.1-3.9,4.5
		c6.4,6.6,12.7,12.9,19.1,19.5c12.5-7.5,22.6-18.6,37.3-23.5c-2.6-8.2-5.1-16-7.5-23.9c-9.3,3.5-17.9,8.2-25.8,14.4
		C257,172.9,256.1,171.8,255.1,170.7z"/>
	<path class="st1" d="M391.8,620.8c22.1,0,43.4,0,64.6,0c0,23.3,0,46.2,0,69.6c-22-1.2-43.4,1.4-64.6-1.1
		C391.8,666.4,391.8,643.9,391.8,620.8z"/>
	<path class="st1" d="M565.2,689.5c0-22.1,0-45.8,0-68.5c21.2,0,42.4,0,64.4,0c0,22.5,0,45.1,0,68.5"/>
	<path class="st1" d="M626.4,542.1c17.8,0,35.4,0,54,0c0,25.1,0,45.8,0,71.8c-17.3,0-32.1,0.8-50.8,0.8
		C629.6,589.8,626.4,567.9,626.4,542.1z"/>
	<path class="st0" d="M817.8,331.5c-0.3-0.7-0.9-1.5-0.9-2.2c-0.3-17.6-0.6-35.3-0.8-52.9c0-0.6,0.2-1.3,0.4-2.2
		c23-0.8,45.9-1.3,69.2-1.2c1.7,19.6,1.8,38.8,1.1,58.1c-7.7,0-15.3,0-23,0C848.4,331.2,833.1,331.4,817.8,331.5z"/>
	<path class="st1" d="M397.2,614c0-23.9,0-47.8,0-71.9c19.3,0,37.2,0,55.5,0c0,24.1,0,48.1,0,72.2
		C434.2,614.1,415.7,614.1,397.2,614z"/>
	<path class="st0" d="M455.3,5.6c17.8-0.6,35.8-2,54.7-1.1c0,23.6,0,47,0,71c-17.6,0-35.6,0-54.7,0C455.3,52.5,455.3,29.4,455.3,5.6
		z"/>
	<path class="st1" d="M455.1,614.1c0-23.9,0-47.8,0-72c18.7,0,36.7,0,54.3,0c0,24.3,0,48.4,0,72.4
		C491.3,614.4,473.2,614.3,455.1,614.1z"/>
	<path class="st1" d="M569.1,614.1c0-23.9,0-47.8,0-72.1c18.2,0,36,0,54.8,0c0,24.1,0,48,0,71.9C605.6,614,587.4,614.1,569.1,614.1z
		"/>
	<path class="st0" d="M509.3,763.7c-18.3,0.8-36.5-0.1-55.2-1.4c-0.6-23.4,0.6-46.4,0.6-69.8c18.2-1.6,36,1.1,54.6,0.1
		C509.3,716.5,509.3,739.7,509.3,763.7z"/>
	<path class="st1" d="M511.9,614.4c0-23.9,0-47.9,0-72.2c18.5,0,36.2,0,54.9,0c0,24.1,0,48.1,0,72.1
		C548.5,614.3,530.2,614.4,511.9,614.4z"/>
	<path class="st1" d="M624.1,153.4c0,23.4,0,46.8,0,70.6c-19.5,0-37.5,0-54.8,0c0-23.7,0-47.3,0-70.8
		C587.5,153.3,605.8,153.4,624.1,153.4z"/>
	<path class="st1" d="M453.6,153.2c0,23.4,0,46.9,0,70.7c-17.1,0-35.1,0-53.8,0c-0.3-23.5-0.7-47-1-70.4
		C417,153.4,435.3,153.3,453.6,153.2z"/>
	<path class="st0" d="M566.8,5.6c0,23.4,0,46.2,0,69.6c-18.4,0-35.8,0-53.7,0c-1-23.2-1.2-46.7-1.1-70.8
		C530.5,3.8,548.7,4.1,566.8,5.6z"/>
	<path class="st0" d="M396.7,75.7c0-22.2,0-44,0-66.1c18.1-1.7,36.4-3.5,55.1-3.6c1.2,23.4,1.3,46.3,1.4,69.6
		C434.4,75.7,416.1,75.7,396.7,75.7z"/>
	<path class="st0" d="M143,214.4c4.6-18.6,13.2-40.5,24.5-56c17.1,12.6,39.4,27.7,56.1,39.9c0,1.9-5.1,9.9-6.8,13.6
		c-1.7,3.8-6.9,10.1-8.5,14.2"/>
	<path class="st0" d="M207.6,436c1-16.5-1.8-32.7-0.2-49.4c25.6,0,51,0,76.9,0c0,16.1,0,32.1,0,48.7C259,435.1,233.6,437,207.6,436z
		"/>
	<path class="st1" d="M510.1,153c0,23.6,0,47.2,0,71.1c-17,0-34.7,0-53.1,0c-0.3-23.7-0.7-47.3-1-70.9
		C474,153.1,492.1,153.1,510.1,153z"/>
	<path class="st0" d="M207.5,334.6c25.8,0,51.2,0,77.1,0c0,16.2,0,32.4,0,49c-25.6,0-51.1,0-77.1,0
		C207.5,367.1,207.5,351.2,207.5,334.6z"/>
	<path class="st1" d="M340.7,613c0.3-23.4,0.2-46.9,1.4-70.7c17.9,0,35.6,0,52.9,0c0,24.1,0,47.8,0,71.6
		C376.9,612.8,358.8,613.5,340.7,613z"/>
	<path class="st0" d="M570.1,6.1c18.8-0.3,36.9,2,55,3.5c0,22,0,43.9,0,66.5c-19.1-0.7-37.3-0.8-56.2-0.7
		C568.9,52.2,569.1,29.5,570.1,6.1z"/>
	<path class="st0" d="M254.6,167.1c-13-19.2-26.1-38.6-39.2-57.9c14.5-12.8,48.5-25.9,65-25c2.8,20.2,5.7,40.6,8.6,61
		c0,1.8,0,3.5,0,5.3"/>
	<path class="st1" d="M681,153.8c0,23.3,0,46.5,0,70.2c-19.2,0-37.1,0-54.5,0c0-23.5,0-47,0-70.5C644.6,153.6,662.8,153.7,681,153.8
		z"/>
	<path class="st1" d="M396.3,153.5c0,23.4,0,46.8,0,70.6c-16.9,0-34.8,0-53.3,0c-0.3-23.3-0.7-46.5-1-69.8
		C360.1,154,378.2,153.8,396.3,153.5z"/>
	<path class="st0" d="M764.1,166.2c-5.9-6.2-13.8-8.7-21.3-12c-3-1.3-6.2-2.2-9.8-3.4c3.1-22.1,6.1-44.1,9.2-66.3
		c5.6-0.6,10.9-1,16.1,0.6c17.5,5.3,33.5,13.5,49.3,23.6c-13.3,19.5-26.3,38.8-39.3,57.8C766.6,167.9,765.6,165.2,764.1,166.2
		C764.1,166.1,764.1,166.2,764.1,166.2z"/>
	<path class="st0" d="M208.2,438.5c25.5,0,50.6,0,76.3,0c0,16,0,31.6,0,48c-25.4,1.6-50.7-0.1-76.3,1.7
		C208.2,471.3,208.2,455.1,208.2,438.5z"/>
	<path class="st0" d="M396.8,692.2c18.6,0,36.6,0,55.4,0c-0.4,23.3,0.3,46.3-1.1,69.9c-18.4,0.2-36.4-1.7-54.3-3.8
		C396.8,736.2,396.8,714.4,396.8,692.2z"/>
	<path class="st0" d="M814.6,435.8c-24.9,0-49.3,0-74.1,0c0-16.5,0-32.7,0-49.3c24.6,0,49.1,0,74.1,0
		C814.6,402.8,814.6,419.2,814.6,435.8z"/>
	<path class="st0" d="M740.3,383.4c0-16.1,0-32.3,0-48.9c24.8,0,49.3,0,74.3,0c0,16,0,32.1,0,48.9
		C789.9,383.4,765.3,383.4,740.3,383.4z"/>
	<path class="st0" d="M136,495.8c23.4-1,46.4-2,69.9-3c0.2,15.7,0.9,30.8,4.9,46.2c-23,5.5-45.6,10.9-68.8,16.4
		C137.6,535.9,135.2,516.5,136,495.8z"/>
	<path class="st0" d="M768.2,212.1c5.3,7.5,7.2,16.5,12.7,24.2c9.6-1,18.5-5.5,28.5-7.4c4.2,16.5,5.1,33,4.4,50.4
		c-24.3-0.6-48.3,1.1-72.5,1c-1.7-13.5,1.7-26.8-2.3-38.3C749.1,231.7,758.5,222,768.2,212.1z"/>
	<path class="st0" d="M134,441.3c0.8-1.6,2.3-1.2,3.5-1.2c21.8,0,43.6,0,65.5,0c0.7,0,1.3,0.2,2.5,0.3c0,16.4,0,32.7,0,49.7
		c-22.8,1-47.5-0.1-70.2,0.9"/>
	<path class="st0" d="M741.2,332.1c0-16.8,0-32.6,0-48.8c24.2-2,48.3-0.8,72.7-1.4c0.5,16.8,1.7,32.8,0.9,49.1
		C790.2,332.8,766,332.1,741.2,332.1z"/>
	<path class="st1" d="M566.9,153.2c0,23.4,0,46.8,0,70.7c-18.6,0-35.9,0-54.1,0c-0.3-23.5-0.7-47.2-1-70.9
		C530.2,153.1,548.5,153.1,566.9,153.2z"/>
	<path class="st0" d="M816.8,493.9c23,1.1,45.4,2.1,68.1,3.2c2,20.3-1.4,39.6-6.2,59.2c-22.4-5.3-44.5-10.6-67.3-16
		C815.3,525.2,816.7,510.1,816.8,493.9z"/>
	<path class="st0" d="M887,383.1c0.3,2-0.4,3-2.7,3c-22.1-0.1-44.2-0.2-66.3-0.2c-0.1,0-0.3-0.2-0.7-0.6c0-16.7,0-33.8,0-50.7
		c1.5-1,3.1-0.5,4.5-0.6c0.5,0,1,0,1.5,0c6.8,0,13.7,0,20.5,0c14.2,0.8,28.5-0.6,42.8,0.8c0.4,7.4,0.9,13.8-0.1,20.6
		C884.9,364.5,887.9,373.8,887,383.1z"/>
	<path class="st0" d="M741.4,438.1c24.6,0.4,48.8-0.5,73.3,0.8c0,16.4,0,32.1,0,48.6c-24.5-0.3-48.7,0.2-73.3-0.8
		C741.4,470.3,741.4,454.6,741.4,438.1z"/>
	<path class="st0" d="M284.5,489.6c1.8,12.5-2.1,25.2,3.2,37.6c-11.4,6.6-22.7,13.5-35,19.3c-4.5-3.6-5.2-9.5-8.9-14.3
		c-10.1,1.6-19.9,5.8-30.3,7.8c-5.2-15-6.8-40.4-5-49.1C210.8,490.4,281.3,489.2,284.5,489.6z"/>
	<path class="st0" d="M255,598.3L255,598.3c0,1.4-0.1,2.7-1,4.1c-12.9,18.8-25.7,37.6-39,57.1c-17.1-12.1-31.9-26.3-45.1-43.1
		c19.3-14.3,38.4-28.4,57.7-42.7c6,7.5,12.5,14.2,19.8,20"/>
	<path class="st0" d="M817.1,438.9c0-17,0-33.4,0-50.3c23.2,0,46.2,0,69.9,0c0,16.7,0.7,33.3-0.8,50.3
		C863.1,438.9,840.4,438.9,817.1,438.9z"/>
	<path class="st0" d="M259.5,680.4c-13.1-4.5-25.7-9.9-37.7-16.8c-1.5-0.9-3.3-1.5-4.6-3.5c5.9-8.6,11.9-17.4,17.9-26.1
		c6.6-9.7,13.3-19.5,19.9-29.2c1.1-1.6,2-3.2,4.2-3.4c6.4,4.8,13.6,7.8,20.9,11c3,2.5,7.2,2,10.8,4.3c-4.9,22.3-9.8,44.8-14.6,67"/>
	<path class="st0" d="M830.9,639.8c-7.8,7-15.9,13.4-25,19.6c-5.9-8.6-11.7-17.1-17.5-25.5c-6.8-10-13.7-20-20.5-30
		c-1-1.5-2.4-2.8-0.8-4.7l0,0c8.5-4.7,15.3-11.6,22-18.6c1.7-1.8,3.3-3.7,5.2-5.8c18.9,13.9,37.7,27.7,56.5,41.6
		c-3.6,6.4-8.7,11.2-12.7,16.8"/>
	<path class="st0" d="M394.2,10c0,22.4,0,43.9,0,65.9c-18,0-36.2,0-55.3,0c0-19.7,0-39.3,0-59.3C356.6,13.5,374.8,11,394.2,10z"/>
	<path class="st1" d="M338,619.6c-0.7,23.5-1.3,46.3-2,69.3c-19.5,0.1-38.3-0.3-57.8-3.9c5-22.8,9.9-45.2,14.9-68.3
		C307.9,619.7,322.6,619.5,338,619.6z"/>
	<path class="st0" d="M761.2,602.4c1.7-0.3,3,0,4.1,1.6c12.6,18.6,25.3,37.1,37.9,55.7c0.2,0.2,0.1,0.6,0.3,1.3
		c-17.3,12.2-36.6,19.6-57.8,23.5c-5.1-22.9-10.2-45.2-15.1-67.4"/>
	<path class="st0" d="M135,437.5c0-16.8,0-33.2,0-50.1c23.5,0,46.6,0,70.4,0c0,16.7,0,33.1,0,50.1
		C182.2,437.5,158.8,437.5,135,437.5z"/>
	<path class="st0" d="M683,76.3c-19.2,0-37.2,0-55.2,0c0-22.2,0-43.8,0-66.1c19.2,1.1,37.3,3.5,55.2,6.3C683,36.5,683,56.4,683,76.3
		z"/>
	<path class="st1" d="M728.4,618.3c5,22.4,10.1,44.8,15.1,67.3c-19.3,3.3-38.2,4.3-57.8,3.7c-0.6-22.8-1.2-45.4-1.8-67.5"/>
	<path class="st0" d="M628.2,691.4c17.7,0,35.4,0,53.8,0c1,19.9,1.2,39.9,1,60.2c-18.2,3.5-36.2,5.5-54.8,6.8
		C628.2,735.9,628.2,713.9,628.2,691.4z"/>
	<path class="st0" d="M205.1,334.3c0,16.7,0,33.1,0,50.1c-23.3,0-46.3,0-69.8,0c0-16.8,0-33.3,0-50.1
		C158.7,334.3,181.7,334.3,205.1,334.3z"/>
	<path class="st0" d="M777.3,532.5c-2.7,4.9-3.8,10.3-8.3,14.2c-11.2-5-21.2-12-32.9-17.8c7.4-12.4,3.9-25.8,5.1-39.6
		c24.1-0.6,48.1,1.8,71.9,0.8c2.8,9.4,0.3,38.5-4.3,50.3c-5.1-1.3-10.3-2.9-15.5-4.1C788.1,535,783.4,531.5,777.3,532.5z"/>
	<path class="st0" d="M394,692.2c0,22,0,43.6,0,65.9c-18.7-1.3-36.8-3.3-55-6.8c-0.1-20.2,0-39.9,1-60
		C358.2,690.9,376,691.4,394,692.2z"/>
	<path class="st0" d="M817,441.4c23.3,0,45.9,0,68.8,0c0,17.6,0,34.9,0,53.1c-23.1-1-45.8-2-68.8-3.1C817,474.6,817,458.3,817,441.4
		z"/>
	<path class="st0" d="M816,271.2c0.3-14.1-0.7-27.8-4.2-41.8c22.6-5.4,44.9-10.7,67.8-16.2c4,18.7,5.7,37.3,6.2,56.7
		C862.6,270.6,839.6,271.6,816,271.2z"/>
	<path class="st1" d="M736,158.5c-2.5,8.4-5.1,16.8-7.7,25.7c4,1.8,7.9,3.5,12,5.3c-6,12.3-11.8,24.2-17.7,36.5
		c-13.2-3.1-26.7-0.8-39.4-1.8c0-23.6,0-47,0-70.4C701,153.5,718.7,153.6,736,158.5z"/>
	<path class="st1" d="M287.1,159c2.5,8.4,5.1,16.8,7.7,25.7c-4,1.8-7.9,3.5-12,5.3c6,12.3,11.8,24.2,17.7,36.5
		c13.2-3.1,26.7-0.8,39.4-1.8c0-23.6,0-47,0-70.4C322.1,154,304.4,154,287.1,159z"/>
	<path class="st1" d="M383.8,620.3c1.8,0.1,3.6,0,5.5,0c0,23.2,0,45.9,0,68.9c-17.1,0-33.7,0-51,0c0.6-23.1,1.2-45.8,1.8-68.6"/>
	<path class="st1" d="M683.4,688.7c-17.1,0-33.5,0-50.7,0c0-22.4,0-45,0-68.2c15.7,0,31.9,0,48.9,0
		C682.1,642.7,682.7,665.2,683.4,688.7z"/>
	<path class="st0" d="M142.5,557.6c23.4-5.5,46-10.9,68.9-16.3c3.7,11,8.2,21.2,14.9,30.6c-19.2,14.1-38.1,28.2-57.6,42.5
		C156.5,597,148.3,578.2,142.5,557.6z"/>
	<path class="st0" d="M795.4,573c6.7-9.6,12.3-19,15.3-30.5c22.6,5.3,45,10.6,67.8,16c-4.3,20.9-14,38.8-26.3,56.1
		C833.2,600.8,814.5,587.1,795.4,573z"/>
	<path class="st2" d="M71.7,333.5c20.6,0,40.7,0,61.1,0c0,17.1,0,34,0,51.2c-20.9,0-41.4,0-62.5,0C69.7,367.6,70.4,350.7,71.7,333.5
		z"/>
	<path class="st0" d="M797.7,197.6c19.1-13.9,37.8-27.6,56.4-41.2c8.2,8.7,24.2,43.9,24.8,54.6c-22.4,5.3-44.8,10.7-67.6,16.1
		C808,216.7,804,206.9,797.7,197.6z"/>
	<path class="st2" d="M950.8,335.2c0.8,15.3,1.5,30.5,1,45.8c-1.3,0.2-2.6,0.3-3.9,0.5c-0.7,0-1.3,0-2,0s-1.4,0-2,0
		c-17.3,0-34.6,0.1-51.9,0.1c-0.9-0.3-1.8-0.5-3-0.9c0-2.2,0-4.3,0-6.4c-0.1-14-0.1-28.1-0.2-42.1c0.1-2.7,2.1-2,3.6-2
		c1.8-0.1,3.6-0.1,5.5-0.1c17.3,0,34.7,0,52,0.1c0.2,1,0.5,2.1,0.7,3.1C950.2,333.9,950.3,334.6,950.8,335.2z"/>
	<path class="st2" d="M70.2,387.3c21,0,41.6,0,62.5,0c0,16.7,0,33.1,0,49.7c-20.2,3.2-40.3,0.3-60.9,1.9
		C70.1,421.5,69.6,404.7,70.2,387.3z"/>
	<path class="st1" d="M684.9,613c0-24.4-1.7-45.4-1.7-70.8c10.2,0,20.6,0,31.8,0c6.5,23.5,12,43.6,18.6,67.4"/>
	<path class="st2" d="M896,383.8c17-0.1,34-0.1,51-0.2c1,0.5,2,0.5,2.9,0c1.7,0.2,1.9,1.4,1.9,2.9c0.1,15.7-0.3,31.3-1.4,46.9
		c0,0.5-0.3,0.9-0.3,1c-20.7,0-41.1,0-62.5,0c2.6-17.2,1.1-33.7,1.5-50.2C891.4,384,893.7,383.9,896,383.8z"/>
	<path class="st2" d="M132.3,441.5c0.1,14,0.2,28,0.3,42.1c0,2.5,0,4.9,0,8.8c-19.5-0.2-38.6-0.2-58,1.1c-2.3-17.6-4.2-34.7-4.5-53
		c8.2,0,15.9,0.1,23.7,0c11-0.1,22-0.2,33-0.5C128.8,440,130.7,440.1,132.3,441.5z"/>
	<path class="st2" d="M888.8,436.9c20.5,0,40.7,0,61.4,0c-0.5,17.8-1.8,34.8-4.1,52.4c-19.3-0.6-38.4-1.3-58.1-1.9
		C887.8,470.3,887.8,453.4,888.8,436.9z"/>
	<path class="st2" d="M898.1,329.2c-2.8-0.9-5.6-1.3-9.1,0.1c0.3-17.9,0.4-35.2-1-53.3c19.4,0,38.5,0,57.7,0
		c2.1,15.1,3.3,30.7,4.2,46.3c-0.1,1.6-0.2,3.2-0.4,4.9c-5.2,1.1-10.5-0.9-15.3,1.8c-2-1.2-4.1-1.4-6.3-1.3c-7.7,0.1-15.3,0.1-23,0
		C902.6,327.5,900.3,328,898.1,329.2z"/>
	<path class="st2" d="M133.2,331c-20.8,0-40.7,0-61.3,0c0.3-17.4,1.7-34.5,4.1-51.2c19.2,0,38.2,0,57.2,0
		C133.2,297.2,133.2,313.9,133.2,331z"/>
	<path class="st0" d="M278.5,26.2c19.3-4,38.1-6.4,57.3-9.1c0.3,19.9,1.6,39.1,1.1,59c-16.8,0.2-33.4,1.2-50.5,3.2
		C283.8,61.5,281.2,44.1,278.5,26.2z"/>
	<path class="st0" d="M685,691.2c15.7-1.4,31.1-0.3,46.8-2.7c2.9,18.1,5.6,35.6,8.4,53.6c-18,4.3-35.8,7.2-54.3,9.3
		C685.3,731.2,684.7,711.5,685,691.2z"/>
	<path class="st0" d="M336.1,751.2c-18.4-2.6-36.2-4.9-54.4-8.4c2.8-17.9,5.6-35.5,8.4-53.8c15.5,1.9,30.9,2,46.8,2
		C337.4,711.2,336.6,730.9,336.1,751.2z"/>
	<path class="st1" d="M288.5,608.8c6.1-22.4,12.3-44.9,18.3-67c10.9,0,21.2,0,32.1,0c0.8,24-0.7,47.6-0.8,71.1
		C321.5,612.4,304.8,613.1,288.5,608.8z"/>
	<path class="st2" d="M137.2,231.1c-4,15.7-3.2,31-3.4,46.2c-19.3,0-38.1,0-57.5,0c1.8-18.9,4-36.9,7.3-55.6
		C101.3,224.9,118.9,227.9,137.2,231.1z"/>
	<path class="st2" d="M845.8,627.7c1.6-1.5,2.7-3.3,4.5-5.7c14,11.2,27.9,22.3,41.9,33.6c-11.6,16.3-25.5,29.5-41.9,41.1
		c-10.7-14-21.5-28.1-32.4-42.4c4.8-4.1,9.6-8,14.1-12.1"/>
	<path class="st2" d="M884.4,227.3c18.2-2.8,35.7-5.6,53.8-8.4c3.4,17.9,5.8,35.5,7.3,54.3c-19.2,0-38.1,0-57.4,0
		C887.6,258.3,886.8,243,884.4,227.3z"/>
	<path class="st2" d="M888,489.6c19.5,0.6,38.6,1.2,57.8,1.8c-1.4,18.2-3.8,35.8-7.9,53.9c-17.5-2.8-35-5.7-53.1-8.6
		C888.7,521.2,887.2,505.5,888,489.6z"/>
	<path class="st2" d="M137.1,540.3c-18.1,2.8-35.8,5.6-53.7,8.3c-3.2-17.9-5.2-35.3-6.9-53.3c19.1-0.6,37.8-1.3,57.2-1.9
		C133.8,509.1,133.9,524.5,137.1,540.3z"/>
	<path class="st0" d="M740.6,26.2c-3.5,18.4-6,36.2-10.2,54.1c-15.2-4.4-30.2-2.6-45.3-3.5c-0.8-20,1.1-39.5,0.9-59.7
		C704.5,19.1,722.2,22,740.6,26.2z"/>
	<path class="st2" d="M244.5,676.9c-7.2,16.4-14.2,32.5-21.4,49c-18-6.9-34.6-15.4-49.7-27.7c10.9-14.3,21.7-28.4,32.6-42.7
		C218,664.5,230.8,671.1,244.5,676.9z"/>
	<path class="st2" d="M851.2,619.7c8-11.8,15.9-23.4,21.6-36.8c16.6,7,33.1,14,50,21.1c-7.4,18.1-17.9,33.8-29.5,49.4
		C879.1,642,865.2,630.9,851.2,619.7z"/>
	<path class="st2" d="M848.1,697.6c-15.3,11.6-30.8,22.1-48.9,28.9c-7.2-16.4-14.2-32.5-21.5-49.2c13.6-5.6,25.9-13.5,37.9-22.4
		C826.5,669.2,837.2,683.4,848.1,697.6z"/>
	<path class="st2" d="M137.3,542.5c2.2,14.5,6.8,27.8,12.2,41.3c-16.4,7.1-32.7,14.2-49.2,21.4c-8.1-17.3-13.8-35.1-16.4-54.4
		C101.7,548,119.3,545.3,137.3,542.5z"/>
	<path class="st2" d="M873.6,580.9c5.6-13.6,8.2-27.5,11-42c17.7,2.9,35.2,5.7,53,8.6c-3.3,18.7-5.6,37.2-14.2,54.4
		C906.9,594.9,890.5,588,873.6,580.9z"/>
	<path class="st2" d="M150.4,585.8c6.2,13.1,13,25.4,22.3,37.1c-14.1,11-28,21.8-42.3,33c-12.1-14.7-21.2-31-29.3-48.6
		C117.5,600.1,133.8,593,150.4,585.8z"/>
	<path class="st2" d="M848.3,70.2c-11,14.1-21.8,28-32.7,42.1c-11.7-8.9-24.2-15.8-37.9-21.9c6.9-16.1,13.8-32,20.8-48.1
		C816.6,49.2,833.1,58.2,848.3,70.2z"/>
	<path class="st2" d="M204.3,114.4c-11.1-14-22-27.7-33.1-41.7c14.9-12.2,30.7-22.3,48.9-29.5c6.9,16.2,13.8,32.3,20.8,48.9
		C227.9,97.9,216,105.4,204.3,114.4z"/>
	<path class="st2" d="M84,219.6c2.6-18.9,7-36.5,15.1-53.6c16.4,7.2,32.5,14.4,49.2,21.7c-4.6,13.4-8.8,26.8-10.9,41.2
		C119.3,225.8,101.8,222.7,84,219.6z"/>
	<path class="st2" d="M872.2,184.5c16.8-7.3,32.9-14.4,49.3-21.5c8.1,17.1,13.8,34.7,16.3,53.7c-17.8,2.8-35.5,5.5-53.7,8.4
		C882.2,211,878.2,197.7,872.2,184.5z"/>
	<path class="st2" d="M149.2,185.7c-16.9-7.5-32.9-14.6-49.3-21.8c7.2-17.6,16.7-33.4,28.6-48.6c14,10.9,27.8,21.6,42,32.6"/>
	<path class="st2" d="M890.6,111.1c-14.4,10.9-28.4,21.6-42.7,32.4c-9.5-10.7-18.4-21.6-30.5-30c11-14.1,21.8-28,32.7-42
		C866.2,82.2,878.3,96.2,890.6,111.1z"/>
	<path class="st2" d="M797,727.2c-17.4,8.3-35.7,11.2-54.5,14.4c-2.8-17.9-5.5-35.2-8.3-53.3c14.3-2,28-4.6,41.3-10.3
		C782.7,694.5,789.7,710.6,797,727.2z"/>
	<path class="st2" d="M282.6,688.5c1.4,0.5,3-0.1,5,1.5c-2.7,17.2-5.4,34.8-8.2,52.8c-18.9-2.8-36.4-8.1-54.1-15.6
		c7.1-16.2,14-32.1,21-48.1"/>
	<path class="st2" d="M202.6,115.8c-11.8,8.9-21.9,18.7-30.8,30.4c-14.1-10.9-27.9-21.7-41.9-32.5c11.1-15.4,24.2-28.2,39.6-39.5
		C180.4,87.9,191.4,101.6,202.6,115.8z"/>
	<path class="st2" d="M284.2,79.7c-14.5,1.7-27.8,5.8-41.2,11.2c-7-16.4-13.7-32.2-20.6-48.5c17.5-7.9,35.1-13.1,54-15.7
		C279,44.7,281.6,62,284.2,79.7z"/>
	<path class="st2" d="M171.6,696.9c-14.6-11.9-28.2-24.2-40-39.2c14.1-11,28-21.8,42.4-33c9.2,10.7,19.5,20.1,30.3,29.4
		C193.4,668.4,182.7,682.4,171.6,696.9z"/>
	<path class="st1" d="M251.5,593.5c-3.6-0.9-5.5-4-8.8-6.2c7.3-7.8,14.3-15.2,21.3-22.7c-3.5-5-7.3-9.3-10.3-14.8
		c12.1-6.8,23.9-13.4,35.8-20.1c4.6,4.2,8.7,8.3,15.1,11.3c-6.2,22.1-12.5,44.4-18.8,66.6c-11.7-3.2-21.7-9.6-31.7-16.5
		C253.2,592,252.3,592.7,251.5,593.5z"/>
	<path class="st2" d="M733.5,79.7c3.2-18,6.3-35.1,9.5-52.9c18.5,2.9,36.4,5.9,53.4,14.7c-6.9,15.8-13.6,31.5-20.7,47.9
		C762.6,82.4,748.3,81.6,733.5,79.7z"/>
	<path class="st1" d="M736.5,607.5c-2.8-3.2-2.9-7.4-3.9-11.2c-4.9-17.2-9.6-34.5-14.4-51.8c-0.2-0.8-0.1-1.6-0.2-2.7
		c6.5-2.1,12.3-5.1,17-10.5c11,6.1,21.9,12.2,33.1,18.5c-3,5.3-6.4,9.8-11.1,14.5c8.1,7.4,15.7,14.3,23.5,21.3
		c-4.3,5.4-8.3,7.9-12.1,10.7c-1.2-1.6-2.2-3.3-4.4-4C755.7,599.1,747.1,605.2,736.5,607.5z"/>
	<path class="st2" d="M849,145.4c14.5-11,28.6-21.6,42.8-32.5c12.5,14.3,21.2,30.6,28.8,48c-16.5,7.2-32.6,14.2-49.2,21.5
		C865.1,169.5,858.6,156.8,849,145.4z"/>
	<path class="st1" d="M290.6,141.9c-2.6-19.1-5.3-38.2-8-57.9c13.8-0.3,26.8,1.7,39.7,5.5c0.5,18.9,0.9,37.5,1.4,56.1
		c0,0.8-0.4,1.6-0.7,2.4c-10.4,0.1-20.7,0.9-30.9,3C291.6,147.9,291.1,144.9,290.6,141.9z"/>
	<path class="st1" d="M699.7,147.1c0-19.6,0-38.6,0-57.9c13.6-2.4,26.6-3.7,40.2-4.7c-3.1,22.1-6.1,43.7-9.2,65.8
		C720.2,148.3,709.8,147.5,699.7,147.1z"/>
	<path class="st1" d="M669.8,89.7c9.9,0,18.6,0,27.4,0c0,18.9,0,37.7,0,57c-9.7,0-18.7,0-27.4,0C669.8,127.7,669.8,109,669.8,89.7z"
		/>
	<path class="st1" d="M667.2,146.3c-9.7,0-17.6,0-26.7,0c-0.3-18.9-0.2-37.4,0.4-56.4c9,0,17.6,0,26.2,0
		C667.2,108.5,667.2,127.2,667.2,146.3z"/>
	<path class="st1" d="M580.2,90.3c0,18.6,0,36.9,0,55.4c-9.5,0-18,0-27.2,0c-0.6-18.6,0.9-36.7,0.9-55.4
		C563,90.3,571.7,90.3,580.2,90.3z"/>
	<path class="st1" d="M583,90.2c9.8,0,18.3,0,26.6,0c0,18.6,0,36.9,0,55.5c-9.4,0-18.1,0-26.6,0C583,127.2,583,109,583,90.2z"/>
	<path class="st1" d="M611.8,90.2c9.8,0,18.3,0,26.6,0c0,18.6,0,36.9,0,55.5c-9.4,0-18.1,0-26.6,0C611.8,127.2,611.8,109,611.8,90.2
		z"/>
	<path class="st1" d="M550.9,145.4c-8.9,0-16.5,0-24.5,0c0-18.7,0-36.1,0-55.1c18.9,0.1,16.3-0.1,24.5-0.1
		C550.9,108.2,550.9,126.5,550.9,145.4z"/>
	<path class="st1" d="M499,145.2c0-18.5,0-36.5,0-54.9c8.3,0,16.2,0,24.6,0c0,18.2,0,36.4,0,54.9C515.4,145.2,507.5,145.2,499,145.2
		z"/>
	<path class="st1" d="M470.9,145.2c0-18.4,0-36.4,0-54.9c8.4,0,16.4,0,25,0c0,18.2,0,36.3,0,54.9
		C487.7,145.2,479.6,145.2,470.9,145.2z"/>
	<path class="st0" d="M779.5,534.7c9.7,2.9,19.2,5.8,29,8.7c-5.7,16.1-13.6,29.8-26.4,41.2c-7.5-5.9-13.5-13.1-20.5-20.2
		C768.2,555.1,774.7,545.8,779.5,534.7z"/>
	<path class="st0" d="M214.3,542.9c9.7-2.8,18.8-5.4,28-8c5.2,10.5,10.7,20.3,17.6,28.8c-7,6.9-13.7,13.4-20.6,20.2
		C228,572.7,219.3,559.3,214.3,542.9z"/>
	<path class="st0" d="M284.7,284.5c0,4.6,0.1,42.5,0.1,47.1c-25.9,0-51.5,0-77,0c-1-4.9-0.4-45.1-0.3-49.5
		C233.1,282.1,259.1,284.6,284.7,284.5z"/>
	<path class="st0" d="M808.5,225.4c-9.1,3.4-17.5,5.9-26.3,7.8c-3.8-8.3-8.6-15.8-11.4-24.6c5.2-6.8,11.7-12.2,18.4-18.5
		C798.5,200.8,804.8,212.2,808.5,225.4z"/>
	<path class="st0" d="M255.2,213.3c-5.3,7.5-7.2,16.5-12.7,24.2c-9.6-1-18.5-5.5-28.5-7.4c-4.2,16.5-5.1,33-4.4,50.4
		c24.3-0.6,48.3,1.1,72.5,1c1.7-13.5-1.7-26.8,2.3-38.3C274.4,233,264.9,223.3,255.2,213.3z"/>
	<path class="st0" d="M234.3,191.3c6.7,6.2,13.2,11.7,18.4,18.5c-2.8,8.8-7.6,16.4-11.4,24.6c-8.8-1.9-17.2-4.4-26.3-7.8
		C218.7,213.5,225,202,234.3,191.3z"/>
	<path class="st0" d="M207.2,228.5c0,3.6-2.1,42.4-2.1,46.4c-23.4,0.6-45.3-1.3-68.6-1.3c-0.7-3.5,5.2-52.3,5.5-55.7
		C182.4,223.8,163.6,221,207.2,228.5z"/>
	<path class="st0" d="M205.1,281.2c0,2.9,1.3,46.8-0.4,50c-22.8,0-45.8,0-68.9,0c-1.3-3,1.3-48.3,1.4-51.3
		C160.6,279.9,181.6,281.2,205.1,281.2z"/>
	<path class="st3" d="M159.2,169.2"/>
	<path class="st3" d="M185.4,169.2"/>
	<path class="st3" d="M163,162.8"/>
	<path class="st3" d="M163,162.8"/>
	<path class="st3" d="M948,381.6c1.3-0.2,2.6-0.3,3.9-0.5C950.8,383,949.4,382.3,948,381.6z"/>
	<path class="st3" d="M950,383.6c-1,0.5-2,0.5-2.9,0C948,382.9,949,382.9,950,383.6z"/>
	<path class="st3" d="M944,381.6c0.7,0,1.4,0,2,0C945.3,382.4,944.7,382.4,944,381.6z"/>
	<path class="st3" d="M950.8,335.2c-0.5-0.6-0.7-1.3-0.1-2C951.2,333.9,951.2,334.5,950.8,335.2z"/>
	<path class="st3" d="M823.2,334c6.8-1.2,13.7-1.2,20.5,0C836.9,334,830.1,334,823.2,334z"/>
	<path class="st3" d="M255,598.3"/>
	<path class="st3" d="M286.9,189.3c-0.1-0.2-0.3-0.4-0.6-0.8c0.4,0.4,0.6,0.6,0.8,0.7C287.1,189.2,286.9,189.3,286.9,189.3z"/>
</g>
<path class="st1" d="M443.5,145.7c0-18.4,0-36.4,0-54.9c8.4,0,16.4,0,25,0c0,18.2,0,36.3,0,54.9
	C460.3,145.7,452.2,145.7,443.5,145.7z"/>
<path class="st1" d="M415.4,146.1c0-18.4,0-36.4,0-54.9c8.4,0,16.4,0,25,0c0,18.2,0,36.3,0,54.9
	C432.2,146.1,424.1,146.1,415.4,146.1z"/>
<path class="st1" d="M387.2,145.7c0-18.4,0-36.4,0-54.9c8.4,0,16.4,0,25,0c0,18.2,0,36.3,0,54.9C404,145.7,395.9,145.7,387.2,145.7z
	"/>
<path class="st1" d="M358.9,146.2c0-18.4,0-36.4,0-54.9c8.4,0,16.4,0,25,0c0,18.2,0,36.3,0,54.9
	C375.7,146.2,367.6,146.2,358.9,146.2z"/>
<path class="st1" d="M330.4,146.2c0-18.4,0-36.4,0-54.9c8.4,0,16.4,0,25,0c0,18.2,0,36.3,0,54.9
	C347.2,146.2,339.1,146.2,330.4,146.2z"/>
<g id="stage">
	<g>
		<rect x="304.4" y="349.8" class="st4" width="48" height="70.5"/>
		<polygon class="st4" points="383.7,320.1 304.4,320.1 304.4,346 355.9,346 355.9,423.5 304.4,423.5 304.4,449.5 383.7,449.5 		"/>
		<polygon class="st4" points="641.1,449.5 720.6,449.5 720.6,423.5 670.3,423.5 670.3,346 720.6,346 720.6,320.1 641.1,320.1 		"/>
		<rect x="673.9" y="349.8" class="st4" width="46.9" height="70.5"/>
		<path class="st4" d="M387.1,354.9v59.9c15.9-0.9,28.9-14,28.9-30.1S403.6,356,387.1,354.9z"/>
		<path class="st4" d="M637.8,414.9V355c-15.9,0.9-28.9,14-28.9,30.1C609.1,401.2,621.7,414.2,637.8,414.9z"/>
		<path class="st4" d="M515.7,332.2v105.5c28.1-1.6,50.9-24.4,50.9-52.7C566.6,356.2,543.9,333.5,515.7,332.2z"/>
		<path class="st4" d="M459.6,384.7c0,28.9,23.5,52.6,52.7,53V331.9C482.8,332.4,459.6,356,459.6,384.7z"/>
		<path class="st4" d="M304.4,260.4v56.3h83v34.8c17.9,0.9,32.6,15.9,32.6,33.8s-14.2,32.6-32.6,33.8v34.8h-83V510h416.4v-56.3h-83
			v-34.8c-17.9-0.9-32.6-15.9-32.6-33.8c0-17.9,14.2-32.6,32.6-33.8v-34.8h83v-56.3L304.4,260.4L304.4,260.4z M515.7,441.4v67.2
			h-3.6v-67.2c-31.2-0.7-56.3-25.7-56.3-56.8c0-31,25.1-56.3,56.3-56.8v-66.8h3.6v67.2c30.4,1.6,54.6,26.5,54.6,56.8
			C570.3,415.2,546.2,440.3,515.7,441.4z"/>
	</g>
</g>
</svg>
