<?xml version="1.0" encoding="utf-8"?>
<!-- Generator: Adobe Illustrator 21.1.0, SVG Export Plug-In . SVG Version: 6.00 Build 0)  -->
<svg version="1.1" id="Laag_1" xmlns="http://www.w3.org/2000/svg" xmlns:xlink="http://www.w3.org/1999/xlink" x="0px" y="0px"
	 viewBox="0 0 1024 768" style="enable-background:new 0 0 1024 768;" xml:space="preserve">
<style type="text/css">
	.st0{fill:#93B8D2;}
	.st1{fill:#ACCA5A;}
	.st2{fill:#F8B65F;}
	.st3{fill:#9E9E9E;}
	.st4{fill:#85BB3E;}
</style>
<g>
	<path class="st0" d="M664.8,655.7c5.1,29.4,10.1,58.3,15.3,88.3c-17.2,6.2-35.6,7.3-54.4,9.2c-3-31.5-6-62.4-9-93.5
		C633.2,658.3,648.6,657,664.8,655.7z"/>
	<path class="st0" d="M625.3,17.4c19,0.8,36.9,3.5,54.5,8c-5,29.7-10.1,59.1-15.1,88.9c-15.9-1.3-31.2-2.5-48-4
		C619.5,79.2,622.4,48.4,625.3,17.4z"/>
	<path class="st0" d="M562,107.9c-17.1,0-32.6,0-48.7,0c0-32,0-63.9,0-95.9c16.5,0,33.3,0,48.7,0C562,44.4,562,76,562,107.9z"/>
	<path class="st0" d="M344.4,745.7c5-29.3,10.1-58.1,15.1-87.4c15.9,1,31,1.8,46.6,2.6c-2.3,31.1-4.4,61.8-6.7,93.1
		C380.7,753.7,362.5,751.2,344.4,745.7z"/>
	<path class="st0" d="M513.8,662.5c16,0,31.1,0,48.2,0c0,31.4,0,63,0,95.3c-15,0-31.5,0-48.2,0C513.8,726.5,513.8,695,513.8,662.5z"
		/>
	<path class="st0" d="M861.1,296c6.2,14.6,9,29.4,9.6,46.4c-38.4,0-76.7,0-115.3,0c0-10.2,0-21.5,0-33.6
		C790.7,304.5,826,300.2,861.1,296z"/>
	<path class="st0" d="M755.3,461.2c0-11.9,0-23.3,0-34c38.4,0,76.5,0,115.2,0c-0.7,16.6-3.4,31.2-9.6,46.6
		C826,469.5,790.8,465.4,755.3,461.2z"/>
	<path class="st0" d="M406,109.7c-15.8,1-30.9,1.9-46.8,2.9C354,83.2,349,54.4,344,25c18.1-6,36.3-7.9,55.2-9.1
		C401.4,47.3,403.7,78.3,406,109.7z"/>
	<path class="st0" d="M571.4,758.8c-1.6-33-3.1-64.4-4.7-96.5c15-0.8,29.6-1.7,44.9-2.5c1.8,20.8,3.7,41.8,5.5,62.7
		c0.5,6,0.4,12.2,1.4,18.1c1.6,8.7,0.8,14.4-10.4,14.6C596.2,755.4,584.2,757.5,571.4,758.8z"/>
	<path class="st0" d="M405.1,755.8c2.9-32.1,5.6-63.3,8.4-94.6c14.8,0,28.9,0,41.8,0c0,32.4,0,64,0,95.8
		C437.6,759.5,422,755.9,405.1,755.8z"/>
	<path class="st0" d="M570.9,13c16.5-1,31.8,0.6,48.1,4c-2.5,30.8-4.9,61.9-7.4,93.5c-14.8-0.7-29.6-1.6-45-2.3
		C568.1,76,569.5,44.4,570.9,13z"/>
	<path class="st0" d="M463.9,662.5c14.7,0,28.9,0,43.5,0c0,31.8,0,63.6,0,95.7c-15.9,0-31.8,0-48.4,0
		C460.7,726.1,462.2,694.6,463.9,662.5z"/>
	<path class="st0" d="M455.4,109.1c-12.9,0-27.3,0-42.3,0c-2.8-31.1-5.6-62.4-8.5-94.5c16.6-0.8,32.6-1.6,50.8-2.5
		C455.4,45,455.4,76.8,455.4,109.1z"/>
	<path class="st0" d="M458.3,12c16.5,0,32.4,0,48.7,0c0,31.5,0,63.4,0,95.9c-14.2,0-28.5,0-43.3,0C461.9,76.3,460.2,44.6,458.3,12z"
		/>
	<path class="st0" d="M685.1,26.6c17.4,2.2,33.5,4.9,49.6,11c-6.8,28-13.6,56-20.7,84.6c-14.4-2.4-28.4-4.7-43-7.1
		C675.7,85.4,680.4,56.2,685.1,26.6z"/>
	<path class="st0" d="M685.4,743c-4.8-29.2-9.5-58.2-14.2-87.9c14.4-2.4,28.1-4.7,42.9-7.2c4.1,16.3,8,32.3,12.1,48.4
		c2.6,10.4,5.1,20.7,7.8,31.1c0.6,2.4,1.7,5.1-1.3,6.1C717.3,737.9,702,742.5,685.4,743z"/>
	<path class="st0" d="M290.2,734.8c6.3-28.4,12.5-55.4,18.6-83c15.2,1.8,29.8,3.6,45.3,5.4c-4.9,29.6-9.7,58.8-14.7,88.9
		C322.9,742.4,306.8,738.7,290.2,734.8z"/>
	<path class="st0" d="M755.8,381.3c0-11.4,0-22,0-34.5c25.1,0,49.7,0,74.1,0c8.9,0,18,0.6,26.6-0.8c13.9-2.4,17.6,4.5,17.6,16.3
		c0,6.2,0,12.3,0,19C834.9,381.3,795.4,381.3,755.8,381.3z"/>
	<path class="st0" d="M874,388.3c1,11.9-0.5,23.5-2.9,34.4c-38.9,0-77.1,0-115.8,0c0-12,0-22.9,0-34.4
		C794.9,388.3,834.2,388.3,874,388.3z"/>
	<path class="st1" d="M553.6,243.5c-13.8,0-26.7,0-40.1,0c0-32.6,0-64.2,0-95.9c14.5,0,28.9,0,44.4,0
		C556.4,180,555,211.7,553.6,243.5z"/>
	<path class="st1" d="M558.1,622.3c-15.1,0-29.7,0-44.7,0c0-31.4,0-63.1,0-95.4c13.3,0,26.3,0,40,0C555,558,556.6,589.4,558.1,622.3
		z"/>
	<path class="st1" d="M601.9,244.5c-13.9,0-27.2,0-41.3,0c1.4-31.8,2.9-63.2,4.4-94.9c14.4,0,28.1,0,42.9,0
		C605.9,181.5,604,213,601.9,244.5z"/>
	<path class="st1" d="M608.2,620.7c-14.8,0-28.6,0-43,0c-1.6-31.2-3-62.6-4.5-94.9c13.8,0,26.9,0,41.2,0
		C603.9,556.5,606,588.1,608.2,620.7z"/>
	<path class="st1" d="M416.3,149.7c14.7,0,28.5,0,43.1,0c1.4,31.5,3,63,4.4,95.3c-13.8,0-26.9,0-40.7,0
		C420.8,213.4,418.7,181.8,416.3,149.7z"/>
	<path class="st0" d="M339,24.6c5,30.2,10.1,59.4,15,88.9c-15.4,1.8-30.2,3.6-45.6,5.5c-6.2-27.4-12.5-54.6-18.9-83.1
		C306.1,32.1,322.4,28.4,339,24.6z"/>
	<path class="st1" d="M658.8,615.6c-14.8,4.5-29.4,4.8-44.8,3.6c-2.8-31.1-5.5-62-8.4-94c12.9-0.8,25.4-1.7,38.4-2.5
		C649,553.7,653.9,584.5,658.8,615.6z"/>
	<path class="st1" d="M644.3,247.1c-13-0.7-25.3-1.4-38.4-2.2c2.8-31.6,5.4-62.5,8.1-93.7c15-0.5,29.7-1.4,44.8,3.2
		C653.9,185.2,649.2,215.8,644.3,247.1z"/>
	<path class="st1" d="M507.5,243.2c-12.7,0.6-25.1,1.2-37.9,1.9c-1.8-32.3-3.5-63.7-5.3-96.4c14.2,0,28.5,0,43.3,0
		C507.5,179.4,507.5,211,507.5,243.2z"/>
	<path class="st1" d="M507.6,622.4c-14.6,0-28.7,0-43.3,0c1.8-32.7,3.5-64.2,5.1-95.5c12.8,0,25.3,0,38.2,0
		C507.6,559.3,507.6,590.9,507.6,622.4z"/>
	<path class="st1" d="M459.6,620.6c-14.8,0-28.6,0-43.2,0c2.2-31.8,4.3-63.4,6.6-95.2c13.6,0,26.8,0,40.9,0
		C462.5,557.4,461,588.8,459.6,620.6z"/>
	<path class="st1" d="M416.5,246.4c-12.2,0-23.7,0-36.2,0c-5-30.6-10.1-61.7-15.2-92.9c15.1-3,30-3,45.6-2.5
		C412.7,182.8,414.6,214.2,416.5,246.4z"/>
	<path class="st1" d="M380.2,524c12.3,0,23.9,0,36.3,0c-1.9,32-3.7,63.6-5.6,95.7c-15.3,0.8-30.3,0.2-45.6-2.4
		C370.3,586,375.3,555,380.2,524z"/>
	<path class="st0" d="M757.1,130.4c-12.8-2.9-24.5-5.5-37.1-8.4c6.7-28.3,13.3-55.7,20-83.4c17.4,4.1,33.8,9.2,49.7,17.8
		C778.8,81.3,768,105.9,757.1,130.4z"/>
	<path class="st0" d="M757.3,639.4c11.1,25.1,21.9,49.6,32.7,74.2c-16.6,8.1-32.7,14-49.8,17.4c-6.8-28-13.4-55.4-20.1-83.1
		C732.8,645,744.9,642.3,757.3,639.4z"/>
	<path class="st0" d="M304.1,650.6c-6.6,27.5-13,54.4-19.5,81.5c-17.7-3.2-34.2-8.9-50.3-18c10.8-23.5,21.7-46.8,32.6-70.4
		C279.2,646,291.4,648.3,304.1,650.6z"/>
	<path class="st2" d="M794.3,58.3c18.2,6.9,34.4,15.3,49.7,26.9c-14.6,19.4-29,38.4-43.9,58.2c-12.5-5.3-24.9-10.1-38.7-12.1
		C772.8,106.2,783.5,82.2,794.3,58.3z"/>
	<path class="st2" d="M761.5,638.3c13.6-2,25.7-5.9,38.3-12.5c14.7,19.4,29.4,38.7,44.4,58.5c-15.2,12-31.7,20.2-49.7,27.1
		C783.7,687.3,772.8,663.2,761.5,638.3z"/>
	<path class="st0" d="M266.6,127.5c-10.9-23.3-21.8-46.7-32.8-70.4c15.7-9.2,32.4-15,50.4-18.3c6.6,27.2,13.2,54.1,19.9,81.8
		C291.6,122.9,279.3,125.1,266.6,127.5z"/>
	<path class="st1" d="M664.5,154.6c13.8,0.5,26.7,2.3,40.3,6.1c-6.9,30.2-13.8,60.2-21,91.1c-11-1.3-21.9-2.6-33.6-4.1
		C655.1,216.6,659.8,185.9,664.5,154.6z"/>
	<path class="st1" d="M704.9,609c-13,4.5-26.3,5.3-40.2,6.9c-4.8-31.1-9.6-62.3-14.5-93.7c11.5-1.4,21.9-2.6,33.5-4.1
		C690.8,548.2,697.8,578.5,704.9,609z"/>
	<path class="st1" d="M340.2,248.8c-6.7-29.6-13.5-58.9-20.4-88.8c13-3.8,26.1-4.9,40.2-6c4.8,31.4,9.6,62.6,14.5,94.8
		C362.9,248.8,351.9,248.8,340.2,248.8z"/>
	<path class="st2" d="M181.1,686.2c14.4-19.2,28.3-37.7,42.4-56.5c12.7,3.8,25,7.5,38.3,11.6c-10.7,23.6-21.3,46.9-32.1,70.8
		C212.5,705.7,196.8,697,181.1,686.2z"/>
	<path class="st2" d="M180.8,84.9c15.2-10.5,31-19.2,48.5-26.2c10.8,23.6,21.5,47,32.4,70.9c-13,4.1-25.7,7.9-38.4,11.9
		C209.2,122.6,195.1,104.1,180.8,84.9z"/>
	<path class="st1" d="M360.2,617.4c-13.9-1.9-26.7-3.7-40.5-5.5c6.9-30.6,13.6-60.2,20.4-90c11.4,0,22.5,0,34.5,0
		C369.8,553.8,365.1,585,360.2,617.4z"/>
	<path class="st1" d="M707.9,254.9c-6.1-1.1-11.9-2.2-18.6-3.4c7.2-30,14.2-60,21.5-90.5c17.1,1.7,32.8,6.6,48.7,13.6
		C742.1,201.9,725.1,228.3,707.9,254.9z"/>
	<path class="st1" d="M759.5,594.8c-15.4,7.8-31.1,11.6-48.4,14.5c-7.3-30.2-14.6-60.5-21.9-90.9c6.5-1.1,12.2-2,18.7-3.1
		C724.9,541.5,742,568,759.5,594.8z"/>
	<path class="st1" d="M335.9,250.8c-8.4-0.6-16.2,7.4-23.3-4.3c-14.7-23.9-31-46.9-46.9-70.9c15.4-7.7,31.1-12.2,48.5-15
		C321.2,190.3,328.4,219.7,335.9,250.8z"/>
	<path class="st1" d="M265.5,595.6c17.2-26,33.6-51.6,51.2-76.3c3.7-5.1,11.7,1.1,19,0.2c-7.4,31-14.5,60.6-21.7,90.5
		C296.8,608.1,281.2,602.7,265.5,595.6z"/>
	<path class="st0" d="M711.8,257.5c18.1-27.9,35.2-54.6,52.4-81c14.2,4.5,26.2,12.1,37.8,21.7c-17,16-33.8,32.3-51.1,47.9
		c-6.9,6.2-11.4,17.2-23.3,15.7C722.6,261.1,717.7,259.1,711.8,257.5z"/>
	<path class="st0" d="M780.3,587c-1.2,0.5-2.3,1-3.5,1.4c-0.8,0.4-1.7,0.7-2.4,1.1c-0.5,0.2-1,0.4-1.3,0.6c-1.7,0.8-3.4,1.6-5.1,2.4
		c-0.8,0.2-1.6,0.4-2.4,0.6c-0.8-0.5-1.8-1.1-2.6-1.6c-16.8-25.9-33.5-51.8-50.5-78.1c10.3-6,19.6-8.7,29.1,1.1
		c8.7,9.1,18.3,17.4,27.5,26c10.1,9.3,20.1,18.8,30.2,28.1c0.7,1.1,1.6,2.2,2.6,3.7c-6.7,4.7-13,9.1-19.4,13.4
		C781.7,586.3,781,586.6,780.3,587z"/>
	<path class="st0" d="M223.9,199.5c11.3-9.9,23.3-17.2,37.7-21.4c16.8,25.6,33.4,51,50.3,76.9c-8.4,6.2-16.5,11.3-25.4,3.2
		C265.5,238.9,245,219.1,223.9,199.5z"/>
	<path class="st2" d="M884.9,119.9c-15.2,14.2-30.3,28.3-45.5,42.6c-10.5-6-21.1-11.9-32.8-18.4c13.4-18.7,26.7-37.4,40.2-56.4
		C861.7,96.3,874.6,106.1,884.9,119.9z"/>
	<path class="st2" d="M885.3,650c-10.8,13.3-23.2,23.3-37.9,32.2c-13.4-18.6-26.8-37.1-40.6-56.1c10.9-6.2,21.2-12.3,31.7-18
		c1-0.5,4,1.9,5.6,3.5C857.9,624.2,871.5,636.9,885.3,650z"/>
	<path class="st2" d="M217.5,627.9c-14,18.7-27.9,37-41.8,55.4c-14.2-8.9-25.5-20.1-36.4-33.3c14.6-13.4,29.2-26.8,43.8-40.1
		C194.6,616,205.7,621.7,217.5,627.9z"/>
	<path class="st0" d="M310.9,517.8c-0.4,0.6-0.8,1.2-1.2,1.8c-0.6,1-1.2,1.9-1.8,2.9c-0.7,1.1-1.4,2.2-2.2,3.2
		c-0.5,0.8-1,1.6-1.4,2.4c-0.2,0.1-0.4,0.2-0.4,0.6c-0.5,0.7-1.1,1.4-1.6,2.3c-0.7,1.2-1.4,2.4-2.2,3.5c-0.5,0.7-1,1.4-1.4,2.2
		c-12.3,18.7-24.7,37.4-37.4,56.4c-13.9-5-27.3-10.5-38.1-21.7c1.9-1.7,3.7-3.2,5.6-4.8c8.5-8.1,17-16.2,25.5-24.3
		c9.7-9.1,19.3-18.2,29-27.2c0.7-0.6,1.4-1.2,2.3-1.8c2.8-2.6,5.5-5.4,9.9-4.1c2.5,0.4,5,0.6,7.5,1c0.7,0.5,1.6,0.8,2.3,1.3
		c0.8,0.5,1.6,1,2.4,1.3c0.4,0.2,0.7,0.5,1.2,0.7C309.7,515,310.3,516.4,310.9,517.8z"/>
	<path class="st2" d="M981.2,339.1c-20.5,0-40.5,0-61.4,0c-3.2-11.1-6.8-23.2-10.5-35.8c22-3.5,43.1-6.8,64-10.2
		C978.7,308.2,981,322.7,981.2,339.1z"/>
	<path class="st0" d="M753.5,464.4c36.2,4.3,70.8,8.5,106.1,12.8c-2.2,12.7-6.5,24.1-12.9,35.9c-14.8-5.5-29.4-10.9-44.1-16.3
		c-13.6-5-27.2-11-41.2-15.1C750.6,478.6,756.5,470.9,753.5,464.4z"/>
	<path class="st0" d="M754.9,290.9c30.3-11.4,60.6-22.7,91.5-34.4c7.1,10.8,9.9,22.9,14,35.7c-35.2,4.4-70.2,8.7-105.5,13
		C754.9,300.3,754.9,296.2,754.9,290.9z"/>
	<path class="st2" d="M175.5,87.7c14.1,18.7,28,37,42,55.5c-11.6,6.1-22.7,12-34.6,18.2c-14.2-13.2-29-26.6-43.7-40.2
		C149.8,108.1,161.3,96.9,175.5,87.7z"/>
	<path class="st2" d="M981,429.7c-0.7,17.6-2.4,32.4-8.1,46.8c-21.3-3.4-42-6.6-63.7-10.1c3.5-12.3,6.7-23.7,10.2-35.1
		c0.2-0.7,1.7-1.6,2.6-1.6C941.4,429.7,961.1,429.7,981,429.7z"/>
	<path class="st2" d="M148.9,423c-0.5,1.1-1,2.2-1.4,3.2c-6.6,0-13.2,0-19.6,0c-0.6,0.2-1.3,0.5-1.9,0.8c-15.4,0-30.8,0-46.6,0
		c0-13.4,0-26.2,0-40.3c17.6,0,35,0,52.3,0c4.5,0,9.1,0,13.6,0.1c0.1,2.4,0.4,4.8,0.5,7.2c0.4,3.5,0.6,6.8,1,10.3
		c0.1,1.9,0.4,3.8,0.5,5.7"/>
	<path class="st0" d="M260.8,303.4c-0.6-0.1-1.2-0.1-1.8-0.2c-1-0.1-1.9-0.2-2.8-0.2c-1.9-0.1-3.8-0.4-5.7-0.5
		c-2.5-0.4-4.9-0.7-7.4-1.1c-3.6-0.4-7.2-0.7-11.1-1.1c-0.1,2.5-0.2,4.4-0.5,6.9c-1.1,0-2.2,0.1-3.4,0.1c-1.3-0.4-2.8-0.7-4.1-1.2
		c-0.8-0.1-1.8-0.1-2.6-0.2c-8-1.9-16.3-3.5-24.2-5.9c-9.9-3-21.3-1.2-30-8.4c0.1-0.8,0.2-1.7,0.4-2.6c1.8-1.6,2.8-3.5,1.6-5.9
		c0.1-0.6,0.1-1.2,0.2-1.7c0.4-0.7,0.7-1.6,1.1-2.3c2-5.5,4.2-10.9,6.2-16.4c1.2-1.4,2.2-3,3.1-4.5c1,0.4,2,0.6,3,1
		c1.3,0.6,2.8,1.1,4.1,1.7c1.2,0.4,2.3,0.7,3.5,1.1c26.3,10.2,52.8,20.5,79.1,30.6c0,3.6,0,7.3,0,11.3"/>
	<path class="st2" d="M144.5,384.4c-21.3,0-43,0-64.8,0c-0.1-0.1-0.2-0.4-0.5-0.5c0.1-12.9,0.2-25.9,0.4-38.8l0.1-0.1
		c9.8-0.1,19.5-0.1,29.3-0.2c11.6,0.1,23.3,0.1,35,0.5c1.8,0,3.6,1.2,5.4,1.8c-0.1,1-0.2,1.9-0.4,3"/>
	<path class="st0" d="M165.7,474.2c-2.4-7.9-4.8-15.9-7.3-23.8c-0.2-1-0.5-1.9-0.7-2.9c-0.4-3.4-0.7-6.8-1.1-10.2
		c-0.2-1-0.5-1.9-0.6-2.9c0-1.6-0.1-3.1-0.1-4.8c2.9-0.2,5.6-0.5,8.5-0.8c11.1-0.2,22.4-0.5,33.5-0.7c10.8-0.2,21.5-0.5,32.2-0.7
		c0.5,10.4,0.8,20.8,1.3,31.2c-1,0.7-1.8,1.8-2.9,2C207.7,465.2,186.6,469.7,165.7,474.2z"/>
	<path class="st2" d="M957.7,523.4c-20.1-6.8-40.2-13.5-60.9-20.5c4-10.4,8.6-20,10.1-32c21.8,3.2,43.1,6.2,64.9,9.5
		C969.7,495.3,964.7,508.8,957.7,523.4z"/>
	<path class="st2" d="M908.3,298.5c-3.6-10.5-7.2-20.6-11-31.8c20.2-6.9,40.3-13.8,60.3-20.6c7.3,13.9,11.9,27.7,14.6,42.7
		C951.1,292,930,295.2,908.3,298.5z"/>
	<path class="st2" d="M877.9,230.8c20.8-9.2,40.6-18,60.6-26.8c8.1,11.1,12.8,23.6,18,37.6c-20.7,6.8-41.4,13.8-62.8,20.8
		C890,250.9,884.5,240.9,877.9,230.8z"/>
	<path class="st2" d="M956.3,527.8c-4.9,13.9-9.8,26.2-17.7,37.7c-20-8.9-39.7-17.6-60.8-26.9c6.6-10.2,12.3-20.1,15.4-31.6
		C914.6,514.2,935.3,520.9,956.3,527.8z"/>
	<path class="st0" d="M229.6,309.8c0.7,0.6,1.6,1.1,2.3,1.6c0.1,8.7,0.1,17.6,0.2,26.3c-0.6,1.7-1.3,3.4-1.9,5
		c-11.7,0-23.5,0-35.1,0c-5.3,0-10.5-0.1-15.8-0.1c-6.6-0.2-13.3-0.4-19.9-0.6c-0.8-0.1-1.8-0.1-2.6-0.2c0.1-3,0.2-6,0.4-9
		c0.1-1.8,0.2-3.6,0.4-5.5c0.5-3.2,1-6.3,1.4-9.6c0.1-0.6,0.2-1.2,0.4-1.7c1-2.5,1.8-5,2.8-7.7c0.1-0.6,0.2-1.2,0.4-1.7
		c0.5-1.3,1-2.6,1.4-4c0.5-1.8,1-3.6,1.4-5.4"/>
	<path class="st2" d="M49.6,292.8c21.4,3.1,42.6,6.1,64,9.2c-3.5,13.2-6.7,25.4-9.6,36.4c-20.9,0-41.4,0-62.5,0
		C42.4,322.1,44.3,307.7,49.6,292.8z"/>
	<path class="st0" d="M256.2,468c4.1-0.4,8.3-0.7,13.2-1.2c-1,4.4,1.8,8.7-1.9,12.5c-8.7,3.5-17.5,6.9-26.2,10.4
		c-12.5,4.7-24.8,9.7-37.4,13.8c-8.6,2.8-16.3,8.9-26,8.1c-1.2-2.9-2.5-5.6-3.7-8.5c-1-2-2-4.1-3-6.1c-0.2-1.1-0.5-2.2-0.7-3.2
		c-0.8-3.2-1.7-6.3-2.5-9.6c-0.2-0.8-0.4-1.8-0.6-2.6c0-1.3,0-2.6,0-4.4c21.1-4.4,42-8.7,62.8-13c0.7,3,1.2,5.4,1.8,8.4
		c3.5-1,6.3-1.7,9.1-2.4c1.6-0.1,3-0.2,4.5-0.2C249.3,469.1,252.7,468.5,256.2,468z"/>
	<path class="st2" d="M103.6,433.2c3.1,11.3,6.5,23.5,9.8,36c-21.7,3.1-43,6.2-64.2,9.2c-5.1-14.5-7.2-29.1-8.1-45.4
		C62,433.2,82.6,433.2,103.6,433.2z"/>
	<path class="st0" d="M196.6,378.1c-0.1,1.8-0.2,3.7-0.2,5.5c-14.8-0.2-29.7-0.5-44.5-0.8c0-2.9,0.1-5.6,0.1-8.5
		c0.6-6.3,1.1-12.6,1.7-18.9c0.1-1.2,0.1-2.4,0.2-3.6c0.6-1.9,1.1-3.8,1.7-5.7l0.1-0.1c12.9,0,25.9-0.1,38.8,0.1
		c12.6,0.2,25,0.7,37.6,1.1c0,9.3,0,18.8,0.1,28.1c-6.8,0.4-13.8,0.4-20.6,1.2"/>
	<path class="st2" d="M861.2,571.2c19,12.7,36.2,24.1,53.5,35.7c-7.2,14.1-15.4,27.1-27.1,39.3c-13.2-14.4-26.1-28.6-39.5-43.3
		C856.3,596.2,864.7,587.1,861.2,571.2z"/>
	<path class="st2" d="M914.9,162.7c-17.4,11.6-34.5,23-53,35.3c1.4-14.6-3.8-25-14.8-31.5c14-14.2,27.5-28,41.3-42
		C900.4,134.8,906.9,149,914.9,162.7z"/>
	<path class="st2" d="M875,541.1c21.2,9.5,41.5,18.6,62,27.8c-4.9,13-10.9,24.7-20.8,35.1c-18.1-12.2-35.9-24.2-53.2-35.8
		C860.5,555.6,871.4,550.2,875,541.1z"/>
	<path class="st2" d="M145.9,230.2c-5.9,11.3-11.5,21.9-17.4,33c-19.9-6.9-39.7-13.8-60.2-20.8c3.2-13.6,8.1-26.2,16.6-37.8
		C105.2,213.1,125.4,221.6,145.9,230.2z"/>
	<path class="st2" d="M875.8,228.1c-4.1-5.1-8.5-9.2-11.1-14.4c-2.5-4.9-4.4-10.5,2.4-15c16.4-10.8,32.4-21.9,49.7-33.6
		c6.9,11.7,13.8,23.1,20.9,35.2C916.5,209.9,896.1,219.1,875.8,228.1z"/>
	<path class="st2" d="M50.1,482.7c13.9-2.2,27.2-4.2,40.5-6.2c3.7-0.6,7.4-0.8,11-1.7c23.6-5.7,16.2,16.8,23.5,25.7
		c0.8,1,0.7,2.6,1.2,4.3c-20,6.6-39.9,13-60.1,19.6C58.6,511.8,54.8,497.7,50.1,482.7z"/>
	<path class="st0" d="M153.8,420.2c-0.1-1.2-0.2-2.4-0.4-3.6c-0.6-4.4-1.1-8.9-1.7-13.3c0-2.2-0.1-4.3-0.1-6.5
		c0.1-2.9,0.4-5.9,0.5-8.7c14.8,0,29.2,0,43.6,0c0,2.4,0,4.2,0,6.6c11.7,0,23.1,0,34.7,0c0,10.4,0,20.1,0,29.9
		c-5.9,0.2-11.3,0.5-16.6,0.7c-19.2,0-38.4,0-57.6,0C155.5,423.7,154.7,422,153.8,420.2z"/>
	<path class="st2" d="M941.9,381.7c-20.5,0-40.7,0-61.7,0c-1-11-2-22.6-3.1-34.4c6.8-3.5,14-1.6,20.8-1.9
		c12.7-0.7,25.5-1.2,38.3-1.8c2.6-0.1,5.5,0.1,5.5,3.5C942,358.1,941.9,369.1,941.9,381.7z"/>
	<path class="st2" d="M126.8,266.6c-3.8,10.9-7.4,20.8-11.3,31.7c-21.4-3.1-43.1-6.2-65.2-9.5c4.3-14.5,8.4-28.5,15.7-41.9
		C86.3,253.6,106.3,260,126.8,266.6z"/>
	<path class="st2" d="M84.8,567c-8-11.9-12.8-24.1-16.8-37.8c20.4-7.1,40.5-14.1,60.5-21.1c6,11.1,11.5,21.7,17.5,32.9
		C125.5,549.6,105.1,558.3,84.8,567z"/>
	<path class="st2" d="M941.2,424.1c-21.8,0-42.7,0-64.2,0c1-12.7,1.9-24.3,2.8-36.2c20.5,0,40.9,0,61.4,0
		C941.2,400.6,941.2,412.6,941.2,424.1z"/>
	<path class="st2" d="M160.6,574.4c-4.2,17.8,8.1,23.5,18.7,31.8c-14.2,13.4-28.3,26.5-42.6,39.9c-10.4-10.8-18.1-22.7-25.7-35.9
		C126.7,598.7,142.6,587.3,160.6,574.4z"/>
	<path class="st0" d="M827.6,225c8.3,8.5,13.2,17.8,16.2,28.9c-30.2,11.5-59.9,22.7-90.1,34.2c-2-2.5-4-4.9-6.7-8.4
		C774.1,261.4,800.7,243.3,827.6,225z"/>
	<path class="st0" d="M843.9,516c-3.7,11.3-8.3,20.8-16.3,28.9c-26.7-18-53.2-35.9-80.4-54.4c1.9-2.9,3.7-5.6,5.9-8.9
		C783.4,493.1,813.5,504.5,843.9,516z"/>
	<path class="st2" d="M136,124.9c14.5,13.4,28.6,26.3,43.1,39.7c-9.1,8.7-23.6,13.8-17.5,32.9c-18.4-13.2-34.5-24.5-50.8-36.2
		C117.6,148.1,126.2,136.5,136,124.9z"/>
	<path class="st0" d="M269.5,479.7c5.9,0.6,3,5.7,6,9.3c-25.7,17.7-51,35.2-76.3,52.7c-2.2,1.4-3.1,0-4.3-1.2
		c-0.7-1.1-1.4-2.2-2.2-3.2c-0.5-0.8-1.1-1.6-1.6-2.4c-0.5-0.7-1-1.4-1.4-2c-0.7-1.2-1.4-2.4-2.2-3.6c-0.5-0.7-1-1.6-1.4-2.3
		c-0.6-1.1-1.1-2.2-1.7-3.4c-0.5-0.7-0.8-1.4-1.3-2.3c-0.6-1.1-1.1-2.3-1.7-3.4c1-1.1,1.8-2.6,3-3.2c11.1-4.7,22.6-8.6,33.4-13.9"/>
	<path class="st2" d="M148.8,225.9c-21.1-8.7-41.4-17.2-62.7-26.2c7.1-11.6,13.9-22.6,21.2-34.4c17.4,12.3,35.8,22.7,50.6,37.1
		C165.6,209.8,154.6,218.9,148.8,225.9z"/>
	<path class="st2" d="M158.5,569.7c-16.6,11.7-33.6,23.7-51.2,36.2c-7.1-11.4-13.8-22.1-21.3-34c21.2-9,41.9-17.7,62.8-26.6
		C154.8,552.6,162.2,558.5,158.5,569.7z"/>
	<path class="st0" d="M194.8,261.4c-4.8-2-9.6-4-15-6.2c6-9.5,11.4-18.1,17-27.1c26.2,17.8,51.7,35.1,77.1,52.4
		c0.1,1.3,0.2,2.5,0.5,3.8c-1.3,2.3-2.6,4.5-4,6.7C245.2,281.2,220.1,271.3,194.8,261.4z"/>
	<path class="st2" d="M193.6,550.5c7.3,7.1,14.2,13.8,20.2,19.5c-9.6,10.3-19,20.6-28.7,30.6c-1.7,1.8-4,0.6-5.9-0.8
		c-8.1-6.1-18.4-11.4-14.4-24.1c3.7-11.7,16.8-14.2,24.5-22.1C190.6,552.2,192.3,551.3,193.6,550.5z"/>
	<path class="st2" d="M193.7,222.2c-8.4-12.9-30-12.7-29.3-33c0.5-11.3,10.9-14.2,18.7-20.4c10.9,10.2,21.3,20.1,32,30.2
		C208.1,206.5,201.6,213.6,193.7,222.2z"/>
	<path class="st2" d="M75.7,343.7c0,13.4,0,26.1,0,39.3c-12.1,0-23.7,0-35.6,0c0-13.4,0-26.2,0-39.3
		C52.2,343.7,63.8,343.7,75.7,343.7z"/>
	<path class="st1" d="M409.9,624c-0.7,11-1.4,20.4-2,29.2c-16.2,0-32,0-48.7,0c1.7-11,3-20.5,4.3-29.2C379,624,394.1,624,409.9,624z
		"/>
	<path class="st2" d="M219.2,196.4c-10.5-9.9-21.2-19.8-32.3-30.3c10.7-7.8,21.4-13.6,33.6-18.6c7.8,10.2,15.7,20.6,23.8,31.1
		C235.9,184.6,228,190.3,219.2,196.4z"/>
	<path class="st2" d="M190,607.5c9.1-10.4,17.7-20.5,26.5-30.4c1.4-1.7,3.2-2.6,5.3-1.1c7.3,5.5,14.6,11.1,22.3,17
		c-7.7,10.1-15.3,20.1-23.2,30.5C208.8,618.7,197.8,612.8,190,607.5z"/>
	<path class="st1" d="M363.5,148.4c-1.4-9.6-2.8-19.3-4.4-30.6c16.5,0,32.2,0,48.6,0c0.6,8.6,1.3,18.1,2,28.1
		C394,146.7,379,147.5,363.5,148.4z"/>
	<path class="st2" d="M40,388.6c12,0,23.3,0,35.3,0c0,13.2,0,26.1,0,39.7c-11.6,0-23.2,0-35.3,0C40,415.4,40,402.4,40,388.6z"/>
	<path class="st2" d="M149.9,430.8c1.9,9.9,3.7,19.9,5.6,29.6c-10.7,2.6-20.8,5.3-31.1,7.5c-10.9,2.4-8.7-7.7-10.5-12.7
		c-2.9-7.4-3.7-15.6-5.6-24.4C122.1,430.8,135.9,430.8,149.9,430.8z"/>
	<path class="st1" d="M660,621.7c1.6,10.2,3.1,19.9,4.8,30c-16.3,0.8-31.8,1.8-48.2,2.6c-0.7-10.2-1.3-19.5-2-29.7
		C629.7,623.7,644.4,622.8,660,621.7z"/>
	<path class="st2" d="M108.1,340.6c3.2-12.8,5.6-24.1,9-35.2c1.4-4.9,5.6-2,8.9-1.4c9.9,2.2,19.8,4.4,29.9,6.7
		c-2,10.7-4,20.5-5.7,29.8C136.5,340.6,123,340.6,108.1,340.6z"/>
	<path class="st2" d="M982.9,388c0,13,0,25.6,0,38.1c-11.9,0-23.3,0-35.6,0c0-13.2,0-25.4,0-38.1C958.9,388,970.7,388,982.9,388z"/>
	<path class="st1" d="M616.1,115.9c16.6,1,32.1,1.8,48.6,2.6c-1.7,10.2-3.2,19.8-4.9,29.7c-15.4-1-30-1.8-45.3-2.8
		C615.1,135.8,615.6,126.3,616.1,115.9z"/>
	<path class="st2" d="M832.7,217.9c-7.7-7.2-14.5-13.6-20.4-19.2c8.9-9.7,18.3-20,27.7-30.2c13.3,5.7,20.2,16.8,17.8,28.7
		C855.3,209.6,839.3,210.8,832.7,217.9z"/>
	<path class="st2" d="M947.8,343.4c11.6,0,22.9,0,34.8,0c0,12.2,0,24.9,0,37.9c-11.5,0-23,0-34.8,0
		C947.8,368.7,947.8,356.5,947.8,343.4z"/>
	<path class="st1" d="M559.4,628.4c0.5,8.9,1,18,1.6,28c-16.3,0-31.7,0-47.5,0c0-9,0-18.1,0-28C528.6,628.4,543.5,628.4,559.4,628.4
		z"/>
	<path class="st2" d="M833.1,552.4c6.9,5.4,21.4,8.3,24.5,18.7c3.6,11.7-3.8,23.3-16.5,29.9c-9.9-9.2-20.2-18.8-31.6-29.2
		C817.4,565.2,824.8,559.1,833.1,552.4z"/>
	<path class="st1" d="M513.5,113.9c15.9,0,31.1,0,47.2,0c-0.5,9.6-1,18.8-1.4,28.4c-15.3,0-30.4,0-45.7,0
		C513.5,132.7,513.5,123.5,513.5,113.9z"/>
	<path class="st1" d="M356.9,148.7c-13.9,2.2-27.2,4.1-40.5,6.1c-2.5-10.5-4.9-20.5-7.3-30.6c14.8-4,29.8-5,45.1-4.5
		C355.1,129.9,356,139.3,356.9,148.7z"/>
	<path class="st1" d="M414.6,143.4c-0.7-8.9-1.4-18.1-2.2-28c15.3-0.7,29.8-1.4,45.1-2.3c0.5,10.2,1,19.6,1.6,30.2
		C444,143.4,429.8,143.4,414.6,143.4z"/>
	<path class="st1" d="M565.7,113.8c15.9-0.6,30.8-0.4,46.1,2c-1.1,9.3-2,18.6-3.2,29c-14.4-0.6-28.5-1.3-42.9-1.9
		C565.7,132.8,565.7,123.6,565.7,113.8z"/>
	<path class="st1" d="M354.4,650.9c-15.3,0.6-30-0.4-44.9-4.3c2.3-10.1,4.5-19.9,7.1-30.5c13.2,1.9,26.5,3.8,40.5,5.9
		C356,631.5,355.2,641.1,354.4,650.9z"/>
	<path class="st1" d="M412.6,655.2c0.7-9.8,1.6-19.2,2.3-28.6c14.6,0,28.9,0,43.1,0c0,10.5,0,20.2,0,30.6
		C442.5,656.5,428,655.9,412.6,655.2z"/>
	<path class="st2" d="M781.2,178.6c6.9-9.7,13.3-18.7,19.8-27.5c0.6-0.8,2.3-2,2.9-1.8c11.1,4.2,22.1,8.5,31.6,16.3
		c-10.1,9.8-19.8,19.4-29.9,29.2C798,189.9,789.8,184.4,781.2,178.6z"/>
	<path class="st2" d="M836.6,603.7c-10.8,7.9-22,12.9-34.1,17.2c-7.2-10.1-14.2-19.9-21.3-29.8c8.6-5.7,16.4-10.9,24.7-16.3
		C816,584.2,825.9,593.7,836.6,603.7z"/>
	<path class="st1" d="M565.9,627c14,0,27.9,0,42.7,0c1.1,8.7,2.2,18.2,3.4,28.6c-15.4,0-30.3,0-46.1,0
		C565.9,646.8,565.9,637.6,565.9,627z"/>
	<path class="st0" d="M786.7,248.9c-5.3-5.9-10.4-11.5-15.9-17.7c11.6-10.8,22.7-21.1,34.1-31.6c8.4,6.7,15,14.4,21.1,23.2
		C812.8,231.6,800.1,239.9,786.7,248.9z"/>
	<path class="st0" d="M771.9,536.5c4.7-4.9,9.3-9.9,14.7-15.6c12.7,8.4,25.3,16.6,37.9,25c0.1,1,0.2,1.9,0.5,2.9
		c-6.3,6.9-12.7,14-18.9,20.9c-0.7-0.1-1.3-0.2-2-0.4c-0.7-0.6-1.4-1.2-2.2-1.8c-5.4-5.1-11.1-9.9-16-15.6
		C781.2,546.9,773.5,544.4,771.9,536.5z"/>
	<path class="st1" d="M508,628.5c0,9.5,0,18.3,0,28c-14.8,0-29.2,0-43.9,0c0-8.9,0-18.3,0-28C478.6,628.5,493,628.5,508,628.5z"/>
	<path class="st1" d="M464,113.8c14.6,0,28.7,0,43.3,0c0,9.6,0,18.8,0,28.5c-14.4,0-28.6,0-43.3,0C464,132.9,464,123.6,464,113.8z"
		/>
	<path class="st2" d="M797.4,147.6c-21.3,32.1-23.1,32.7-50.5,16.9c3.8-9.5,7.8-19.2,12-29.2C772.3,137.8,785.1,141.4,797.4,147.6z"
		/>
	<path class="st2" d="M797.8,622.1c-12.7,6.2-25,10.2-38.7,12.1c-4.1-9.6-8.1-19.2-12.6-29.2c9.9-4.2,19.6-8.3,29.7-12.5
		C783.4,602.4,790.5,612,797.8,622.1z"/>
	<path class="st2" d="M263.5,134.1c5,11.1,9.6,20.9,14.1,31c-10.3,4-19.8,7.4-29.9,11.3c-6.9-9.6-14-19.3-21.8-30.2
		C238.8,142,250.8,138.2,263.5,134.1z"/>
	<path class="st1" d="M713.2,643.4c-14.4,3.4-28.1,6-43.1,6.1c-1.3-8.7-2.8-17.8-4.2-27.1c13.9-2.6,27.1-5.1,40.6-7.7
		C708.6,624.2,710.8,633.3,713.2,643.4z"/>
	<path class="st0" d="M235.5,249.2c-12.1-8.4-23.7-16.4-35.7-24.5c5.6-8.7,11.9-16.4,20.5-22.9c10.5,9,21.1,18.1,32,27.4
		C246.5,236,241.2,242.2,235.5,249.2z"/>
	<path class="st2" d="M904,465.7c-11.5-1.8-22.3-3.6-33.2-5.3c1.8-11.1,3.4-21.2,5-31.2c12.8,0,24.9,0,38.1,0
		C910.6,441.4,907.3,453,904,465.7z"/>
	<path class="st1" d="M713.2,125.8c-2.4,10.5-4.5,20-6.7,29.1c-12.9-2-24.9-3.8-36.8-5.7c-2.6-0.5-3.7-2.2-3.4-4.7
		c1.1-7.9,2.3-15.9,3.6-24.7C684.2,121.8,697.9,123.7,713.2,125.8z"/>
	<path class="st2" d="M263.6,636.9c-12.8-4.1-24.7-7.8-37.5-11.9c7.5-10.7,14.1-19.9,21.4-30.2c9.6,3.5,19.4,7.1,30.3,11
		C272.8,616.6,268.4,626.4,263.6,636.9z"/>
	<path class="st0" d="M231.8,560.3c-15.2,10.1-17.7,9-31.8-13.8c11.6-8,23.3-16.2,35.3-24.5c3.7,4.4,7.3,8.5,10.8,12.7
		c0.6,0.7,1.1,1.4,1.7,2c1.2,1.4,2.4,2.9,3.6,4.4C244.8,547.5,238.2,553.9,231.8,560.3z"/>
	<path class="st2" d="M914.2,340.1c-13.4,0-25.5,0-37.5,0c-4.4-9.6-2.9-19.9-5.4-30.8c11-1.9,21.7-3.7,32.8-5.5
		C907.6,316.1,910.7,327.7,914.2,340.1z"/>
	<path class="st2" d="M179.5,245.1c-4.4,10.3-8.5,20-13.2,30.9c-10.3-3.7-20.5-7.3-31.8-11.4c4.4-11.9,9.9-22.3,16.6-32.2
		C160.8,236.8,170,240.9,179.5,245.1z"/>
	<path class="st2" d="M150.1,539.2c-5.1-9.9-9.7-18.8-14.2-27.5c-1.6-2.9-0.6-4.8,2.3-5.9c9-3.5,18-6.8,27.8-10.7
		c4.4,10.2,8.9,20.2,13.5,31.1C169.8,530.5,160.2,534.7,150.1,539.2z"/>
	<path class="st1" d="M281.1,607.6c10.3,2.4,20.6,4.9,31.5,7.4c-2.5,10.4-4.9,20.2-7.7,31.4c-12-2.8-23.6-5.4-35.4-8.1
		C270.3,626.9,276.8,618.2,281.1,607.6z"/>
	<path class="st1" d="M280.9,163.6c-4.3-10.4-8.3-20-12.6-30.5c12.9-3.1,24.4-5.9,36.5-8.9c2.6,10.8,5,20.6,7.8,31.4
		C301.9,158.3,291.5,160.9,280.9,163.6z"/>
	<path class="st2" d="M120.2,299.1c4.1-10.3,7.8-19.6,11.9-29.8c11.1,4.1,21.5,7.8,32.6,11.7c-2.5,9-5,17.6-7.7,26.7
		C145,304.9,133.3,302.1,120.2,299.1z"/>
	<path class="st2" d="M164.5,490c-10.8,4-21.3,7.9-32.7,12.2c-3.8-9.9-7.5-19.6-11.5-29.9c12.8-3,24.4-5.7,36.4-8.5
		C159.4,472.7,161.7,480.8,164.5,490z"/>
	<path class="st1" d="M755.3,635.6c-12.9,2.5-24.8,4.9-36.9,7.3c-2.6-10.3-4.9-19.6-7.3-29.2c10.5-2.3,20.7-4.5,31.8-6.9
		C746.7,615.5,750.6,624.8,755.3,635.6z"/>
	<path class="st1" d="M711,155.7c2.4-9.5,4.8-18.6,7.4-28.6c12.2,2.4,23.9,4.8,35.7,7.1C751.7,158.2,734,167,711,155.7z"/>
	<path class="st2" d="M860,495c9.3,2.9,18.8,5.9,28.6,9c-3.7,12.2-9.3,22.7-16.5,32.6c-8.7-3.4-16.9-6.6-26-10.1
		C850.7,516.1,855.3,505.9,860,495z"/>
	<path class="st2" d="M888.8,265.2c-9.8,3.1-19.3,6.2-28.9,9.3c-4.7-10.7-9-20.5-13.8-31.4c8.7-3.4,17.2-6.6,26-9.9
		C879.7,242.8,884.9,253.1,888.8,265.2z"/>
	<path class="st2" d="M861.7,492.9c2.8-9.5,5.4-18.4,8.3-28.6c10.4,1.6,21.3,3.1,32.2,4.7c-0.7,11.9-6.8,21.2-10.3,32.2
		C881.8,498.4,872.1,495.6,861.7,492.9z"/>
	<path class="st2" d="M892.1,268.2c3.8,11,7.4,21.3,11.3,32.3c-11.6,1.7-22.5,3.2-33.3,4.8c-2.9-9.7-5.5-18.4-8.5-28.1
		C871.8,274.2,881.7,271.3,892.1,268.2z"/>
	<path class="st2" d="M154.3,542.2c7.3-7.4,18.8-6.8,27.1-13.8c3.7,6.6,6.9,12.6,10.8,19.5c-8.4,5.6-16.9,11.4-26.6,17.8
		C167.4,554.3,154.6,552.2,154.3,542.2z"/>
	<path class="st2" d="M181.7,242.3c-9.6-4.5-18.8-8.9-28.4-13.4c4.3-8.1,13.4-12.5,12.3-23.8c8.7,7.5,19.4,9.7,26.1,18.8
		C188.6,229.6,185.5,235.4,181.7,242.3z"/>
	<path class="st2" d="M868.5,230.8c-7.5,3.1-15.4,6.3-24.1,9.9c-3.7-6.5-6.9-12.3-10.8-19.2c8.1-5.3,15.8-10.2,24.7-15.8
		C857.8,216.2,867.7,220.7,868.5,230.8z"/>
	<path class="st2" d="M858.4,563.6c-8.6-5.3-16.2-9.9-24.3-15c3.6-6.8,6.9-13.2,10.5-19.9c8.1,3.5,16,6.8,23.3,9.9
		C868.5,548.9,858.1,553.3,858.4,563.6z"/>
	<path class="st0" d="M771.9,536.5c1.6,7.9,9.2,10.3,13.8,15.6c4.9,5.6,10.7,10.4,16,15.6c-0.8,0.4-1.7,0.7-2.5,1.1
		c-10.1-9.3-20.1-18.8-30.2-28.1C770,539.2,771,537.9,771.9,536.5z"/>
	<path class="st0" d="M159.5,342.1c6.6,0.2,13.3,0.4,19.9,0.6C172.8,342.4,166.1,342.3,159.5,342.1z"/>
	<path class="st0" d="M159,317.9c-0.5,3.2-1,6.3-1.4,9.6C158,324.2,158.5,321,159,317.9z"/>
	<path class="st3" d="M243.2,301.2c2.5,0.4,4.9,0.7,7.4,1.1C248.1,302.1,245.7,301.6,243.2,301.2z"/>
	<path class="st0" d="M162,308.5c-1,2.5-1.8,5-2.8,7.7C160.2,313.6,161.2,311,162,308.5z"/>
	<path class="st0" d="M169.2,283.4c1.3,2.4,0.4,4.2-1.6,5.9C168.2,287.2,168.7,285.3,169.2,283.4z"/>
	<path class="st0" d="M171.2,496.8c1,2,2,4.1,3,6.1C173.2,500.9,172.2,498.9,171.2,496.8z"/>
	<path class="st3" d="M768,592.5c1.7-0.8,3.4-1.6,5.1-2.4C771.3,590.9,769.7,591.8,768,592.5z"/>
	<path class="st0" d="M179.7,258.3c-1,1.6-2,3.1-3,4.7C177.2,261.1,176.4,258.4,179.7,258.3z"/>
	<path class="st0" d="M163.9,302.9c-0.5,1.3-1,2.6-1.4,4C162.9,305.4,163.4,304.1,163.9,302.9z"/>
	<path class="st3" d="M763,591.5c0.8,0.5,1.8,1.1,2.6,1.6c-0.5,0.4-1.1,0.7-1.6,1.1C763.7,593.3,763.3,592.5,763,591.5z"/>
	<path class="st0" d="M192.8,537.2c0.7,1.1,1.4,2.2,2.2,3.2C194.2,539.3,193.5,538.3,192.8,537.2z"/>
	<path class="st0" d="M149.1,350.1c0.1-1,0.2-2,0.4-3C149.3,348,149.2,349,149.1,350.1z"/>
	<path class="st3" d="M260.9,303.4"/>
	<path class="st3" d="M256.2,302.9c1,0.1,1.9,0.2,2.8,0.2C258.1,303.1,257.2,303,256.2,302.9z"/>
	<path class="st0" d="M186.9,260.9c-1.3-0.6-2.8-1.1-4.1-1.7C184.1,259.8,185.5,260.3,186.9,260.9z"/>
	<path class="st0" d="M157.7,447.4c0.2,1,0.5,1.9,0.7,2.9C158.3,449.4,157.9,448.5,157.7,447.4z"/>
	<path class="st0" d="M825,548.8c-0.1-1-0.2-1.9-0.5-2.9c0.6,0.5,1.2,1,1.8,1.4C825.8,547.8,825.3,548.3,825,548.8z"/>
	<path class="st3" d="M307.9,522.5c0.6-1,1.2-1.9,1.8-2.9C309.1,520.5,308.5,521.5,307.9,522.5z"/>
	<path class="st3" d="M304.2,528.1c0.5-0.8,1-1.6,1.4-2.4C305.2,526.5,304.7,527.4,304.2,528.1z"/>
	<path class="st0" d="M183.3,521.3c0.5,0.7,0.8,1.4,1.3,2.3C184.1,522.8,183.7,522,183.3,521.3z"/>
	<path class="st0" d="M186.2,526.8c0.5,0.7,1,1.6,1.4,2.3C187.1,528.3,186.6,527.6,186.2,526.8z"/>
	<path class="st3" d="M302.3,531c0.5-0.7,1.1-1.4,1.6-2.3C303.4,529.4,302.9,530.2,302.3,531z"/>
	<path class="st0" d="M231.9,311.4c-0.7-0.5-1.6-1-2.3-1.4C230.3,310.4,231.2,310.9,231.9,311.4z"/>
	<path class="st3" d="M285.8,513.2c-0.7,0.6-1.4,1.2-2.3,1.8C284.2,514.4,284.9,513.8,285.8,513.2z"/>
	<path class="st3" d="M307.9,512.9c-0.8-0.5-1.6-1-2.4-1.3C306.2,511.9,307.1,512.4,307.9,512.9z"/>
	<path class="st0" d="M189.8,532.6c0.5,0.7,1,1.4,1.4,2C190.7,534.1,190.2,533.4,189.8,532.6z"/>
	<path class="st3" d="M247.7,536.7c-0.6-0.7-1.1-1.4-1.7-2C246.6,535.3,247.1,536,247.7,536.7z"/>
	<path class="st3" d="M298.8,536.6c0.5-0.7,1-1.4,1.4-2.2C299.8,535.2,299.3,535.9,298.8,536.6z"/>
	<path class="st0" d="M803.9,569.5c0.7,0.1,1.3,0.2,2,0.4c-0.4,0.4-0.6,0.8-1.2,1.6C804.4,570.5,804.1,570,803.9,569.5z"/>
	<path class="st0" d="M170.5,279.4c-0.4,0.7-0.7,1.6-1.1,2.3C169.8,280.9,170.1,280.2,170.5,279.4z"/>
	<path class="st0" d="M126,427c0.6-0.2,1.3-0.6,1.9-0.8C127.3,426.5,126.6,426.8,126,427z"/>
	<path class="st3" d="M780.3,587c0.7-0.4,1.4-0.8,2.2-1.2C781.7,586.3,781,586.6,780.3,587z"/>
	<path class="st3" d="M774.4,589.5c0.8-0.4,1.7-0.7,2.4-1.1C776,588.8,775.3,589.1,774.4,589.5z"/>
</g>
<g id="stage">
	<g>
		<rect x="327.3" y="352.6" class="st4" width="42.7" height="62.7"/>
		<polygon class="st4" points="397.9,326.1 327.3,326.1 327.3,349.2 373.2,349.2 373.2,418.2 327.3,418.2 327.3,441.4 397.9,441.4 
					"/>
		<polygon class="st4" points="627.1,441.4 697.8,441.4 697.8,418.2 653.1,418.2 653.1,349.2 697.8,349.2 697.8,326.1 627.1,326.1 
					"/>
		<rect x="656.3" y="352.6" class="st4" width="41.8" height="62.7"/>
		<path class="st4" d="M400.9,357.1v53.4c14.1-0.8,25.7-12.5,25.7-26.8S415.7,358.1,400.9,357.1z"/>
		<path class="st4" d="M624.1,410.5v-53.4c-14.1,0.8-25.7,12.5-25.7,26.8C598.6,398.3,609.8,409.9,624.1,410.5z"/>
		<path class="st4" d="M515.5,336.9v93.9c25-1.4,45.4-21.8,45.4-46.9C560.8,358.3,540.5,338.1,515.5,336.9z"/>
		<path class="st4" d="M465.5,383.7c0,25.7,20.9,46.8,46.9,47.2v-94.2C486.2,337.1,465.5,358.1,465.5,383.7z"/>
		<path class="st4" d="M327.3,273v50h73.9v31c15.9,0.8,29,14.1,29,30s-12.7,29-29,30v31h-73.9v50h370.6v-50h-73.9v-31
			c-15.9-0.8-29-14.1-29-30c0-15.9,12.7-29,29-30v-31h73.9v-50H327.3L327.3,273z M515.5,434.1V494h-3.2v-59.9
			c-27.8-0.6-50.2-22.9-50.2-50.5c0-27.5,22.4-50,50.2-50.5v-59.5h3.2v59.9c27.1,1.4,48.6,23.6,48.6,50.5
			C564,410.9,542.6,433.2,515.5,434.1z"/>
	</g>
</g>
</svg>
