<?xml version="1.0" encoding="utf-8"?>
<!-- Generator: Adobe Illustrator 21.1.0, SVG Export Plug-In . SVG Version: 6.00 Build 0)  -->
<svg version="1.1" id="Laag_1" xmlns="http://www.w3.org/2000/svg" xmlns:xlink="http://www.w3.org/1999/xlink" x="0px" y="0px"
	 viewBox="0 0 1024 768" style="enable-background:new 0 0 1024 768;" xml:space="preserve">
<style type="text/css">
	.st0{fill:#93B8D2;}
	.st1{fill:#ACCA5A;}
	.st2{fill:#85BB3E;}
</style>
<g>
	<path class="st0" d="M45.3,361c1.7-12.4,3.3-24.7,5-37.1c0-0.2,0.2-0.4,0.3-0.8c29.9,0,59.6,0,89.4,0c0,19.1,0,38.1,0,57.7
		c-31.8,0-63.2,0-94.6,0C45.3,374.3,45.3,367.6,45.3,361z"/>
	<path class="st0" d="M45.3,383.7c31.3,0,62.8,0,95,0c0,19.1,0,37.8,0,56.3c-29.4,0-59.4,0-90.1,0c-1.7-13.5-3.2-26.6-4.9-39.8
		C45.3,394.7,45.3,389.1,45.3,383.7z"/>
	<path class="st1" d="M304.7,715.9c2.9-20.5,5.8-40.8,8.7-61.5c25.1,4.9,50.4,3.1,75.7,3.6c0,28,0,55.8,0,83.9
		C360.3,735.2,332.3,726.6,304.7,715.9z"/>
	<path class="st1" d="M511,658.1c20.2,0,40.1,0,60.3,0c0,31.3,0,62.5,0,94c-20,2.6-40,3.8-60.3,3.9C511,723.2,511,690.8,511,658.1z"
		/>
	<path class="st0" d="M971.6,380.7c-32.8,0-65.1,0-97.9,0c0-19.1,0-38.1,0-57.4c30.4,0,61.2,0,92.5,0
		C970,342,971.5,361.2,971.6,380.7z"/>
	<path class="st1" d="M635.2,658.1c24.4-0.9,48.6,1.7,72.9-2.9c2.8,19.8,5.6,39.5,8.4,59.2c-26.5,10.5-53.4,19.1-81.3,25.9
		C635.2,712.9,635.2,685.5,635.2,658.1z"/>
	<path class="st1" d="M511,10.3c20.3,0.1,40.2,1.3,60.3,3.9c0,29.2,0,58.2,0,87.5c-20.1,0-40,0-60.3,0C511,71.4,511,41.1,511,10.3z"
		/>
	<path class="st1" d="M305.1,48.3c27.5-10,55.3-18.2,83.8-24.4c0,26,0,51.9,0,77.9c-25.2,0.8-50.5-1.6-75.8,3.1
		C310.5,86,307.8,67.3,305.1,48.3z"/>
	<path class="st0" d="M874.2,383.9c32.1,0,64.5,0,97.2,0c-0.1,18.8-1.9,37.3-5.4,55.8c-30.5,0-61,0-92,0
		C874.2,421.1,874.2,402.6,874.2,383.9z"/>
	<path class="st1" d="M451.7,658c0,31.5,0,62.9,0,94.5c-20-2.3-39.7-5.6-59.2-10c0-28.2,0-56.2,0-84.5
		C412.1,658,431.9,658,451.7,658z"/>
	<path class="st1" d="M631.5,741.3c-18.6,4.5-37.5,7.9-56.6,10.4c0-31.2,0-62.2,0-93.4c18.8,0,37.6,0,56.6,0
		C631.5,685.8,631.5,713.3,631.5,741.3z"/>
	<path class="st1" d="M635.1,25.9c27.5,6.6,54.2,15.2,80.5,25.5c-2.6,17.9-5,35.9-7.6,54.2c-24.1-5.7-48.5-3.2-72.9-3.9
		C635.1,76.7,635.1,51.6,635.1,25.9z"/>
	<path class="st1" d="M455.2,753c0-31.7,0-63.1,0-94.9c17.3,0,34.7,0,52.3,0c0,32.4,0,64.9,0,97.8C490.1,756,472.7,754.8,455.2,753z
		"/>
	<path class="st1" d="M451.7,13.6c0,29.4,0,58.7,0,88.2c-19.7,0-39.4,0-59.2,0c0-26.2,0-52.3,0-78.6C412,19,431.6,15.8,451.7,13.6z"
		/>
	<path class="st1" d="M455.3,101.9c0-29.5,0-59,0-89c17.4-1,34.7-1.9,52.2-2.9c0,31,0,61.3,0,91.9
		C489.9,101.9,472.7,101.9,455.3,101.9z"/>
	<path class="st1" d="M631.6,101.7c-19.1,0-37.9,0-56.7,0c0-29.1,0-57.9,0-87.1c19.2,2.5,38.1,6,56.7,10.4
		C631.6,50.7,631.6,76.1,631.6,101.7z"/>
	<path class="st0" d="M949.7,497.8c-26.8-2.1-53.4-4.2-80.4-6.4c1.8-16.1,7.6-31.5,5-48c30.4,0,60.5,0,91.1,0
		C961.9,461.9,956.4,479.8,949.7,497.8z"/>
	<path class="st0" d="M949.2,265.8c7.1,17.6,12.6,35.3,16.3,53.8c-30.8,0-61.3,0-92.2,0c0.3-15.9-0.8-31.7-3.1-47.6
		C896.6,270,922.8,268,949.2,265.8z"/>
	<path class="st0" d="M51.3,443.2c29.3,0,58.4,0,87.5,0.1c0.8,0,2.2,1.1,2.2,1.8c-0.1,15.6,2.1,30.9,5.4,46.3
		c-26.4,2.1-52.5,4.1-78.9,6.2C60.4,480,55,462,51.3,443.2z"/>
	<path class="st0" d="M140.1,319.7c-29.3,0-58.9,0-89,0c3.7-18.7,9.3-36.5,16.4-53.8c25.8,2,51.5,4,77,6
		C143,288,141.6,303.9,140.1,319.7z"/>
	<path class="st1" d="M694.1,243c-12.3-5.6-25-7.6-38.2-7.6c0-25,0-50.1,0-75.2c24,0.8,47.5,4.8,69.9,14.9
		C715.1,197.7,704.7,220.4,694.1,243z"/>
	<path class="st1" d="M407.2,604.8c-16.5,0-32.9,0-49.3,0c0-25.4,0-50.7,0-76.1c16.4,0,32.8,0,49.3,0
		C407.2,553.9,407.2,579.2,407.2,604.8z"/>
	<path class="st1" d="M613.1,528.7c0,25.3,0,50.4,0,75.6c-16.4,0-32.7,0-49,0c0-25.2,0-50.4,0-75.6
		C580.5,528.7,596.6,528.7,613.1,528.7z"/>
	<path class="st1" d="M560.5,235.4c-16.5,0-33,0-49.5,0c0-24.9,0-49.5,0-74.5c16.5,0,32.9,0,49.5,0
		C560.5,185.6,560.5,210.3,560.5,235.4z"/>
	<path class="st1" d="M459.2,528.7c0,25.3,0,50.5,0,76c-16.3,0-32.3,0-48.6,0c0-25.3,0-50.5,0-76
		C426.7,528.7,442.9,528.7,459.2,528.7z"/>
	<path class="st1" d="M616.7,528.7c16.3,0,32.3,0,48.5,0c0,25,0,49.8,0,75.4c-16.2,0-32.3,0-48.5,0
		C616.7,579.2,616.7,554.1,616.7,528.7z"/>
	<path class="st1" d="M358,160.6c16.5,0,32.9,0,49.3,0c0,25,0,49.7,0,74.7c-16.3,0-32.7,0-49.3,0C358,210.5,358,185.7,358,160.6z"/>
	<path class="st1" d="M564,160.7c16.4,0,32.7,0,49,0c0,24.9,0,49.7,0,74.6c-16.4,0-32.7,0-49,0C564,210.5,564,185.7,564,160.7z"/>
	<path class="st0" d="M213.2,380.8c0-16.4,0-33.1,0-49.7c24.5,0,49.4,0,74.2,0c0,16.6,0,32.9,0,49.7
		C262.6,380.8,238.1,380.8,213.2,380.8z"/>
	<path class="st1" d="M410.7,235.3c0-24.9,0-49.5,0-74.4c16.2,0,32.2,0,48.5,0c0,24.7,0,49.5,0,74.4
		C443,235.3,427,235.3,410.7,235.3z"/>
	<path class="st1" d="M514.5,528.7c15.6,0,30.8,0,46,0c0,25.2,0,50.4,0,75.7c-16.5,0-33,0-49.6,0c0-12.4,0-24.7,0-37.2
		c1.1-0.1,2.1-0.2,3.5-0.3C514.5,554.1,514.5,541.5,514.5,528.7z"/>
	<path class="st0" d="M287.2,383.7c0,16.3,0,32.2,0,48.3c-24.6,0-49,0-73.7,0c0-16.2,0-32.3,0-48.3
		C238,383.7,262.5,383.7,287.2,383.7z"/>
	<path class="st0" d="M243.8,552.6c19.3-16.2,38.5-32.2,57.7-48.5c6.8,8,14.8,14.3,24.3,19c-11,22.5-22,44.9-33,67.7
		C273.5,582.1,256.7,569.9,243.8,552.6z"/>
	<path class="st0" d="M293,172.5c10.4,23.4,20.6,46.3,30.9,69.3c-8.6,4.6-15.9,10.5-22.4,18.1c-19.6-16.5-39-32.8-58.9-49.3
		C255.1,193.2,273.5,182.6,293,172.5z"/>
	<path class="st0" d="M922.3,551.8c-22.2-6.8-44-13.5-65.9-20.2c4.1-12.4,8.2-24.6,12.5-37.1c26.2,2,52.6,4.1,79.5,6.2
		C941.2,518.7,932.4,535.4,922.3,551.8z"/>
	<path class="st0" d="M299.7,263.3c-6.6,7-10.4,14.7-11.7,24.2c-24.5-5.7-48.8-11.3-73.1-16.8c2.1-22.3,13-40.5,25.8-57.9
		C260.3,229.7,279.8,246.4,299.7,263.3z"/>
	<path class="st0" d="M799,380.7c-23.3,0-46.2,0-69.2,0c0-16.4,0-32.7,0-49.2c23,0,46,0,69.2,0C799,347.8,799,364.2,799,380.7z"/>
	<path class="st0" d="M287.5,290.6c0,12.6,0,24.9,0,37.6c-24.9,0-49.6,0-74.8,0c1.1-17.7-1.8-35.9,1.3-54.5
		C238.7,279.3,263.1,285,287.5,290.6z"/>
	<path class="st0" d="M213.4,435.5c24.7,0,49,0,73.6,0c0,12.7,0,25.3,0,38.1c-23.4,5.4-46.9,10.8-70.6,16.3
		C212.8,471.7,213.7,453.7,213.4,435.5z"/>
	<path class="st0" d="M778,223.8c-8.7,6.6-17.3,13-26,19.6c-2.2-2.5-4.5-4.8-6.7-7.2c-9.9,7.9-19.8,15.7-29.5,23.4
		c-6.2-5-12.4-9.9-18.7-14.9c10.5-22.4,21.1-45.1,31.7-67.8C750.5,186.7,764.8,204.4,778,223.8z"/>
	<path class="st0" d="M94.7,550.7c-10-16.1-18.7-32.4-26-50.2c26.2-2.1,52.1-4.1,78.3-6.2c3.2,12.5,6.9,24.7,12,36.8
		C137.5,537.6,116.2,544.1,94.7,550.7z"/>
	<path class="st1" d="M507.4,160.9c0,24.9,0,49.6,0,74.4c-14.9,0-29.8,0-44.8,0c0-24.7,0-49.5,0-74.4
		C477.6,160.9,492.5,160.9,507.4,160.9z"/>
	<path class="st0" d="M241.7,550.1c-12.2-17.5-21-36-24.9-57.1c23.4-5.5,46.8-10.8,70.6-16.4c2,9.3,8,16.4,12,25
		C280.4,517.7,261.2,533.7,241.7,550.1z"/>
	<path class="st1" d="M354.6,160.7c0,25.1,0,49.8,0,74.7c-9.6-0.3-18.7,1.2-27.8,5.1c-10.3-23-20.4-45.8-30.8-69
		C314.9,163.9,334.4,161.6,354.6,160.7z"/>
	<path class="st0" d="M948,262.8c-26.4,2.1-52.3,4.1-78.4,6.1c-2.2-12.7-5.5-25.1-9.9-37.2c20.6-6.4,40.9-12.5,61.5-18.8
		C931.6,228.6,940.3,245.2,948,262.8z"/>
	<path class="st0" d="M68.8,262.8c7.8-18.5,17.1-35.6,28-52.2c19.7,7.5,39.5,14.9,59.5,22.5c-4.8,11.6-8.8,23.2-10.6,35.7
		C120.1,267,94.7,264.9,68.8,262.8z"/>
	<path class="st1" d="M354.4,605.1c-20.3-1.1-39.6-5.2-58.5-13c11-22.5,22-45,33-67.7c8.2,3.1,16.6,4.7,25.5,4.1
		C354.4,554,354.4,579.3,354.4,605.1z"/>
	<path class="st1" d="M507.4,604.5c-15,0-29.9,0-44.8,0c0-25.4,0-50.7,0-76c13.6,0,27.1,0,40.7,0c0,12.8,0,25.5,0,38.3
		c1.2,0.1,2.6,0.1,4.1,0.2C507.4,579.5,507.4,591.9,507.4,604.5z"/>
	<path class="st0" d="M727.9,588.1c-10.7-23-21.3-45.6-31.9-68.4c7.8-5.1,14.4-11.4,20.7-18.3c18.5,15.5,36.9,31,55.5,46.6
		C760.2,564.5,745.7,577.9,727.9,588.1z"/>
	<path class="st0" d="M798.6,432.8c1.3,17.9,1.2,35.4-1.8,53.5c-22.4-5.1-44.7-10.4-67.1-15.5c0-12.8,0-25.3,0-38
		C752.8,432.8,775.7,432.8,798.6,432.8z"/>
	<path class="st1" d="M725.1,589.6c-17.7,9-36.8,12.3-56.3,13.9c0-25.2,0-50.2,0-75.5c8.4-1.3,16.7-2.8,24.5-6.7
		C703.8,544.1,714.3,566.7,725.1,589.6z"/>
	<path class="st0" d="M729.7,429.4c0-15.2,0-30.1,0-45.4c23,0,45.8,0,68.9,0c0,15,0,30.1,0,45.4
		C775.7,429.4,752.9,429.4,729.7,429.4z"/>
	<path class="st0" d="M774.2,545.5c-18.6-15.7-37-31-55.5-46.6c4.3-7.9,9.5-15.5,10.5-25.1c22.4,5.1,44.6,10.3,67.2,15.5
		C792.6,509.4,785.7,528.1,774.2,545.5z"/>
	<path class="st0" d="M729.7,292.1c22.4-5.6,44.7-11.1,67.4-16.8c2.1,17.6,2,35,2,52.6c-23.3,0-46.4,0-69.6,0
		C729.7,316.1,729.7,304.3,729.7,292.1z"/>
	<path class="st0" d="M160.2,533.8c4.8,11.4,10.7,21.8,17.1,32.2c-16.3,9.9-32.3,19.7-48.6,29.8c-11.7-13.2-22.2-27.2-32.2-42.4
		C117.6,546.9,138.7,540.4,160.2,533.8z"/>
	<path class="st1" d="M616.7,160.4c11.9,0,23.6,0,35.6,0c0,24.9,0,49.8,0,74.9c-11.8,0-23.6,0-35.6,0
		C616.7,210.5,616.7,185.7,616.7,160.4z"/>
	<path class="st1" d="M272.2,643.5c12.4,4.5,24.9,7.9,37.9,10.4c-2.8,20.2-5.7,40.4-8.6,61c-17.3-7.4-34.4-13.8-50.1-23.4
		C258.6,674.8,265.3,659.3,272.2,643.5z"/>
	<path class="st0" d="M890.8,594.2c-16.9-10.4-33.7-20.6-50.6-31c6-9.1,10.6-18.7,14.6-28.9c21.8,6.7,43.6,13.3,65.5,20.1
		C911.6,568.6,901.7,581.7,890.8,594.2z"/>
	<path class="st0" d="M98.4,208c9.6-14.2,19.7-27.4,31.1-40c15,9.1,30,18.4,44.7,27.4c-5.8,11.7-11.5,23.1-17.3,34.8
		C137.9,222.9,118.3,215.6,98.4,208z"/>
	<path class="st1" d="M719.5,713.3c-2.8-19.6-5.5-38.9-8.2-58.5c12.3-2.7,24.3-6.2,36.3-11.6c7,15.7,13.9,31.4,21,47.3
		C752.5,699.3,736.3,706.4,719.5,713.3z"/>
	<path class="st0" d="M729.4,289c-1.1-7-3-13.4-7.2-19.3c19.2-14.4,38.2-28.9,57.5-43.4c8.9,14.2,14.6,29.2,16.9,45.8
		C774.3,277.9,752,283.5,729.4,289z"/>
	<path class="st0" d="M888.3,170.1c11.4,12.6,21.6,26,31.2,40.2c-20.5,6.2-40.6,12.4-61,18.6c-4.1-10.9-9.5-21.1-15.5-31.2
		C858.4,188.5,873.2,179.3,888.3,170.1z"/>
	<path class="st1" d="M271.2,115.7c-6.6-14.8-13-29.4-19.7-44.4C268,63,284.7,56,302,49.5c2.7,18.7,5.2,37.2,7.9,55.8
		C296.6,107.9,283.9,111,271.2,115.7z"/>
	<path class="st0" d="M814.7,595.5c8.2-10,16.1-19.7,24.1-29.5c16.5,10.1,33,20.3,50.1,30.7c-10.6,12.3-21.8,23.6-34.2,34.7
		C841.2,619.3,827.9,607.4,814.7,595.5z"/>
	<path class="st0" d="M783.4,622.5c10.1,13.9,20.1,27.5,30.2,41.6c-13.6,9.4-27.2,18.1-41.9,25.4c-7.1-16.1-14.2-31.8-21.2-47.6
		C762.1,636.5,772.8,630,783.4,622.5z"/>
	<path class="st1" d="M747.6,117.5c-11.8-4.7-23.7-8.5-36.3-11.1c2.5-17.7,5-35.4,7.5-53.5c16.4,6.6,32.2,13.7,47.8,22
		C760.3,88.9,754,103.1,747.6,117.5z"/>
	<path class="st0" d="M130.7,598.1c16.2-9.9,32.1-19.7,48.3-29.5c6.7,10,13.8,19.4,22.3,28.3c-12.5,11.4-24.9,22.7-37.3,34.2
		C152.1,620.9,141.2,609.7,130.7,598.1z"/>
	<path class="st0" d="M204.3,663.7c-12.9-10.1-25.5-20-38.5-30.1c12.7-11.7,25-23,37.5-34.3c9.1,9.5,19,17.5,29.9,24.7
		C223.6,637.1,214.3,650.1,204.3,663.7z"/>
	<path class="st0" d="M852.6,633.7c-12.3,9.7-24.1,19.2-36.3,28.9c-10.3-14.2-20.3-28-30.2-41.7c8.8-7.8,17.5-15.5,26.4-23.3
		C825.5,609.3,838.9,621.3,852.6,633.7z"/>
	<path class="st0" d="M269.1,642.2c-7.1,15.9-14,31.5-21.2,47.4c-14.3-7.2-27.5-15.5-40.7-24.5c9.7-13.3,19.2-26.3,28.6-39.4
		C246.5,632.3,257.4,637.5,269.1,642.2z"/>
	<path class="st0" d="M841.4,195.2c-7-10.8-14.7-20.5-23.6-29.7c11.5-10.6,22.9-20.8,34.2-31.3c12.2,10.5,23.3,21.5,34.3,33.6
		C871.3,176.9,856.5,185.9,841.4,195.2z"/>
	<path class="st0" d="M176.3,193.2c-15-9.3-29.8-18.3-45.6-28c11.1-11.3,22-22.2,33-33.3c12.2,11.1,23.2,21.4,34.4,31.7
		C190.1,172.9,182.6,182.5,176.3,193.2z"/>
	<path class="st0" d="M268.2,116.8c-12.3,4.7-23.9,10.3-35,17.4c-8.6-11.8-17.1-23.5-25.8-35.4c13.3-9.5,26.9-17.8,41.2-25.6
		C255.3,87.6,261.8,102.2,268.2,116.8z"/>
	<path class="st0" d="M230.7,135.7c-11.1,7.6-21.2,15.8-30.2,25.6c-11.1-10.3-22.2-20.3-33.4-30.7c11.9-10.8,24.6-20.7,38-30.2
		C213.5,112.2,222,123.8,230.7,135.7z"/>
	<path class="st0" d="M750.5,118.8c6.1-13.8,12.3-27.6,18.5-41.6c14.5,7.2,28,15.6,41.4,24.6c-8.7,11.9-17.3,23.7-25.9,35.6
		C773.7,129.9,762.3,124.2,750.5,118.8z"/>
	<path class="st0" d="M849.9,131.8c-11.7,10.7-22.9,21-34.2,31.4c-9-8.6-18.3-16.7-28.8-24c8.7-11.9,17.2-23.7,26.1-35.9
		C825.4,112.8,837.4,122.1,849.9,131.8z"/>
	<path class="st1" d="M487.8,638.5c0-10,0-19.8,0-29.9c15.7,0,31.2,0,47,0c0,9.9,0,19.7,0,29.9C519.3,638.5,503.7,638.5,487.8,638.5
		z"/>
	<path class="st0" d="M848.5,427.8c0,8.7,0,17.3,0,26.1c-15.3,0-30.3,0-45.8,0c0-8.7,0-17.3,0-26.1
		C817.7,427.8,833,427.8,848.5,427.8z"/>
	<path class="st0" d="M210,428.3c0,8.6,0,16.9,0,25.6c-15.5,0-30.9,0-46.6,0c0-8.5,0-16.8,0-25.6C178.8,428.3,194.2,428.3,210,428.3
		z"/>
	<path class="st0" d="M162.4,394.9c0-8.2,0-16.6,0-25.1c15.5,0,31.1,0,47.2,0c0,8.2,0,16.6,0,25.1
		C194.1,394.9,178.4,394.9,162.4,394.9z"/>
	<path class="st0" d="M162.4,338.2c0.4-8.4,0.8-16.5,1.2-24.9c14.9,0,29.9,0,45.1,0c0,8.1,0,16.4,0,24.9
		C193.9,338.2,178.4,338.2,162.4,338.2z"/>
	<path class="st0" d="M849,311.9c-15.9,0-30.9,0-46.5,0c0-7.9,0-15.8,0-24.3c13.8-2.2,28.2-4.5,43.4-6.9
		C846.9,291,848,301.3,849,311.9z"/>
	<path class="st1" d="M454.2,653.9c0-3.6,0-7,0-10.4c34.8,0,69.4,0,104.3,0c0,3.7,0,6.9,0,10.4C523.8,653.9,489.1,653.9,454.2,653.9
		z"/>
	<path class="st0" d="M828.2,254"/>
	<path class="st0" d="M836,245.3c3.9,10.5,6.9,20.8,8.9,31.9c-14.4,2.3-28.6,4.6-42.9,6.8c-1.1-8.1-2.2-16.1-3.3-24.3
		c7.1-2.7,14.6-5.5,22-8.2"/>
	<path class="st0" d="M217.1,509.4c-12.3,4.9-24.5,9.9-37.1,15c-5.1-10.7-8.9-21.6-11.7-33.2c14.5-2.3,29-4.6,43.4-6.9
		C213.5,492.7,215.2,500.7,217.1,509.4z"/>
	<path class="st1" d="M323.3,160.4c-9.8,1.8-19.1,4.2-28.4,7.9c-5-11.1-9.9-22.2-14.9-33.6c11.8-5,24.1-8.2,36.9-10.7
		C318.9,136.1,321.2,148.1,323.3,160.4z"/>
	<path class="st0" d="M209.9,399.1c0,8.5,0,16.7,0,25.2c-15.6,0-31.1,0-47,0c0-8.4,0-16.7,0-25.2C178.4,399.1,194,399.1,209.9,399.1
		z"/>
	<path class="st0" d="M802.8,338.9c0-7.8,0-15.4,0-23.2c15,0,30.2,0,45.6,0c0,7.7,0,15.4,0,23.2C833.2,338.9,818,338.9,802.8,338.9z
		"/>
	<path class="st0" d="M848.5,398.2c0,8.7,0,17.2,0,25.6c-15.4,0-30.7,0-46.2,0c0-8.6,0-17.1,0-25.6
		C817.7,398.2,833,398.2,848.5,398.2z"/>
	<path class="st0" d="M211.4,480.8c-14.7,2.3-29.2,4.6-44.3,7c-1.3-10.1-2.6-20-3.8-30.1c15.9,0,31.2,0,46.7,0
		C210.4,465.3,210.8,472.7,211.4,480.8z"/>
	<path class="st0" d="M208.1,281c-13.4-1.7-26.6-3.2-40-4.9c1.9-11.9,5.4-23.1,10.5-34.1c11.6,4.3,23.1,8.7,34.8,13.2
		C210.7,263.7,208.7,272.1,208.1,281z"/>
	<path class="st0" d="M803,457.6c15,0,29.9,0,45.4,0c-2,10.7-3.9,21.2-5.8,31.8c-13.7-3.5-27.1-6.8-40.8-10.3
		C802,472,802.4,464.9,803,457.6z"/>
	<path class="st0" d="M208.2,309.6c-14.5,0-29.1,0-44.4,0c1.1-10,2.2-19.8,3.3-30c13.7,1.7,27.1,3.3,41,5
		C208.2,293,208.2,301.3,208.2,309.6z"/>
	<path class="st1" d="M670.2,120.8c10.1,0.1,20.1,1.4,30.1,3.7c-1.9,12.3-3.8,24.3-5.8,36.5c-8.1-1.2-16.2-2.3-24.4-3.7
		C670.2,145.4,670.2,133.4,670.2,120.8z"/>
	<path class="st0" d="M819.8,212.4c5.8,9.6,10.7,19.2,14.8,29.7c-12.3,4.7-24.4,9.4-36.8,14.2c-3.5-8-6.9-15.8-10.4-24
		C798.1,225.7,808.8,219.1,819.8,212.4z"/>
	<path class="st0" d="M245,202c-8.9-8.1-17.6-16.2-26.5-24.3c7.7-8.6,16.1-16.1,25.4-22.9c7.2,9.9,14.4,19.7,21.6,29.7
		C258.2,189.6,251.1,194.9,245,202z"/>
	<path class="st0" d="M162.4,365.8c0-8,0-15.9,0-23.9c15.7,0,31.1,0,46.8,0c0,7.8,0,15.7,0,23.9
		C193.8,365.8,178.1,365.8,162.4,365.8z"/>
	<path class="st0" d="M230.2,539.5c5.5,7.7,10.8,15,16.3,22.6c-8.2,7.7-16.7,15.6-25.5,23.9c-7-8.9-14-17.7-21.2-26.8
		C210.3,552.6,220.4,546,230.2,539.5z"/>
	<path class="st0" d="M801.4,482.8c13.3,3.3,26.5,6.7,40.1,10.1c-2.8,9.7-5.6,19-8.4,28.8c-12.6-5-24.9-9.8-36.8-14.5
		C798.2,498.9,799.9,490.9,801.4,482.8z"/>
	<path class="st0" d="M848.6,342.5c0,7.8,0,15.4,0,23.2c-15.3,0-30.4,0-45.8,0c0-7.7,0-15.3,0-23.2
		C817.9,342.5,833.1,342.5,848.6,342.5z"/>
	<path class="st0" d="M749,184.6c-7.5-4.5-14.7-8.8-22.2-13.3c4.1-10.8,8.4-21.8,12.7-33.2c10.7,4.9,20.4,11.1,29.8,18.5
		C762.5,166.1,755.7,175.4,749,184.6z"/>
	<path class="st0" d="M831.6,524.9c-3.6,9.4-7.6,18.1-13.3,26.4c-10.7-6.6-21.4-13-32-19.5c2.9-7.1,5.7-14,8.6-21.3
		C807.1,515.3,819.2,520,831.6,524.9z"/>
	<path class="st1" d="M723.5,169.9c-8.6-2.8-16.8-5.5-25.3-8.2c1.9-11.8,3.8-24,5.7-36.3c11.3,2.6,21.8,6.2,32.4,11.1
		C732.1,147.7,727.8,158.7,723.5,169.9z"/>
	<path class="st0" d="M228.4,536.3c-10,6.5-20.2,13-30.8,20c-5.6-9.5-10.9-18.7-16.6-28.4c12.8-5.1,25-10.1,37-14.9
		C221.6,520.8,225,528.4,228.4,536.3z"/>
	<path class="st0" d="M247,152.6c9.4-6.6,19.1-11.9,29.4-16.5c5,11.3,9.9,22.4,14.8,33.2c-7.6,4.2-15.2,8.5-22.9,12.7
		C261.4,172.3,254.3,162.6,247,152.6z"/>
	<path class="st0" d="M179.7,238.4c5.2-10.1,10.3-19.8,15.4-29.8c10.6,6.6,20.7,12.9,30.5,19.1c-3.8,7.9-7.5,15.6-11.4,23.7
		C203.1,247.3,191.7,243,179.7,238.4z"/>
	<path class="st1" d="M348.6,157.4c-7.2,0.7-14.4,1.4-21.8,2.1c-2.1-12-4.2-24-6.5-36.5c9.6-0.9,18.8-1.7,28.2-2.5
		C348.6,133.1,348.6,145.1,348.6,157.4z"/>
	<path class="st1" d="M384.3,121c8.1,0,16.2,0,24.3,0c0,12,0,24,0,36.1c-8,0-16.1,0-24.3,0C384.3,145.1,384.3,133.2,384.3,121z"/>
	<path class="st1" d="M519.4,121c0,12.2,0,24,0,36c-8.1,0-16.3,0-24.4,0c0-12,0-24,0-36C503.1,121,511.1,121,519.4,121z"/>
	<path class="st0" d="M785.7,228.9c-4.8-7-9.4-13.7-14.2-20.7c8.8-8,17.7-16.3,26.9-24.6c7.2,8,13.7,16.4,19.5,25.6
		C807,215.9,796.3,222.5,785.7,228.9z"/>
	<path class="st1" d="M581,121c9.5,0,18.7,0,28.2,0c0,12,0,24,0,36.1c-9.4,0-18.6,0-28.2,0C581,145.1,581,133.2,581,121z"/>
	<path class="st0" d="M784.8,535.2c10.4,6.4,20.7,12.7,31.7,19.4c-6.7,8.1-13.2,16.1-19.8,24.2c-8.7-7.9-17.2-15.4-25.4-22.9
		C775.8,548.9,780.2,542.2,784.8,535.2z"/>
	<path class="st1" d="M612.9,121c7.8,0,15.5,0,23.3,0c0,12,0,23.9,0,36c-7.8,0-15.4,0-23.3,0C612.9,145.1,612.9,133.2,612.9,121z"/>
	<path class="st1" d="M523.1,121c9.5,0,18.7,0,28,0c0,12,0,24,0,36.1c-9.3,0-18.5,0-28,0C523.1,145.1,523.1,133.3,523.1,121z"/>
	<path class="st1" d="M670.5,607c7.9-1.1,15.6-2.1,23.6-3.2c1.4,10.6,3,21.4,4.6,32.8c-9.5,1-18.7,2-28.2,3.1
		C670.5,628.5,670.5,617.8,670.5,607z"/>
	<path class="st0" d="M215.7,180.1c9.3,8.5,17.9,16.4,26.5,24.3c-4.9,6.8-9.8,13.5-14.7,20.3c-9.9-6.2-20-12.5-30.7-19.2
		C203.3,196.9,209.5,188.6,215.7,180.1z"/>
	<path class="st0" d="M751.9,186.9c6.7-9.1,13.4-18.5,20.6-28.4c7.9,7.4,15.7,14.6,23.7,22.1c-9.4,8.6-18.2,16.6-27.1,24.7
		C763.5,199.2,757.8,193.2,751.9,186.9z"/>
	<path class="st1" d="M326.3,605.2c8.8,1.1,17.2,2.3,26,3.5c0,9.8,0,19.7,0,30.3c-9.5-1-19-2-28.6-3
		C324.5,625.5,325.4,615.4,326.3,605.2z"/>
	<path class="st1" d="M380.5,157c-9.3,0-18.4,0-27.6,0c0-11.8,0-23.9,0-36c9.1,0,18.3,0,27.6,0C380.5,133,380.5,144.9,380.5,157z"/>
	<path class="st0" d="M768.9,603.7c-5.9-9.4-11.6-18.5-17.1-27.3c5.9-5.7,11.6-11.4,17.6-17.2c7.6,6.9,15.8,14.3,24.4,22
		C786.1,589.5,777.8,596.7,768.9,603.7z"/>
	<path class="st0" d="M267.9,581.2c-5.8,9.3-11.6,18.6-17.6,28.1c-9.8-5.9-18.5-12.7-26.4-20.8c8.5-7.9,16.8-15.6,25.2-23.5
		C255.2,570.3,261.4,575.6,267.9,581.2z"/>
	<path class="st1" d="M577.2,121.1c0,11.9,0,23.9,0,35.9c-7.4,0-14.7,0-22.2,0c0-11.9,0-23.7,0-35.9
		C562.3,121.1,569.7,121.1,577.2,121.1z"/>
	<path class="st1" d="M320.1,634.9c-12.2-2.1-23.6-5.2-35.1-9.3c4.3-9.7,8.6-19.3,12.8-28.9c8.4,2.6,16.5,5,25,7.6
		C321.8,614.3,320.9,624.5,320.1,634.9z"/>
	<path class="st1" d="M463,157.1c-7.5,0-14.6,0-22,0c0-11.9,0-23.9,0-36.1c7.2,0,14.5,0,22,0C463,133,463,145,463,157.1z"/>
	<path class="st1" d="M666.4,156.9c-8.7,0-17.3,0-26.1,0c0-12,0-23.7,0-35.8c8.6,0,17.3,0,26.1,0C666.4,133.1,666.4,145,666.4,156.9
		z"/>
	<path class="st0" d="M294.3,595.6c-4.2,9.5-8.5,19.1-12.8,28.9c-9.8-3.6-19-7.9-28-13.2c5.9-9.5,11.7-18.7,17.5-28
		C278.7,587.3,286.3,591.3,294.3,595.6z"/>
	<path class="st1" d="M412.4,157.1c0-12,0-23.9,0-36c8.1,0,16.3,0,24.5,0c0,11.9,0,23.9,0,36C428.7,157.1,420.6,157.1,412.4,157.1z"
		/>
	<path class="st1" d="M611.7,638.9c0-10.5,0-20.6,0-31c8.1,0,16.2,0,24.4,0c0,10.3,0,20.5,0,31C628.1,638.9,620,638.9,611.7,638.9z"
		/>
	<path class="st1" d="M384.7,608.5c8,0,15.9,0,24,0c0,10,0,20.1,0,30.2c-8,0-15.8,0-24,0C384.7,628.6,384.7,618.8,384.7,608.5z"/>
	<path class="st1" d="M491,157.1c-8.1,0-15.9,0-24.1,0c0-12,0-24,0-36.1c8,0,15.9,0,24.1,0C491,133.2,491,145,491,157.1z"/>
	<path class="st1" d="M639.9,607.6c8.9,0,17.7,0,26.6,0c0,10.4,0,20.8,0,31.4c-8.9,0-17.6,0-26.6,0
		C639.9,628.8,639.9,618.5,639.9,607.6z"/>
	<path class="st1" d="M608.1,608.1c0,10.4,0,20.6,0,31c-8.8,0-17.5,0-26.3,0c0-10.4,0-20.6,0-31
		C590.5,608.1,599.2,608.1,608.1,608.1z"/>
	<path class="st1" d="M412.4,638.6c0-10,0-20,0-30.1c8.7,0,17.4,0,26.2,0c0,10,0,20,0,30.1C429.8,638.6,421.2,638.6,412.4,638.6z"/>
	<path class="st1" d="M380.6,638.6c-8,0-15.9,0-24.3,0c0-10,0-19.8,0-30.1c8,0,16.1,0,24.3,0"/>
	<path class="st1" d="M442.6,638.7c0-10.1,0-20.1,0-30.2c6.5,0,12.7,0,19.2,0c0,10,0,20.1,0,30.2C455.4,638.7,449,638.7,442.6,638.7
		z"/>
	<path class="st0" d="M802.3,380.2c0-3.7,0-7,0-10.6c15.4,0,30.7,0,46.2,0c0,3.6,0,6.9,0,10.6C833.2,380.2,817.8,380.2,802.3,380.2z
		"/>
	<path class="st1" d="M577.9,608.1c0,10.4,0,20.6,0,31c-5,0-10,0-15.2,0c0-10.4,0-20.5,0-31C567.6,608.1,572.6,608.1,577.9,608.1z"
		/>
	<path class="st0" d="M802.3,394.5c0-3.5,0-6.7,0-10c15.4,0,30.8,0,46.3,0c0,3.3,0,6.7,0,10C833.1,394.5,817.8,394.5,802.3,394.5z"
		/>
	<path class="st1" d="M539,608c6.7,0,12.9,0,19.5,0c0,10.4,0,20.6,0,31c-6.5,0-12.9,0-19.5,0C539,628.7,539,618.4,539,608z"/>
	<path class="st1" d="M483.6,638.8c-6,0-11.8,0-17.8,0c0-10.1,0-20.3,0-30.5c5.9,0,11.7,0,17.8,0
		C483.6,618.4,483.6,628.5,483.6,638.8z"/>
	<path class="st0" d="M190.2,207.3c-4.6-2.7-9-5.2-13.7-7.9c2.7-4.3,5.4-8.6,8.1-12.9c4.6,3.1,8.9,6,13.3,9
		C195.3,199.4,192.9,203.2,190.2,207.3z"/>
	<path class="st0" d="M769.5,150.1c-4-2.7-7.7-5.2-11.7-7.8c2.5-4.1,4.8-8.2,7.4-12.6c4.6,2.7,8.9,5.2,13.7,8.1
		C775.7,141.9,772.7,145.9,769.5,150.1z"/>
	<path class="st0" d="M154,248.3c5,1.6,9.5,2.9,14.3,4.3c-1.2,4.5-2.5,8.8-3.8,13.4c-4.6-1.3-9.1-2.8-14.2-4.2
		C151.5,257.4,152.7,253,154,248.3z"/>
	<path class="st0" d="M866.8,482.7c-1,4.1-1.9,7.9-2.9,12c-5.5-1.3-10.8-2.7-16.5-4c0.8-3.9,1.7-7.7,2.5-11.7
		C855.6,480.2,861.1,481.4,866.8,482.7z"/>
	<path class="st0" d="M829.7,184.5c-4.9,3.7-9.7,7.2-14.6,11c-2.3-2.9-4.5-5.7-6.8-8.7c4.8-3.6,9.5-7.1,14.4-10.9
		C825,178.8,827.4,181.6,829.7,184.5z"/>
	<path class="st0" d="M792.5,169.2c3.7-3.9,7.4-7.9,11.4-12.3c3,2.8,5.9,5.5,9,8.4c-4.3,4-8.5,7.9-12.7,11.8
		C797.6,174.4,795.1,171.9,792.5,169.2z"/>
	<path class="st0" d="M857.9,237c1.2,4,2.3,7.7,3.6,11.6c-5.8,1.6-11.3,3-16.9,4.6c-1.1-3.2-2.2-6.4-3.3-9.7
		C846.8,241.3,852.1,239.3,857.9,237z"/>
	<path class="st0" d="M846.7,494.3c5.5,1.3,10.7,2.7,16.1,4c0.1,2.2-0.8,3.5-2.2,4c-0.1,2.8-0.3,5.4-0.4,8.5
		c-5.7-2-10.8-3.7-16.2-5.6C844.8,501.5,845.7,497.9,846.7,494.3z"/>
	<path class="st1" d="M301.9,110.6c0.9,4.1,1.7,8,2.5,11.9c-4.9,1.3-9.5,2.6-14.3,3.9c-1.3-3.8-2.8-7.6-4.3-11.8
		C291.3,113.2,296.5,111.9,301.9,110.6z"/>
	<path class="st0" d="M221.5,146.8c3.7-2.7,7.2-5.2,10.9-7.9c3,4.1,5.9,8,8.8,12c-3.2,2.5-6.4,4.8-9.5,7.2
		C228.4,154.4,225.1,150.7,221.5,146.8z"/>
	<path class="st0" d="M832.1,187.5c2.1,3.1,4.1,6,6.4,9.1c-5.2,3.2-10.4,6.4-15.7,9.7c-1.8-2.6-3.5-5-5.4-7.8
		C822.3,194.8,827.1,191.1,832.1,187.5z"/>
	<path class="st0" d="M835.2,229.1c-1.4-2.9-2.8-5.6-4.2-8.5c5.5-2.6,10.9-5.1,16.7-7.8c1.6,3.2,3,6.4,4.7,9.7
		C846.6,224.6,841,226.8,835.2,229.1z"/>
	<path class="st0" d="M840.4,199.8c1.9,3.3,3.7,6.4,5.5,9.6c-5.7,2.7-11.1,5.2-16.7,7.8c-1.6-2.6-2.9-5-4.6-7.7
		C829.8,206.3,835.1,203.1,840.4,199.8z"/>
	<path class="st0" d="M789.5,166.7c-2.8-2.6-5.5-4.9-8.2-7.4c3.7-4,7.4-7.9,11.1-11.9c2.9,2.3,5.6,4.6,8.6,7
		C797.2,158.6,793.4,162.6,789.5,166.7z"/>
	<path class="st0" d="M186.7,574c3.9-2.8,7.5-5.5,11.3-8.1c2.6,3.3,5,6.6,7.6,10c-3.6,3-7,5.9-10.7,8.9
		C192.2,581.1,189.5,577.6,186.7,574z"/>
	<path class="st0" d="M867.6,479.1c-5.8-1.3-11.3-2.6-16.9-3.8c0.6-3.2,1.1-6.2,1.7-9.4c5.9,0.7,11.6,1.2,17.6,1.9
		C869.2,471.7,868.4,475.3,867.6,479.1z"/>
	<path class="st0" d="M871,427.7c0,3.5,0,6.8,0,10.3c-5.5,0-10.9,0-16.5,0c0-3.3,0-6.7,0-10.3C859.8,427.7,865.3,427.7,871,427.7z"
		/>
	<path class="st1" d="M577.2,116.9c-5.1,0-10.1,0-15.3,0c0-3.9,0-7.6,0-11.4c5.1,0,10.1,0,15.3,0C577.2,109.3,577.2,113,577.2,116.9
		z"/>
	<path class="st0" d="M238.1,623.1c2.6-3.6,5-6.9,7.6-10.5c3.7,2.1,7.2,4.1,10.9,6.2c-1.9,3.9-3.7,7.6-5.7,11.6
		C246.7,627.9,242.5,625.6,238.1,623.1z"/>
	<path class="st0" d="M870.3,380.2c-5.4,0-10.7,0-16.1,0c0-3.5,0-7,0-10.7c5.2,0,10.6,0,16.1,0C870.3,373.1,870.3,376.6,870.3,380.2
		z"/>
	<path class="st0" d="M854.3,311.8c-0.2-3.6-0.4-6.8-0.7-10.4c5.4-0.3,10.7-0.8,16.3-1.1c0,4,0,7.7,0,11.5
		C864.6,311.8,859.5,311.8,854.3,311.8z"/>
	<path class="st0" d="M759.3,616.1c3.1-2.1,5.9-4,9-6.1c2.7,4.3,5.4,8.5,8.2,13c-3.3,2.1-6.6,4.2-10,6.6
		C764,624.9,761.6,620.6,759.3,616.1z"/>
	<path class="st0" d="M797.7,584.8c3.8,3.3,7.6,6.9,11.5,10.4c-2.7,2.8-5.1,5.5-7.8,8.4c-3.8-4.1-7.4-7.8-10.9-11.7
		C792.8,589.5,795.2,587.2,797.7,584.8z"/>
	<path class="st0" d="M158.3,313.3c-0.2,4.1-0.4,8-0.8,12c-4.6,0-9,0-13.5,0c0-4,0-7.9,0-12C148.9,313.3,153.4,313.3,158.3,313.3z"
		/>
	<path class="st0" d="M854.6,354.6c5.2,0,10.1,0,15.4,0c0,3.7,0,7.4,0,11.1c-5,0-10.1,0-15.4,0C854.6,362.2,854.6,358.5,854.6,354.6
		z"/>
	<path class="st1" d="M577.9,643.3c0,3.8,0,7.4,0,11.1c-5.1,0-10,0-15.2,0c0-3.7,0-7.4,0-11.1C567.6,643.3,572.7,643.3,577.9,643.3z
		"/>
	<path class="st1" d="M304,649.1c1-4.2,1.8-8,2.8-12.2c4.2,0.8,8.4,1.7,12.8,2.5c-0.3,4-0.7,8-1.1,12.4
		C313.6,650.9,308.9,650,304,649.1z"/>
	<path class="st0" d="M871.9,453.8c-0.3,3.5-0.7,6.7-1,10.4c-6.1-0.7-12-1.2-17.9-1.9c0.4-2.9,0.8-5.6,1.1-8.5
		C859.8,453.8,865.5,453.8,871.9,453.8z"/>
	<path class="st0" d="M771.3,607.7c2.6-2,4.9-3.7,7.2-5.6c3.6,3.8,6.9,7.5,10.6,11.4c-3.2,2.5-6.4,4.9-9.6,7.5
		C776.8,616.4,774.1,612.2,771.3,607.7z"/>
	<path class="st0" d="M171.5,519.2c-4,1.8-7.7,3.3-11.6,5.1c-1.6-4.2-3-8.2-4.6-12.7c3.9-1.4,7.7-2.8,11.7-4.3
		C168.6,511.4,169.9,515.2,171.5,519.2z"/>
	<path class="st0" d="M210.5,156.7c3.7,3.2,7.5,6.7,11.4,10.1c-2.6,2.7-4.8,4.9-7.1,7.2c-3.9-3.6-7.6-7-11.6-10.7
		C205.9,160.9,208.5,158.6,210.5,156.7z"/>
	<path class="st0" d="M854.5,328.3c5.2,0,10.3,0,15.5,0c0,3.6,0,7,0,10.6c-5.2,0-10.3,0-15.5,0C854.5,335.2,854.5,331.8,854.5,328.3
		z"/>
	<path class="st0" d="M834.2,533c5.1,2.1,9.9,4.1,15,6.2c-1.7,3.6-3.2,6.8-4.9,10.4c-4.8-3-9.3-5.8-13.9-8.7
		C831.6,538.4,832.8,535.9,834.2,533z"/>
	<path class="st0" d="M244.4,148.8c-2.9-3.9-5.7-7.8-8.7-11.9c3.3-2,6.6-3.9,10.1-5.9c2.7,4,5.1,7.9,7.8,11.9
		C250.5,144.8,247.5,146.8,244.4,148.8z"/>
	<path class="st0" d="M865.2,264.1c0.6,3.2,1.1,6.2,1.7,9.6c-5.6,0.9-10.9,1.8-16.4,2.6c-0.7-3.1-1.3-6-2.1-9.5
		C854,265.9,859.5,265.1,865.2,264.1z"/>
	<path class="st1" d="M721.9,645.6c3.2,0.3,2-2.7,2.8-4.7c0.7,2.1,1.3,4,2,6.2c-4.9,1.2-9.5,2.5-14.7,3.8c0.8-3.5-3.3-6.4-0.1-9.7
		c0.1,1.6,0.3,3,0.4,4.6c0.2,0,0.6-0.1,0.8-0.1c0-2.1,0-4.2,0-6.9c-0.7,0.8-1.1,1.2-1.7,1.6c-2.6,0.7-1.1-1.6-2.3-2.6
		c4.7-1.4,8.8-2.7,13.3-4c0.7,1.9,1.2,3.8,2,6"/>
	<path class="st1" d="M437,117c-4.6,0-8.8,0-13.3,0c0-3.8,0-7.5,0-11.4c4.5,0,8.8,0,13.3,0C437,109.3,437,113,437,117z"/>
	<path class="st0" d="M839.9,517.9c1-3.2,1.9-6.1,2.9-9.3c5.2,1.8,10.3,3.6,15.7,5.5c-1,3-1.9,5.9-3,9.1
		C850.1,521.5,845.1,519.8,839.9,517.9z"/>
	<path class="st0" d="M158.3,461.4c-4.6,0-8.8,0-13.2,0c-0.2-3.8-0.4-7.6-0.8-11.4c4.6,0,8.8,0,13.3,0
		C157.9,453.8,158.1,457.5,158.3,461.4z"/>
	<path class="st0" d="M842.5,553.1c-1.8,2.8-3.3,5.4-5,8.1c-4.7-2.9-9.1-5.6-13.8-8.5c1.7-2.8,3.3-5.5,5-8.4
		C833.3,547.3,837.8,550.1,842.5,553.1z"/>
	<path class="st0" d="M169.7,249.3c-4.8-1.4-9.4-2.9-14.3-4.3c1.3-3.5,2.6-6.7,3.9-10.1c4.9,1.8,9.5,3.6,14.2,5.4
		C172.2,243.1,171,246.1,169.7,249.3z"/>
	<path class="st1" d="M711.5,109.8c-0.7,4.2-1.3,8.1-1.9,12.2c-4.2-0.9-8.4-1.8-12.6-2.7c0.6-3.8,1.2-7.6,1.9-11.7
		C703,108.2,707,109,711.5,109.8z"/>
	<path class="st0" d="M143.9,421c0-4.1,0-7.9,0-11.8c4.3,0,8.7,0,13.2,0c0,4,0,7.8,0,11.8C152.7,421,148.5,421,143.9,421z"/>
	<path class="st0" d="M146.2,288.7c0.4-3.8,0.9-7.4,1.4-11.4c4.9,0.6,9.6,1.2,14.4,1.8c-0.4,3.3-0.9,6.4-1.3,9.6
		C155.9,288.7,151.2,288.7,146.2,288.7z"/>
	<path class="st1" d="M643.1,643.2c4.7,0,9.3,0,14,0c0,3.7,0,7.4,0,11.3c-4.6,0-9.1,0-13.8,0c0-2.3,0-4.6,0-6.9c0.2,0,0.4,0,0.7,0
		c0.1,1.4,0.3,2.9,0.4,4.3c0.2,0,0.6,0,0.8-0.1c0-2.1,0-4.2,0-6.6c-0.8,0.4-1.4,0.8-2.2,1.3C643.1,645.4,643.1,644.5,643.1,643.2z"
		/>
	<path class="st0" d="M854.3,526.8c-1.2,3.1-2.3,6-3.6,9c-5.1-2.1-10-4.1-15-6.2c1-2.7,2-5.4,3-8.2
		C843.8,523.2,848.8,524.9,854.3,526.8z"/>
	<path class="st0" d="M165.2,221.1c1.4-3,2.8-5.7,4.1-8.6c4.8,2.3,9.3,4.5,13.9,6.8c-1.4,2.9-2.8,5.6-4.2,8.6
		C174.5,225.7,169.9,223.5,165.2,221.1z"/>
	<path class="st1" d="M365.9,105.6c0,3.8,0,7.4,0,11.3c-4.2,0-8.5,0-13,0c0-3.7,0-7.4,0-11.3C357.1,105.6,361.3,105.6,365.9,105.6z"
		/>
	<path class="st1" d="M437.1,643.2c4.3,0,8.5,0,12.8,0c0,3.8,0,7.4,0,11.3c-4.2,0-8.5,0-12.8,0C437.1,650.8,437.1,647.1,437.1,643.2
		z"/>
	<path class="st0" d="M839.9,240c-1.1-2.6-2-4.9-3.1-7.6c5.6-2.1,11-4.2,16.9-6.6c1,2.6,2,5,3.1,7.6
		C851,235.7,845.6,237.9,839.9,240z"/>
	<path class="st0" d="M143,355.1c4.6,0,8.9,0,13.5,0c0,3.6,0,7,0,10.6c-4.5,0-8.8,0-13.5,0C143,362.4,143,358.9,143,355.1z"/>
	<path class="st0" d="M194.3,173.4c2.1-2.5,4.1-4.7,6.2-7.2c4,3.7,7.8,7.1,11.7,10.7c-1.8,2.2-3.6,4.2-5.6,6.6
		C202.7,180.2,198.5,176.9,194.3,173.4z"/>
	<path class="st0" d="M756,618.1c2.5,4.6,4.7,8.8,7.1,13.4c-2.9,1.6-5.8,3.1-8.9,4.8c-2.1-4.6-4-9-6.1-13.6
		C750.8,621.1,753.3,619.7,756,618.1z"/>
	<path class="st0" d="M854.5,414.9c0-3,0-6,0-9c5.2,0,10.6,0,16.1,0c0,3,0,6,0,9C865.2,414.9,859.8,414.9,854.5,414.9z"/>
	<path class="st0" d="M143.4,395c0-3.6,0-7,0-10.7c4.2,0,8.6,0,13.2,0c0,3.6,0,7,0,10.7C152.3,395,147.9,395,143.4,395z"/>
	<path class="st0" d="M812,592.5c-4-3.7-7.9-7.1-11.9-10.7c1.9-2.1,3.7-4,5.6-6c4.2,3.1,8.4,6.2,12.8,9.7
		C816.4,587.8,814.2,590.1,812,592.5z"/>
	<path class="st1" d="M408.7,105.6c0,3.8,0,7.5,0,11.3c-4.1,0-8.2,0-12.5,0c0-3.7,0-7.4,0-11.3C400.3,105.6,404.3,105.6,408.7,105.6
		z"/>
	<path class="st1" d="M635.3,116.9c0-3.8,0-7.5,0-11.4c4.1,0,8.2,0,12.5,0c0,3.8,0,7.5,0,11.4C643.6,116.9,639.5,116.9,635.3,116.9z
		"/>
	<path class="st1" d="M495,105.5c4.2,0,8.2,0,12.4,0c0,3.8,0,7.4,0,11.3c-4.1,0-8.1,0-12.4,0C495,113.1,495,109.4,495,105.5z"/>
	<path class="st0" d="M249.2,129.2c3.3-1.6,6.2-3,9.5-4.6c2.3,3.9,4.5,7.8,6.8,11.8c-2.9,1.6-5.7,3-8.6,4.6
		C254.3,137.1,251.7,133.2,249.2,129.2z"/>
	<path class="st1" d="M733.7,129.9c-3.1-1.2-6.1-2.3-9.3-3.6c1.2-4,2.5-8,3.7-12.2c3.8,1.2,7.4,2.5,11.1,3.8
		C737.4,122.1,735.6,125.9,733.7,129.9z"/>
	<path class="st0" d="M854.5,315.4c5.2,0,10.1,0,15.3,0c0,2.9,0,5.8,0,8.9c-5,0-10,0-15.3,0C854.5,321.5,854.5,318.7,854.5,315.4z"
		/>
	<path class="st0" d="M741.4,642.1c-1.6-4.8-3-9.3-4.5-13.9c2.6-1.2,5-2.5,7.8-3.8c2,4.6,4,9,6.1,13.6
		C747.7,639.3,744.7,640.6,741.4,642.1z"/>
	<path class="st0" d="M156.5,369.8c0,3.6,0,6.9,0,10.4c-4.5,0-8.7,0-13.4,0c0-3.5,0-6.9,0-10.4C147.5,369.8,151.8,369.8,156.5,369.8
		z"/>
	<path class="st1" d="M551,105.6c0,3.7,0,7.4,0,11.1c-4,0-7.9,0-12,0c0-3.7,0-7.4,0-11.1C543,105.6,546.9,105.6,551,105.6z"/>
	<path class="st1" d="M623.7,643.2c0,3.9,0,7.6,0,11.3c-4,0-7.9,0-11.9,0c0-3.8,0-7.5,0-11.3C615.8,643.2,619.7,643.2,623.7,643.2z"
		/>
	<path class="st1" d="M523.1,116.9c0-3.9,0-7.6,0-11.3c4,0,7.9,0,11.9,0c0,3.8,0,7.5,0,11.3C531,116.9,527.1,116.9,523.1,116.9z"/>
	<path class="st1" d="M608,654.6c-4.1,0-7.9,0-11.9,0c0-3.8,0-7.5,0-11.3c4,0,7.8,0,11.9,0C608,647,608,650.7,608,654.6z"/>
	<path class="st1" d="M396.2,654.2c0-3.7,0-7.2,0-11c4.1,0,8.2,0,12.5,0c0,3.7,0,7.2,0,11C404.6,654.2,400.5,654.2,396.2,654.2z"/>
	<path class="st0" d="M232.2,603.1c-2.6,3.6-5.1,7-7.7,10.6c-2.8-2.2-5.4-4.3-8-6.6c2.8-3.5,5.6-6.8,8.4-10.3
		C227.3,598.9,229.8,600.9,232.2,603.1z"/>
	<path class="st1" d="M347.6,642.6c0,3.9,0,7.6,0,11.1c-4,0-7.9,0-12.2,0c0.4-4.2,0.8-8,1.1-12C340.3,642.1,343.9,642.4,347.6,642.6
		z"/>
	<path class="st0" d="M189.9,553.7c-3.9,2.7-7.6,5.1-11.5,7.7c-1.8-3-3.3-5.8-5.1-8.8c4-2.3,7.7-4.5,11.7-6.8
		C186.5,548.4,188.1,550.9,189.9,553.7z"/>
	<path class="st0" d="M870,342.5c0,2.8,0,5.5,0,8.4c-5.1,0-10.3,0-15.5,0c0-2.7,0-5.5,0-8.4C859.6,342.5,864.6,342.5,870,342.5z"/>
	<path class="st0" d="M778.3,157c-2-1.6-3.8-3-5.8-4.7c3.2-4.2,6.2-8.2,9.5-12.5c2.5,1.8,4.8,3.5,7.4,5.2
		C785.6,149.2,782,153,778.3,157z"/>
	<path class="st0" d="M143,342c4.8,0,9.3,0,13.9,0c-0.1,3.1-0.3,6.2-0.4,9.6c-4.6,0-9,0-13.5,0C143,348.3,143,345.2,143,342z"/>
	<path class="st0" d="M813.3,566.6c4.2,3.2,8.4,6.4,12.8,9.7c-1.8,2.1-3.3,4.1-5.1,6.4c-4.3-3.2-8.6-6.5-12.9-9.7
		C809.9,570.7,811.6,568.6,813.3,566.6z"/>
	<path class="st1" d="M277.8,641.7c1.8-4,3.5-7.7,5.1-11.7c2.9,0.9,5.7,1.8,8.8,2.8c-0.9,4.1-1.8,8-2.8,12.4
		C285.2,644.1,281.6,643,277.8,641.7z"/>
	<path class="st0" d="M862.5,252.1c0.7,2.8,1.3,5.5,2,8.2c-5.7,0.9-11.1,1.8-16.9,2.7c-0.7-2.1-1.2-4.1-1.9-6.5
		C851.2,255.2,856.8,253.7,862.5,252.1z"/>
	<path class="st0" d="M161.2,485.3c0.8,3.5,1.6,6.6,2.3,9.9c-4,0.9-7.9,1.7-12.2,2.6c-0.9-3.6-1.7-6.9-2.6-10.7
		C153,486.6,156.9,485.9,161.2,485.3z"/>
	<path class="st0" d="M264.9,636.8c1.6-4,3.1-7.8,4.8-11.8c3.2,1.3,6.5,2.6,9.8,3.9c-1.8,3.9-3.5,7.6-5.1,11.6
		C271.1,639.3,268.1,638.1,264.9,636.8z"/>
	<path class="st0" d="M798.4,605.8c-2.1,1.8-4,3.5-6.1,5.4c-3.6-3.8-7-7.5-10.7-11.5c2-1.9,4-3.6,6.1-5.5
		C791.2,598,794.7,601.9,798.4,605.8z"/>
	<path class="st0" d="M186.7,183.5c1.8-2.5,3.5-4.7,5.2-7c4.2,3.5,8.2,6.7,12.5,10c-1.6,2-3,3.9-4.5,5.9
		C195.5,189.4,191.3,186.5,186.7,183.5z"/>
	<path class="st1" d="M639,654.6c-3.8,0-7.4,0-11.3,0c0-3.8,0-7.5,0-11.4c3.8,0,7.4,0,11.3,0C639,647,639,650.7,639,654.6z"/>
	<path class="st0" d="M221.8,594.5c-2.7,3.3-5.4,6.7-8.4,10.4c-2.3-2.7-4.7-5.1-7.1-7.9c3-2.8,6.2-5.7,9.5-8.8
		C217.8,590.2,219.7,592.2,221.8,594.5z"/>
	<path class="st0" d="M165.2,536.8c-1.3-3.1-2.6-5.9-4-9c3.9-1.8,7.8-3.5,11.7-5.2c1.4,3,2.7,5.8,4.1,8.9
		C173.1,533.3,169.3,535.1,165.2,536.8z"/>
	<path class="st0" d="M171.3,549.3c-1.6-3.1-3-5.9-4.6-9c4-1.8,7.9-3.6,12-5.4c1.4,2.6,2.8,5,4.2,7.7
		C179.2,544.8,175.5,547,171.3,549.3z"/>
	<path class="st1" d="M381.4,654.1c0-3.7,0-7.2,0-11c3.6,0,7.1,0,10.8,0c0,3.6,0,7.2,0,11C388.7,654.1,385.2,654.1,381.4,654.1z"/>
	<path class="st0" d="M871.1,442c0.1,2.7,0.3,5.1,0.4,7.8c-5.8,0-11.4,0-17.1,0c0-2.6,0-5.1,0-7.8C860,442,865.5,442,871.1,442z"/>
	<path class="st0" d="M157.1,338.3c-4.7,0-9,0-13.6,0c0-3,0-6,0-9c4.6,0,9,0,13.6,0C157.1,332.2,157.1,335.1,157.1,338.3z"/>
	<path class="st1" d="M363,654.2c-3.9,0-7.6,0-11.4,0c0-3.8,0-7.6,0-11.3c3.8,0,7.5,0,11.4,0C363,646.8,363,650.3,363,654.2z"/>
	<path class="st0" d="M852.2,287.4c-0.3-2.7-0.7-4.9-1.1-7.5c5.6-0.9,10.8-1.7,16.4-2.6c0.3,2.6,0.6,4.9,0.9,7.5
		C862.9,285.6,857.8,286.5,852.2,287.4z"/>
	<path class="st1" d="M451.7,105.6c0,3.8,0,7.5,0,11.3c-3.6,0-7,0-10.6,0c0-3.7,0-7.4,0-11.3C444.5,105.6,447.9,105.6,451.7,105.6z"
		/>
	<path class="st1" d="M380.6,105.6c0,3.7,0,7.4,0,11.1c-3.6,0-7.1,0-10.8,0c0-3.7,0-7.4,0-11.1C373.2,105.6,376.8,105.6,380.6,105.6
		z"/>
	<path class="st0" d="M197.4,587.6c3.7-3,7-5.9,10.6-8.9c1.8,2.1,3.6,4.2,5.5,6.6c-3.3,3-6.6,6-10,9.3
		C201.4,592.1,199.4,589.9,197.4,587.6z"/>
	<path class="st0" d="M868.7,288.4c0.2,2.8,0.4,5.4,0.8,8.1c-5.5,0.4-10.6,0.8-16.1,1.2c-0.2-2.3-0.4-4.5-0.8-6.8
		C858,290.1,863.2,289.2,868.7,288.4z"/>
	<path class="st1" d="M286.6,127.6c-2.9,1-5.5,2-8.4,3.1c-1.8-3.9-3.5-7.7-5.2-11.8c3-1,6-2,9.4-3.2
		C283.7,119.8,285.2,123.6,286.6,127.6z"/>
	<path class="st1" d="M683.6,642.3c0.3,4.1,0.6,8,0.9,12.2c-3.6,0-6.8,0-10.4,0c-0.2-3.7-0.6-7.5-0.8-11.4
		C676.7,642.9,680,642.6,683.6,642.3z"/>
	<path class="st0" d="M144.6,437.3c4.3,0,8.5,0,12.9,0c0,2.9,0,5.8,0,8.9c-4.2,0-8.5,0-12.9,0C144.6,443.2,144.6,440.3,144.6,437.3z
		"/>
	<path class="st0" d="M854.5,391.7c0-2.6,0-4.9,0-7.4c5.2,0,10.5,0,15.8,0c0,2.5,0,4.8,0,7.4C865.1,391.7,859.9,391.7,854.5,391.7z"
		/>
	<path class="st0" d="M742.8,119.4c2.8,1.1,5.2,2.1,8.1,3.3c-1.9,4.1-3.8,8.2-5.8,12.5c-2.7-1.2-5.2-2.5-7.9-3.8
		C739.1,127.5,740.9,123.6,742.8,119.4z"/>
	<path class="st0" d="M235.2,605.4c2.6,1.8,4.9,3.5,7.4,5.1c-2.6,3.6-5,6.9-7.6,10.5c-2.5-1.7-4.9-3.3-7.4-5.1
		C230.2,612.4,232.7,609,235.2,605.4z"/>
	<path class="st1" d="M331.8,653.4c-3.3-0.4-6.2-0.8-9.6-1.1c0.3-4.1,0.7-8,1-12.3c3.3,0.4,6.4,0.9,9.7,1.3
		C332.5,645.4,332.2,649.3,331.8,653.4z"/>
	<path class="st1" d="M477,105.6c0,3.8,0,7.4,0,11.3c-3.3,0-6.6,0-10,0c0-3.7,0-7.4,0-11.3C470.2,105.6,473.4,105.6,477,105.6z"/>
	<path class="st1" d="M480.8,105.5c3.5,0,6.8,0,10.3,0c0,3.8,0,7.5,0,11.3c-3.3,0-6.7,0-10.3,0C480.8,113.2,480.8,109.5,480.8,105.5
		z"/>
	<path class="st1" d="M617.9,116.9c-3.5,0-6.8,0-10.3,0c0-3.8,0-7.5,0-11.4c3.5,0,6.8,0,10.3,0C617.9,109.3,617.9,113.1,617.9,116.9
		z"/>
	<path class="st1" d="M581.8,654.4c0-3.9,0-7.5,0-11.3c3.5,0,6.8,0,10.4,0c0,3.8,0,7.4,0,11.3C588.8,654.4,585.4,654.4,581.8,654.4z
		"/>
	<path class="st0" d="M144.4,433.5c-0.2-2.8-0.3-5.5-0.6-8.4c4.6,0,9,0,13.6,0c0,2.8,0,5.5,0,8.4
		C153.2,433.5,148.8,433.5,144.4,433.5z"/>
	<path class="st1" d="M738,643.4c-2.6,0.9-4.9,1.8-7.6,2.7c-1.4-4.6-2.9-8.9-4.3-13.5c2.6-1,4.9-1.9,7.5-3
		C735,634.3,736.4,638.7,738,643.4z"/>
	<path class="st1" d="M724.6,113.2c-1.2,4.1-2.5,7.9-3.7,12c-2.7-0.8-5.2-1.6-7.8-2.3c0.7-4.1,1.2-7.9,1.9-12.2
		C718.4,111.6,721.4,112.3,724.6,113.2z"/>
	<path class="st1" d="M377.4,654.2c-3.6,0-6.8,0-10.4,0c0-3.7,0-7.2,0-11c3.3,0,6.8,0,10.4,0C377.4,646.8,377.4,650.4,377.4,654.2z"
		/>
	<path class="st0" d="M171,209.3c1.2-2.1,2.3-4.2,3.6-6.6c4.6,2.7,9,5.1,13.6,7.8c-1,1.9-2,3.6-3.1,5.6
		C180.5,213.9,175.8,211.5,171,209.3z"/>
	<path class="st1" d="M621.7,105.5c3.2,0,6.4,0,9.6,0c0,3.7,0,7.4,0,11.3c-3.1,0-6.4,0-9.6,0C621.7,113.1,621.7,109.5,621.7,105.5z"
		/>
	<path class="st1" d="M603.8,116.9c-3.2,0-6.4,0-9.6,0c0-3.8,0-7.5,0-11.4c3.1,0,6.4,0,9.6,0C603.8,109.3,603.8,113,603.8,116.9z"/>
	<path class="st0" d="M754.6,140.3c-2.1-1.1-3.9-2.1-6.1-3.3c2-4.2,3.9-8.4,5.9-12.7c2.6,1.2,4.9,2.5,7.5,3.7
		C759.3,132.2,757,136.2,754.6,140.3z"/>
	<path class="st0" d="M805.9,183.8c-1.2-1.2-2.2-2.5-3.6-3.8c4.3-4,8.6-7.9,13-11.9c1.7,1.6,3.2,3.1,5,4.8
		C815.5,176.5,810.9,180.1,805.9,183.8z"/>
	<path class="st1" d="M329.6,106.2c3.1-0.2,5.9-0.4,9-0.7c0.4,4,0.9,7.8,1.2,11.8c-3.1,0.2-6,0.4-9.1,0.7
		C330.5,114.1,330.1,110.3,329.6,106.2z"/>
	<path class="st1" d="M695.2,640.8c0.7,4.3,1.2,8.4,1.8,12.6c-3,0.3-5.7,0.6-8.8,0.9c-0.3-4.2-0.6-8.2-0.9-12.5
		C689.8,641.5,692.4,641.2,695.2,640.8z"/>
	<path class="st0" d="M159.1,302.2c-0.2,2.6-0.3,4.9-0.6,7.5c-4.7,0-9.3,0-14.2,0c0.2-2.6,0.4-4.9,0.7-7.5
		C149.8,302.2,154.5,302.2,159.1,302.2z"/>
	<path class="st1" d="M580.9,105.5c3.1,0,5.9,0,9,0c0,3.7,0,7.4,0,11.4c-2.9,0-5.9,0-9,0C580.9,113.1,580.9,109.4,580.9,105.5z"/>
	<path class="st1" d="M424.4,654.4c0-3.8,0-7.4,0-11.1c2.9,0,5.8,0,8.9,0c0,3.7,0,7.4,0,11.1C430.5,654.4,427.6,654.4,424.4,654.4z"
		/>
	<path class="st0" d="M184.6,570.9c-1.4-2.2-2.8-4.2-4.2-6.2c3.8-2.6,7.5-5,11.4-7.7c1.3,1.9,2.6,3.7,4,5.7
		C192.2,565.4,188.5,568.1,184.6,570.9z"/>
	<path class="st1" d="M708.7,651.5c-2.9,0.4-5.4,0.9-8.1,1.4c-0.7-4.3-1.2-8.5-1.9-12.9c2.3-0.4,4.7-1,7.2-1.6
		C706.9,643,707.8,647.1,708.7,651.5z"/>
	<path class="st1" d="M303.2,636.1c-1,4.1-1.9,8-2.8,12.2c-2.7-0.7-5.2-1.3-7.8-2c1-4.2,1.9-8.1,2.8-12.3
		C298,634.7,300.5,635.4,303.2,636.1z"/>
	<path class="st1" d="M420.8,654.7c-3-0.1-5.6-0.3-8.4-0.4c0-3.7,0-7.2,0-11.1c2.8,0,5.5,0,8.4,0C420.8,647,420.8,650.7,420.8,654.7
		z"/>
	<path class="st1" d="M305.6,109.8c3.1-0.6,5.7-1,8.5-1.6c0.7,3.9,1.4,7.8,2.1,11.8c-2.7,0.6-5.2,1-8,1.6
		C307.2,117.8,306.5,113.9,305.6,109.8z"/>
	<path class="st0" d="M162.5,275.3c-4.8-0.6-9.5-1.1-14.4-1.8c0.6-2.8,1-5.2,1.4-8.1c4.8,1.4,9.5,2.9,14.2,4.3
		C163.3,271.7,163,273.4,162.5,275.3z"/>
	<path class="st0" d="M177.5,231.3c-0.8,1.8-1.6,3.5-2.5,5.4c-4.8-1.8-9.4-3.6-14.2-5.4c0.9-2.2,1.8-4.2,2.8-6.7
		C168.3,226.9,172.8,229.1,177.5,231.3z"/>
	<path class="st1" d="M669.5,643.3c0.2,3.9,0.6,7.5,0.8,11.3c-3,0-5.8,0-8.9,0c0-3.7,0-7.4,0-11.3
		C664,643.3,666.5,643.3,669.5,643.3z"/>
	<path class="st0" d="M228.9,160.6c-1.4,1.3-2.8,2.5-4,3.6c-3.8-3.6-7.5-7.1-11.3-10.8c1.8-1.6,3.3-2.9,5-4.2
		C222,152.9,225.3,156.7,228.9,160.6z"/>
	<path class="st0" d="M268.9,134.7c-2.2-3.9-4.3-7.6-6.7-11.6c2.5-1,4.8-1.9,7.2-3c1.8,4,3.6,7.9,5.4,11.9
		C272.8,133,271,133.9,268.9,134.7z"/>
	<path class="st0" d="M254.4,632c2-4,3.8-7.7,5.7-11.5c2.1,1,4,1.9,6.1,2.9c-1.6,4-3.1,7.8-4.8,11.8
		C259.1,634.2,256.9,633.2,254.4,632z"/>
	<path class="st0" d="M157,399.1c0,2.2,0,4.2,0,6.4c-4.5,0-8.8,0-13.4,0c-0.1-2-0.2-4.1-0.3-6.4C147.9,399.1,152.3,399.1,157,399.1z
		"/>
	<path class="st1" d="M693.2,118.7c-2.7-0.3-4.9-0.7-7.4-1c0.2-3.9,0.4-7.6,0.8-11.7c2.8,0.3,5.5,0.6,8.5,0.9
		C694.4,111,693.8,114.7,693.2,118.7z"/>
	<path class="st1" d="M326,106.5c0.4,4,0.8,7.8,1.2,11.8c-2.5,0.3-4.8,0.8-7.5,1.1c-0.7-3.8-1.3-7.6-2-11.8
		C320.5,107.4,323.1,107,326,106.5z"/>
	<path class="st0" d="M870.4,395.7c0,2,0,3.9,0,5.9c-5.4,0-10.6,0-15.9,0c0-2,0-3.9,0-5.9C859.7,395.7,865,395.7,870.4,395.7z"/>
	<path class="st1" d="M519.3,116.9c-2.7,0-5.2,0-8,0c0-3.8,0-7.4,0-11.3c2.6,0,5.1,0,8,0C519.3,109.2,519.3,112.9,519.3,116.9z"/>
	<path class="st1" d="M651.8,105.5c2.7,0,5.2,0,8,0c0,3.8,0,7.5,0,11.4c-2.6,0-5.2,0-8,0C651.8,113.1,651.8,109.4,651.8,105.5z"/>
	<path class="st1" d="M392.2,116.9c-2.7,0-5.2,0-7.9,0c0-3.8,0-7.5,0-11.4c2.7,0,5.1,0,7.9,0C392.2,109.3,392.2,113,392.2,116.9z"/>
	<path class="st0" d="M159.4,474.5c0.3,2.5,0.7,4.6,1.1,7.1c-4.1,0.6-8.2,1.2-12.4,1.8c-0.4-2.5-0.8-4.6-1.1-7.1
		C151.1,475.7,155.1,475.2,159.4,474.5z"/>
	<path class="st1" d="M671.4,116.8c-2.7,0-5.1,0-7.6,0c0-3.8,0-7.4,0-11.1c2.6,0,5.2,0,8.1,0C671.9,109.2,671.7,112.9,671.4,116.8z"
		/>
	<path class="st1" d="M463,116.9c-2.6,0-4.9,0-7.5,0c0-3.7,0-7.4,0-11.3c2.5,0,4.9,0,7.5,0C463,109.3,463,113,463,116.9z"/>
	<path class="st1" d="M419.7,116.9c-2.6,0-4.9,0-7.4,0c0-3.8,0-7.4,0-11.3c2.3,0,4.8,0,7.4,0C419.7,109.3,419.7,113,419.7,116.9z"/>
	<path class="st0" d="M145.4,298.1c0.1-1.9,0.2-3.7,0.3-5.6c4.9,0,9.6,0,14.4,0c-0.1,1.9-0.3,3.7-0.4,5.6
		C154.8,298.1,150.3,298.1,145.4,298.1z"/>
	<path class="st0" d="M158.9,470.8c-4.2,0.6-8.4,1.1-12.6,1.7c-0.3-2.5-0.6-4.7-0.9-7.2c4.5,0,8.6,0,13.2,0
		C158.8,467.2,158.8,468.9,158.9,470.8z"/>
	<path class="st1" d="M675.6,105.5c2.7,0,4.7,0,6.9,0c0,3.9,0,7.7,0,11.5c-2.6,0-4.8,0-6.9,0C675.6,113.1,675.6,109.4,675.6,105.5z"
		/>
	<path class="st0" d="M854.5,423.7c0-1.6,0-3.1,0-4.8c5.4,0,10.6,0,16.3,0c0.1,1.6,0.2,3,0.3,4.8C865.4,423.7,860,423.7,854.5,423.7
		z"/>
	<path class="st0" d="M154.2,508.1c-0.7-2.2-1.2-4.2-1.9-6.6c4.1-0.9,7.9-1.7,12.2-2.6c0.4,1.6,0.9,3.1,1.4,4.9
		C162,505.2,158.2,506.6,154.2,508.1z"/>
	<path class="st1" d="M342.5,105.5c2.2,0,4.1,0,6.2,0c0,3.8,0,7.5,0,11.4c-1.7,0-3.2,0-5,0C343.2,113.2,342.9,109.5,342.5,105.5z"/>
	<path class="st1" d="M558.1,105.4c0,4,0,7.6,0,11.4c-1,0-1.9,0-3,0c0-3.7,0-7.4,0-11.3C555.9,105.5,556.8,105.4,558.1,105.4z"/>
	<path class="st1" d="M711.5,640.4c0.4-0.4,1-0.9,1.8-1.6c0,2.7,0,4.8,0,6.9c-0.2,0-0.6,0.1-0.8,0.1c-0.1-1.6-0.3-3-0.4-4.6
		C711.9,641,711.7,640.7,711.5,640.4z"/>
	<path class="st1" d="M363.8,146.9c-0.1,0.1-0.2,0.2-0.3,0.2c0-0.2,0-0.4,0-0.7C363.5,146.7,363.6,146.8,363.8,146.9z"/>
</g>
<path class="st0" d="M840,564.6c-1.8,2.8-3.3,5.4-5,8.1c-4.7-2.9-9.1-5.6-13.8-8.5c1.7-2.8,3.3-5.5,5-8.4
	C830.8,558.8,835.3,561.6,840,564.6z"/>
<g id="stage">
	<g>
		<rect x="321.7" y="347.6" class="st2" width="44" height="64.7"/>
		<polygon class="st2" points="394.6,320.4 321.7,320.4 321.7,344.2 369.1,344.2 369.1,415.3 321.7,415.3 321.7,439.3 394.6,439.3 
					"/>
		<polygon class="st2" points="631.1,439.3 704.1,439.3 704.1,415.3 657.8,415.3 657.8,344.2 704.1,344.2 704.1,320.4 631.1,320.4 
					"/>
		<rect x="661.2" y="347.6" class="st2" width="43.1" height="64.7"/>
		<path class="st2" d="M397.8,352.3v55.1c14.6-0.9,26.5-12.8,26.5-27.6C424.3,364.9,412.9,353.3,397.8,352.3z"/>
		<path class="st2" d="M628,407.4v-55.1c-14.6,0.9-26.5,12.8-26.5,27.6C601.6,394.8,613.2,406.7,628,407.4z"/>
		<path class="st2" d="M515.9,331.4v96.9c25.9-1.4,46.8-22.5,46.8-48.4C562.6,353.6,541.8,332.6,515.9,331.4z"/>
		<path class="st2" d="M464.3,379.8c0,26.5,21.6,48.3,48.4,48.7v-97.2C485.7,331.7,464.3,353.3,464.3,379.8z"/>
		<path class="st2" d="M321.7,265.5v51.6H398v32c16.4,0.9,29.9,14.6,29.9,31c0,16.4-13,29.9-29.9,31v32h-76.2v51.6h382.4v-51.6
			h-76.2v-32c-16.4-0.9-29.9-14.6-29.9-31s13-29.9,29.9-31v-32h76.2v-51.6H321.7L321.7,265.5z M515.9,431.7v61.8h-3.3v-61.8
			c-28.6-0.6-51.7-23.6-51.7-52.1s23.1-51.6,51.7-52.1v-61.4h3.3v61.8c27.9,1.4,50.2,24.3,50.2,52.1
			C566,407.7,543.9,430.7,515.9,431.7z"/>
	</g>
</g>
<path class="st1" d="M703.3,602.6c7.6-2.5,15-4.8,22.7-7.2c3.2,10.1,6.7,20.5,10.1,31.4c-9.1,2.7-18.1,5.2-27.2,7.9
	C707.1,623.8,705.2,613.3,703.3,602.6z"/>
<path class="st0" d="M740.5,622.6c-3.5-10.5-6.8-20.7-10-30.7c7.1-4.1,13.9-8.2,21.2-12.5c5.7,8.5,11.9,17.6,18.4,27.2
	C760.7,612.9,750.9,617.9,740.5,622.6z"/>
</svg>
