<?xml version="1.0" encoding="utf-8"?>
<!-- Generator: Adobe Illustrator 21.1.0, SVG Export Plug-In . SVG Version: 6.00 Build 0)  -->
<svg version="1.1" id="Laag_1" xmlns="http://www.w3.org/2000/svg" xmlns:xlink="http://www.w3.org/1999/xlink" x="0px" y="0px"
	 viewBox="0 0 1024 768" style="enable-background:new 0 0 1024 768;" xml:space="preserve">
<style type="text/css">
	.st0{fill:#ACCA5A;}
	.st1{fill:#93B8D2;}
	.st2{fill:#F8B65F;}
	.st3{fill:#85BB3E;}
</style>
<g id="blocks">
	<g id="CAT_1_PREMIUM">
		<g>
			<path class="st0" d="M565.1,219.5l0.6-21.4c-12-0.3-24.5-0.6-38.1-0.8l-0.3,21.4C537.9,219,551.2,219.3,565.1,219.5z"/>
			<path class="st0" d="M602.7,220.7l1.7-21.1c-11.1-0.6-22.8-1.1-35.9-1.4l-0.6,21.4C579.6,220.1,591.9,220.4,602.7,220.7z"/>
			<path class="st0" d="M509.2,218.4c0.3,0,6.4,0,15.6,0.3l0.3-21.4c-4.2,0-8.6,0-13.1,0c-7.8,0-15,0-22.3,0v22
				C501.4,218.7,508.9,218.4,509.2,218.4z"/>
			<path class="st0" d="M409.3,222.3l-1.7-22.3c-13.9,0.8-26.4,1.9-37.8,3.3l2.2,20.9C383.2,223.4,396,222.9,409.3,222.3z"/>
			<path class="st0" d="M448,220.7l-0.8-22.3h2.8l0.8,22.3c13.6-0.6,26.2-1.1,36.2-1.4v-22c-28.9,0.3-54.3,1.1-76.5,2.5l1.7,22.3
				C424.1,221.5,436.3,220.9,448,220.7z"/>
			<path class="st0" d="M612.2,145.5l-3.1,39.2c14.2,0.8,26.7,1.7,38.1,2.8l4.7-39C638.9,147.2,625.5,146.4,612.2,145.5z"/>
			<path class="st0" d="M569.9,144.1l-1.4,39c13.6,0.3,26.2,0.8,37.8,1.4l3.1-39.2C596.3,145,583,144.4,569.9,144.1z"/>
			<path class="st0" d="M635.5,222.6c0.6,0,3.1,0,7,0.3l2.5-20.3c-11.4-1.1-23.9-1.9-37.8-2.8l-1.7,21.1
				C618.3,221.5,629.1,222.1,635.5,222.6z"/>
			<path class="st0" d="M406.3,146.9l3.1,36.2c13.1-0.8,25.9-1.4,37.8-1.7l-1.4-36.5C431,145.8,417.7,146.4,406.3,146.9z"/>
			<path class="st0" d="M363.7,149.4l4.5,37.3c12.8-1.4,25.6-2.5,38.4-3.3l-3.1-36.2C382.6,148.3,368.4,149.1,363.7,149.4z"/>
			<path class="st0" d="M448.3,145.3l1.4,36.5c8.1-0.3,15.9-0.3,23.1-0.3c5,0,9.7,0,13.9,0l-0.6-37.3
				C473,144.4,460.2,144.7,448.3,145.3z"/>
			<path class="st0" d="M528.4,143.9l-0.6,38.7c13.6,0.3,26.2,0.3,38.1,0.8l1.4-39C554,143.9,541.2,143.9,528.4,143.9z"/>
			<path class="st0" d="M488.9,144.1l0.6,37.6c13.9,0.3,22.3,0.6,22.5,0.6c4.5,0,8.6,0,12.8,0l0.6-38.7
				C513.1,143.9,500.9,143.9,488.9,144.1z"/>
			<path class="st0" d="M403.2,144.4l-1.9-22.5c-19.2,1.1-35.3,2.2-40.3,2.5l2.8,22.5C367.9,146.4,382.1,145.5,403.2,144.4z"/>
			<path class="st0" d="M652.2,145.5L655,123c-11.7-1.1-25.9-1.7-40.9-2.5l-1.7,22.3C625.8,143.6,639.2,144.4,652.2,145.5z"/>
			<path class="st0" d="M567.1,141.4l0.8-22.3c-13.9-0.3-27.3-0.6-39-0.8l-0.3,22.5C541.2,141.1,554.3,141.1,567.1,141.4z"/>
			<path class="st0" d="M445.5,142.5l-0.8-23.1c-13.1,0.6-27.5,1.4-40.6,2.2l1.9,22.5C417.4,143.6,430.7,143,445.5,142.5z"/>
			<path class="st0" d="M609.4,142.7l1.7-22.3c-13.1-0.6-27-0.8-40.3-1.4l-0.8,22.3C583.2,141.6,596.3,142.2,609.4,142.7z"/>
			<path class="st0" d="M486.1,141.4l-0.3-23.4c-0.3,0-0.8,0-1.4,0c-7.5,0-21.1,0.6-37.3,1.4l0.8,23.1
				C460.2,141.9,473,141.6,486.1,141.4z"/>
			<path class="st0" d="M525.6,141.1l0.3-22.5c-18.9-0.3-33.1-0.3-37.6-0.3l0.3,23.4C500.9,141.1,513.1,141.1,525.6,141.1z"/>
			<path class="st0" d="M412.4,224.8l1.9,26.4c11.1-0.6,22.8-1.4,34.5-1.9l-0.8-26.2C436.6,223.7,424.3,224.3,412.4,224.8z"/>
			<path class="st0" d="M372.3,226.8l2.8,27.3c10.9-0.8,23.1-1.7,36.5-2.5l-1.9-26.4C396.2,225.7,383.4,226.2,372.3,226.8z"/>
			<path class="st0" d="M450.8,223.2l0.8,26.2c12-0.6,23.7-0.8,35.1-1.1v-26.4C476.9,222.3,464.4,222.9,450.8,223.2z"/>
			<path class="st0" d="M635.3,225.4c-6.4-0.6-17.3-1.1-30.1-1.7l-2.2,28.1c13.1,0.8,25.3,1.7,35.6,2.8l3.3-28.7
				C638.1,225.4,635.5,225.4,635.3,225.4z"/>
			<path class="st0" d="M509.2,221.2c-0.3,0-7.8,0.3-19.5,0.6v26.4c3.9,0,7.5,0,11.4,0l0,0c1.9,0,3.6,0,5.6,0s3.6,0,5.6,0l0,0
				c4.2,0,8.3,0,12.5,0l0.3-26.7C515.3,221.2,509.5,221.2,509.2,221.2z"/>
			<path class="st0" d="M567.9,222.6l-0.8,27.3c11.4,0.6,22.8,1.1,33.4,1.9l2.2-27.8C591.6,223.2,579.6,222.9,567.9,222.6z"/>
			<path class="st0" d="M527.6,221.5l-0.3,26.7c12,0.3,24.5,0.6,37,1.1l0.8-27C551,222.1,537.6,221.8,527.6,221.5z"/>
		</g>
		<g>
			<path class="st0" d="M528.1,616.9v27.5c12.8,0,25-0.3,36.5-0.6l-0.6-28.1c-8.3,0.3-13.6,0.3-14.7,0.3
				C549.3,616.3,541.2,616.6,528.1,616.9z"/>
			<path class="st0" d="M447.4,647L447.4,647h-2.8l0,0c-19.2-0.6-38.1-1.4-56.5-2.5l-4.7,45.9c13.6,1.1,27,1.9,40.1,2.5l2.2-45.6
				h2.8l-2.2,45.6c13.4,0.6,26.2,0.8,38.1,1.1l0.8-46.5C459.4,647.2,453.3,647,447.4,647z"/>
			<path class="st0" d="M504.8,647.5c-12,0-24.5,0-36.7-0.3l-0.8,46.5c15,0.3,28.1,0.3,38.1,0.3v-46.5
				C505,647.5,505,647.5,504.8,647.5z"/>
			<path class="st0" d="M355.6,641.7c-1.7-0.3-3.3-0.3-5-0.6l-6.7,45.1c12,1.4,24.5,2.8,37,3.6l4.7-45.9
				C375.1,643.3,365.1,642.5,355.6,641.7z"/>
			<path class="st0" d="M564.9,647L564.9,647c-5,0-10,0.3-15.3,0.3l1.7,46.2c13.6-0.3,26.4-0.6,38.4-0.8l-2.8-46.2
				c-6.1,0.3-12.5,0.3-19.2,0.6l0,0L564.9,647L564.9,647z"/>
			<path class="st0" d="M508.1,647.5V694c11.4,0,18.4-0.3,18.6-0.3c7.5,0,14.7,0,21.7,0l-1.7-46.2
				C534.5,647.5,521.5,647.5,508.1,647.5z"/>
			<path class="st0" d="M567.1,616.1l0.6,28.1c13.9-0.3,26.7-0.6,38.1-1.1l-1.7-28.4C589.4,615.5,576.6,615.8,567.1,616.1z"/>
			<path class="st0" d="M495.6,617.5c-1.9,0-4.2,0-6.4,0v27.3c12.2,0,24.5,0,36.2,0v-27.5C517,617.2,507,617.5,495.6,617.5z"/>
			<path class="st0" d="M406.5,611.6l1.9-28.1c-11.1-0.6-22.8-1.1-34.5-1.9l-2.8,26.7C382.9,609.7,394.9,610.8,406.5,611.6z"/>
			<path class="st0" d="M448.6,616.6l-1.1,27.5c13.1,0.3,26.2,0.6,39,0.6v-27.3C474.7,617.2,461.9,617.2,448.6,616.6z"/>
			<path class="st0" d="M525.4,614.4v-17.8h-20h-2.8h-13.4V615C503.4,614.7,515.6,614.4,525.4,614.4z"/>
			<path class="st0" d="M409.3,614.7l-1.9,28.1c12.5,0.6,25,1.1,37.6,1.4l1.1-27.5C434.1,616.1,421.6,615.5,409.3,614.7z"/>
			<path class="st0" d="M446.1,613.8l1.1-28.9c-9.7-0.3-22-0.6-35.6-1.1l-1.9,28.1C421.8,612.7,434.1,613.3,446.1,613.8z"/>
			<path class="st0" d="M486.4,614.7v-18.1h-18.9v-11.1c0,0-6.7,0-17.5-0.3l-1.1,28.9C462.2,614.4,474.7,614.4,486.4,614.7z"/>
			<path class="st0" d="M549.6,613.6c0.3,0,5.8,0,14.7-0.3l-0.6-28.4c-11.1,0.3-18.1,0.3-18.1,0.3v11.1h-17.3v17.8
				C541.2,613.8,549,613.6,549.6,613.6z"/>
			<path class="st0" d="M603.5,611.6l-1.7-28.1c-13.4,0.6-25.9,0.8-35.6,1.1l0.6,28.4C576.6,613,589.4,612.7,603.5,611.6z"/>
			<path class="st0" d="M642.8,608.6l-2.8-27c-12,0.8-23.9,1.4-35.3,1.9l1.7,28.1C618,610.8,630.3,609.9,642.8,608.6z"/>
			<path class="st0" d="M370.9,611.1l-3.1,28.9c12,1.1,24.2,1.7,36.7,2.5l1.9-28.1C394.6,613.6,382.6,612.5,370.9,611.1z"/>
			<path class="st0" d="M606.6,614.4l1.7,28.4c16.1-0.6,29.2-1.1,37.6-1.4l-3.1-30.1C630.5,612.7,618,613.8,606.6,614.4z"/>
			<path class="st0" d="M633.3,690.4l-3.9-45.4c-10.9,0.6-24.2,0.8-39.8,1.4l2.8,46.2C607.2,692,620.8,691.2,633.3,690.4z"/>
			<path class="st0" d="M673.1,686.7l-5.6-44c-3.6,0.3-7.5,0.6-11.1,0.8c-0.3,0-9.2,0.6-24.2,1.1l3.9,45.4
				C649.7,689.3,662.3,687.9,673.1,686.7z"/>
			<path class="st0" d="M526.7,696.5c-0.3,0-7.2,0.3-18.6,0.3v26.4c5.8,0,9.2-0.3,9.5-0.3c7.8,0.6,18.9,0.6,32,0l-0.8-26.7
				C541.5,696.5,534.3,696.5,526.7,696.5z"/>
			<path class="st0" d="M551.2,696.2l0.8,26.7c12-0.3,25-0.8,39-1.7l-1.7-25.9C577.7,695.9,564.9,696.2,551.2,696.2z"/>
			<path class="st0" d="M636.4,692.9l2.2,25.6c13.9-0.8,27-1.9,38.1-2.8l-3.3-26.2C662.5,690.6,650,692,636.4,692.9z"/>
			<path class="st0" d="M426,695.4l-1.4,27c13.9,0.6,27.3,0.8,39,0.8l0.6-26.7C452.5,696.5,439.7,695.9,426,695.4z"/>
			<path class="st0" d="M592.4,695.4l1.7,25.9c13.9-0.8,28.1-1.7,41.7-2.5l-2.2-25.6C621.1,694,607.4,694.8,592.4,695.4z"/>
			<path class="st0" d="M383.2,692.9l-2.8,27c14.2,1.1,28.1,1.7,41.5,2.2l1.4-27C410.4,694.8,396.8,694,383.2,692.9z"/>
			<path class="st0" d="M343.4,689l-4.2,27.3c12.5,1.4,25.6,2.8,38.4,3.6l2.8-27C367.9,691.8,355.6,690.4,343.4,689z"/>
			<path class="st0" d="M493.9,696.8c-8.1,0-17,0-27-0.3l-0.6,26.7c16.1,0.3,29.8,0,38.7,0v-26.4C502,696.8,498.1,696.8,493.9,696.8
				z"/>
		</g>
	</g>
	<g id="CAT_3">
		<g>
			<path class="st1" d="M204.5,95.2c6.1-2.5,12.5-4.7,19.2-7l-13.9-37c-13.4,5-25.9,10.6-36.7,17l17.8,33.1
				C195.3,99.1,199.8,97.1,204.5,95.2z"/>
			<path class="st2" d="M64.6,276.9L44,271.3c-2.5,14.5-4.2,29.8-4.7,45.9L52,320l1.9,0.3C55.7,311.1,59,295.5,64.6,276.9z"/>
			<path class="st2" d="M150.5,129.1l-22.8-25.3c-8.3,8.3-17.8,18.9-27.3,32l25,19.8C133,146.1,141.4,137.2,150.5,129.1z"/>
			<path class="st1" d="M188.4,102.7l-17.8-33.1c-5.8,3.3-10.9,7-15.6,10.9c0,0-10.6,6.7-25.3,21.1l23.1,25.3
				C163.3,117.7,175.3,109.6,188.4,102.7z"/>
			<path class="st2" d="M123.5,157.8l-25-19.8c-8.6,12-17.5,26.2-25.6,42.3l26.4,13.6C106.3,181.4,114.4,169.2,123.5,157.8z"/>
			<path class="st2" d="M97.9,196.2l-26.2-13.6c-6.1,12.8-12,26.7-16.7,42.3l24.8,8.9C84.9,221.5,91,208.7,97.9,196.2z"/>
			<path class="st2" d="M78.7,236.2l-24.8-8.6c-3.9,12.8-7.2,26.4-9.7,40.9l21.1,5.6C69,262.4,73.5,249.6,78.7,236.2z"/>
			<path class="st2" d="M903,177.5c1.1,1.1,5.6,6.4,11.7,17.5l24.8-12.8c-7.8-15.9-16.4-30.1-25-42L892,157.7
				C896,163.9,899.9,170.6,903,177.5z"/>
			<path class="st1" d="M823.7,103.2l19.5-33.1c-11.4-7-24.8-13.1-39.2-18.6l-14,37.3C801.7,93.2,813.1,97.9,823.7,103.2z"/>
			<path class="st2" d="M890.2,155.3l22.5-17.5c-10.9-15-21.4-27.3-30.6-36.2l-20.6,24.8C872.6,135,882.4,144.7,890.2,155.3z"/>
			<path class="st1" d="M859.3,124.7l20.9-25c-13.1-12.8-22-18.9-22-18.9c-3.9-3.1-8.1-6.1-12.5-8.9l-19.5,32.8
				C838.1,110.5,849.3,117.1,859.3,124.7z"/>
			<path class="st2" d="M932.2,236.2l25.3-8.9c-5-15.6-10.9-29.8-17-42.6L916,197.5C920.8,206.7,926.6,219.3,932.2,236.2z"/>
			<path class="st2" d="M952.2,324.5l22.3-3.9c-0.8-15.9-2.5-30.9-5-45.1l-24.8,6.4C947.2,294.7,950,308.9,952.2,324.5z"/>
			<path class="st2" d="M943.9,279.4l25-6.4c-2.8-15.3-6.4-29.5-10.6-42.9L933,239C936.9,250.4,940.5,263.8,943.9,279.4z"/>
		</g>
		<g>
			<g>
				<path class="st2" d="M883.8,278c0,0.3,1.7,6.1,3.9,15.9l53.4-13.6c-3.3-15.3-7.2-28.7-10.9-40.1l-52.6,18.6
					C880.1,264.6,882.1,271,883.8,278z"/>
				<path class="st0" d="M839.2,194.8l48.7-37.8c-7.8-10.6-17.3-20-28.1-28.4L820,176.4C826.7,182,833.1,188.1,839.2,194.8z"/>
				<path class="st2" d="M876.8,255.7l52.6-18.6c-5.6-16.7-11.4-29.2-16.1-38.4l-51.2,26.7C867.6,234.9,872.6,244.9,876.8,255.7z"/>
				<path class="st0" d="M860.7,223.2l51.2-26.7c-6.7-12-11.1-17-11.4-17.3l-0.3-0.3c-3.1-7-6.7-13.4-10.9-19.5L840.9,197
					C848.1,204.8,854.8,213.4,860.7,223.2z"/>
				<path class="st2" d="M895.7,334.5l53.7-9.5c-2.2-15.6-4.7-29.8-7.5-42.3l-53.4,13.6C890.4,306.4,893.2,319.4,895.7,334.5z"/>
				<path class="st0" d="M817.8,174.5l39.8-47.9c-9.7-7.5-20.9-13.9-32.6-20l-30.3,51.2C802.2,163.1,810.3,168.3,817.8,174.5z"/>
				<path class="st0" d="M791.9,156.7l30.3-50.9c-10.6-5.3-21.7-9.7-33.4-13.9l-20,53.1C776.6,148.3,784.1,152.2,791.9,156.7z"/>
				<path class="st2" d="M896,337.3c1.9,12,3.6,25.3,5,39.2l51.8-4.5c-0.3-12-0.8-22-1.4-29.5c-0.6-5-1.1-9.7-1.9-14.5L896,337.3z"
					/>
				<path class="st2" d="M854,625.8l39.5,22c9.7-12.8,18.1-26.4,25.3-40.3l-45.9-17.3C867.6,602.2,861.5,614.4,854,625.8z"/>
				<path class="st2" d="M874,587.4l46.2,17.3c7-13.9,12.8-28.1,17.8-42.6l-50.6-13.6C883.8,561.3,879.3,574.3,874,587.4z"/>
				<path class="st2" d="M891,534c-0.8,3.9-1.9,8.1-3.1,12l50.9,13.6c5.3-15.6,9.5-31.7,12.8-47.3l-54.5-8.9
					C895.4,513.4,893.5,523.7,891,534z"/>
				<path class="st2" d="M901.8,460.5l47.6,4.7c1.7-15.9,2.5-30.9,3.1-45.1H903C903.2,424.6,903.5,439.7,901.8,460.5z"/>
				<path class="st2" d="M897.4,500.9l46.2,7.5c2.2-13.6,4.2-27,5.6-40.1l-47.6-4.7C900.7,474.4,899.6,487.2,897.4,500.9z"/>
				<path class="st2" d="M903,417.4h49.8c0.6-15.9,0.6-30.3,0.3-42.9l-51.8,4.5C902.4,391.5,903,404.6,903,417.4z"/>
				<path class="st2" d="M805.3,677.8l18.1,31.4c10.3-5.6,19.8-12,28.7-18.9l-25.9-29.5C819.8,667,812.8,672.6,805.3,677.8z"/>
				<path class="st2" d="M828.1,658.9l26.2,29.8c14.2-11.4,27-24.5,37.8-38.7l-39.2-21.7C845.4,639.2,837.3,649.5,828.1,658.9z"/>
			</g>
			<g>
				<path class="st2" d="M138.6,257.4l-57-20.3c-5.6,13.4-9.7,26.2-13.4,37.8l59.5,16.1C130.2,279.9,134.1,268.8,138.6,257.4z"/>
				<path class="st2" d="M154.4,225.4l-54-27.8c-7,12.5-12.8,25-18.1,37l57,20.3C143.9,244.9,148.9,235.1,154.4,225.4z"/>
				<path class="st0" d="M220.1,161.4l-30.3-56.2c-12.8,6.7-24.8,15-35.3,24.2l42.9,47.6C204.2,171.1,211.8,166.1,220.1,161.4z"/>
				<path class="st0" d="M235.1,153.6c0,0,3.9-2.2,11.1-5.6l-21.4-57c-6.7,2.2-13.1,4.5-18.9,6.7c-4.5,1.9-8.9,3.9-13.4,6.1
					l30.3,56.2C226.5,157.8,230.7,155.5,235.1,153.6z"/>
				<path class="st0" d="M174.7,198.1l-49-38.7c-8.9,11.4-17,23.4-23.9,35.6l54.3,28.1C161.4,214.5,167.8,205.9,174.7,198.1z"/>
				<path class="st0" d="M195.1,178.4l-42.9-47.3c-8.9,8.1-17.3,17-24.8,26.2l49,38.7C182.3,189.8,188.4,183.9,195.1,178.4z"/>
				<path class="st2" d="M115.2,416.6L52.3,416c0.3,14.7,1.1,30.6,2.5,47.3l62.9-5C116.6,443.8,115.8,429.1,115.2,416.6z"/>
				<path class="st2" d="M115.2,393.7c0-2.2,0.3-5,0.3-8.6c0-2.8,0.3-5.6,0.3-8.9l-62.9-6.4c-0.6,12.8-0.8,27.5-0.6,43.4l62.9,0.6
					C114.9,405.7,114.9,399,115.2,393.7z"/>
				<path class="st2" d="M119.1,334.7l-62.9-11.1c-0.6,5.8-2.2,21.4-3.3,43.4l62.9,6.4C116.3,362.9,117.1,349.5,119.1,334.7z"/>
				<path class="st2" d="M123,517.8c0-0.3-0.6-5-1.1-12.5l-59.5,11.4c2.8,14.5,6.1,29.2,10.3,43.4l56.8-15.3
					C126.9,536.2,124.7,527.3,123,517.8z"/>
				<path class="st2" d="M118,460.8l-62.6,5c1.4,15.6,3.6,31.7,6.4,47.9l59.8-11.4C120.5,492,119.1,476.7,118,460.8z"/>
				<path class="st2" d="M129.7,547.3l-56.8,15.3c4.5,14.7,9.5,28.9,15.9,42.9l54.3-19.8C138,574.3,133.6,561.5,129.7,547.3z"/>
				<path class="st2" d="M67.1,277.7c-5.6,18.6-8.9,33.9-10.6,43.1l62.9,11.1c1.7-12,3.9-25,7.2-38.1L67.1,277.7z"/>
				<path class="st2" d="M191.4,660.3L158,695.4c9.5,7,19.8,13.1,30.9,18.1l25.3-33.4C207.6,674.8,199.8,668.4,191.4,660.3z"/>
				<path class="st2" d="M164.7,626.9l-48.1,26.4c11.1,15,24.5,28.7,39.5,40.3l33.7-35.3C181.4,649.7,172.8,639.4,164.7,626.9z"/>
				<path class="st2" d="M144.1,588.5l-54,19.8c7,15,15,29.5,24.8,42.9l48.4-26.4C156.4,614.1,150,602.2,144.1,588.5z"/>
			</g>
		</g>
	</g>
	<g id="CAT_2">
		<path class="st1" d="M512,10.3c0,0-1.9,0-5.6,0c-3.6,0-5.6,0-5.6,0l0,0c-3.9,0-8.6,0.3-14.2,0.3l0.6,42.6
			c12.5-0.3,20-0.6,20.6-0.6c0.3,0,7.2-0.3,19.2-0.3l0.8-41.7C521.7,10.6,516.2,10.3,512,10.3L512,10.3z"/>
		<path class="st1" d="M442.7,12.2l1.7,42.6c15.9-0.8,29.5-1.4,40.1-1.9l-0.3-42.3C472.8,10.9,458.9,11.4,442.7,12.2z"/>
		<path class="st1" d="M394.9,15.9l3.6,42.6c15.6-1.4,30.1-2.2,43.4-3.1l-1.7-42.9C426.3,13.4,411,14.5,394.9,15.9z"/>
		<path class="st1" d="M304.7,27.3l5.8,41.5c13.4-2.2,26.7-3.9,40.1-5.6l-5-42C332,22.8,318.3,24.8,304.7,27.3z"/>
		<path class="st1" d="M348.1,20.9l5,42c14.5-1.7,28.7-3.1,42.3-4.5l-3.6-42.6C377.9,17.3,363.1,18.9,348.1,20.9z"/>
		<path class="st1" d="M669.8,21.4l-4.7,39c5.8,0.8,12,1.7,17.8,2.5c7,1.1,14.2,2.2,21.4,3.6l5.6-39
			C696.5,25.3,683.1,23.1,669.8,21.4z"/>
		<path class="st1" d="M574.3,12.5l-1.4,40.3c13.1,0.6,27.5,1.1,43.1,2.5l3.1-39.5C603,14.5,588,13.4,574.3,12.5z"/>
		<path class="st1" d="M530.1,52.3c10.3,0,24.2,0,40.1,0.6l1.4-40.6c-15.6-0.8-29.5-1.4-40.6-1.7L530.1,52.3z"/>
		<path class="st1" d="M621.6,16.1l-2.8,39.5c13.9,1.1,28.7,2.5,43.4,4.5l4.7-39C651.7,19.2,636.4,17.5,621.6,16.1z"/>
		<path class="st1" d="M171.1,269.1l-29.8-10.6c-4.5,11.1-8.1,22.3-11.1,33.4l30.3,8.3C163.3,289.7,166.7,279.4,171.1,269.1z"/>
		<path class="st1" d="M227.3,589.4c-7-8.3-9.5-14.7-10-16.4c-0.6-0.8-2.5-3.6-5-9.2L182,574.6c5,11.7,10.3,22,15.6,30.9
			L227.3,589.4z"/>
		<path class="st1" d="M270.5,583.8c-3.6-2.5-7-5.8-10.3-9.5l-28.4,15.6c5.3,5.8,12.8,12.5,23.1,18.9L270.5,583.8z"/>
		<path class="st1" d="M210.9,561.3c-3.1-7-6.7-17.8-10.3-33.1l-32,8.6c3.6,13.1,7.8,24.8,12,35.6L210.9,561.3z"/>
		<path class="st1" d="M200.1,525.4c-2.2-9.5-4.2-20.6-6.1-33.7l-33.7,6.4c2.2,13.1,4.7,25,7.8,36.2L200.1,525.4z"/>
		<path class="st1" d="M214.8,562.9c2.8,6.1,4.7,8.6,4.7,8.6l0.3,0.6c0,0.3,2.5,7,10.3,15.9l28.4-15.6c-4.7-5.8-8.6-13.1-12-20.9
			L214.8,562.9z"/>
		<path class="st1" d="M286.3,544.6l-32,16.4c5,8.9,11.4,16.4,18.6,21.1l1.1,0.8l-16.7,27.3c4.5,2.8,9.5,5.3,15,8.1l23.4-53.4
			c-3.6-4.2-7-10-9.2-18.6C286.6,545.7,286.3,545.1,286.3,544.6z"/>
		<path class="st1" d="M193.7,488.9c-1.4-10-2.5-21.4-3.6-33.9l-34.8,2.8c1.1,13.4,2.5,25.9,4.5,37.6L193.7,488.9z"/>
		<path class="st1" d="M189.8,452.2c-0.8-10.9-1.7-22.3-1.9-35.1l-34.2-0.3c0,13.4,0.6,26.2,1.7,38.1L189.8,452.2z"/>
		<path class="st1" d="M163.1,300.8l35.6,9.7c2.8-10.9,5.8-20.3,8.9-28.4l-33.9-12.2C169.5,280.2,165.8,290.5,163.1,300.8z"/>
		<path class="st1" d="M185,241.3l-28.1-14.5c-5.8,9.5-10.6,19.2-14.7,28.9l30.1,10.6C175.9,257.9,180.3,249.6,185,241.3z"/>
		<path class="st1" d="M155.5,338.4l36.2,6.4c1.7-11.7,3.9-22.3,6.4-31.7l-35.6-9.7C159.2,315.5,156.9,327.2,155.5,338.4z"/>
		<path class="st1" d="M152.2,377l35.6,3.6c0.6-11.7,1.9-22.8,3.3-33.1l-36.2-6.4C153.3,354.5,152.5,366.7,152.2,377z"/>
		<path class="st1" d="M153.3,414.1l34.2,0.3c-0.3-10.6-0.3-20.9,0.3-30.6l-35.6-3.6C151.9,399,153,411.8,153.3,414.1z"/>
		<path class="st1" d="M149.4,379.5l-30.9-3.1c0,3.3-0.3,6.1-0.3,8.9c0,3.3-0.3,6.4-0.3,8.6c-0.3,5.3-0.3,12,0,20l32.8,0.3
			C150.3,411.3,149.1,398.5,149.4,379.5z"/>
		<path class="st1" d="M152.5,340.9l-30.6-5.6c-1.9,14.7-2.8,27.8-3.1,38.4l30.9,3.1C149.7,366.2,150.5,353.9,152.5,340.9z"/>
		<path class="st1" d="M159.7,302.7l-30.3-8.3c-3.3,13.4-5.6,26.2-7.2,38.1l30.6,5.6C154.4,326.7,156.7,315,159.7,302.7z"/>
		<path class="st1" d="M157.5,498.4l-33.1,6.4c0.8,7.5,1.1,12.5,1.1,12.5c1.7,9.2,3.9,18.1,6.1,26.4l33.7-9.2
			C162.5,523.7,159.7,511.4,157.5,498.4z"/>
		<path class="st1" d="M150.8,416.8l-32.8-0.3c0.6,12.5,1.4,27.3,2.5,41.2l31.7-2.5C151.4,443,150.8,430.2,150.8,416.8z"/>
		<path class="st1" d="M152.5,458l-31.7,2.5c1.1,15.9,2.5,30.9,3.6,41.5l32.8-6.1C155,483.9,153.6,471.4,152.5,458z"/>
		<path class="st1" d="M231,648.1l22.5-36.5c-10.9-7-18.6-13.9-24.2-20L199,608.3C210.6,627.8,222.6,640.6,231,648.1z"/>
		<path class="st1" d="M179.2,575.7l-32.6,12c5.8,13.4,12.2,25.3,18.9,35.6l29.5-16.1C189.5,598,184.2,587.7,179.2,575.7z"/>
		<path class="st1" d="M166.1,537.3l-33.7,9.2c3.9,14.2,8.3,26.7,13.1,38.4l32.6-11.7C173.9,562.4,169.7,550.7,166.1,537.3z"/>
		<path class="st1" d="M232.9,649.7c5.3,4.5,8.6,6.7,8.9,6.7l0,0l0,0l1.1,0.6l0,0l9.7,5.8l18.4-42c-5.6-2.5-10.9-5.3-15.3-8.1
			L232.9,649.7z"/>
		<path class="st0" d="M200.9,218.7L177,199.8c-7,7.8-13.1,16.1-18.4,24.8l27.8,14.5C190.9,232.1,195.6,225.1,200.9,218.7z"/>
		<path class="st0" d="M205.1,218.2c-4.7,5.6-9.2,11.7-13.1,17.5l27.3,13.4c0-3.1,1.9-6.1,2.2-6.4c4.2-6.1,9.7-11.7,16.1-16.7
			l-19.5-21.4C213.7,208.4,209.3,213.1,205.1,218.2z"/>
		<path class="st0" d="M239.9,224c7-5,15.3-9.5,24.5-13.4L253,178.3c-12,6.7-22.8,14.7-32.8,23.9L239.9,224z"/>
		<path class="st1" d="M245.1,548.7c-3.9-9.5-7-19.8-9.5-30.3l-32.3,8.9c3.6,15.3,7.2,26.2,10.3,32.8L245.1,548.7z"/>
		<path class="st1" d="M174.7,267.4l33.7,12c5.3-14.2,10-23.4,12-26.7l0,0L190.6,238C184.2,247.7,179.2,257.4,174.7,267.4z"/>
		<path class="st1" d="M214.8,635.3c-5.8-7-12.2-15.3-18.4-25.9L167,625.5c8.1,12.2,16.4,22.5,24.5,30.9l21.7-22.5L214.8,635.3z"/>
		<path class="st1" d="M227.6,684.8c6.1,3.6,10.6,5.6,12.8,6.1l11.1-25.6l-10-5.8L227.6,684.8z"/>
		<path class="st1" d="M229.6,481.9c-1.4-10.9-1.9-21.1-2.5-30.1l-34.2,2.8c1.1,12.5,2.2,23.7,3.6,33.7L229.6,481.9z"/>
		<path class="st1" d="M235.1,515.9c-2.2-10.3-3.9-20.9-5.3-31.2l-33.1,6.4c1.9,13.1,3.9,24.2,6.1,33.4L235.1,515.9z"/>
		<path class="st1" d="M190.3,414.3l35.9,0.3c-0.3-3.9-0.6-12.2,0.8-27l-36.5-3.6C190.1,393.7,190.1,403.8,190.3,414.3z"/>
		<path class="st1" d="M226.8,449.1c-0.8-15.9-0.6-27.8-0.6-31.7l-35.9-0.3c0.6,12.5,1.1,24.2,1.9,34.8L226.8,449.1z"/>
		<path class="st1" d="M274.1,508.1l-35.6,9.7c3.3,14.7,8.1,28.9,14.5,40.9l32.6-16.7C282.2,531.2,278,521.2,274.1,508.1z"/>
		<path class="st1" d="M194.5,345.3l36.7,6.7c1.4-8.3,2.8-18.1,4.7-28.7l-35.3-9.5C198.4,323.3,196.2,333.9,194.5,345.3z"/>
		<path class="st1" d="M190.6,381.2l36.5,3.9c0.8-8.1,1.9-18.1,3.6-30.1l-37-6.7C192.6,358.4,191.4,369.5,190.6,381.2z"/>
		<path class="st1" d="M201.5,311.1l35.1,9.5c0.8-3.9,1.4-7.8,2.2-12c1.1-5,2.2-9.7,3.6-14.2L210.1,283
			C207.3,291.1,204.2,300.5,201.5,311.1z"/>
		<path class="st0" d="M202.9,216.2c4.2-5,8.6-9.7,13.4-14.2l-19.5-21.4c-6.7,5.3-12.5,11.1-18.1,17.3l23.9,18.9
			C202.9,216.5,202.9,216.5,202.9,216.2z"/>
		<path class="st0" d="M234,187.3l-12.8-23.7c-8.1,4.5-15.3,9.7-22.3,15l19.2,21.4C223.4,195.6,228.5,191.4,234,187.3z"/>
		<path class="st0" d="M247.1,150.8c-7,3.1-10.6,5.3-10.6,5.3c-4.5,1.9-8.6,4.2-12.5,6.4l12.5,23.4c6.1-4.5,12.5-8.3,19.5-12
			L247.1,150.8z"/>
		<path class="st1" d="M245.1,295.2c-1.4,4.2-2.5,8.9-3.6,13.9c-0.8,4.2-1.7,8.3-2.2,12.2l30.1,8.1c1.7-7.8,3.6-15.6,6.1-23.4
			L245.1,295.2z"/>
		<path class="st1" d="M266.9,477.8l-34.2,6.4c1.4,10,3.1,20.6,5.3,30.9l35.3-9.7C271,497.5,268.8,488.6,266.9,477.8z"/>
		<path class="st1" d="M229,414.6l32,0.3c0-3.3,0-12,0.6-23.7l-31.7-3.3C228.5,402.6,228.7,410.7,229,414.6z"/>
		<path class="st1" d="M262.7,446.1c-0.8-8.6-1.4-17.8-1.9-28.4l-31.7-0.3c0,3.6-0.3,15.6,0.6,31.4L262.7,446.1z"/>
		<path class="st1" d="M266.6,475c-1.4-7.8-2.5-16.1-3.3-26.2l-33.1,2.8c0.6,8.9,1.4,19.2,2.5,29.8L266.6,475z"/>
		<path class="st1" d="M264.1,360.6l-30.3-5.6c-1.7,12-3.1,22-3.6,30.1l31.7,3.3C262.1,380.4,262.7,370.9,264.1,360.6z"/>
		<path class="st1" d="M238.7,324.2c-1.9,10.6-3.3,20-4.7,28.4l30.3,5.6c1.1-8.3,2.5-17,4.2-25.6L238.7,324.2z"/>
		<path class="st1" d="M215.1,635.5l-21.7,22.8c12,12,23.1,20,31.7,25.3l13.9-25.3C236.2,656.1,226.8,649.2,215.1,635.5z"/>
		<path class="st1" d="M813.4,476.7c0.8-6.1,1.4-12.2,2.2-22l-26.7-2.8c-0.6,10.9-1.7,21.1-3.1,30.9l26.4,4.2
			C812.8,483.3,813.1,480,813.4,476.7z"/>
		<path class="st1" d="M781.1,324.2c1.7,8.1,3.1,17.5,4.2,29.8l26.7-4.7c-1.7-11.4-3.6-22.3-5.3-31.7L781.1,324.2z"/>
		<path class="st1" d="M817.3,432.1c0.3-3.9,0.3-7.8,0.3-12h-28.1c0.3,10,0,19.8-0.3,29.2l27,2.8
			C816.4,446.6,816.7,440.2,817.3,432.1z"/>
		<path class="st1" d="M815.9,383.7c-0.8-10.9-2.2-21.7-3.6-32l-26.7,4.7c0.8,8.3,1.4,18.1,2.2,29.8L815.9,383.7z"/>
		<path class="st1" d="M812,490l-26.7-4.2c-1.7,11.1-3.9,21.7-6.7,31.4l26.4,7C808.1,513.7,810.6,502,812,490z"/>
		<path class="st1" d="M775.5,519l-33.7-8.9c-3.1,11.7-6.4,20.9-9.2,31.7c-0.3,0.8-0.6,1.7-0.8,2.5l28.1,13.6
			C765.5,547.9,771.1,534.8,775.5,519z"/>
		<path class="st1" d="M816.1,386.5l-28.4,2.5c0.3,5.6,0.6,11.4,1.1,18.1c0.3,3.6,0.3,7,0.3,10.3h28.1
			C817.5,407.4,817,397.1,816.1,386.5z"/>
		<path class="st1" d="M772.5,295.5c3.3,8.9,5.8,16.7,8.1,25.9l25.9-6.7c-2.5-12.5-4.7-22.8-6.4-28.9L772.5,295.5z"/>
		<path class="st1" d="M813.4,281c3.1,9.5,5.8,19.5,8.1,29.8l28.9-7.5c-2.8-13.9-5.6-24.8-7.8-32.6L813.4,281z"/>
		<path class="st1" d="M828.1,235.7l-34.5,19.2c2.2,3.6,4.2,7.5,5.8,11.7c1.1-0.8,2.8-1.4,4.5-1.1c5,0.8,7.2,9.2,7.5,10.3
			c0.3,0.8,0.6,1.9,1.1,3.1l29.2-10.3c-1.9-6.7-3.3-10.3-3.3-10.6C835.3,249.9,832,242.4,828.1,235.7z"/>
		<path class="st1" d="M797.5,269.1c-0.3-0.6-0.6-1.1-0.8-1.7l-30.3,12.8c0.6,1.4,1.1,2.8,1.7,3.9c1.1,3.1,2.2,6.1,3.3,8.9l27.8-9.7
			c-0.3-1.4-0.8-2.5-0.8-3.1C796.7,275.5,796.4,271.6,797.5,269.1L797.5,269.1z"/>
		<path class="st1" d="M859.5,494.7l34.8,5.6c2.2-13.6,3.3-26.2,4.5-37.3l-36.2-3.6C862.1,472.2,860.9,483.9,859.5,494.7z"/>
		<path class="st1" d="M852.3,536.5l32.6,8.6c3.9-14.5,6.7-28.7,8.9-42.3l-34.8-5.6C857.3,512.3,855.1,525.1,852.3,536.5z"/>
		<path class="st1" d="M841.2,575.2l30.1,11.4c5.3-12.8,9.5-25.6,13.1-38.4l-32.6-8.6C848.4,553.7,844.8,565.7,841.2,575.2z"/>
		<path class="st1" d="M900.2,420.2h-36.5c0,13.1-0.3,25-0.8,36.5l36.2,3.6C900.5,439.4,900.5,424.6,900.2,420.2z"/>
		<path class="st1" d="M830.9,598.3c-1.9,3.9-4.5,7.5-7,11.1l27.5,15.3c7.2-11.4,13.4-23.4,18.4-35.6L839.7,578
			C836.7,586.9,833.4,593.5,830.9,598.3z"/>
		<path class="st1" d="M863.4,402.6c0,5,0.3,10,0.3,14.7h36.5c0-12.8-0.6-25.6-1.7-38.1l-35.9,3.1
			C863.2,389,863.4,395.7,863.4,402.6z"/>
		<path class="st1" d="M820,610.2l-30-16.7c-1.1,1.1-3.3,3.1-6.1,3.1c-0.8,0-1.7-0.3-2.2-0.6c-2.5,2.8-9.2,9.5-20.3,17l22.3,34.5
			C793.3,639.4,808.1,626.4,820,610.2z"/>
		<path class="st1" d="M859,340.9l33.9-5.8c-2.5-15-5-28.1-7.2-37.8l-32.3,8.3C855.4,315.8,857.3,327.5,859,340.9z"/>
		<path class="st1" d="M862.6,379.8l35.6-3.1c-1.4-13.6-3.1-27-5-39l-33.9,5.8C860.7,354.8,861.8,366.7,862.6,379.8z"/>
		<path class="st1" d="M737.9,582.1l1.4-0.6c5.6-2.8,12.5-10,19.2-21.1L731,547.1c-2.5,7-6.4,12-10.3,15.9l22.5,57.6
			c5.3-2.5,10-5.3,14.2-7.8L737.9,582.1z"/>
		<path class="st1" d="M741.8,583.2l17.8,27.5c10.9-7,17-13.4,19.5-16.1l0,0c-1.7-1.7-2.5-3.3-2.5-5.6c0-0.8,0.3-1.7,0.3-2.5
			l-23.9-13C749.4,577.9,745.5,581.3,741.8,583.2z"/>
		<path class="st1" d="M828.4,596.9c2.5-4.5,5.8-11.1,9.2-20L807,565.4c-11.1,17.5-14.5,23.9-15.6,25.9l30.1,16.7
			C823.9,604.4,826.4,600.5,828.4,596.9z"/>
		<path class="st1" d="M860.1,459.1l-27.8-2.8c-0.3,4.5-1.1,17.3-3.3,33.4l28.1,4.5C858.2,483.6,859.3,471.9,860.1,459.1z"/>
		<path class="st1" d="M860.9,420.2h-28.7c0,8.6,0,13.9,0,14.2l-0.3,19.2l27.8,2.8C860.7,445.2,860.9,433,860.9,420.2z"/>
		<path class="st1" d="M849,538.4l-28.4-7.5c-3.3,12-7.2,23.1-12.5,31.7l30.3,11.4C842,564.6,845.6,552.9,849,538.4z"/>
		<path class="st1" d="M856.5,497l-28.1-4.5c-1.7,11.4-3.9,23.9-7,35.9l28.4,7.5C852.3,524.5,854.5,511.7,856.5,497z"/>
		<path class="st1" d="M827.5,349.2c1.4,11.7,2.5,22.8,3.3,33.4l28.9-2.5c-0.8-12.8-1.9-24.8-3.3-35.9L827.5,349.2z"/>
		<path class="st1" d="M860.9,417.4c0-4.7,0-9.7-0.3-14.7c-0.3-7-0.6-13.6-0.8-20l-28.9,2.5c0.8,12.5,1.1,23.7,1.4,32H861
			L860.9,417.4L860.9,417.4z"/>
		<path class="st1" d="M804.2,632.5l0.3-0.3l21.4,24.5c8.9-9.2,17-19.2,23.9-29.8L822,611.6C816.7,619.4,810.6,626.4,804.2,632.5z"
			/>
		<path class="st1" d="M821.7,313.6c2.2,10.9,4.2,22,5.6,32.8l28.9-5c-1.7-13.4-3.6-25-5.6-35.3L821.7,313.6z"/>
		<path class="st1" d="M778,583.8c1.1-2.2,2.8-4.2,3.3-4.7l10.9-19.5l-25-9.7c-3.9,8.3-8.1,15.6-12.2,21.1L778,583.8z"/>
		<path class="st1" d="M793.6,557.4l0.6-0.8c0,0,5.3-12.2,10.3-29.5l-26.4-7c-2.8,10.3-6.1,19.8-9.7,27.8L793.6,557.4z"/>
		<path class="st0" d="M768,147.5l-9.2,24.2c6.1,3.1,12.5,6.1,18.6,9.7l13.4-22.5C783,154.7,775.5,150.8,768,147.5z"/>
		<path class="st0" d="M779.7,183.1c6.7,4.2,13.4,8.9,19.5,13.9l17-20.3c-7.5-6.1-15.3-11.4-23.1-16.1L779.7,183.1z"/>
		<path class="st0" d="M832.6,237.9l25.6-13.4c-5.8-9.5-12.2-18.1-19.2-25.9l-21.4,16.7C823.1,222.1,828.4,229.6,832.6,237.9z"/>
		<path class="st0" d="M815.6,213.1l21.4-16.7c-6.1-6.7-12.2-12.5-18.9-18.1l-17,20.3C806.4,203.4,811.1,208.1,815.6,213.1z"/>
		<path class="st0" d="M799.4,201.2L776,229.3c-0.3,1.7-1.4,3.1-2.5,3.9c3.3,2.5,11.4,8.6,18.4,19.5l34.5-19.2
			C819.2,220.7,810,210.1,799.4,201.2z"/>
		<path class="st1" d="M782.7,485.3l-34.8-5.6c-1.4,11.1-3.3,20-5.3,27.8l33.7,8.9C778.9,507,781.1,496.4,782.7,485.3z"/>
		<path class="st1" d="M840.6,256.8c0,0,1.4,3.6,3.3,10.6l30.1-10.6c-4.2-10.9-9.2-20.9-14.5-29.8l-25.9,13.4
			C836.5,245.4,838.7,251,840.6,256.8z"/>
		<path class="st1" d="M786.1,451.9l-35.3-3.6c-0.6,10.9-1.7,20.3-2.5,28.7l34.8,5.6C784.4,472.8,785.5,462.7,786.1,451.9z"/>
		<path class="st1" d="M852.9,302.7l32.3-8.3c-2.2-9.7-3.9-15.6-3.9-15.9c-1.7-6.7-3.9-13.1-6.1-19.2l-30.1,10.6
			C847.3,277.7,850.1,288.6,852.9,302.7z"/>
		<path class="st1" d="M744.3,333.4c1.9,9.2,3.6,18.1,4.7,26.7l33.4-5.8c-1.1-12.2-2.5-21.4-4.2-29.5L744.3,333.4z"/>
		<path class="st1" d="M734.3,299.4c0.8,1.9,1.4,3.9,2.2,5.8l32.6-11.4c-1.1-2.8-2.2-5.6-3.3-8.6c-0.6-1.4-1.1-2.5-1.4-3.9
			L733,294.7C733.8,297.5,734.3,299.4,734.3,299.4z"/>
		<path class="st1" d="M749.6,362.9c1.1,9.7,1.9,18.9,2.2,26.4l33.1-2.8c-0.8-11.4-1.4-21.1-2.2-29.5L749.6,362.9z"/>
		<path class="st1" d="M752.1,417.4h34.5c0-3.3-0.3-6.7-0.6-10.3c-0.3-6.4-0.6-12.2-1.1-17.8l-33.1,2.8c0.6,15,0,24.5,0,24.5
			C752.1,416.8,752.1,417.1,752.1,417.4z"/>
		<path class="st1" d="M777.7,321.9c-1.9-8.9-4.5-16.7-7.8-25.6l-32.6,11.4c2.5,7.5,4.7,15.3,6.4,22.8L777.7,321.9z"/>
		<path class="st1" d="M786.6,420.2h-34.5c-0.3,9.2-0.6,17.8-1.1,25.3l35.3,3.6C786.6,439.9,786.9,430.2,786.6,420.2z"/>
		<path class="st1" d="M771.6,656.1c0,0,3.9-2.5,9.5-7l-22.3-34.5c-4.2,2.8-9.2,5.3-14.7,8.1l27.3,70.1c3.1-1.4,5-2.2,5-2.2
			c3.3-1.4,6.7-3.1,9.7-4.7l-15.9-29.2L771.6,656.1z"/>
		<path class="st1" d="M774.1,657.8l14.7,27c13.4-7.2,25-16.1,35.3-26.2l-21.4-24.5C789.7,647,777.7,655.3,774.1,657.8z"/>
		<path class="st1" d="M265.7,77.1L257.4,37c-15.9,3.9-31.2,8.3-45.1,13.4l13.9,37C238.5,83.8,251.8,80.1,265.7,77.1z"/>
		<path class="st1" d="M260.2,36.5l8.3,40.3c12.8-2.8,25.9-5.3,39.2-7.2l-5.8-41.7C287.7,30.3,273.8,33.1,260.2,36.5z"/>
		<path class="st1" d="M753.3,36.5c-13.4-3.1-27-6.1-40.6-8.3l-5.6,39c12.8,2.2,25.6,5.3,38.7,8.3L753.3,36.5z"/>
		<path class="st1" d="M787.5,87.9l14.2-37.3c-14.2-5.3-29.5-9.7-45.6-13.6l-7.5,39C761.6,79.6,774.7,83.5,787.5,87.9z"/>
		<path class="st0" d="M759.9,264.9c1.4,2.2,2.8,4.7,3.6,7.2c0.8,1.9,1.4,3.6,1.9,5.3l30.1-12.8c-3.3-7.2-7.2-13.1-11.1-17.8
			L759.9,264.9z"/>
		<path class="st0" d="M748.2,256.3l-21.7,28.4c2.2,2.8,3.6,5.3,4.7,7.5l31.7-13.4c-0.6-1.7-1.4-3.6-1.9-5.6
			C758.5,266.6,754.1,261,748.2,256.3z"/>
		<path class="st1" d="M247.9,280.5l-32-12.2c-1.4,3.3-3.1,7.5-4.7,12l32,11.4C244.9,287.7,246.3,284.1,247.9,280.5z"/>
		<path class="st1" d="M279.9,292.7l-29.2-11.1c-1.7,3.6-3.3,7.2-4.7,11.1l30.1,10.9C277.4,299.7,278.5,296.1,279.9,292.7z"/>
	</g>
	<g id="CAT_1">
		<path class="st0" d="M371.5,581.6c-11.7-0.8-23.1-1.9-33.4-3.3l-4.2,24.5c11.1,1.9,22.8,3.9,34.5,5.3L371.5,581.6z"/>
		<path class="st0" d="M335.3,577.9c-8.1-1.1-15.6-2.2-21.7-3.6c0,0-7.8,0.3-15.6-7.2l-9.7,22.3l5.6,3.3c11.4,3.9,23.9,7,37.6,9.5
			L335.3,577.9z"/>
		<path class="st0" d="M292.7,595.2L292.7,595.2l-5.6-3.3l-12,27.5c5.3,2.2,11.1,4.7,17.3,6.7l5.3-29.2
			C295.8,596.3,294.1,595.8,292.7,595.2z"/>
		<path class="st0" d="M727.9,588.8l-9.2-23.9c-9.2,7.8-19.2,9.5-19.2,9.5c-5.8,1.4-12.5,2.5-20.3,3.6l2.5,25.3
			C700.7,599.7,717.1,594.9,727.9,588.8z"/>
		<path class="st0" d="M347.8,640.8c-13.6-1.7-25.9-3.9-36.7-6.4l-8.1,45.4c12,2.5,24.8,4.5,38.1,6.1L347.8,640.8z"/>
		<path class="st0" d="M255.2,664.5c11.7,6.1,27,10.9,45.1,14.7l8.1-45.4c-13.4-3.3-24.8-7.2-34.5-11.7L255.2,664.5z"/>
		<path class="st0" d="M642.8,581.3l2.8,27c11.4-1.4,22.8-2.8,33.7-4.7l-2.5-25.6C666.2,579.3,654.5,580.5,642.8,581.3z"/>
		<path class="st0" d="M368.1,610.8c-12-1.4-23.7-3.1-34.8-5.3l-5,29.8c8.3,1.4,17.5,2.8,27.3,3.6c3.1,0.3,6.1,0.6,9.2,0.8
			L368.1,610.8z"/>
		<path class="st0" d="M300.2,597.7l-5.3,29.2c9.2,3.1,19.5,5.6,30.9,7.8l5-29.8C320,603,309.7,600.5,300.2,597.7z"/>
		<path class="st0" d="M717.6,679.2c29.5-6.7,37.8-13.6,39.5-15.6l-15.6-39.8c-8.9,4.2-19.5,8.1-32,11.4L717.6,679.2z"/>
		<path class="st0" d="M716.5,597.1l8.1,31.2c5.8-2.2,11.4-4.5,16.1-6.7l-11.7-30C725.1,593.3,721,595.2,716.5,597.1z"/>
		<path class="st0" d="M679.5,606.3c-10.9,1.9-22.3,3.6-33.7,4.7l3.1,30.1c4.7-0.3,7.2-0.3,7.5-0.3c9.5-0.6,18.4-1.4,26.4-2.5
			L679.5,606.3z"/>
		<path class="st0" d="M721.8,628.9l-8.1-31.2c-9.2,3.1-20,5.8-31.7,8.1l3.3,32C699.3,635.5,711.2,632.5,721.8,628.9z"/>
		<path class="st0" d="M675.9,686.5c15.9-1.9,28.7-4.2,39-6.4l-7.8-43.7c-10.9,2.8-23.1,5-36.7,6.4L675.9,686.5z"/>
		<path class="st0" d="M294.7,709.3l5-27.3c-18.1-3.9-33.9-8.6-45.6-14.7L243,692.6C255.7,699.3,273.8,704.8,294.7,709.3z"/>
		<path class="st0" d="M707.6,712.6c4.2-0.6,8.3-1.4,12.8-2.2l-5-27.8c-10.6,2.2-23.4,4.5-39,6.4l3.3,26.2
			C691.8,714.3,701.5,713.5,707.6,712.6z"/>
		<path class="st0" d="M340.6,688.7c-13.4-1.7-26.2-3.9-38.1-6.1l-5,27.3c12.2,2.5,25.6,4.5,39,6.1L340.6,688.7z"/>
		<path class="st0" d="M768.8,694.3l-10.6-27.5c-3.3,3.1-13.4,9.5-40.3,15.6l5,27.8C740.5,705.7,758.8,698.4,768.8,694.3z"/>
		<path class="st1" d="M316.7,731c11.4,2.2,23.9,4.2,37.8,6.1l0.6-16.4c-12.5-1.1-25-2.8-36.7-4.5L316.7,731z"/>
		<path class="st1" d="M235.7,708.7c0,0,25,11.4,78.5,21.7l1.7-14.7c-30.6-4.7-57.6-11.7-74.9-21.4L235.7,708.7z"/>
		<path class="st2" d="M803.1,679.5c-7.8,5.3-16.4,10-25.3,13.9c-0.3,0-11.4,5.3-26.4,10.6l3.9,15c15-4.2,22.3-7,22.3-7l19.2-8.1
			l8.3,14.5c5.6-2.5,10.9-5,16.1-7.8L803.1,679.5z"/>
		<path class="st1" d="M707.9,715.4c-2.8,0.3-6.1,0.6-10,1.1l1.9,14.7c22.5-3.9,39.8-8.1,52.6-11.4l-3.6-15
			C735.7,709.6,720.7,714,707.9,715.4z"/>
		<path class="st1" d="M657.3,719.9l1.4,17.5c14.2-1.7,27-3.6,38.4-5.8l-1.9-15C685.1,717.6,672,718.7,657.3,719.9z"/>
		<path class="st0" d="M255.4,177l11.4,32.6c7.5-3.1,15.9-5.8,24.5-8.3l-7.5-37C273.8,167.8,264.3,172,255.4,177z"/>
		<path class="st0" d="M278,136.3l-11.7-56.5c-13.6,3.1-27,6.4-39.2,10.3l21.4,56.8C255.7,143.9,265.5,140,278,136.3z"/>
		<path class="st0" d="M753.8,138.9c4.2,1.4,8.3,3.1,12.5,5l20-53.1c-12.5-4.5-25.3-8.3-38.7-11.7l-10.3,54.3
			C742.7,135,748.2,136.6,753.8,138.9z"/>
		<path class="st0" d="M286.3,163.3l7.5,37c10-2.8,20.6-5.3,31.4-7.2l-5.6-38.7C308.3,156.7,296.9,159.7,286.3,163.3z"/>
		<path class="st0" d="M330.9,228.2l-2.8-18.6c-12,2.2-22,4.5-30.6,7l3.6,18.6C311.9,231.2,322.2,229.3,330.9,228.2z"/>
		<path class="st0" d="M340.6,226.8c5.3-0.8,15.6-1.7,28.7-2.5l-2.2-20.6c-13.6,1.7-25.3,3.3-36.2,5.3l2.8,18.9
			c1.1-0.3,2.2-0.3,3.1-0.6L340.6,226.8z"/>
		<path class="st0" d="M694.5,154.2l-5.6,38.7c13.4,2.2,23.7,4.7,32.3,7.2l7.2-37C716.5,158.9,704.8,156.1,694.5,154.2z"/>
		<path class="st0" d="M322.8,153.9l5.6,38.7c12.2-2.2,24.8-3.9,37.3-5.6l-4.5-37.3C347.5,150.3,335,151.7,322.8,153.9z"/>
		<path class="st0" d="M731.3,163.9l-7.2,37c9.2,2.8,16.4,5.8,23.7,8.6c2.5,1.1,5,1.9,7.5,3.1c11.7,4.5,18.4,8.9,20.6,13.1
			l21.7-26.2C777.5,182.5,753.8,171.4,731.3,163.9z"/>
		<path class="st0" d="M650,187.8c14.2,1.4,26.2,2.8,36.5,4.5l5.6-38.7c-18.1-3.6-32-4.7-37.3-5L650,187.8z"/>
		<path class="st0" d="M645.3,223.2c8.6,0.6,22,1.9,36.7,4.5l2.8-20c-10.6-1.7-22.8-3.3-37.3-4.7L645.3,223.2z"/>
		<path class="st0" d="M719.6,214.8l-4.5,20.9c7.8,2.5,15.3,5.6,22,9.5l9.5-19.2C741.3,222.6,733.2,218.7,719.6,214.8z"/>
		<path class="st0" d="M716.8,214.3c-7.8-2.2-17.5-4.2-29.2-6.1l-2.8,20c9.2,1.7,18.6,3.9,27.8,7L716.8,214.3z"/>
		<path class="st0" d="M695.1,151.4c10.3,2.2,22,5,34.2,8.9l5-25c-12.8-3.6-25-6.1-35.6-8.1L695.1,151.4z"/>
		<path class="st0" d="M765.5,146.4c-4.2-1.9-8.3-3.6-12.5-5c-5.6-1.9-10.9-3.9-16.1-5.3l-5,25c8.1,2.8,16.1,5.8,24.5,9.5
			L765.5,146.4z"/>
		<path class="st0" d="M771.1,234.6c-0.8,0.3-1.9,0.6-3.3,0.6c-5,0-10.9-2.8-11.1-2.8c-1.4-0.8-2.8-1.7-4.5-2.8
			c-0.8-0.6-1.9-1.4-3.1-2.2l-9.5,19.2c7.5,4.5,13.9,9.7,18.6,16.1l24.5-17.8C777.5,238.7,772.5,235.4,771.1,234.6z"/>
		<path class="st0" d="M655,145.8c5.3,0.3,19.2,1.4,37.3,5l3.3-23.9c-19.5-3.1-33.9-3.3-38.1-3.3L655,145.8z"/>
		<path class="st0" d="M249.6,149.4l8.6,22.8c7.8-4.2,16.1-7.8,25-10.9l-4.7-22.5C266.3,142.7,256.6,146.4,249.6,149.4z"/>
		<path class="st0" d="M319.2,129.4l3.1,21.7c12.2-2.2,25-3.6,38.4-4.2l-2.8-22.5C343.9,125.5,330.9,127.2,319.2,129.4z"/>
		<path class="st0" d="M281,138.3l4.7,22.5c10.6-3.6,22-6.7,33.9-8.9l-3.1-22C303,132.2,291.3,135.2,281,138.3z"/>
		<path class="st0" d="M369.5,227.1c-13.1,0.8-23.1,1.7-28.4,2.5c-1.1,0.3-2.5,0.3-3.9,0.6c-1.1,0-1.9,0.3-3.1,0.6l3.9,26.7
			c3.9-0.3,16.7-1.7,34.5-3.1L369.5,227.1z"/>
		<path class="st0" d="M335,257.7l-3.9-26.7c-8.6,1.4-18.9,3.1-29.5,7l5.3,27.8C314.4,261.8,323.6,258.8,335,257.7z"/>
		<path class="st0" d="M304.4,267.1l-5.6-28.4c-11.1,4.2-22.5,10.6-32.6,20.3l21.1,21.4C291.6,276.3,296.9,271.3,304.4,267.1z"/>
		<path class="st0" d="M708.5,268.5c7.2,4.2,12.8,8.9,16.4,13.6l21.1-27.8c-8.6-6.7-19.8-11.7-31.4-15.9L708.5,268.5z"/>
		<path class="st0" d="M645,225.9l-3.3,28.7c18.6,1.7,30.9,2.8,30.9,2.8c1.9,0.3,3.6,0.6,5.3,0.8l3.9-27.8
			C667,227.9,653.4,226.5,645,225.9z"/>
		<path class="st0" d="M680.3,258.8c10.3,1.9,18.6,5,25.3,8.6l6.1-29.5c-9.2-2.8-18.6-5-27.5-7L680.3,258.8z"/>
		<path class="st0" d="M245.7,241.8c-5,4.2-8.3,7-10.6,8.6l23.1,13.9c5-6.4,10.6-11.7,16.4-15.9L264.3,229
			c-8.6,4.5-13.6,8.6-17.3,11.7L245.7,241.8z"/>
		<path class="st0" d="M298.6,236l-3.6-19c-12.2,3.6-21.1,7.2-28.1,10.9l10,19.2C283.8,242.4,291.3,238.7,298.6,236z"/>
		<path class="st0" d="M487.5,55.9l0.8,59.3c4.2,0,18.6,0,37.6,0.3l1.1-60.4c-11.7,0-18.6,0.3-19.2,0.3
			C507.8,55.4,500.3,55.7,487.5,55.9z"/>
		<path class="st0" d="M444.7,57.9l2.5,58.7c17-0.8,31.4-1.4,38.7-1.4l-0.8-59C474.2,56.5,460.5,57,444.7,57.9z"/>
		<path class="st0" d="M569.9,55.9c-15.9-0.6-29.5-0.8-40.1-0.6l-1.1,60.4c11.7,0.3,25,0.6,39,0.8L569.9,55.9z"/>
		<path class="st0" d="M615.8,58.4c-15.6-1.1-30.1-1.9-43.1-2.5l-1.9,60.7c13.4,0.3,27.3,0.8,40.6,1.4L615.8,58.4z"/>
		<path class="st0" d="M444.4,116.6l-2.5-58.7c-13.1,0.8-27.8,1.7-43.1,3.1l5,57.9C416.8,118.3,431.3,117.4,444.4,116.6z"/>
		<path class="st0" d="M401,119.1l-5-57.9c-13.6,1.1-27.8,2.5-42.3,4.2l6.7,55.9C365.4,121.3,381.5,120.2,401,119.1z"/>
		<path class="st0" d="M662,63.2c-15-1.9-29.5-3.3-43.4-4.5l-4.5,59.3c15.3,0.6,29.5,1.4,40.9,2.5L662,63.2z"/>
		<path class="st0" d="M316.1,127.2l-7.8-55.1c-13.4,2.2-26.4,4.5-39.2,7.2l11.7,56.2C290.8,132.5,302.7,129.7,316.1,127.2z"/>
		<path class="st0" d="M357.6,121.9L350.9,66c-13.4,1.7-26.7,3.3-40.1,5.6l7.8,55.1C330.6,124.7,343.7,123,357.6,121.9z"/>
		<path class="st0" d="M696.2,124.1l7.8-54.5c-13.1-2.5-26.2-4.5-39.2-6.1l-7,57.3C662.5,120.8,677,121,696.2,124.1z"/>
		<path class="st0" d="M734.6,132.5l10.6-54c-12.8-3.1-25.6-5.8-38.4-8.3l-7.8,54.5C709.6,126.3,721.8,128.8,734.6,132.5z"/>
		<path class="st1" d="M357.3,737.4c12.5,1.7,25.9,3.3,40.6,4.5v-18.1c-13.1-0.8-26.7-1.7-40.1-3.1L357.3,737.4z"/>
		<path class="st1" d="M400.7,742.1c12.8,1.1,26.2,1.9,40.3,2.8v-19.5c-12.8-0.3-26.4-0.8-40.3-1.7V742.1z"/>
		<path class="st1" d="M443.8,725.7v19.5c12.8,0.6,25.9,1.1,39.8,1.4v-20.3c-0.6,0-0.8,0-1.4,0C471.4,726,458,726,443.8,725.7z"/>
		<path class="st1" d="M486.4,726v20.3c5.3,0,10.9,0,16.1,0l0,0c0.6,0,0.8,0,1.4,0s0.8,0,1.4,0l0,0c6.7,0,13.4,0,20-0.3v-20.6
			c-3.1,0-5.6-0.3-8.1-0.3C517,725.7,505,726,486.4,726z"/>
		<path class="st1" d="M528.1,726v20.3c15-0.3,29.2-0.8,42.9-1.4v-20C554.6,725.7,539.8,726,528.1,726z"/>
		<path class="st1" d="M574.1,744.9c13.6-0.8,26.4-1.7,38.7-2.5v-19.5c-13.1,0.8-26.2,1.4-38.7,1.9V744.9z"/>
		<path class="st1" d="M615.5,722.6v19.2c14.5-1.1,27.8-2.8,40.3-4.2l-1.4-17.8C642.2,721,628.9,721.8,615.5,722.6z"/>
		<path class="st0" d="M256.3,266.6l-23.7-14.5c-1.4,1.1-1.7,1.4-1.7,1.7l-0.3,0.3H230c-1.7,0.3-3.1,0.6-4.5,0.6
			c-1.1,0-2.2-0.3-3.1-0.6c-1.1,1.9-3.1,5.8-5.6,11.7l32.3,12.2C251.5,273.8,253.8,270.2,256.3,266.6z"/>
		<path class="st0" d="M281,289.9c0.8-1.4,2.5-4.2,4.7-7.2L264.3,261c-1.4,1.4-2.8,3.1-4.2,4.7l0.3,0.3l-1.4,2.5l-0.3-0.3
			c-2.5,3.3-4.7,7-7,10.9L281,289.9z"/>
	</g>
</g>
<g id="stage">
	<g>
		<rect x="304.4" y="379.2" class="st3" width="46.7" height="68.5"/>
		<polygon class="st3" points="381.6,350.2 304.4,350.2 304.4,375.5 354.6,375.5 354.6,450.8 304.4,450.8 304.4,476.2 381.6,476.2 
					"/>
		<polygon class="st3" points="632,476.2 709.2,476.2 709.2,450.8 660.4,450.8 660.4,375.5 709.2,375.5 709.2,350.2 632,350.2 		"/>
		<rect x="663.9" y="379.2" class="st3" width="45.7" height="68.5"/>
		<path class="st3" d="M384.9,384.1v58.3c15.4-0.9,28.1-13.7,28.1-29.3C412.9,397.5,401,385.2,384.9,384.1z"/>
		<path class="st3" d="M628.7,442.4v-58.3c-15.4,0.9-28.1,13.7-28.1,29.3C600.8,429.1,613.1,441.8,628.7,442.4z"/>
		<path class="st3" d="M510.1,362v102.6c27.3-1.5,49.6-23.8,49.6-51.2C559.6,385.4,537.4,363.3,510.1,362z"/>
		<path class="st3" d="M455.4,413.1c0,28.1,22.8,51.1,51.2,51.6V361.8C478,362.2,455.4,385.2,455.4,413.1z"/>
		<path class="st3" d="M304.4,292.2v54.6h80.7v33.9c17.4,0.9,31.7,15.4,31.7,32.8s-13.9,31.7-31.7,32.8v33.9h-80.7v54.6h404.9v-54.6
			h-80.7v-33.9c-17.4-0.9-31.7-15.4-31.7-32.8s13.9-31.7,31.7-32.8v-33.9h80.7v-54.6H304.4L304.4,292.2z M510.1,468.2v65.4h-3.5
			v-65.4c-30.4-0.7-54.8-25-54.8-55.2c0-30,24.5-54.6,54.8-55.2v-65h3.5v65.4c29.6,1.5,53.1,25.8,53.1,55.2
			C563,442.9,539.7,467.2,510.1,468.2z"/>
	</g>
</g>
</svg>
