<?xml version="1.0" encoding="utf-8"?>
<!-- Generator: Adobe Illustrator 21.1.0, SVG Export Plug-In . SVG Version: 6.00 Build 0)  -->
<svg version="1.1" id="Laag_1" xmlns="http://www.w3.org/2000/svg" xmlns:xlink="http://www.w3.org/1999/xlink" x="0px" y="0px"
	 viewBox="0 0 1024 768" style="enable-background:new 0 0 1024 768;" xml:space="preserve">
<style type="text/css">
	.st0{fill:#93B8D2;}
	.st1{fill:#ACCA5A;}
	.st2{display:none;}
	.st3{display:inline;}
	.st4{fill:#FFFFFF;}
	.st5{fill:#85BB3E;}
</style>
<g id="Plattegrond_x5F_oranje">
	<rect x="122" y="269.5" class="st0" width="96.1" height="59.2"/>
	<rect x="122" y="332.6" class="st0" width="96.1" height="50.4"/>
	<rect x="122" y="386.7" class="st0" width="96.1" height="56.5"/>
	<rect x="122" y="447" class="st0" width="96.1" height="54"/>
	<rect x="122" y="223" class="st0" width="96.1" height="42.6"/>
	<rect x="122" y="504.9" class="st0" width="96.1" height="43.6"/>
	<rect x="460.2" y="187.1" class="st1" width="143.4" height="22.6"/>
	<polygon class="st1" points="673.7,102.8 355.5,102.8 355.5,139.7 422,139.7 422,139.7 424,139.7 603.6,139.7 605.5,139.7 
		605.5,139.7 673.7,139.7 	"/>
	<rect x="829.6" y="223" class="st0" width="63.1" height="64.4"/>
	<rect x="829.6" y="291.3" class="st0" width="63.1" height="120.8"/>
	<rect x="829.6" y="416.2" class="st0" width="63.1" height="91.5"/>
	<path class="st0" d="M889.4,142.4l-39.7,34.2c11,11.8,18.9,26.4,23.3,42.8h46.5C919.1,189.8,907.7,162.8,889.4,142.4z"/>
	<rect x="275" y="187.1" class="st1" width="181.4" height="22.6"/>
	<rect x="565.2" y="558.4" class="st1" width="234.1" height="25.7"/>
	<polygon class="st1" points="799.3,642.5 600.5,642.5 600.5,667.4 596.7,667.4 596.7,642.5 431.7,642.5 431.7,667.4 427.8,667.4 
		427.8,642.5 229.5,642.5 229.5,666.8 229.5,667.4 799.3,667.4 	"/>
	<rect x="632.7" y="618.2" class="st1" width="166.5" height="20.6"/>
	<rect x="684.1" y="587.9" class="st1" width="115.2" height="26.4"/>
	<rect x="229.5" y="558.4" class="st1" width="41.7" height="25.7"/>
	<rect x="829.6" y="511.3" class="st0" width="63.1" height="37"/>
	<polygon class="st0" points="825.7,412.3 825.7,223 806.4,223 806.4,548.5 825.7,548.5 825.7,416.2 806.4,416.2 806.4,412.3 	"/>
	<rect x="229.5" y="132.9" class="st1" width="122.1" height="24.3"/>
	<polygon class="st1" points="420.1,160.9 353.5,160.9 353.5,160.9 351.6,160.9 229.5,160.9 227.5,160.9 227.5,160.9 227.5,183.3 
		420.1,183.3 	"/>
	<rect x="229.5" y="102.8" class="st1" width="122.1" height="26.2"/>
	<rect x="424" y="143.5" class="st1" width="179.8" height="27.2"/>
	<rect x="953.1" y="485.6" class="st0" width="55.6" height="62.9"/>
	<polygon class="st1" points="799.3,754.4 799.3,684.4 437.5,684.4 437.5,754.4 588.2,754.4 588.2,684.4 592,684.4 592,754.4 
		715.7,754.4 715.7,684.4 719.6,684.4 719.6,754.4 	"/>
	<polygon class="st1" points="433.6,754.4 433.6,684.4 229.5,684.4 229.5,754.4 307.2,754.4 307.2,684.4 311.1,684.4 311.1,754.4 	
		"/>
	<path class="st0" d="M107.3,552.4H15.9v32.4c0,25.5,5.8,49.8,15.8,71.4l93.8-43.8C114.7,595,108.1,574.4,107.3,552.4z"/>
	<rect x="389.6" y="618.2" class="st1" width="239.1" height="20.6"/>
	<rect x="514.3" y="587.9" class="st1" width="166.1" height="26.4"/>
	<rect x="275" y="558.4" class="st1" width="181.2" height="25.7"/>
	<rect x="227.5" y="187.1" class="st1" width="43.8" height="22.6"/>
	<rect x="607.5" y="187.1" class="st1" width="189.9" height="22.6"/>
	<rect x="229.5" y="618.2" class="st1" width="156.3" height="20.6"/>
	<rect x="229.5" y="587.9" class="st1" width="111.1" height="26.4"/>
	<rect x="344.5" y="587.9" class="st1" width="165.7" height="26.4"/>
	<path class="st0" d="M846.3,598.9c-12,11.6-26.6,20.1-43.2,24.5v43.4c31.8-0.6,60.8-13.7,81.8-34.7L846.3,598.9z"/>
	<rect x="896.3" y="223" class="st0" width="52.7" height="64.4"/>
	<path class="st0" d="M1008.6,183.3c0-22.2-4.4-43.4-12.2-62.9l-89.3,39.9c10,17.4,16,37.6,16.4,59h85.3v-36.1H1008.6z"/>
	<rect x="896.3" y="291.3" class="st0" width="52.7" height="63.1"/>
	<rect x="953.1" y="291.3" class="st0" width="55.6" height="92.6"/>
	<path class="st0" d="M799.8,102.8l-0.6,45.2c18.7,3.9,34.9,12.9,47.7,25.7l39.9-34.2c-21.6-22.6-52.1-36.7-85.7-36.7H799.8z"/>
	<rect x="896.3" y="358.3" class="st0" width="52.7" height="60.4"/>
	<rect x="953.1" y="223" class="st0" width="55.6" height="64.4"/>
	<rect x="896.3" y="422.5" class="st0" width="52.7" height="59.2"/>
	<rect x="953.1" y="387.8" class="st0" width="55.6" height="94"/>
	<path class="st0" d="M125.9,156.7c10.2-16.4,24.3-30.3,40.9-40.1l-52.3-87.2c-36.5,17-66.2,46.7-83,83.2L125.9,156.7z"/>
	<path class="st0" d="M225.6,670.7c-32.2-1-61.6-14.7-82.8-36.1l-0.6,0.4l-2.5-3.1l0.2-0.2c-5-5.4-9.5-11.2-13.5-17.4l0.8,1.5
		l-93.8,44C51,695.4,80.7,723.7,117,740l50.7-84.5l3.3,1.9l-50.6,84.1c20.1,8.3,41.9,12.9,64.8,12.9h40.3
		C225.6,754.4,225.6,670.7,225.6,670.7z"/>
	<path class="st0" d="M904,616.1l1.5-3.5l89.1,39.7c9.1-20.6,14.1-43.4,14.1-67.3v-32.6h-85.3c-1,30.7-13.3,58.5-32.8,79.5l0.4,0.2
		l-2.5,2.9l-0.4-0.4c-21.8,21.8-51.7,35.5-84.7,36.1v83.7h35.9c24.1,0,47.3-5.2,68.1-14.3L860,657.4l3.3-1.9l47.7,83.2
		c36.3-17,65.4-46.5,82.4-82.8L904,616.1z"/>
	<path class="st0" d="M919.5,552.4h-46.1c-4.2,16.8-12.7,31.8-24.3,43.8l38.6,33.2C906.5,608.9,918.5,582.1,919.5,552.4z"/>
	<path class="st0" d="M170,114.4c16.6-9.3,35.5-14.9,55.6-15.4V13.7h-40.1c-23.9,0-46.7,5-67.3,14.1L170,114.4z"/>
	<path class="st0" d="M863.9,116.3c16.8,10,30.9,23.9,41.1,40.5l89.9-40.1c-16.2-37.4-45.3-68.1-82-85.9L863.9,116.3z"/>
	<polygon class="st1" points="719.6,12.1 719.6,99 796.2,99 797.1,13.7 795.4,13.7 795.4,12.1 	"/>
	<path class="st0" d="M800,99h1.2c21.6,0,41.9,5.6,59.4,15.4l48.8-85.3C888,19.3,864.1,13.7,839,13.7h-38.2L800,99z"/>
	<polygon class="st0" points="923.5,548.5 949.2,548.5 949.2,485.6 896.3,485.6 896.3,548.5 919.7,548.5 	"/>
	<rect x="431.7" y="12.1" class="st1" width="156.5" height="86.8"/>
	<rect x="302.6" y="12.1" class="st1" width="125.2" height="86.8"/>
	<rect x="229.5" y="12.1" class="st1" width="69.1" height="86.8"/>
	<path class="st0" d="M184.5,172.3c11.6-10.6,25.7-18.5,41.1-22.8v-46.7c-32,1-61,14.9-81.8,36.7L184.5,172.3z"/>
	<path class="st0" d="M225.6,623.4c-15.4-4.2-29.3-12-40.9-22.6l-39,31.5c20.6,20.6,48.6,33.6,79.7,34.5v-43.4H225.6z"/>
	<polygon class="st1" points="675.6,160.9 675.6,160.9 675.6,160.9 607.5,160.9 607.5,183.3 797.3,183.3 797.3,160.9 797.3,160.9 
		677.5,160.9 	"/>
	<polygon class="st1" points="677.5,132.9 677.5,157 795.4,157 795.8,132.9 	"/>
	<polygon class="st1" points="677.5,129.1 795.8,129.1 796,102.8 677.5,102.8 	"/>
	<rect x="592" y="12.1" class="st1" width="123.7" height="86.8"/>
	<polygon class="st0" points="107.3,548.5 111.2,548.5 118.1,548.5 118.1,504.9 15.9,504.9 15.9,548.5 	"/>
	<rect x="15.9" y="332.6" class="st0" width="102.3" height="110.6"/>
	<rect x="15.9" y="447" class="st0" width="102.3" height="54"/>
	<path class="st0" d="M182,598.1c-12.5-12.3-21.8-28.2-26.2-45.7h-44.6c1,29.7,12.9,56.7,32,77L182,598.1z"/>
	<rect x="15.9" y="223" class="st0" width="102.3" height="42.6"/>
	<path class="st0" d="M15.9,183.3v35.9h91.5c0.4-21.6,6.4-41.9,16.4-59.4l-94-43.6C20.9,136.8,15.9,159.4,15.9,183.3z"/>
	<path class="st0" d="M111.2,219.2h45c4.4-17,13.5-32.2,25.7-44.4l-40.5-32.4C123,162.8,111.8,189.6,111.2,219.2z"/>
	<rect x="15.9" y="269.5" class="st0" width="102.3" height="59.2"/>
</g>
<g id="Plattegrond_x5F_wit" class="st2">
	<g id="Vakken_1_" class="st3">
		<rect x="309.8" y="325" class="st4" width="49.8" height="30.7"/>
		<rect x="309.8" y="357.8" class="st4" width="49.8" height="26.1"/>
		<rect x="309.8" y="385.8" class="st4" width="49.8" height="29.3"/>
		<rect x="309.8" y="417" class="st4" width="49.8" height="28"/>
		<rect x="309.8" y="301" class="st4" width="49.8" height="22.1"/>
		<rect x="309.8" y="447" class="st4" width="49.8" height="22.6"/>
		<rect x="485" y="282.3" class="st4" width="74.3" height="11.7"/>
		<polygon class="st4" points="595.7,238.6 430.8,238.6 430.8,257.8 465.2,257.8 465.2,257.8 466.2,257.8 559.3,257.8 560.3,257.8 
			560.3,257.8 595.7,257.8 		"/>
		<rect x="676.5" y="301" class="st4" width="32.7" height="33.4"/>
		<rect x="676.5" y="336.3" class="st4" width="32.7" height="62.6"/>
		<rect x="676.5" y="401" class="st4" width="32.7" height="47.4"/>
		<path class="st4" d="M707.5,259.1l-20.6,17.7c5.7,6.1,9.8,13.7,12.1,22.2h24.1C722.8,283.8,717,269.8,707.5,259.1z"/>
		<rect x="389" y="282.3" class="st4" width="94" height="11.7"/>
		<rect x="539.5" y="474.8" class="st4" width="121.3" height="13.3"/>
		<polygon class="st4" points="660.8,518.3 557.8,518.3 557.8,531.2 555.8,531.2 555.8,518.3 470.2,518.3 470.2,531.2 468.2,531.2 
			468.2,518.3 365.5,518.3 365.5,530.9 365.5,531.2 660.8,531.2 		"/>
		<rect x="574.5" y="505.8" class="st4" width="86.3" height="10.7"/>
		<rect x="601" y="490" class="st4" width="59.7" height="13.7"/>
		<rect x="365.5" y="474.8" class="st4" width="21.6" height="13.3"/>
		<rect x="676.5" y="450.4" class="st4" width="32.7" height="19.2"/>
		<polygon class="st4" points="674.5,399 674.5,301 664.5,301 664.5,469.6 674.5,469.6 674.5,401 664.5,401 664.5,399 		"/>
		<rect x="365.5" y="254.2" class="st4" width="63.3" height="12.6"/>
		<polygon class="st4" points="464.2,268.8 429.8,268.8 429.8,268.8 428.8,268.8 365.5,268.8 364.5,268.8 364.5,268.8 364.5,280.3 
			464.2,280.3 		"/>
		<rect x="365.5" y="238.6" class="st4" width="63.3" height="13.6"/>
		<rect x="466.2" y="259.8" class="st4" width="93.2" height="14.1"/>
		<rect x="740.5" y="437" class="st4" width="28.8" height="32.6"/>
		<polygon class="st4" points="660.8,576.3 660.8,540 473.2,540 473.2,576.3 551.3,576.3 551.3,540 553.3,540 553.3,576.3 
			617.5,576.3 617.5,540 619.5,540 619.5,576.3 		"/>
		<polygon class="st4" points="471.2,576.3 471.2,540 365.5,540 365.5,576.3 405.8,576.3 405.8,540 407.8,540 407.8,576.3 		"/>
		<path class="st4" d="M302.1,471.6h-47.4v16.8c0,13.2,3,25.8,8.2,37l48.6-22.7C306,493.8,302.5,483,302.1,471.6z"/>
		<rect x="448.5" y="505.8" class="st4" width="123.9" height="10.7"/>
		<rect x="513" y="490" class="st4" width="86.1" height="13.7"/>
		<rect x="389" y="474.8" class="st4" width="93.9" height="13.3"/>
		<rect x="364.5" y="282.3" class="st4" width="22.7" height="11.7"/>
		<rect x="561.3" y="282.3" class="st4" width="98.4" height="11.7"/>
		<rect x="365.5" y="505.8" class="st4" width="81" height="10.7"/>
		<rect x="365.5" y="490" class="st4" width="57.6" height="13.7"/>
		<rect x="425" y="490" class="st4" width="85.9" height="13.7"/>
		<path class="st4" d="M685.2,495.8c-6.2,6-13.8,10.4-22.4,12.7V531c16.5-0.3,31.5-7.1,42.4-18L685.2,495.8z"/>
		<rect x="711" y="301" class="st4" width="27.3" height="33.4"/>
		<path class="st4" d="M769.2,280.3c0-11.5-2.3-22.5-6.3-32.6l-46.3,20.7c5.2,9,8.3,19.5,8.5,30.6h44.2v-18.7H769.2z"/>
		<rect x="711" y="336.3" class="st4" width="27.3" height="32.7"/>
		<rect x="740.5" y="336.3" class="st4" width="28.8" height="48"/>
		<path class="st4" d="M661,238.6l-0.3,23.4c9.7,2,18.1,6.7,24.7,13.3l20.7-17.7c-11.2-11.7-27-19-44.4-19H661z"/>
		<rect x="711" y="371" class="st4" width="27.3" height="31.3"/>
		<rect x="740.5" y="301" class="st4" width="28.8" height="33.4"/>
		<rect x="711" y="404.3" class="st4" width="27.3" height="30.7"/>
		<rect x="740.5" y="386.3" class="st4" width="28.8" height="48.7"/>
		<path class="st4" d="M311.8,266.5c5.3-8.5,12.6-15.7,21.2-20.8l-27.1-45.2c-18.9,8.8-34.3,24.2-43,43.1L311.8,266.5z"/>
		<path class="st4" d="M363.5,532.9c-16.7-0.5-31.9-7.6-42.9-18.7l-0.3,0.2l-1.3-1.6l0.1-0.1c-2.6-2.8-4.9-5.8-7-9l0.4,0.8
			l-48.6,22.8c9.1,18.4,24.5,33.1,43.3,41.5l26.3-43.8l1.7,1l-26.2,43.6c10.4,4.3,21.7,6.7,33.6,6.7h20.9
			C363.4,576.4,363.4,532.9,363.5,532.9z"/>
		<path class="st4" d="M715,504.6l0.8-1.8l46.2,20.6c4.7-10.7,7.3-22.5,7.3-34.9v-16.9h-44.2c-0.5,15.9-6.9,30.3-17,41.2l0.2,0.1
			l-1.3,1.5l-0.2-0.2c-11.3,11.3-26.8,18.4-43.9,18.7v43.4h18.6c12.5,0,24.5-2.7,35.3-7.4l-24.6-42.9l1.7-1l24.7,43.1
			c18.8-8.8,33.9-24.1,42.7-42.9L715,504.6z"/>
		<path class="st4" d="M723,471.6h-23.9c-2.2,8.7-6.6,16.5-12.6,22.7l20,17.2C716.3,500.9,722.5,487,723,471.6z"/>
		<path class="st4" d="M334.6,244.6c8.6-4.8,18.4-7.7,28.8-8v-44.2h-20.8c-12.4,0-24.2,2.6-34.9,7.3L334.6,244.6z"/>
		<path class="st4" d="M694.2,245.6c8.7,5.2,16,12.4,21.3,21l46.6-20.8c-8.4-19.4-23.5-35.3-42.5-44.5L694.2,245.6z"/>
		<polygon class="st4" points="619.5,191.6 619.5,236.6 659.2,236.6 659.7,192.4 658.8,192.4 658.8,191.6 		"/>
		<path class="st4" d="M661.2,236.6h0.6c11.2,0,21.7,2.9,30.8,8l25.3-44.2c-11.1-5.1-23.5-8-36.5-8h-19.8L661.2,236.6z"/>
		<polygon class="st4" points="725.2,469.6 738.5,469.6 738.5,437 711,437 711,469.6 723.2,469.6 		"/>
		<rect x="470.2" y="191.6" class="st4" width="81.1" height="45"/>
		<rect x="403.4" y="191.6" class="st4" width="64.9" height="45"/>
		<rect x="365.5" y="191.6" class="st4" width="35.8" height="45"/>
		<path class="st4" d="M342.1,274.6c6-5.5,13.3-9.6,21.3-11.8v-24.2c-16.6,0.5-31.6,7.7-42.4,19L342.1,274.6z"/>
		<path class="st4" d="M363.5,508.4c-8-2.2-15.2-6.2-21.2-11.7L322,513c10.7,10.7,25.2,17.4,41.3,17.9v-22.5H363.5z"/>
		<polygon class="st4" points="596.7,268.8 596.7,268.8 596.7,268.8 561.3,268.8 561.3,280.3 659.8,280.3 659.8,268.8 659.8,268.8 
			597.7,268.8 		"/>
		<polygon class="st4" points="597.7,254.2 597.7,266.8 658.8,266.8 659,254.2 		"/>
		<polygon class="st4" points="597.7,252.2 659,252.2 659,238.6 597.7,238.6 		"/>
		<rect x="553.3" y="191.6" class="st4" width="64.1" height="45"/>
		<polygon class="st4" points="302.1,469.6 304.1,469.6 307.8,469.6 307.8,447 254.8,447 254.8,469.6 		"/>
		<rect x="254.8" y="357.8" class="st4" width="53" height="57.3"/>
		<rect x="254.8" y="417" class="st4" width="53" height="28"/>
		<path class="st4" d="M340.9,495.4c-6.5-6.4-11.3-14.6-13.6-23.7h-23.1c0.5,15.4,6.7,29.4,16.6,39.9L340.9,495.4z"/>
		<rect x="254.8" y="301" class="st4" width="53" height="22.1"/>
		<path class="st4" d="M254.8,280.3v18.6h47.4c0.2-11.2,3.3-21.7,8.5-30.8L262,245.5C257.4,256.2,254.8,268,254.8,280.3z"/>
		<path class="st4" d="M304.1,299h23.3c2.3-8.8,7-16.7,13.3-23l-21-16.8C310.2,269.8,304.5,283.6,304.1,299z"/>
		<rect x="254.8" y="325" class="st4" width="53" height="30.7"/>
	</g>
	<g id="Veld_2_" class="st3">
		<g id="Veld_3_">
			<path class="st4" d="M490.4,386.1c0,12.8,9.8,23.3,22.1,23.9v-47.8C500.1,362.8,490.4,373.3,490.4,386.1z"/>
			<path class="st4" d="M642,412.5h-20.4v-56.8H642v-48.2H514.5v52.7c13.5,0.5,24.3,12,24.3,26s-10.8,25.5-24.3,26v53.3h127.6
				L642,412.5L642,412.5z M642,439.6h-47.1V331H642v2.1h-45.1v104.5H642V439.6z"/>
			<path class="st4" d="M536.7,386.1c0-12.9-9.9-23.4-22.2-23.9V410C526.8,409.5,536.7,399,536.7,386.1z"/>
			<rect x="623.7" y="357.8" class="st4" width="18.4" height="52.6"/>
			<rect x="383.5" y="360.2" class="st4" width="17" height="52.6"/>
			<polygon class="st4" points="427,333 383.5,333 383.5,358.1 402.5,358.1 402.5,415 383.5,415 383.5,437.5 427,437.5 			"/>
			<path class="st4" d="M512.3,412.1c-13.4-0.6-24.1-12-24.1-26s10.7-25.4,24.1-26v-52.7h-129V331H429v108.6h-45.7v25.7h129V412.1z"
				/>
		</g>
	</g>
</g>
<g id="stage">
	<g>
		<rect x="244.4" y="338.1" class="st5" width="61.8" height="90.7"/>
		<polygon class="st5" points="346.5,299.9 244.4,299.9 244.4,333.2 310.7,333.2 310.7,432.9 244.4,432.9 244.4,466.5 346.5,466.5 
					"/>
		<polygon class="st5" points="677.7,466.5 779.9,466.5 779.9,432.9 715.2,432.9 715.2,333.2 779.9,333.2 779.9,299.9 677.7,299.9 
					"/>
		<rect x="719.9" y="338.1" class="st5" width="60.4" height="90.7"/>
		<path class="st5" d="M350.8,344.6v77.2c20.4-1.2,37.2-18,37.2-38.7C388,362.4,372,346,350.8,344.6z"/>
		<path class="st5" d="M673.3,421.8v-77.2c-20.4,1.2-37.2,18-37.2,38.7C636.5,404.2,652.7,421,673.3,421.8z"/>
		<path class="st5" d="M516.4,315.5v135.6c36.1-2.1,65.5-31.5,65.5-67.9C581.8,346.4,552.5,317.1,516.4,315.5z"/>
		<path class="st5" d="M444.1,383.1c0,37.2,30.3,67.6,67.9,68.2V315.1C473.9,315.8,444.1,346,444.1,383.1z"/>
		<path class="st5" d="M244.4,223v72.3h106.8v44.8c23,1.2,41.9,20.4,41.9,43.4c0,23-18.3,41.9-41.9,43.4v44.8H244.4v72.3H780v-72.3
			H673.2v-44.5c-23-1.2-41.9-20.4-41.9-43.4c0-23,18.3-41.9,41.9-43.4v-45H780V223H244.4L244.4,223z M516.4,455.9v86.5h-4.7v-86.5
			c-40.1-0.8-72.5-33-72.5-73c0-39.8,32.3-72.3,72.5-73V224h4.7v86.5c39.1,2.1,70.2,34,70.2,73C586.5,422.4,555.5,454.6,516.4,455.9
			z"/>
	</g>
</g>
</svg>
