<?xml version="1.0" encoding="utf-8"?>
<!-- Generator: Adobe Illustrator 21.1.0, SVG Export Plug-In . SVG Version: 6.00 Build 0)  -->
<svg version="1.1" id="Laag_1" xmlns="http://www.w3.org/2000/svg" xmlns:xlink="http://www.w3.org/1999/xlink" x="0px" y="0px"
	 viewBox="0 0 1024 768" style="enable-background:new 0 0 1024 768;" xml:space="preserve">
<style type="text/css">
	.st0{fill:#ACCA5A;}
	.st1{fill:#F8B65F;}
	.st2{fill:#93B8D2;}
	.st3{fill:#85BB3E;}
</style>
<g id="blocks">
	<rect x="478.9" y="530.9" class="st0" width="43" height="40.6"/>
	<g id="CATEGORIA_3">
		<path class="st1" d="M225,73l-16-36.7c-22.1,10.3-42.1,24.6-59.6,41.2l28.7,26.6C192.3,91,207.9,80.6,225,73z"/>
		<path class="st1" d="M164.8,117.5c3.6-4,7.3-7.9,11.4-11.7l-28.7-26.9c-18.8,18.5-34.5,40.6-45.9,64.8l33.5,17
			C143.1,145.4,153,130.3,164.8,117.5z"/>
		<path class="st1" d="M792.6,696.8l21.8,36c11.4-6.9,22.1-14.9,32-23.6l-27.9-30.1C810.6,685.7,801.7,691.6,792.6,696.8z"/>
		<path class="st1" d="M116.2,233.7c0-3.9,0.3-7.6,0.6-11.7l-35-5.5c-0.8,7.3-1,14.8-1,22.1v35.4l35.4,4
			C116.2,278.1,116.2,233.7,116.2,233.7z"/>
		<path class="st1" d="M80.7,541.4c0,14.8,1.5,29.1,4,43l33.9-9.1c-1.5-7.9-2.5-15.7-2.5-23v-33.1l-35.4,7
			C80.7,526.1,80.7,541.4,80.7,541.4z"/>
		<polygon class="st1" points="116.2,460 80.7,466.9 80.7,523.3 116.2,516.4 		"/>
		<rect x="80.7" y="338.6" class="st1" width="35.4" height="58.5"/>
		<polygon class="st1" points="80.7,400 80.7,464 116.2,457.5 116.2,400 		"/>
		<path class="st1" d="M133.9,163l-33.5-17c-9.7,21-16,43.9-18.5,67.7l35,5.5C119.1,201,125.1,181.7,133.9,163z"/>
		<path class="st1" d="M780.7,71.7c19.3,8.6,36,20.3,49.7,33.9L853.1,77c-17.5-17-38.1-31.2-60.3-41.5L780.7,71.7z"/>
		<path class="st1" d="M867.9,158.6l31.4-18.2c-11.2-23-26.3-43.6-44.4-61.4L832,107.9C847.3,122.8,859.2,140.3,867.9,158.6z"/>
		<rect x="887.6" y="338.2" class="st1" width="34.5" height="58.1"/>
		<path class="st1" d="M885.5,215.9l34.2-8.1c-3.3-23-9.9-44.8-19.4-64.8l-31.4,18.2C877.5,178.9,883.1,197.8,885.5,215.9z"/>
		<path class="st1" d="M887.6,240.3v36.8l34.5-5.8v-32.8c0-9.7-0.6-19-1.8-28.4l-34.2,8.1C887.1,225.8,887.6,233.4,887.6,240.3z"/>
		<path class="st1" d="M169.1,665.4c-8.8-8.8-16.7-18.5-23.6-28.7L110.4,653c12.1,21,27.6,40,45.7,56l26.1-31.7
			C177.8,673.7,173.5,669.8,169.1,665.4z"/>
		<path class="st1" d="M184.2,679.2l-25.8,31.7c8.8,7.9,18.5,14.9,28.7,21.2l21.8-35.2C200.3,691.6,192,685.7,184.2,679.2z"/>
		<polygon class="st1" points="80.7,276.6 80.7,336.1 116.2,336.1 116.2,280.8 		"/>
		<path class="st1" d="M119.2,577.8l-33.7,9.1c4.8,22.8,13,44.1,23.9,63.9l35-16.3C131.9,616.1,123.3,596.8,119.2,577.8z"/>
		<path class="st1" d="M861,632.6l33,17.5c11.4-20.6,19.7-43,24.3-66.9l-34.5-5.4C879.1,599.2,870.9,617.4,861,632.6z"/>
		<path class="st1" d="M884,575.4l34.5,5.4c2.3-13,3.6-26.1,3.6-39.6v-21h-34.5v20C887.6,553,886.4,564.4,884,575.4z"/>
		<rect x="887.6" y="458.2" class="st1" width="34.5" height="59.6"/>
		<rect x="887.6" y="398.5" class="st1" width="34.5" height="57"/>
		<path class="st1" d="M821.9,676.4c-0.6,0.3-1,0.8-1.2,1l27.6,29.9c17.5-16,32.4-34.5,44.4-55l-33.1-17.4
			C848.2,652.6,834.6,666.1,821.9,676.4z"/>
		<polygon class="st1" points="887.6,335.4 922.1,335.4 922.1,273.8 887.6,279.9 		"/>
	</g>
	<g id="CATEGORIA_1_PREMIUM">
		<rect x="574.4" y="177.2" class="st0" width="36" height="28.1"/>
		<rect x="448.8" y="113.8" class="st0" width="51.4" height="29.4"/>
		<rect x="388.6" y="573.9" class="st0" width="45.7" height="27.3"/>
		<rect x="438.5" y="573.9" class="st0" width="27.9" height="27.3"/>
		<rect x="566.5" y="573.9" class="st0" width="34.5" height="27.3"/>
		<rect x="535.7" y="573.9" class="st0" width="28.1" height="27.3"/>
		<rect x="402.6" y="113.8" class="st0" width="43.6" height="29.4"/>
		<rect x="502.9" y="113.8" class="st0" width="49.1" height="29.4"/>
		<rect x="524.4" y="530.9" class="st0" width="37" height="40.6"/>
		<rect x="445.9" y="530.9" class="st0" width="30.2" height="40.6"/>
		<rect x="563.7" y="530.9" class="st0" width="37.2" height="40.6"/>
		<path class="st0" d="M603.6,531v40.6h39.7l-3.9-40.6c-0.6,0-1,0-1.2,0H603.6z"/>
		<rect x="502.9" y="207.9" class="st0" width="40" height="40.3"/>
		<rect x="545.4" y="207.9" class="st0" width="38.2" height="40.3"/>
		<polygon class="st0" points="625.4,248.1 628.6,207.9 586.1,207.9 586.1,248.1 		"/>
		<rect x="574.6" y="636.3" class="st0" width="44.6" height="26.1"/>
		<rect x="468.2" y="636.3" class="st0" width="32" height="26.1"/>
		<rect x="460.2" y="207.9" class="st0" width="40.3" height="40.3"/>
		<rect x="502.6" y="636.3" class="st0" width="30.3" height="26.1"/>
		<rect x="421.5" y="207.9" class="st0" width="36" height="40.3"/>
		<rect x="535.6" y="177.2" class="st0" width="36" height="28.1"/>
		<rect x="535.6" y="636.3" class="st0" width="36.6" height="26.1"/>
		<polygon class="st0" points="403.6,531 400.3,571.6 443.3,571.6 443.3,531 		"/>
		<polygon class="st0" points="419.1,248.1 419.1,207.9 377,207.9 381.3,248.1 		"/>
		<polygon class="st0" points="370.1,531 363.6,571.6 397.8,571.6 401,531 		"/>
		<rect x="376.7" y="636.3" class="st0" width="48.4" height="26.1"/>
		<rect x="433.7" y="145.7" class="st0" width="41.8" height="29.1"/>
		<rect x="383.9" y="145.7" class="st0" width="47.2" height="29.1"/>
		<rect x="478.1" y="145.7" class="st0" width="22.3" height="29.1"/>
		<rect x="530.5" y="145.7" class="st0" width="42.9" height="29.1"/>
		<rect x="575.7" y="145.7" class="st0" width="44.4" height="29.1"/>
		<rect x="502.9" y="145.7" class="st0" width="25.1" height="29.1"/>
		<rect x="473.5" y="177.2" class="st0" width="58.8" height="28.1"/>
		<rect x="430.9" y="177.2" class="st0" width="40.3" height="28.1"/>
		<rect x="502.6" y="603.6" class="st0" width="49.4" height="30.2"/>
		<rect x="554.6" y="603.6" class="st0" width="41.1" height="30.2"/>
		<rect x="401.5" y="603.6" class="st0" width="50.6" height="30.2"/>
		<rect x="454.8" y="603.6" class="st0" width="45.4" height="30.2"/>
		<rect x="554.6" y="113.8" class="st0" width="46.1" height="29.4"/>
		<rect x="427.6" y="636.3" class="st0" width="38.1" height="26.1"/>
		<rect x="393.9" y="177.2" class="st0" width="34.8" height="28.1"/>
	</g>
	<g id="CATEGORIA_2">
		<path class="st2" d="M704.4,743.3c18.8-0.8,36.3-5.1,50.6-10.1l-3.6-17.9c-16,5.1-32.1,8.1-47.2,8.1L704.4,743.3L704.4,743.3z"/>
		<path class="st2" d="M698.6,743.3c1,0,2.3,0,3.3,0V723h-50.5v20.3H698.6z"/>
		<rect x="527.5" y="723" class="st2" width="41.8" height="20.3"/>
		<rect x="502.6" y="723" class="st2" width="22.1" height="20.3"/>
		<rect x="478.4" y="723" class="st2" width="21.8" height="20.3"/>
		<rect x="571.9" y="723" class="st2" width="34.8" height="20.3"/>
		<rect x="609.1" y="723" class="st2" width="39.7" height="20.3"/>
		<rect x="436.8" y="723" class="st2" width="39" height="20.3"/>
		<rect x="352.8" y="723" class="st2" width="41.1" height="20.3"/>
		<path class="st2" d="M294.1,723c-14.2-0.6-28.4-3-42.3-7l-4.3,17.8c13.4,4.8,29.4,8.6,46.6,9.4V723L294.1,723z"/>
		<path class="st2" d="M300.7,723c-1.2,0-2.8,0-4,0v20.3c1.8,0,3.9,0,5.5,0h47.9V723H300.7z"/>
		<rect x="396.4" y="723" class="st2" width="37.8" height="20.3"/>
		<path class="st1" d="M228,141.7l-32-49c-10.6,7.6-20.6,16.4-29.4,26.6c-4.3,4.6-8.1,9.7-11.9,14.8l47.6,34.2
			C209.9,158.2,218.6,149.5,228,141.7z"/>
		<path class="st2" d="M200.8,247.9c2.1-12.1,5.8-23.9,11.2-34.8l-26.1-13c-6.3,13.7-10.3,28.1-11.9,42.9L200.8,247.9z"/>
		<path class="st1" d="M817,587.2l53.9,21.2c7.6-17.2,12.7-37.2,13.7-60l-52.7-12.7C830.4,553.4,825,571,817,587.2z"/>
		<path class="st1" d="M795.6,619.9l43.6,37c11.4-12.4,22.3-27.3,30.6-45.7l-54.2-21.5C810.1,600.6,803.5,610.5,795.6,619.9z"/>
		<path class="st1" d="M795.3,157.2c2.1,2.5,4,5.1,5.8,7.6l44.4-37.8c-10.9-14.5-24.1-27.3-39.7-38.2l-30.3,48.7
			C782.5,143.3,789,149.9,795.3,157.2z"/>
		<polygon class="st1" points="884.8,481.9 884.8,428.3 832.8,426.8 832.8,479.2 		"/>
		<path class="st1" d="M762.9,647.9l28.4,46.6c10.1-5.8,20-12.7,29.1-20.3c5.5-4.6,11.4-9.9,17-16l-43.7-37
			C784.7,632,774.4,641,762.9,647.9z"/>
		<path class="st1" d="M832.8,522.6c0,3.6-0.3,7-0.6,10.9l52.4,12.4c0-1.8,0-3.9,0-5.5v-56l-52.1-2.8v41H832.8z"/>
		<path class="st1" d="M823.1,204l52.4-19.7c-6.3-19-15.4-37.8-28.1-54.8l-44.4,37.7C811.1,178.2,817.9,190.6,823.1,204z"/>
		<path class="st1" d="M832.8,255.4v0.6l52.1-12.7v-2.8c0-17-2.8-35.4-8.6-53.9L824,206.3C829.5,222.3,832.8,239.2,832.8,255.4z"/>
		<polygon class="st1" points="832.8,424.3 884.8,425.5 884.8,368.3 832.8,371.6 		"/>
		<polygon class="st1" points="832.8,310.6 884.8,304 884.8,246.1 832.8,258.5 		"/>
		<polygon class="st1" points="832.8,369 884.8,365.8 884.8,306.5 832.8,313.4 		"/>
		<path class="st2" d="M745,289c0.3,3.3,0.6,6.9,0.6,10.3v34.5h27.6V289H745z"/>
		<path class="st2" d="M761.7,233l-29.1,14.6c6.3,11.4,10.6,24.3,12.1,38.8h28.4v-6.6C773.1,262.9,769,246.9,761.7,233z"/>
		<rect x="745.4" y="420" class="st2" width="27.6" height="40.3"/>
		<rect x="745.4" y="377.8" class="st2" width="27.6" height="39.7"/>
		<path class="st0" d="M781.4,577.8l-26.3-16.7c-10.9,14.8-25.7,26.6-42.9,33.9l16,28.1C749.9,613.7,768.6,597.8,781.4,577.8z"/>
		<path class="st2" d="M773.1,462.8h-27.6v17c0,7.3-0.8,14.2-1.8,21l29.1,4.8c0.3-2.3,0.3-4.8,0.3-7V462.8z"/>
		<rect x="745.4" y="336.7" class="st2" width="27.6" height="38.5"/>
		<path class="st0" d="M707.5,184.1l-9.7,29.9c13.7,6.9,25.1,17.8,33.5,31.2l29.1-14.8C749,209.7,730.2,193.1,707.5,184.1z"/>
		<path class="st0" d="M752.8,559.9l-27.3-17.2c-7.9,10.1-17.9,18.2-29.7,23.6l15.2,26.9C727.7,585.7,742.2,574.3,752.8,559.9z"/>
		<path class="st2" d="M743.2,503.3c-3,13.9-8.6,26.6-16.3,37l27.3,17.2c10.1-14.2,16.7-31.2,18.2-49.4L743.2,503.3z"/>
		<path class="st2" d="M695.5,496c-3.3,6.3-7.3,11.9-12.4,16.7l41.8,26.3c7.9-10.6,13.4-23.9,16.3-38.2L695.5,496z"/>
		<path class="st0" d="M694.5,564c11.2-5.4,21-13,28.7-22.8l-42.1-26.6c-3,2.8-6.6,5.4-10.1,7.6L694.5,564z"/>
		<rect x="702.6" y="417.4" class="st2" width="40.3" height="38.1"/>
		<path class="st2" d="M702.6,458.2v8.1c0,9.7-2.1,18.8-6.1,27.2l44.8,4.8c1-5.8,1.5-11.9,1.5-18.2v-21.7h-40.3L702.6,458.2
			L702.6,458.2z"/>
		<rect x="702.6" y="377.8" class="st2" width="40.3" height="37.2"/>
		<rect x="803.7" y="295.3" class="st2" width="26.6" height="50.9"/>
		<rect x="803.7" y="395.4" class="st2" width="26.6" height="49.9"/>
		<rect x="803.7" y="348.8" class="st2" width="26.6" height="44.1"/>
		<rect x="803.7" y="447.9" class="st2" width="26.6" height="45.4"/>
		<path class="st2" d="M798.9,546.1c-3.3,11.2-7.9,21.5-13.9,31.2l25.8,16.4c7.6-13.4,13.2-27.9,16.3-42.6L798.9,546.1z"/>
		<path class="st0" d="M809.5,595.7l-26.1-16.4c-7,10.9-15.7,20.6-25.7,28.7l23.9,22.8C792.6,620.6,801.9,608.8,809.5,595.7z"/>
		<path class="st0" d="M779.6,632.3l-24.1-22.8c-11.4,8.8-24.3,16-38.2,20.6l10.9,29.7C747.7,655.3,765,645.7,779.6,632.3z"/>
		<path class="st2" d="M830.4,495.7h-26.6v15.2c0,11.2-1.5,22.1-4.3,32.4l28.1,4.8c1.8-8.6,2.5-17.2,2.5-25.8v-26.6H830.4z"/>
		<path class="st0" d="M792.6,157.2l-24.3,23.6c9.1,9.4,17,20.3,22.8,32.1l27.9-13C812.3,184.7,803.5,169.9,792.6,157.2z"/>
		<rect x="702.6" y="336.7" class="st2" width="40.3" height="38.5"/>
		<path class="st0" d="M753.5,126.1l-14.2,33c9.9,5.5,19,12.4,26.9,20.3l24.6-23.9C780.2,143.3,767.5,133.1,753.5,126.1z"/>
		<path class="st2" d="M689.7,273.8c5.1,6.6,8.8,14.2,10.9,22.6l42.1-7c-1.2-15.7-5.8-29.9-13.2-41.8L689.7,273.8z"/>
		<path class="st2" d="M702.6,333.8h40.3v-34.5c0-2.5,0-5.1-0.3-7.6l-41.5,7c1,4.6,1.5,9.1,1.5,13.9V333.8z"/>
		<path class="st2" d="M830.4,252.7h-27.4c0.8,5.1,1,10.3,1,15.7v24.3h26.6v-37.2C830.4,254.8,830.4,253.7,830.4,252.7z"/>
		<path class="st2" d="M792,215.4c5.1,10.9,8.6,22.6,10.3,35h27.6c-0.8-16-4.3-32.1-10.3-47.9L792,215.4z"/>
		<path class="st0" d="M675.7,209.5l-11.4,44.4c9.1,4,17.2,10.3,23.6,17.9l40-26.6C716.3,226.5,697.8,213.4,675.7,209.5z"/>
		<polygon class="st2" points="658.5,56.4 661.5,14.3 607.5,14.3 607.5,56.4 		"/>
		<path class="st2" d="M703.6,56.4c3.9,0,7.6,0,11.2,0.3l4.6-41.2c-7-0.8-14.5-1-21.8-1h-33.8l-3,42.1L703.6,56.4L703.6,56.4z"/>
		<rect x="554.1" y="14.3" class="st2" width="50.9" height="42.1"/>
		<path class="st2" d="M801.3,506.9l-25.8-2.3c-1,20.3-8.1,39-19,54.5l26.3,16.7c11.7-18.8,18.5-41.1,18.5-64.8V506.9L801.3,506.9z"
			/>
		<rect x="446.9" y="14.3" class="st2" width="53.5" height="42.1"/>
		<rect x="502.9" y="14.3" class="st2" width="48.4" height="42.1"/>
		<rect x="775.6" y="345.2" class="st2" width="25.7" height="50.9"/>
		<path class="st2" d="M778.4,70.9l12.4-36.6c-21.2-9.7-44.4-16.3-68.7-18.8l-4.6,41.1C740.2,58.2,760.4,63.3,778.4,70.9z"/>
		<path class="st2" d="M775.6,456.4v42.3c0,1,0,2.3,0,3.3l25.8,2.3v-47.9h-25.8V456.4z"/>
		<rect x="775.6" y="398.6" class="st2" width="25.7" height="55"/>
		<polygon class="st2" points="444.4,56.4 444.4,14.3 388.4,14.3 390.1,56.4 		"/>
		<polygon class="st2" points="387.6,56.4 385.8,14.3 333.4,14.3 337.1,56.4 		"/>
		<path class="st2" d="M272,16.6l10.9,40.6c5.8-0.6,11.9-1,17.8-1h33.9l-3.9-42.1H305C293.8,14.3,282.6,15,272,16.6z"/>
		<path class="st2" d="M269.5,17.1c-20.6,3.3-40,9.4-58.3,17.8l16,36.7c16.7-7.3,34.5-12.1,53-14.2L269.5,17.1z"/>
		<path class="st2" d="M761.1,226.9c9.1,15.4,14.2,33.7,14.2,53v4.3l25.7-2.8v-13c0-20-4.8-38.8-13.4-55.4L761.1,226.9z"/>
		<polygon class="st2" points="775.6,286.8 775.6,342.6 801.3,342.6 801.3,284 		"/>
		<path class="st0" d="M730.5,157.2l-13.9,28.1c17.9,8.8,33,22.6,43.6,39.6l26.9-14.2C774.4,187.4,754.6,168.3,730.5,157.2z"/>
		<path class="st0" d="M725.7,624.3l-16-28.1c-8.1,3.3-16.4,5.5-25.4,6.9v30.6C698.8,633.2,712.7,629.8,725.7,624.3z"/>
		<path class="st2" d="M720.4,744.4c-7,1-14.5,1.5-22.1,1.5h-26.6v19.4h26.1c7.6,0,15.2-0.6,22.8-1.2
			C720.6,764.4,720.4,744.7,720.4,744.4L720.4,744.4z"/>
		<path class="st2" d="M723.2,764.3c12.4-1.5,24.6-3.9,36.6-7.3l-4-21.2c-9.7,3.6-20.6,6.6-32.4,8.4
			C723.2,744.3,723.2,764.3,723.2,764.3z"/>
		<rect x="609.1" y="746.3" class="st2" width="60" height="19.4"/>
		<rect x="547.1" y="746.3" class="st2" width="59.6" height="19.4"/>
		<rect x="393.9" y="746.3" class="st2" width="51.7" height="19.4"/>
		<rect x="448.2" y="746.3" class="st2" width="38.5" height="19.4"/>
		<rect x="489.5" y="746.3" class="st2" width="55" height="19.4"/>
		<rect x="333" y="746.3" class="st2" width="58.3" height="19.4"/>
		<path class="st2" d="M302.5,746.1c-8.6,0-16.7-0.8-24.6-2.1l-4,19.4c10.1,1.5,20.6,2.3,31.2,2.3h25.7v-19.6L302.5,746.1
			L302.5,746.1L302.5,746.1z"/>
		<path class="st2" d="M246.9,736.4l-5.1,20.3c9.7,2.8,19.3,5.1,29.4,6.6l4-19.4C265.3,741.9,255.6,739.4,246.9,736.4z"/>
		<path class="st0" d="M296.2,594.3l12.7-26.6c-12.7-5.4-23.6-13.9-32.1-24.8l-26.1,16.3C261.9,574.6,277.7,587,296.2,594.3z"/>
		<path class="st2" d="M249,556.8l26.1-16.3c-7.9-10.9-13.7-23.9-16.4-38.2l-27.6,4.6C232.6,525.4,238.9,542.3,249,556.8z"/>
		<path class="st1" d="M200.8,170.2L153.4,136c-11.4,16-20.6,33.7-26.3,51.4l53,20C185.1,194.3,192.3,181.7,200.8,170.2z"/>
		<rect x="230.8" y="373.5" class="st2" width="25.7" height="41.5"/>
		<path class="st0" d="M245.4,227.2l27.2,15.2c8.8-13.4,21-24.1,35.7-30.2l-10.6-28.4C275.6,192,257.4,207.4,245.4,227.2z"/>
		<path class="st2" d="M244.2,229.5c-8.4,14.9-13.4,32.1-13.4,50.5v1.5l26.6,4c1.8-15.4,6.6-29.4,13.9-41.1L244.2,229.5z"/>
		<path class="st1" d="M170.5,255.4c0-15.4,3-31.2,8.6-45.9l-53-20c-4.8,14.9-7.3,29.9-7.3,44.1v9.4L170.5,255.4L170.5,255.4z"/>
		<rect x="230.8" y="417.8" class="st2" width="25.7" height="38.2"/>
		<path class="st2" d="M256.3,329.2v-29.9c0-3.9,0.3-7.6,0.6-11.4l-26.3-4v45.4H256.3L256.3,329.2z"/>
		<path class="st2" d="M230.8,458.5v40.3c0,2.1,0,3.9,0.3,5.8l27.2-4.6c-1-6.3-1.8-13-1.8-20v-21.5H230.8L230.8,458.5z"/>
		<rect x="230.8" y="331.7" class="st2" width="25.7" height="39.3"/>
		<rect x="201.7" y="397.5" class="st2" width="26.6" height="52.1"/>
		<polygon class="st1" points="118.8,245.8 118.8,309.2 170.5,309.2 170.5,258.5 		"/>
		<path class="st2" d="M228.4,504.8c0-2.1-0.3-4-0.3-6.3v-46.6h-26.6v57.7L228.4,504.8z"/>
		<path class="st2" d="M222.4,579.3l26.6-17.9c-11.4-15.4-18.8-33.9-20.6-53.9l-26.9,4.6C201.8,537.1,209.4,560.3,222.4,579.3z"/>
		<path class="st0" d="M276.2,624l14.2-29.4c-15.7-7-29.1-17.8-39.6-31.2l-26.9,17.9C237.1,600.3,255.1,615,276.2,624z"/>
		<path class="st1" d="M185.4,582.6l-53.8,24.3c7.6,16.7,18.2,33,31.4,47.9l45.1-38.5C199.1,606.1,191.5,594.8,185.4,582.6z"/>
		<path class="st1" d="M172.2,541.9h-0.3H172.2l-53.5,6.1v4c0,17,4.3,35,11.9,52.7l53.8-24.3C178.2,568.1,174.2,555,172.2,541.9z"/>
		<path class="st1" d="M171.7,539.6L171.7,539.6c-0.8-5.8-1-11.4-1-17v-38.5l-51.7,7.6v53.8L171.7,539.6L171.7,539.6z"/>
		<path class="st1" d="M211.2,619.9c-0.6-0.6-0.8-1-1.2-1.5l-45.1,38.5c2.1,2.3,4,4.3,6.1,6.6c12.1,12.1,25.1,22.6,39,31.2
			l30.9-49.7C230.5,638.2,220.3,629.8,211.2,619.9z"/>
		<rect x="118.8" y="312" class="st1" width="51.7" height="55.4"/>
		<rect x="118.8" y="369.9" class="st1" width="51.7" height="57"/>
		<polygon class="st1" points="170.5,429.5 118.8,429.5 118.8,489 170.5,481.2 		"/>
		<path class="st0" d="M216,155.7l20.6,23.3c8.6-8.4,18.2-15.4,28.8-21.2l-15.2-28.7C238.1,136.1,226.5,145.4,216,155.7z"/>
		<path class="st0" d="M213,211c5.8-11.2,13.2-21.2,21.8-30.2l-20.6-23.3c-11.2,11.9-20.6,25.7-27.6,40.3L213,211z"/>
		<path class="st2" d="M173,293.7l26.1,4.3v-29.4c0-6.1,0.6-12.1,1.2-17.9l-26.9-4.8c-0.3,3.3-0.6,6.6-0.6,10.1L173,293.7L173,293.7
			z"/>
		<path class="st0" d="M276.2,241.2l40,28.1c6.3-7,14.5-13,23.3-16.4l-8.8-44.4C308,211.6,288.8,223.3,276.2,241.2z"/>
		<rect x="173" y="397.1" class="st2" width="26.1" height="46.6"/>
		<path class="st2" d="M299.7,466.5v-8h-40.8V480c0,6.9,0.6,13.2,1.5,19.4l44.4-7.6C301.3,484.1,299.7,475.4,299.7,466.5z"/>
		<path class="st0" d="M274.9,536c7.9,11.7,17.9,21,30.2,27.2l23.6-42.9c-3.6-2.3-6.6-4.8-9.7-7.9L274.9,536z"/>
		<path class="st2" d="M176,548.8l26.6-8.4c-2.3-9.4-3.6-19.3-3.6-29.4v-13.4H173v25.1C173,531.3,173.9,540.1,176,548.8z"/>
		<path class="st2" d="M261.1,501.9c2.3,11.9,6.6,22.6,12.4,32l43.9-23.3c-4.6-4.8-8.4-10.3-11.2-16.3L261.1,501.9z"/>
		<rect x="173" y="446.3" class="st2" width="26.1" height="48.4"/>
		<polygon class="st2" points="199.1,347.2 199.1,300.6 173,296.4 173,347.2 		"/>
		<rect x="173" y="349.8" class="st2" width="26.1" height="44.8"/>
		<rect x="258.9" y="371.6" class="st2" width="40.8" height="41.8"/>
		<path class="st2" d="M259.3,290.2c-0.3,3-0.3,6.1-0.3,9.1V332h40.8v-19.3c0-5.8,0.8-11.7,2.3-17L259.3,290.2z"/>
		<path class="st2" d="M274.9,243.3c-8.1,12.4-13.4,27.3-15.2,44.1l43,5.5c2.5-8.1,6.6-15.4,11.9-21.8L274.9,243.3z"/>
		<rect x="258.9" y="334.5" class="st2" width="40.8" height="34.5"/>
		<path class="st0" d="M273.7,657.4l9.1-28.1c-15.4-5.5-29.7-13.9-41.8-24.6l-19.3,22.1C237.4,640.8,255.1,651.6,273.7,657.4z"/>
		<rect x="258.9" y="416.4" class="st2" width="40.8" height="39.7"/>
		<path class="st0" d="M220.2,625.1l19.3-22.1l0.6,0.6c-8.1-7.6-15.4-16.3-21.5-25.7l-25.7,13C200.3,603.4,209.7,615,220.2,625.1z"
			/>
		<path class="st2" d="M191.5,588.6l25.4-13c-6.1-10.1-10.9-21-13.9-33l-26.6,8.4C179.6,564.1,184.8,576.8,191.5,588.6z"/>
		<path class="st0" d="M215.3,212.3l27.9,13.9c9.7-16.3,23.6-29.4,40-38.5l-13.4-28.8C246.5,170.2,227.2,189,215.3,212.3z"/>
		<path class="st2" d="M201.7,278.6l26.6,4.6v-3.3c0-18.8,5.1-36.6,13.7-51.7l-27.6-13.9c-8.1,16.4-12.7,34.8-12.7,54.2L201.7,278.6
			L201.7,278.6z"/>
		<polygon class="st2" points="228.2,343.4 228.2,285.8 201.7,281.2 201.7,343.4 		"/>
		<rect x="201.7" y="346.1" class="st2" width="26.6" height="48.7"/>
		<path class="st0" d="M313.7,633.4l4.6-30.6c-8.8-1.2-17.5-3.9-25.7-7l-14.2,29.4C289.5,629.2,301.3,632.3,313.7,633.4z"/>
	</g>
	<g id="CATEGORIA_1">
		<path class="st0" d="M351.6,205.5v-28.1h-18.2c-11.7,0-23,2.1-33.5,5.5l10.6,28.1c9.4-3.9,19.7-5.8,30.9-5.8h10.1L351.6,205.5
			L351.6,205.5z"/>
		<path class="st0" d="M670.5,636.4v25.8H705c7,0,14.2-0.8,21-2.3l-10.6-29.4c-11.7,3.6-24.1,5.5-36.7,5.5h-8.1V636.4z"/>
		<path class="st0" d="M305.8,113.8h-0.6c-17.9,0-36,5.1-52.7,14.2l15.2,28.7c12.7-6.3,26.6-10.6,41.1-12.7L305.8,113.8z"/>
		<path class="st0" d="M276.4,658.2c9.7,2.8,19.3,4.3,28.8,4.3h24.3l3.6-26.1h-8.6c-13.7,0-26.6-2.3-39-6.3L276.4,658.2z"/>
		<path class="st0" d="M337.1,174.8v-29.1h-12.8c-18.8,0-36.6,4.3-52.4,11.7l13.4,28.8c14.5-7.3,30.6-11.7,47.9-11.7h4L337.1,174.8
			L337.1,174.8z"/>
		<path class="st0" d="M651.2,574.1v27.2h19.3c13.4,0,26.3-2.5,38.1-7.3l-14.9-26.5c-10.1,4.3-21.5,6.9-33.7,6.9h-8.8L651.2,574.1
			L651.2,574.1z"/>
		<path class="st2" d="M773.4,135.9l30.3-48.7c-14.2-9.4-30.3-17-48.7-22.1l-16,51.7C751.3,121.4,762.6,127.9,773.4,135.9z"/>
		<polygon class="st2" points="631.5,111.3 635.1,58.9 579.2,58.9 579.2,111.3 		"/>
		<polygon class="st2" points="683.6,111.3 689.4,58.9 637.8,58.9 633.9,111.3 		"/>
		<rect x="535.6" y="58.9" class="st2" width="41.1" height="52.4"/>
		<rect x="502.9" y="58.9" class="st2" width="30.2" height="52.4"/>
		<path class="st2" d="M704.8,111.3c10.9,0,21.5,1.8,32,5.1l16-51.7c-14.9-3.9-31.4-6.1-49-6.1h-11.7l-5.8,52.4h18.5V111.3z"/>
		<path class="st2" d="M248,66.9c-17.8,5.4-34.5,13.7-49.9,24.3l31.7,49c9.4-7.6,19.7-13.9,30.3-18.5L248,66.9z"/>
		<path class="st2" d="M250.5,66.1l12.1,54.5c13.7-5.8,28.1-9.1,42.6-9.1h5.5L308.3,59h-7.9C283.3,58.9,266.8,61.2,250.5,66.1z"/>
		<polygon class="st2" points="363.3,111.3 363.3,58.9 310.9,58.9 313.7,111.3 		"/>
		<rect x="471.2" y="58.9" class="st2" width="29.1" height="52.4"/>
		<rect x="365.8" y="58.9" class="st2" width="50.5" height="52.4"/>
		<rect x="418.8" y="58.9" class="st2" width="49.9" height="52.4"/>
		<path class="st2" d="M368.2,700.6v-35.4h-63c-0.3,0-0.6,0-0.8,0c0,0,0,0,0,0.3l0,0V699h-19l-7,20.3c7.3,1,14.8,1.5,22.3,1.5h33.9
			v-20.3H368.2z"/>
		<path class="st2" d="M302.2,696.1v-31.4l0,0v-0.3c-11.9-0.3-24.1-2.8-35.7-7l-13.7,55.7c7.6,2.3,15.4,4,23.3,5.4l7.9-22.3
			C284,696.1,302.2,696.1,302.2,696.1z"/>
		<polygon class="st2" points="419.6,697.4 419.6,665 370.6,665 370.6,703 337.4,703 337.4,720.6 391.5,720.6 391.5,697.4 		"/>
		<polygon class="st2" points="475.7,700.6 475.7,665 422.4,665 422.4,699.9 393.9,699.9 393.9,720.6 447.9,720.6 447.9,700.6 		"/>
		<path class="st2" d="M690.9,696.4V665h-57.2v35h28.7v20.6h41.2c1.5,0,3.3,0,4.8-0.3v-24.1h-17.5V696.4z"/>
		<polygon class="st2" points="631.2,702.9 631.2,665 582.6,665 582.6,700.1 606.1,700.1 606.1,720.6 659.7,720.6 659.7,702.9 		"/>
		<polygon class="st2" points="580.2,702.9 580.2,665 527.5,665 527.5,700.1 555.9,700.1 555.9,720.6 603.3,720.6 603.3,702.9 		"/>
		<path class="st2" d="M693.5,665v28.8h17.5v26.6c13-0.8,26.3-3.6,40-7.9l-10.3-53.9c-11.4,4-23.3,6.3-36,6.3H693.5z"/>
		<polygon class="st2" points="524.7,702.9 524.7,665 502.6,665 502.6,720.6 553.4,720.6 553.4,702.9 		"/>
		<polygon class="st2" points="478.4,665 478.4,703 450.5,703 450.5,720.6 500.2,720.6 500.2,665 		"/>
		<rect x="347.6" y="573.9" class="st0" width="37" height="27.3"/>
		<path class="st0" d="M341.3,574.1c-10.9,0-21-2.1-30.2-5.4l-12.7,26.6c10.9,4,22.6,6.1,35,6.1h11.4v-27.3L341.3,574.1L341.3,574.1
			z"/>
		<path class="st0" d="M670.5,177.2h-19.7v28.1h9.1c13,0,25.1,2.8,35.7,7.6l9.7-29.9C694.2,179.3,682.6,177.2,670.5,177.2z"/>
		<path class="st0" d="M678.4,145.5H669v29.1h1.5c15.7,0,30.3,3.6,43.9,9.7l13.9-28.1C712.7,149.5,696,145.5,678.4,145.5z"/>
		<rect x="612.8" y="177.2" class="st0" width="35.2" height="28.1"/>
		<rect x="357" y="113.8" class="st0" width="43" height="29.4"/>
		<path class="st0" d="M678.4,143c5.1,0,10.1,0.3,15.2,1l3.3-30.2H652v29.4L678.4,143L678.4,143L678.4,143z"/>
		<path class="st0" d="M308.2,113.8l3.3,29.9c4.3-0.6,8.6-0.8,13-0.8h29.9v-29.2h-46.1v0.3L308.2,113.8L308.2,113.8z"/>
		<path class="st0" d="M704.8,113.8h-5.5l-3.3,30.3c14.8,2.1,28.7,6.6,41.1,13.4l14.2-33C737.1,117.9,721.4,113.8,704.8,113.8z"/>
		<path class="st0" d="M659.7,207.9h-29.9h1.2l-3.3,40h10.1c8.4,0,16.4,1.8,24.1,4.6l11.2-43.9C669,208.3,664.3,207.9,659.7,207.9z"
			/>
		<rect x="621.8" y="636.3" class="st0" width="46.1" height="26.1"/>
		<path class="st0" d="M378.8,248.1l-4.3-40.3h-33c-2.8,0-5.4,0.3-8.1,0.6l8.8,43.9c6.9-2.5,14.5-3.9,22.1-3.9h14.5V248.1z"/>
		<path class="st0" d="M341.3,571.6h19.4l6.6-40.6H364c-12.1,0-23.6-3.3-33.5-9.4l-23.6,42.6C317.7,569,329.1,571.6,341.3,571.6z"/>
		<polygon class="st0" points="335.6,636.4 332.2,662.3 373.9,662.3 373.9,636.4 		"/>
		<rect x="339.9" y="145.7" class="st0" width="41.5" height="29.1"/>
		<rect x="622.6" y="145.7" class="st0" width="43.6" height="29.1"/>
		<rect x="353.7" y="177.2" class="st0" width="38.5" height="28.1"/>
		<rect x="603.6" y="573.9" class="st0" width="45.1" height="27.3"/>
		<rect x="598.2" y="603.6" class="st0" width="44.6" height="30.2"/>
		<path class="st0" d="M645.4,603.7v30.2h33c1.2,0,2.3,0,3.3,0v-30.6c-3.9,0.6-7.6,0.8-11.4,0.8h-24.8L645.4,603.7L645.4,603.7z"/>
		<path class="st0" d="M324.6,633.9h35v-30.2h-26.1c-4.3,0-8.6-0.3-12.7-0.8l-4.6,30.6C318.9,633.7,321.7,633.9,324.6,633.9z"/>
		<rect x="361.9" y="603.6" class="st0" width="37" height="30.2"/>
		<rect x="603.3" y="113.8" class="st0" width="46.1" height="29.4"/>
		<path class="st0" d="M645.8,571.6h13.9c11.7,0,22.6-2.3,32.4-6.6l-23.6-41.8c-8.1,4.3-17,7-26.6,7.6L645.8,571.6z"/>
	</g>
</g>
<g id="stage">
	<g>
		<rect x="325.6" y="359.3" class="st3" width="40.4" height="59.4"/>
		<polygon class="st3" points="392.5,334.2 325.6,334.2 325.6,356.1 369.1,356.1 369.1,421.4 325.6,421.4 325.6,443.3 392.5,443.3 
					"/>
		<polygon class="st3" points="609.5,443.3 676.4,443.3 676.4,421.4 634.1,421.4 634.1,356.1 676.4,356.1 676.4,334.2 609.5,334.2 
					"/>
		<rect x="637.1" y="359.3" class="st3" width="39.6" height="59.4"/>
		<path class="st3" d="M395.3,363.5v50.6c13.3-0.8,24.3-11.8,24.3-25.4S409.3,364.5,395.3,363.5z"/>
		<path class="st3" d="M606.6,414.1v-50.6c-13.3,0.8-24.3,11.8-24.3,25.4C582.5,402.5,593.1,413.5,606.6,414.1z"/>
		<path class="st3" d="M503.8,344.4v88.9c23.7-1.3,43-20.6,43-44.4C546.7,364.7,527.5,345.5,503.8,344.4z"/>
		<path class="st3" d="M456.5,388.7c0,24.3,19.8,44.3,44.4,44.7v-89.2C476.1,344.6,456.5,364.5,456.5,388.7z"/>
		<path class="st3" d="M325.6,283.9v47.3h70v29.4c15.1,0.8,27.5,13.3,27.5,28.4s-12,27.5-27.5,28.4v29.4h-70v47.3h350.9v-47.3h-70
			v-29.4c-15.1-0.8-27.5-13.3-27.5-28.4s12-27.5,27.5-28.4v-29.4h70v-47.3H325.6L325.6,283.9z M503.8,436.4v56.7h-3v-56.7
			c-26.3-0.6-47.5-21.7-47.5-47.8c0-26,21.2-47.3,47.5-47.8v-56.3h3v56.7c25.7,1.3,46,22.3,46,47.8
			C549.7,414.5,529.5,435.6,503.8,436.4z"/>
	</g>
</g>
</svg>
