<?xml version="1.0" encoding="utf-8"?>
<!-- Generator: Adobe Illustrator 21.1.0, SVG Export Plug-In . SVG Version: 6.00 Build 0)  -->
<svg version="1.1"
	 id="Ebene_1" xmlns:cc="http://creativecommons.org/ns#" xmlns:dc="http://purl.org/dc/elements/1.1/" xmlns:rdf="http://www.w3.org/1999/02/22-rdf-syntax-ns#" xmlns:svg="http://www.w3.org/2000/svg"
	 xmlns="http://www.w3.org/2000/svg" xmlns:xlink="http://www.w3.org/1999/xlink" x="0px" y="0px" viewBox="0 0 200 200"
	 style="enable-background:new 0 0 200 200;" xml:space="preserve">
<style type="text/css">
	.st0{fill:#D20515;}
	.st1{fill:#FFFFFF;}
</style>
<g id="g7" transform="translate(-43.5,-12)">
	<path id="path9" d="M63.9,203.5c0,3.7-1.7,5.7-6.4,5.7H46.7v-20.9h10.4c4.8,0,6.5,1.9,6.5,5.4c0,2.7-1,3.9-3.9,4.6l-0.5,0.2
		l0.5,0.1C62.9,199.4,63.9,200.6,63.9,203.5L63.9,203.5z M51.6,197H56c1.7,0,2.5-0.8,2.5-2.5c0-1.8-0.7-2.6-2.5-2.6h-4.4L51.6,197
		L51.6,197z M58.8,203c0-1.9-0.8-2.7-2.5-2.7h-4.7v5.4h4.7C58.2,205.7,58.9,204.9,58.8,203L58.8,203L58.8,203z M67.3,202.4v-14.1
		h5.2v13.9c0,2.3,1,3.2,3.9,3.2c2.8,0,3.9-0.9,3.9-3.2v-13.9h5.2v14.1c0,4.9-2.8,7.2-9.1,7.2S67.3,207.3,67.3,202.4L67.3,202.4
		L67.3,202.4z M109.8,188.3v20.9h-6.3l-8.9-15.1v15.1h-4.8v-20.9h6.3l8.9,15.1v-15.1L109.8,188.3L109.8,188.3z M114.1,188.3h9.3
		c7.3,0,9.2,3,9.2,10.4c0,7.2-2.1,10.4-9.2,10.4h-9.3L114.1,188.3L114.1,188.3z M123.2,205.2c3,0,4-1.6,4-6.5c0-4.9-1-6.4-4-6.4h-4
		v12.9L123.2,205.2L123.2,205.2z M136.4,188.3H151v4h-9.4v4.4h7.8v3.9h-7.8v4.6h9.6v4h-14.8V188.3z M154.3,208.4v-4.1
		c2.2,0.8,4.6,1.1,7,1.1c2.4,0,3.4-0.6,3.4-2.3c0-1.4-0.4-1.8-2.4-2.2l-3.5-0.7c-3.6-0.8-4.8-2.2-4.8-5.8c0-4.6,2.7-6.5,8.1-6.5
		c2.3,0,4.5,0.4,6.6,1.1v4.1c-2-0.7-4.2-1.1-6.3-1.1c-2.6,0-3.4,0.7-3.4,2.3c0,1.3,0.6,1.7,2.3,2.1l3.4,0.7c3.9,0.8,5,2.2,5,5.9
		c0,4.5-2.8,6.5-8.4,6.5C159,209.5,156.6,209.1,154.3,208.4L154.3,208.4z M173.3,188.3h5.2v16.9h8.9v4h-14.1V188.3z M190.7,188.3
		h5.2v20.9h-5.2V188.3z M217.5,197.1v11.3c-2.3,0.7-4.8,1.1-7.2,1.1c-7.2,0-10.6-3.2-10.6-10.8c0-7.6,3.4-10.8,10.6-10.8
		c2.3,0,4.7,0.4,6.9,1.2v4c-2.1-0.7-4.3-1.1-6.5-1.1c-4.4,0-5.7,1.8-5.7,6.7c0,5.1,1.4,6.8,5.6,6.8c0.9,0,1.8-0.1,2.7-0.2v-4.7h-3.9
		v-3.6L217.5,197.1L217.5,197.1z M234.5,204.8h-8.1l-1.5,4.4h-5.2l7.4-20.9h6.6l7.4,20.9h-5.2L234.5,204.8z M230.4,191.6l-3,9.4h6
		L230.4,191.6z"/>
	<rect id="rect11" x="47" y="15.3" class="st0" width="193.9" height="155.1"/>
	<path id="path13" class="st1" d="M206.8,97c0.1,0.4-0.2,0.7-0.9,1.2l-0.4,0.2l0.1,0.3c0.1,0.2-0.1,0.5-0.4,0.6l-0.6,0.3
		c-0.3,0.2-0.6,0.1-0.7-0.1l-0.1-0.3l-0.8,0.4l0.1,0.3c0.1,0.2-0.1,0.5-0.4,0.6l-0.6,0.3c-0.3,0.1-0.6,0.1-0.7-0.1l-0.1-0.2
		c-2.5,1.2-5.3,2.4-8.1,3.7l0.2,0.4c0.1,0.2-0.1,0.4-0.4,0.6l-0.7,0.3c-0.3,0.1-0.6,0.1-0.7-0.1l-0.2-0.4l-0.9,0.4l0.2,0.4
		c0.1,0.2-0.1,0.4-0.4,0.6l-0.6,0.3c-0.3,0.1-0.6,0.1-0.7-0.1l-0.2-0.4c-1.3,0.5-2.7,0.8-3.8-1.2c-0.4-0.9-0.5-3-0.8-4
		c-0.1-0.4-0.5-0.6-0.8-0.7c-12.6-2.4-16.9,0.3-25-1.7c-2.5-0.6-3.9-3-7.1-3c-6.8-0.2-8.9-0.1-16.3-0.4c-0.3,1.1-0.4,1.3-0.4,1.3
		l-26.1-0.1l4,2l1.3,11.5c0,0-1.1,0.3-1.4,0.3c0.3,2.3,0.5,5.4,0.6,8.2c0.1,2.5,0.2,5.1,0.2,6.8c0,1.1-0.3,2.2-0.8,3.1
		c-0.5,0.8-1.2,1.6-2,2.1c-0.2,0.2-1.2,0.9-2.4,1.5c-1.2,0.7-2.6,1.4-3.3,1.8c0.1,0.3,0.2,0.6,0.4,0.9
		c-15.8,7.7-35.5,10.3-41.8,22.4c-0.8,1.4-3.3,0.7-3.4-0.8c0-0.7,0-1.8,0-2.5h-0.2c-0.2,0-0.4-0.3-0.3-0.6v-0.7
		c0-0.3,0.2-0.6,0.4-0.6h0.3c0.1-0.7,0.2-1.4,0.4-2.1l-0.2-0.1c-0.2-0.1-0.3-0.4-0.1-0.7l0.2-0.7c0.1-0.3,0.3-0.5,0.6-0.4l0.2,0.1
		c1.1-2.6,3.3-3.8,4.3-6.3l-0.2-0.1c-0.2-0.1-0.3-0.4-0.2-0.7l0.2-0.7c0.1-0.3,0.4-0.5,0.6-0.4l0.2,0.1c0.2-0.4,0.3-0.8,0.5-1.2
		l-0.2-0.1c-0.2-0.1-0.2-0.4,0-0.7l0.4-0.6c0.2-0.3,0.4-0.4,0.6-0.3l0.1,0.1h0.1c0.1,0,0.1,0,0.1-0.1c0.1-0.1,0.2-0.2,0.3-0.3
		c1-0.7,2.3-0.8,3.4,0c1,0.6,4.9,2.8,8.6-0.5c6.2-5.5,13.4-13.1,18.8-13.3c-1.5-3.2-4-9.8-4.3-12.3l-1.8-0.4
		c-0.9-2-3.3-11.5-3.9-18.6c0,0-0.8-7.7,0-10.3c-0.4,0-1.2,0.6-1.4,0.6c-1-2.4,2.2-23.1,5.4-29.1l4.9-2c-0.5-0.1-4-0.2-13.4-1
		c-5.2,4.6-11.2,9.6-14.3,12.3c-0.5,0.4-1.4,3.3-1.4,3.3s-1.5,1.4-3,2.3C64,69,59.4,70,58.4,68.5c-0.2-0.4-0.2-0.6,0-0.8
		c0.7-0.8,3.4-2,4.3-3.7c-1.5,0.8-3.1,1.5-4.4,1.4c-0.6,0-0.9-1.4-0.1-1.7c2-0.8,3.5-1.2,4.7-2.8c1.2-1.6,2.5-2.6,4.2-2.6
		c0,0,8.7-11.3,13.8-16.7c1.4-1.5,4-1,4-1l0.4-1.7c0,0,17.5-2.1,25.7,0.6c-0.2-4.9,2-11.5,9.8-11.5c4,0,9.8,3.5,10.6,7.8
		c0.2,1.3-0.5,2.2-0.9,3.9c-0.7,2.5,0.3,5.3,0,6.2c-0.2,0.7-1,0.7-1.7,1.6c-0.6,1-1.2,2-1.6,3l-1.1,2.4l-5.5-0.4
		c-2,4.3-6.1,13.1-7.5,21.8l0,0c4.3,0.4,23.7,3.2,23.7,3.2l0.5,1.6c0,0,8.2,1,14.9,4.2c1.5,0.4,5.3-0.2,7.7,0.9
		c0.2-0.1,0.6-0.5,0.8-0.6c8.7,2.7,16,7.3,24.4,9.3c0,0,3.9,1,5.3,1.2c2.2,0.4,4.5,0.7,6.8,0.9c2.7,0.2,4.2,0.2,6.2,0.3
		C204.6,95.2,206.3,94.9,206.8,97 M219.3,70.4c-5.9,0-10.8,4.8-10.8,10.7c0,5.9,4.8,10.8,10.7,10.8c5.9,0,10.8-4.8,10.8-10.7
		c0,0,0,0,0,0C230.1,75.2,225.3,70.4,219.3,70.4L219.3,70.4L219.3,70.4z"/>
</g>
</svg>
