<?xml version="1.0" encoding="utf-8"?>
<!-- Generator: Adobe Illustrator 21.1.0, SVG Export Plug-In . SVG Version: 6.00 Build 0)  -->
<svg version="1.1"
	 id="svg2" inkscape:version="0.48.2 r9819" sodipodi:docname="UEFA_Champions_League.svg" xmlns:cc="http://creativecommons.org/ns#" xmlns:dc="http://purl.org/dc/elements/1.1/" xmlns:inkscape="http://www.inkscape.org/namespaces/inkscape" xmlns:rdf="http://www.w3.org/1999/02/22-rdf-syntax-ns#" xmlns:sodipodi="http://sodipodi.sourceforge.net/DTD/sodipodi-0.dtd" xmlns:svg="http://www.w3.org/2000/svg"
	 xmlns="http://www.w3.org/2000/svg" xmlns:xlink="http://www.w3.org/1999/xlink" x="0px" y="0px" viewBox="0 0 200 198.5"
	 style="enable-background:new 0 0 200 198.5;" xml:space="preserve">
<style type="text/css">
	.st0{fill:#231F20;}
</style>
<sodipodi:namedview  bordercolor="#666666" borderopacity="1" fit-margin-bottom="0.1" fit-margin-left="0.1" fit-margin-right="0.1" fit-margin-top="0.1" gridtolerance="10" guidetolerance="10" id="namedview66" inkscape:current-layer="svg2" inkscape:cx="113.71579" inkscape:cy="46.810893" inkscape:pageopacity="0" inkscape:pageshadow="2" inkscape:window-height="1028" inkscape:window-maximized="1" inkscape:window-width="1920" inkscape:window-x="-8" inkscape:window-y="-8" inkscape:zoom="2.0884956" objecttolerance="10" pagecolor="#ffffff" showgrid="false">
	</sodipodi:namedview>
<g id="g3122" transform="matrix(1.7363797,0,0,1.7363797,-0.74000016,-3.725209)">
	<g id="g3058">
		<path id="path6" inkscape:connector-curvature="0" class="st0" d="M58.5,66.4c12.5,3.4,21.8,5.1,21.8,5.1
			C75,66.1,70.2,60.6,66,55.4C73.3,45.1,79,38,79,38c-7.7,1.7-15,3.8-21.5,5.9c-6.2-8.9-9.6-15.2-9.6-15.2c-1.8,6.7-2.7,13.4-3,19.6
			c-10.3,4-16.8,7.3-16.8,7.3c5.6,2.5,11.4,4.7,17,6.6c0.9,12.1,3.4,20.5,3.4,20.5C51.7,77.2,55.1,71.6,58.5,66.4"/>
		<path id="path8" inkscape:connector-curvature="0" class="st0" d="M115.6,63.3c-1.7,2.7-4.3,4.6-7.3,5.9
			c-0.4-8.5-1.7-16.1-1.7-16.1c-2.6,7-5.4,13.2-8,18.6c-9.2,1.2-18.2-0.2-18.2-0.2c4.9,5.9,8.8,9.4,11.9,11.8c-4.6,7.8-8,12-8,12
			c6.5-1.5,11.6-3.9,15.7-6.9c1.7,1.2,3.1,2.4,4.6,4.6c0,0,2.6-3.8,3.6-12.4C114.6,72,115.6,63.3,115.6,63.3"/>
		<path id="path10" inkscape:connector-curvature="0" class="st0" d="M112.6,39.6c-2.9-6.6-7.1-11.5-11.7-15.3
			c-3.9-8.2-8.4-12-8.4-12c0.4,1.9,0.1,4-0.6,6.2C82.1,13.7,73.2,13,73.2,13c5.7,3.7,10.7,8.3,15,13.1C84.3,32.6,79,38,79,38
			c6.9-1.6,12.5-2.2,17-2.3c6.9,9.4,10.5,17.4,10.5,17.4c0.1-6.4-0.5-11.9-1.6-16.7C110.8,37.4,112.6,39.6,112.6,39.6"/>
		<path id="path12" inkscape:connector-curvature="0" class="st0" d="M73.2,13c-4.7-2.4-9.3-4-13.5-5.2c5.4-4.5,10.3-5.7,10.3-5.7
			c-8.6-0.3-16,1.2-22.2,3.6C38.7,5,32.8,6.7,32.8,6.7c1.4,1,2.6,2.9,3.7,5.1c-7.8,5.4-11.8,10.9-11.8,10.9
			c4.7-2.3,9.7-4.1,14.6-5.5c0.5,1,1.1,2,1.7,2.9c3.3,5.1,6.8,8.6,6.8,8.6c1.3-6.1,3.5-10.8,6-14.5C64.9,12.8,73.2,13,73.2,13"/>
		<path id="path14" inkscape:connector-curvature="0" class="st0" d="M13.9,31.8c2.9-2.8,6.5-5.9,10.9-9.1c0,0-4,0-8.2,1.1
			c2.8-6.8,5.9-10.5,5.9-10.5S4.6,25.9,1.2,48.7c0,0,1.5-4.1,6.6-10.3c2,4.5,4.3,7.4,4.3,7.4C12.1,40.6,12.8,35.9,13.9,31.8"/>
		<path id="path16" inkscape:connector-curvature="0" class="st0" d="M28.2,55.7c-6.2,0.2-11.1,0.7-14.8,1.4
			c-1.1-6.6-1.2-11.4-1.2-11.4c-3.1,4.7-5,9.2-6.3,13.4c-4.3,1.6-5.4,3.1-5.4,3.1c0.7,2.3,2,4.5,3.7,6.6c-0.5,9.9,2.7,16.5,2.7,16.5
			c0.7-3.5,2.2-6.9,4-10c5.3,4.2,10.5,7,10.5,7c-2.5-4.4-4.3-9.4-5.6-14.2C21.6,60.8,28.2,55.7,28.2,55.7"/>
		<path id="path18" inkscape:connector-curvature="0" class="st0" d="M58.8,106.5c0,0-5.2-2.1-12.6-6.3c0.3-4.5,1-10.2,2.4-17.4
			c0,0-5.9,5.9-13.6,10.4c-4.4-3.1-9.1-6.7-13.7-10.8c0,0,2.2,6.8,6.5,14.3c-4,1.5-8.2,2.2-12,1.3c0,0,4.5,5.6,18.4,8
			c3.8,4.6,8.5,8.3,14,9.6c0,0-1.6-1.8-2-8.6C49.9,107.1,54.1,106.9,58.8,106.5"/>
		<path id="path20" inkscape:connector-curvature="0" class="st0" d="M83.9,105.9c1.2-5.5,0.3-10.6,0.3-10.6c-3.5,5-7,8.9-10.1,11.8
			c-8.6,0.4-15.3-0.6-15.3-0.6s3.8,3.8,8.3,6c-5.8,3.6-9.7,3.9-9.7,3.9c25.5,0.5,40.9-16.1,40.9-16.1
			C93.9,103.1,88.9,104.9,83.9,105.9"/>
	</g>
</g>
</svg>
