<?xml version="1.0" encoding="utf-8"?>
<!-- Generator: Adobe Illustrator 21.1.0, SVG Export Plug-In . SVG Version: 6.00 Build 0)  -->
<svg version="1.1" id="Laag_1" xmlns="http://www.w3.org/2000/svg" xmlns:xlink="http://www.w3.org/1999/xlink" x="0px" y="0px"
	 viewBox="0 0 200 201.4" style="enable-background:new 0 0 200 201.4;" xml:space="preserve">
<style type="text/css">
	.st0{fill:#931C81;}
	.st1{fill:#E52620;}
	.st2{fill:#2D52A0;}
	.st3{fill:#EF7D1B;}
	.st4{fill:#000101;}
	.st5{fill:#FFFFFF;}
	.st6{fill:#4384C5;}
	.st7{fill:#FFE609;}
	.st8{fill:#20A637;}
</style>
<g id="_x23_931c81ff">
	<path class="st0" d="M89.6,0h0.8c0.7,0.9,0.8,2,1,3.1c2.3,12.6,4.7,25.2,7,37.8c0.3,1.2-1,1.4-1.9,1.6c-12.3,2.3-23.4,9.9-30,20.5
		c-0.5,0.8-1,1.7-1.6,2.4c-0.5,0.5-1.2,0.1-1.7-0.2C51.9,58.6,40.5,52,29.2,45.4c-0.5-0.3-1.2-0.7-1.2-1.4c0.4-1.1,1.1-2.1,1.7-3.1
		C34.8,32.5,41.3,25,49,18.8C60.6,9.2,74.8,2.7,89.6,0z"/>
</g>
<g id="_x23_e52620ff">
	<path class="st1" d="M106.8,10.2c23.8-2.1,48.3,5.9,66.3,21.7c0.6,0.4,0.6,1.4,0.1,1.8c-8.4,9.7-16.8,19.4-25.2,29.2
		c-0.6,0.6-1,1.4-1.8,1.8c-0.8,0.3-1.3-0.5-1.9-0.9c-9.9-8.5-23.5-12.4-36.3-10.5c-0.8,0.1-2,0.3-2.2-0.8c-2-13.3-4-26.7-5.9-40
		c-0.2-0.7,0.1-1.5,0.9-1.6C102.7,10.6,104.7,10.4,106.8,10.2z"/>
</g>
<g id="_x23_2d52a0ff">
	<path class="st2" d="M12.8,45.2c0.5-0.7,1.5-0.2,2.1,0.1C26.6,51.6,38.4,57.8,50,64.1c1,0.4,0.6,1.6,0.2,2.3
		c-6.2,11.5-7.1,25.7-2.3,37.9c0.5,0.9,0.6,2.2-0.6,2.4c-12.5,4.8-25,9.7-37.5,14.4c-0.6,0.4-1.5,0.1-1.7-0.7
		C-1.7,96.3,0.1,67.9,12.8,45.2z"/>
</g>
<g id="_x23_ef7d1bff">
	<path class="st3" d="M170.1,47.4c0.5-0.6,1.4-0.5,1.8,0c19,17.6,29.5,43.9,28,69.8c0,0.8-0.9,1.2-1.6,1c-13.3-0.7-26.7-1.3-40-1.9
		c-1,0.1-1.4-0.9-1.2-1.7c0.7-13.3-4.8-26.8-14.5-35.9c-0.7-0.5-0.8-1.5-0.1-2.1C151.5,66.9,160.8,57.2,170.1,47.4z"/>
</g>
<g id="_x23_000101ff">
	<path class="st4" d="M94.1,68.6c6.4-0.8,13,0.3,18.8,3.2c7,3.4,12.7,9.3,15.9,16.4c2.9,6.4,3.7,13.7,2.2,20.6
		c-1.5,7.3-5.5,13.9-11.2,18.7c-9.8,8.6-24.7,10.5-36.4,4.6c-7-3.4-12.8-9.3-16-16.4c-3.5-7.7-3.9-16.7-1.2-24.7
		C70.3,79.2,81.6,70,94.1,68.6 M72.7,84.5c1.2-0.7,2.4-1.4,3.7-1.9c-1.5,3.3-2.3,6.9-1.9,10.5c2.9,1.3,5.8,2.7,8.7,3.9
		c-3.2-0.1-6.3-1.1-9.4-1.7c-2.4,2.7-3.9,6.1-4.7,9.6c-0.9-0.9-1.2-2.2-1.8-3.4c-0.1-0.6-1,0.4,0,0.6c-0.1,6.6,2.2,13.2,6.2,18.5
		c-0.3-1.3-0.5-2.6-0.7-3.9c2.7,2.4,5.9,4.3,9.4,5.1c2.3-2.4,4.4-4.9,6.8-7.2c-1.5,2.9-3.2,5.7-4.8,8.6c1.8,3.2,4.7,5.6,7.8,7.5
		c-1.3,0.3-2.7,0.5-4,0.5c6.5,2.3,13.8,2.2,20.3,0c-1.4,0-2.7-0.2-4.1-0.5c3.2-1.8,6-4.3,7.8-7.5c-1.6-2.9-3.3-5.6-4.7-8.6
		c2.3,2.3,4.5,4.9,6.7,7.2c3.5-0.8,6.7-2.7,9.4-5.1c-0.2,1.3-0.4,2.6-0.7,3.9c3.9-5.3,6.4-11.9,6.1-18.6l0.5-0.6
		c-0.2-0.1-0.4-0.1-0.5,0.1c-0.6,1.1-0.8,2.5-1.8,3.3c-0.7-3.5-2.3-6.9-4.6-9.6c-3.1,0.6-6.2,1.5-9.4,1.7c2.9-1.4,5.8-2.7,8.7-4
		c0.3-3.6-0.5-7.2-2-10.5c1.3,0.5,2.5,1.2,3.6,1.9c-3.9-5.7-9.9-10-16.6-12c1.1,0.9,2.1,1.9,3.1,2.9c-3.6-0.4-7.4-0.1-10.7,1.4
		c-0.3,3.2-0.7,6.4-1.1,9.6c-0.5-3.2-0.8-6.4-1.2-9.6c-3.3-1.5-7.1-1.9-10.8-1.4c1-1.1,1.9-2.1,3.1-2.9
		C82.7,74.4,76.8,78.8,72.7,84.5z"/>
	<path class="st4" d="M98.1,87.6c4.6,3.2,9.1,6.6,13.7,9.9c-1.6,4.9-3.2,9.8-4.8,14.8c-0.2,0.4-0.2,1.5-1,1.3c-5.4,0-10.9,0-16.3,0
		c-1.8-5.3-3.5-10.7-5.2-16.1C89.1,94.2,93.6,91,98.1,87.6z"/>
</g>
<g id="_x23_ffffffff">
	<path class="st5" d="M72.7,84.5c4-5.7,9.9-10.1,16.7-12c-1.2,0.8-2.2,1.9-3.1,2.9c3.6-0.4,7.4-0.1,10.8,1.4
		c0.3,3.2,0.6,6.4,1.2,9.6c0.5-3.2,0.8-6.4,1.1-9.6c3.3-1.5,7.1-1.9,10.7-1.4c-0.9-1.1-2-2.1-3.1-2.9c6.7,2,12.6,6.3,16.6,12
		c-1.2-0.7-2.4-1.4-3.6-1.9c1.5,3.3,2.3,6.9,2,10.5c-2.9,1.4-5.9,2.6-8.7,4c3.2-0.3,6.3-1.2,9.4-1.7c2.4,2.7,3.9,6.1,4.6,9.6
		c1-0.9,1.2-2.2,1.8-3.3c0.1-0.2,0.3-0.2,0.5-0.1l-0.5,0.6c0.3,6.7-2.2,13.3-6.1,18.6c0.3-1.3,0.5-2.6,0.7-3.9
		c-2.7,2.4-5.9,4.3-9.4,5.1c-2.3-2.4-4.4-4.9-6.7-7.2c1.4,2.9,3.2,5.7,4.7,8.6c-1.8,3.2-4.7,5.6-7.8,7.5c1.3,0.3,2.7,0.5,4.1,0.5
		c-6.5,2.2-13.8,2.3-20.3,0c1.4,0,2.7-0.2,4-0.5c-3.1-1.8-6-4.3-7.8-7.5c1.6-2.9,3.3-5.7,4.8-8.6c-2.4,2.3-4.5,4.9-6.8,7.2
		c-3.5-0.8-6.7-2.7-9.4-5.1c0.1,1.3,0.4,2.6,0.7,3.9c-4-5.2-6.3-11.9-6.2-18.5c-1-0.1-0.1-1.2,0-0.6c0.6,1.1,0.9,2.4,1.8,3.4
		c0.7-3.5,2.3-6.9,4.7-9.6c3.1,0.5,6.2,1.6,9.4,1.7c-2.9-1.2-5.8-2.6-8.7-3.9c-0.4-3.6,0.5-7.2,1.9-10.5
		C75.2,83.1,73.9,83.8,72.7,84.5 M98.1,87.6c-4.5,3.3-9.1,6.6-13.6,9.9c1.8,5.3,3.5,10.7,5.2,16.1c5.4,0,10.9,0,16.3,0
		c0.8,0.2,0.7-0.8,1-1.3c1.6-4.9,3.2-9.9,4.8-14.8C107.3,94.3,102.7,90.9,98.1,87.6z"/>
</g>
<g id="_x23_4384c5ff">
	<path class="st6" d="M37.8,116.1c0.8-0.5,1.7,0.1,1.9,1c5.2,12.2,15.9,21.8,28.6,25.7c1,0.1,1.8,1,1.3,2
		c-4,12.7-7.9,25.5-11.9,38.2c-0.1,0.7-0.8,1.3-1.5,1C32,176.8,11.4,158.7,1,135.7c-0.3-1-1.4-2.2-0.7-3.3c0.8-0.5,1.6-0.8,2.5-1.2
		C14.4,126.2,26.1,121.1,37.8,116.1z"/>
</g>
<g id="_x23_ffe609ff">
	<path class="st7" d="M144.4,121.4c0.9-0.8,2.3-0.1,3.5-0.2c12.6,1,25.2,2,37.8,3c0.6,0,1.4,0.4,1.3,1.1
		c-1.6,26.1-15.6,51.1-36.9,66.2c-0.8,0.4-1.3-0.4-1.7-0.9c-7.8-10.7-15.7-21.4-23.6-32.2c-0.7-0.7-0.2-1.6,0.5-2
		c10.7-7.7,17.7-20.1,18.7-33.2C144.1,122.6,144,121.9,144.4,121.4z"/>
</g>
<g id="_x23_20a637ff">
	<path class="st8" d="M111.2,150.4c0.6-0.6,1.6-0.4,2,0.3c7.5,11.2,15.1,22.4,22.6,33.6c0.8,1.3-1,2-1.8,2.6
		c-21.2,14-48.6,18.1-73,11c-0.8-0.3-0.7-1.3-0.5-1.9c3.3-11.9,6.6-23.8,9.8-35.6c0.3-1.2,0.6-2.3,1-3.4c0.6-0.8,1.7-0.2,2.5-0.1
		C86.4,160.3,100.4,157.8,111.2,150.4z"/>
</g>
</svg>
