<?xml version="1.0" encoding="utf-8"?>
<!-- Generator: Adobe Illustrator 21.1.0, SVG Export Plug-In . SVG Version: 6.00 Build 0)  -->
<svg version="1.1"
	 id="svg2" inkscape:version="0.91 r13725" sodipodi:docname="New Premier League Logo 2016-17.svg" xmlns:cc="http://creativecommons.org/ns#" xmlns:dc="http://purl.org/dc/elements/1.1/" xmlns:inkscape="http://www.inkscape.org/namespaces/inkscape" xmlns:rdf="http://www.w3.org/1999/02/22-rdf-syntax-ns#" xmlns:sodipodi="http://sodipodi.sourceforge.net/DTD/sodipodi-0.dtd" xmlns:svg="http://www.w3.org/2000/svg"
	 xmlns="http://www.w3.org/2000/svg" xmlns:xlink="http://www.w3.org/1999/xlink" x="0px" y="0px" viewBox="0 0 200 200.5"
	 style="enable-background:new 0 0 200 200.5;" xml:space="preserve">
<style type="text/css">
	.st0{fill:#38003D;stroke:#38003D;stroke-width:0.5;stroke-linejoin:round;}
</style>
<sodipodi:namedview  bordercolor="#666666" borderopacity="1" fit-margin-bottom="0" fit-margin-left="0" fit-margin-right="0" fit-margin-top="0" gridtolerance="10" guidetolerance="10" id="namedview4" inkscape:current-layer="svg2" inkscape:cx="250" inkscape:cy="105.29478" inkscape:pageopacity="0" inkscape:pageshadow="2" inkscape:window-height="838" inkscape:window-maximized="1" inkscape:window-width="1600" inkscape:window-x="-8" inkscape:window-y="-8" inkscape:zoom="2.26" objecttolerance="10" pagecolor="#ffffff" showgrid="false">
	</sodipodi:namedview>
<g id="g4199" transform="matrix(0.43313146,0,0,0.43313146,-183.17823,-116.6152)">
	<path id="path4138" inkscape:connector-curvature="0" sodipodi:nodetypes="cccccccccccc" class="st0" d="M569.5,357.8
		c52.2-28.8,105.7-32.6,155-19.1c2.1-16.9,3.3-31.6,12.7-51.8c-12.4,9-20.3,19.2-29.5,30.3l-3.1-47l-39.6,44L638,269.8l-16.7,49.5
		l-48.4-34.2l8.2,47.6c-11.1-9.2-23.5-18.5-36-23.6C554.6,321.6,563.9,339.1,569.5,357.8L569.5,357.8z"/>
	
		<path id="path4142" inkscape:connector-curvature="0" sodipodi:nodetypes="cccccccccccccccccccccsccccccccccccccsccccccccccccccccccccccccccccccccc" class="st0" d="
		M771.4,377.7c-13.8-11.5-27.7-21.5-58.1-29c2.8,6,5,13.7,5,21.6c-7.9-8.4-17.4-18.8-29.1-25c-38.5-5-78.1,4.6-109.1,20.2
		c13.1,1.5,23.5,11.8,27,23.1c-37.1-25.9-58.5,11.4-37,48.6c-23.1-11-24.2-37.9-17.1-55.5c-17.3,13.2-43.9,38.6-60.4,73l21.2,3
		c-25.6,30.1-38.5,73.6-41,99.1l34.5-11.2c-10.9,39.6-2.2,101.1,11.8,123.6c21.5-16.9,38.8-38.1,56.7-65c11.3,35.8,9.3,73,0.5,111
		c50.3,28.5,113,16.9,154-14c1.7,7.3,2.9,10.8,6.4,26.7c49.8-34.5,66.7-76.7,71.5-117.6l16.2,17.9c21.7-70,8.8-127-29.8-182.1
		L793,459c-4.5-5.6-11.8-12.4-15.2-16.7c-0.5-0.7-0.4-1.1-0.8-1.6c1.8-1.1,5.2-2.7,6.1-5.1c-0.4-3.3-4.2-12-7.1-13.6
		c-7.1,0.7-12.9,6.9-12.9,9.2c-3.7-3.5-7.2-7.4-18-11.4c4.9,4.9,9.5,12.4,12.9,19.1c7.1,5.2,19,15.2,27.9,24.3l-1.7,1.7
		c-9.7-7.6-35.8-7-50.2,0.3c-7-8.4-15.1-17.7-26.4-27.9c-2.8-4.7-3-13.1,5.8-20.4c-9.7,0.9-13.7,5.1-18.3,8.9
		c-6.8-5.1-15.7-10.4-30.1-14.5c-11.3,2.3-24.9,9.5-30.1,15.9c13.2,7,17.2,9.2,25.2,9.7c11.7,0.8,21.9-1.8,29.4,3
		c9.3,8.3,26.7,23.7,29.2,30.8c-15.1-8.6-37.6-4.1-62.7-5.4c-23.7-2.8-36.8-20.4-37-34.5l-16.8-2.7c9.5-13,21.5-18.8,30.3-21.9
		l-9.2-7.7c14.8-12.7,37.9-23,61.3-25c16.3,8,30.2,16.8,39.7,24.7c4.3-7.2,4.9-15,5.5-20.2c18.5,8.5,39.2,23.2,54.4,38.6
		C778,405.6,773.4,392.8,771.4,377.7L771.4,377.7z M699,551.2c-7.1-13.6-14.1-29.1-22.2-42.1c15.8-11.3,30.7-23,56.3-29.6
		c5.4,4.5,13.4,9.9,24.7,14l0,27C741.6,531.5,725.6,549.5,699,551.2L699,551.2z M752.6,546.2l19.5-0.1c3.3,3.1,10.2,13.6,10.7,21.8
		c-1.5,11.6-10.6,33-26.4,41.2c0.5-9.9-0.6-22.7-2.6-29.9c-9,10.2-23.8,14.8-31.4,16.5c-3.2-8.4-8.3-17.7-13.4-25.3
		C722.5,567.6,739.7,557.6,752.6,546.2L752.6,546.2z M790.6,480.6c12.8,27.2,10.1,53.3,1.1,66.6c-4.4-10-12.8-20.1-20-26.4l0.3-26.4
		C780.1,490.1,785.6,485.5,790.6,480.6L790.6,480.6z"/>
</g>
</svg>
