<?xml version="1.0" encoding="utf-8"?>
<!-- Generator: Adobe Illustrator 21.1.0, SVG Export Plug-In . SVG Version: 6.00 Build 0)  -->
<svg version="1.1" id="Layer_1" xmlns="http://www.w3.org/2000/svg" xmlns:xlink="http://www.w3.org/1999/xlink" x="0px" y="0px"
	 viewBox="0 0 200 200" style="enable-background:new 0 0 200 200;" xml:space="preserve">
<style type="text/css">
	.st0{fill:#999999;}
	.st1{fill:#8D8D8D;}
	.st2{fill:#666666;}
	.st3{fill:#E30613;}
	.st4{fill:url(#SVGID_1_);}
	.st5{fill:url(#SVGID_2_);}
	.st6{fill:#FFFFFF;}
	.st7{fill:#004F8C;}
</style>
<g>
	<path class="st0" d="M92.1,12.5L92.1,12.5C92.1,12.5,92.1,12.5,92.1,12.5C92.1,12.5,92.1,12.5,92.1,12.5
		c33.4,0,63.2,14.4,83.4,37.1c-16.7-28.7-47.8-48-83.4-48c-35.6,0-66.6,19.3-83.4,48C29,26.9,58.8,12.5,92.1,12.5z"/>
	<path class="st1" d="M171.4,138.9c3.6-9.2,5.6-19.2,5.6-29.7c0-23.9-10.2-45.3-26.3-59.8c2.9,10.2,4.5,21.1,4.5,32.4
		c0,47.2-29.7,86.5-67.4,99.8c1.2,0,2.5,0.1,3.7,0.1C125,181.7,154.5,164.7,171.4,138.9z"/>
	<path class="st2" d="M184.7,70.7c1.2,5.8,1.8,11.8,1.8,18c0,18.5-5.6,35.8-15.1,50.3c-16.9,25.7-46.4,42.8-80,42.8
		c-1.3,0-2.5-0.1-3.7-0.1c-31.8-1.2-59.5-17.6-75.9-42C25.6,173.8,59,198,98.2,198c51.4,0,93.1-41.7,93.1-93.1
		C191.3,92.8,188.9,81.3,184.7,70.7z"/>
	<g>
		<g>
			<path class="st3" d="M94.6,46.9c-7.9,0.2-35,2-51.2,15.2l-5.5,4.5l-1.9,7.3L36,74.4c-0.4,2.3-10.1,55.8,45.7,95.4l12.5,8.9
				l14.8-8.9c55.8-39.7,46.1-93.2,45.7-95.4l-1.3-6.8l-5.7-5.2l-0.4-0.4c-16.1-13.2-43.2-15-51.1-15.2l-0.7,0L94.6,46.9z"/>
			<path d="M94.6,46.1L94.6,46.1c-8,0.2-35.3,2-51.6,15.4l-5.7,4.7l-1.9,7.5l-0.1,0.6c-0.4,2.3-10.2,56.2,46,96.1l12.9,9.2l15.2-9.1
				c56.2-39.9,46.5-93.9,46-96.2l-1.4-7l-5.8-5.3l-0.5-0.4C131.3,48.2,103.9,46.4,96,46.1L94.6,46.1z"/>
			<linearGradient id="SVGID_1_" gradientUnits="userSpaceOnUse" x1="35.7928" y1="112.7206" x2="95.2472" y2="112.7206">
				<stop  offset="0" style="stop-color:#BAC900"/>
				<stop  offset="0.1018" style="stop-color:#B3C100"/>
				<stop  offset="0.2569" style="stop-color:#9FAC00"/>
				<stop  offset="0.446" style="stop-color:#7F8A00"/>
				<stop  offset="0.6618" style="stop-color:#535A00"/>
				<stop  offset="0.8972" style="stop-color:#1B1D00"/>
				<stop  offset="1" style="stop-color:#000000"/>
			</linearGradient>
			<path class="st4" d="M94.6,47.6c-7.9,0.2-34.7,2-50.7,15.1c0,0-5,4.1-5.3,4.4c-0.1,0.4-1.8,7-1.8,7l-0.1,0.6
				c-0.1,0.6-0.9,4.9-0.9,11.6c0,18.2,5.8,54.3,46.3,83.1c0,0,11.3,8,12,8.6c0.1-0.1,0.5-0.3,1.1-0.7V47.6
				C95.1,47.6,94.6,47.6,94.6,47.6z"/>
			<linearGradient id="SVGID_2_" gradientUnits="userSpaceOnUse" x1="95.2472" y1="112.3813" x2="154.7036" y2="112.3813">
				<stop  offset="0" style="stop-color:#000000"/>
				<stop  offset="5.134714e-02" style="stop-color:#383532"/>
				<stop  offset="0.2024" style="stop-color:#70584E"/>
				<stop  offset="0.3526" style="stop-color:#955E4A"/>
				<stop  offset="0.4982" style="stop-color:#AE523A"/>
				<stop  offset="0.6384" style="stop-color:#C03F2A"/>
				<stop  offset="0.7718" style="stop-color:#CB2D1F"/>
				<stop  offset="0.8954" style="stop-color:#D21C1A"/>
				<stop  offset="1" style="stop-color:#D51317"/>
			</linearGradient>
			<path class="st5" d="M153.8,74.6c0,0-1.2-6.2-1.3-6.6c-0.3-0.3-5.5-5-5.5-5l-0.4-0.4c-15.9-13.1-42.8-14.8-50.7-15.1l-0.6,0
				c0,0,0,0-0.1,0v129.7c3.4-2,13.2-7.9,13.2-7.9c40.5-28.8,46.3-64.9,46.3-83.1C154.7,79.5,153.9,75.2,153.8,74.6z"/>
			<path d="M95.2,67.6c-1.1,0-26,0.8-37.4,10.2L57.6,78l0,0.2c-0.1,0.4-7.9,43,37.3,75l0.4,0.3l0.5-0.3c45.1-32.1,37.3-74.6,37.3-75
				l0-0.2l-0.2-0.2C121.3,68.5,96.3,67.7,95.2,67.6L95.2,67.6L95.2,67.6z"/>
			<path class="st3" d="M95.2,67.6c-1.1,0-26.1,0.8-37.5,10.2l-0.2,0.2l-0.1,0.3c-0.1,0.4-7.8,43.1,37.3,75.1l0.5,0.3l0.5-0.3
				c45.1-32,37.4-74.7,37.3-75.1l0-0.2l-0.2-0.2C121.4,68.4,96.3,67.6,95.2,67.6L95.2,67.6L95.2,67.6z"/>
			<path d="M94.8,153.2c-45-32-37.3-74.5-37.2-74.9l0-0.2l0.2-0.1c11.4-9.3,36.3-10.1,37.4-10.2h0c1.1,0,26.1,0.9,37.4,10.2l0.2,0.2
				l0,0.2c0.1,0.4,7.8,43-37.2,74.9l-0.5,0.3L94.8,153.2z"/>
			<path d="M133.1,78.2l0-0.2l-0.3-0.3c-11.4-9.4-36.5-10.2-37.5-10.2c-1.1,0-26.2,0.8-37.6,10.2l-0.2,0.1l-0.1,0.4
				c0,0.1-0.6,3-0.6,7.9c0,13.9,4.4,43.5,37.9,67.3c0,0,0.5,0.4,0.5,0.4l0.6-0.4C140.9,121.3,133.2,78.6,133.1,78.2z"/>
			<path class="st6" d="M95.2,69.1c0.5,0,25.2,0.9,36.3,9.7c0.1,0.6,0.5,3.2,0.5,7.4c0,13.5-4.3,42.3-36.8,65.6
				c-32.5-23.3-36.8-52.1-36.8-65.6c0-4.2,0.4-6.8,0.5-7.4C70,69.9,94.8,69.1,95.2,69.1z"/>
		</g>
		<g>
			<g>
				<g>
					<path class="st7" d="M89.4,73.5v13.3h0c0.1,3.1,2.7,5.7,5.8,5.7c3.2,0,5.7-2.5,5.8-5.7h0V73.5H89.4z"/>
					<g>
						<circle class="st6" cx="95.2" cy="82" r="2"/>
						<g>
							<g>
								<circle class="st6" cx="92" cy="76.5" r="2"/>
								<ellipse class="st6" cx="98.5" cy="76.5" rx="2" ry="2"/>
							</g>
							<g>
								<circle class="st6" cx="92" cy="87.5" r="2"/>
								<circle class="st6" cx="98.5" cy="87.5" r="2"/>
							</g>
						</g>
					</g>
				</g>
				<g>
					<path class="st7" d="M89.4,122.2v13.3h0c0.1,3.1,2.7,5.7,5.8,5.7c3.2,0,5.7-2.5,5.8-5.7h0v-13.3H89.4z"/>
					<g>
						<circle class="st6" cx="95.2" cy="130.6" r="2"/>
						<g>
							<g>
								<circle class="st6" cx="92" cy="125.1" r="2"/>
								<circle class="st6" cx="98.5" cy="125.1" r="2"/>
							</g>
							<g>
								<circle class="st6" cx="92" cy="136.1" r="2"/>
								<ellipse class="st6" cx="98.5" cy="136.1" rx="2" ry="2"/>
							</g>
						</g>
					</g>
				</g>
			</g>
			<g>
				<g>
					<path class="st7" d="M74,97.8v13.3h0c0.1,3.1,2.7,5.7,5.8,5.7c3.2,0,5.7-2.5,5.8-5.7h0V97.8H74z"/>
					<g>
						<circle class="st6" cx="79.8" cy="106.3" r="2"/>
						<g>
							<g>
								<circle class="st6" cx="76.6" cy="100.8" r="2"/>
								<circle class="st6" cx="83" cy="100.8" r="2"/>
							</g>
							<g>
								<circle class="st6" cx="76.6" cy="111.8" r="2"/>
								<circle class="st6" cx="83" cy="111.8" r="2"/>
							</g>
						</g>
					</g>
				</g>
				<g>
					<path class="st7" d="M89.4,97.8v13.3h0c0.1,3.1,2.7,5.7,5.8,5.7c3.2,0,5.7-2.5,5.8-5.7h0V97.8H89.4z"/>
					<g>
						<circle class="st6" cx="95.2" cy="106.3" r="2"/>
						<g>
							<g>
								<ellipse class="st6" cx="92" cy="100.8" rx="2" ry="2"/>
								<circle class="st6" cx="98.5" cy="100.8" r="2"/>
							</g>
							<g>
								<ellipse class="st6" cx="92" cy="111.8" rx="2" ry="2"/>
								<circle class="st6" cx="98.5" cy="111.8" r="2"/>
							</g>
						</g>
					</g>
				</g>
				<g>
					<path class="st7" d="M104.8,97.8v13.3h0c0.1,3.1,2.7,5.7,5.8,5.7c3.2,0,5.7-2.5,5.8-5.7h0V97.8H104.8z"/>
					<g>
						<circle class="st6" cx="110.7" cy="106.3" r="2"/>
						<g>
							<g>
								<ellipse class="st6" cx="107.4" cy="100.8" rx="2" ry="2"/>
								<circle class="st6" cx="113.9" cy="100.8" r="2"/>
							</g>
							<g>
								<ellipse class="st6" cx="107.4" cy="111.8" rx="2" ry="2"/>
								<circle class="st6" cx="113.9" cy="111.8" r="2"/>
							</g>
						</g>
					</g>
				</g>
			</g>
		</g>
	</g>
</g>
</svg>
