<?xml version="1.0" encoding="utf-8"?>
<!-- Generator: Adobe Illustrator 21.1.0, SVG Export Plug-In . SVG Version: 6.00 Build 0)  -->
<svg version="1.1" id="Layer_1" xmlns="http://www.w3.org/2000/svg" xmlns:xlink="http://www.w3.org/1999/xlink" x="0px" y="0px"
	 viewBox="0 0 200 200" style="enable-background:new 0 0 200 200;" xml:space="preserve">
<style type="text/css">
	.st0{clip-path:url(#SVGID_2_);}
	.st1{clip-path:url(#SVGID_4_);}
	.st2{clip-path:url(#SVGID_20_);}
	.st3{clip-path:url(#SVGID_142_);fill:#FFFFFF;}
	.st4{clip-path:url(#SVGID_146_);fill-rule:evenodd;clip-rule:evenodd;fill:#2251AA;}
	.st5{clip-path:url(#SVGID_160_);}
	.st6{clip-path:url(#SVGID_162_);}
	.st7{fill-rule:evenodd;clip-rule:evenodd;fill:#2251AA;}
	.st8{clip-path:url(#SVGID_166_);fill:#FFFFFF;}
	.st9{clip-path:url(#SVGID_176_);}
	.st10{fill-rule:evenodd;clip-rule:evenodd;fill:#FFFFFF;}
	.st11{clip-path:url(#SVGID_180_);fill-rule:evenodd;clip-rule:evenodd;fill:#FFFFFF;}
	.st12{clip-path:url(#SVGID_184_);fill-rule:evenodd;clip-rule:evenodd;fill:#FFFFFF;}
	.st13{clip-path:url(#SVGID_188_);fill-rule:evenodd;clip-rule:evenodd;fill:#ED1C24;}
	.st14{clip-path:url(#SVGID_192_);fill-rule:evenodd;clip-rule:evenodd;fill:#ED1C24;}
	.st15{clip-path:url(#SVGID_196_);fill-rule:evenodd;clip-rule:evenodd;fill:#ED1C24;}
	.st16{clip-path:url(#SVGID_200_);fill-rule:evenodd;clip-rule:evenodd;fill:#ED1C24;}
	.st17{clip-path:url(#SVGID_204_);fill:#B8AC48;}
	.st18{clip-path:url(#SVGID_208_);fill-rule:evenodd;clip-rule:evenodd;fill:#B8AC48;}
	.st19{clip-path:url(#SVGID_212_);fill-rule:evenodd;clip-rule:evenodd;fill:#B8AC48;}
	.st20{clip-path:url(#SVGID_216_);fill-rule:evenodd;clip-rule:evenodd;fill:#1AAE48;}
	.st21{clip-path:url(#SVGID_232_);}
	.st22{clip-path:url(#SVGID_234_);}
	.st23{fill-rule:evenodd;clip-rule:evenodd;fill:#16953C;}
	.st24{clip-path:url(#SVGID_244_);}
	.st25{fill:#B8AC48;}
	.st26{clip-path:url(#SVGID_248_);fill-rule:evenodd;clip-rule:evenodd;fill:#ED1C24;}
	.st27{clip-path:url(#SVGID_256_);}
	.st28{clip-path:url(#SVGID_258_);}
	.st29{fill-rule:evenodd;clip-rule:evenodd;fill:#C0161C;}
	.st30{clip-path:url(#SVGID_268_);}
	.st31{fill:#2251AA;}
</style>
<g>
	<defs>
		<rect id="SVGID_1_" x="26.6" y="-4" width="147.6" height="208.9"/>
	</defs>
	<clipPath id="SVGID_2_">
		<use xlink:href="#SVGID_1_"  style="overflow:visible;"/>
	</clipPath>
	<g class="st0">
		<defs>
			<rect id="SVGID_3_" x="26.6" y="4.2" width="147.6" height="192.5"/>
		</defs>
		<clipPath id="SVGID_4_">
			<use xlink:href="#SVGID_3_"  style="overflow:visible;"/>
		</clipPath>
		<g class="st1">
			<defs>
				<rect id="SVGID_5_" x="26.6" y="4.2" width="148" height="192.5"/>
			</defs>
			<clipPath id="SVGID_6_">
				<use xlink:href="#SVGID_5_"  style="overflow:visible;"/>
			</clipPath>
		</g>
	</g>
	<g class="st0">
		<defs>
			<rect id="SVGID_7_" x="26.6" y="4.2" width="147.6" height="192.5"/>
		</defs>
		<clipPath id="SVGID_8_">
			<use xlink:href="#SVGID_7_"  style="overflow:visible;"/>
		</clipPath>
	</g>
	<g class="st0">
		<defs>
			<rect id="SVGID_9_" x="26.6" y="4.2" width="147.6" height="192.5"/>
		</defs>
		<clipPath id="SVGID_10_">
			<use xlink:href="#SVGID_9_"  style="overflow:visible;"/>
		</clipPath>
	</g>
	<g class="st0">
		<defs>
			<rect id="SVGID_11_" x="26.6" y="4.2" width="147.6" height="192.5"/>
		</defs>
		<clipPath id="SVGID_12_">
			<use xlink:href="#SVGID_11_"  style="overflow:visible;"/>
		</clipPath>
	</g>
	<g class="st0">
		<defs>
			<rect id="SVGID_13_" x="26.6" y="4.2" width="147.6" height="192.5"/>
		</defs>
		<clipPath id="SVGID_14_">
			<use xlink:href="#SVGID_13_"  style="overflow:visible;"/>
		</clipPath>
	</g>
	<g class="st0">
		<defs>
			<rect id="SVGID_15_" x="26.6" y="4.2" width="147.6" height="192.5"/>
		</defs>
		<clipPath id="SVGID_16_">
			<use xlink:href="#SVGID_15_"  style="overflow:visible;"/>
		</clipPath>
	</g>
	<g class="st0">
		<defs>
			<rect id="SVGID_17_" x="26.6" y="4.2" width="147.6" height="192.5"/>
		</defs>
		<clipPath id="SVGID_18_">
			<use xlink:href="#SVGID_17_"  style="overflow:visible;"/>
		</clipPath>
	</g>
	<g class="st0">
		<defs>
			<rect id="SVGID_19_" x="26.6" y="4.2" width="147.6" height="192.5"/>
		</defs>
		<clipPath id="SVGID_20_">
			<use xlink:href="#SVGID_19_"  style="overflow:visible;"/>
		</clipPath>
		<g class="st2">
			<defs>
				<path id="SVGID_21_" d="M26.6,204.9"/>
			</defs>
			<clipPath id="SVGID_22_">
				<use xlink:href="#SVGID_21_"  style="overflow:visible;"/>
			</clipPath>
		</g>
	</g>
	<g class="st0">
		<defs>
			<rect id="SVGID_23_" x="26.6" y="4.2" width="147.6" height="192.5"/>
		</defs>
		<clipPath id="SVGID_24_">
			<use xlink:href="#SVGID_23_"  style="overflow:visible;"/>
		</clipPath>
	</g>
	<g class="st0">
		<defs>
			<rect id="SVGID_25_" x="26.6" y="4.2" width="147.6" height="192.5"/>
		</defs>
		<clipPath id="SVGID_26_">
			<use xlink:href="#SVGID_25_"  style="overflow:visible;"/>
		</clipPath>
	</g>
	<g class="st0">
		<defs>
			<rect id="SVGID_27_" x="26.6" y="4.2" width="147.6" height="192.5"/>
		</defs>
		<clipPath id="SVGID_28_">
			<use xlink:href="#SVGID_27_"  style="overflow:visible;"/>
		</clipPath>
	</g>
	<g class="st0">
		<defs>
			<rect id="SVGID_29_" x="26.6" y="4.2" width="147.6" height="192.5"/>
		</defs>
		<clipPath id="SVGID_30_">
			<use xlink:href="#SVGID_29_"  style="overflow:visible;"/>
		</clipPath>
	</g>
	<g class="st0">
		<defs>
			<rect id="SVGID_31_" x="26.6" y="4.2" width="147.6" height="192.5"/>
		</defs>
		<clipPath id="SVGID_32_">
			<use xlink:href="#SVGID_31_"  style="overflow:visible;"/>
		</clipPath>
	</g>
	<g class="st0">
		<defs>
			<rect id="SVGID_33_" x="26.6" y="4.2" width="147.6" height="192.5"/>
		</defs>
		<clipPath id="SVGID_34_">
			<use xlink:href="#SVGID_33_"  style="overflow:visible;"/>
		</clipPath>
	</g>
	<g class="st0">
		<defs>
			<rect id="SVGID_35_" x="26.6" y="4.2" width="147.6" height="192.5"/>
		</defs>
		<clipPath id="SVGID_36_">
			<use xlink:href="#SVGID_35_"  style="overflow:visible;"/>
		</clipPath>
	</g>
	<g class="st0">
		<defs>
			<rect id="SVGID_37_" x="26.6" y="4.2" width="147.6" height="192.5"/>
		</defs>
		<clipPath id="SVGID_38_">
			<use xlink:href="#SVGID_37_"  style="overflow:visible;"/>
		</clipPath>
	</g>
	<g class="st0">
		<defs>
			<rect id="SVGID_39_" x="26.6" y="4.2" width="147.6" height="192.5"/>
		</defs>
		<clipPath id="SVGID_40_">
			<use xlink:href="#SVGID_39_"  style="overflow:visible;"/>
		</clipPath>
	</g>
	<g class="st0">
		<defs>
			<rect id="SVGID_41_" x="26.6" y="4.2" width="147.6" height="192.5"/>
		</defs>
		<clipPath id="SVGID_42_">
			<use xlink:href="#SVGID_41_"  style="overflow:visible;"/>
		</clipPath>
	</g>
	<g class="st0">
		<defs>
			<rect id="SVGID_43_" x="26.6" y="4.2" width="147.6" height="192.5"/>
		</defs>
		<clipPath id="SVGID_44_">
			<use xlink:href="#SVGID_43_"  style="overflow:visible;"/>
		</clipPath>
	</g>
	<g class="st0">
		<defs>
			<rect id="SVGID_45_" x="26.6" y="4.2" width="147.6" height="192.5"/>
		</defs>
		<clipPath id="SVGID_46_">
			<use xlink:href="#SVGID_45_"  style="overflow:visible;"/>
		</clipPath>
	</g>
	<g class="st0">
		<defs>
			<rect id="SVGID_47_" x="26.6" y="4.2" width="147.6" height="192.5"/>
		</defs>
		<clipPath id="SVGID_48_">
			<use xlink:href="#SVGID_47_"  style="overflow:visible;"/>
		</clipPath>
	</g>
	<g class="st0">
		<defs>
			<rect id="SVGID_49_" x="26.6" y="4.2" width="147.6" height="192.5"/>
		</defs>
		<clipPath id="SVGID_50_">
			<use xlink:href="#SVGID_49_"  style="overflow:visible;"/>
		</clipPath>
	</g>
	<g class="st0">
		<defs>
			<rect id="SVGID_51_" x="26.6" y="4.2" width="147.6" height="192.5"/>
		</defs>
		<clipPath id="SVGID_52_">
			<use xlink:href="#SVGID_51_"  style="overflow:visible;"/>
		</clipPath>
	</g>
	<g class="st0">
		<defs>
			<rect id="SVGID_53_" x="26.6" y="4.2" width="147.6" height="192.5"/>
		</defs>
		<clipPath id="SVGID_54_">
			<use xlink:href="#SVGID_53_"  style="overflow:visible;"/>
		</clipPath>
	</g>
	<g class="st0">
		<defs>
			<rect id="SVGID_55_" x="26.6" y="4.2" width="147.6" height="192.5"/>
		</defs>
		<clipPath id="SVGID_56_">
			<use xlink:href="#SVGID_55_"  style="overflow:visible;"/>
		</clipPath>
	</g>
	<g class="st0">
		<defs>
			<rect id="SVGID_57_" x="26.6" y="4.2" width="147.6" height="192.5"/>
		</defs>
		<clipPath id="SVGID_58_">
			<use xlink:href="#SVGID_57_"  style="overflow:visible;"/>
		</clipPath>
	</g>
	<g class="st0">
		<defs>
			<rect id="SVGID_59_" x="26.6" y="4.2" width="147.6" height="192.5"/>
		</defs>
		<clipPath id="SVGID_60_">
			<use xlink:href="#SVGID_59_"  style="overflow:visible;"/>
		</clipPath>
	</g>
	<g class="st0">
		<defs>
			<rect id="SVGID_61_" x="26.6" y="4.2" width="147.6" height="192.5"/>
		</defs>
		<clipPath id="SVGID_62_">
			<use xlink:href="#SVGID_61_"  style="overflow:visible;"/>
		</clipPath>
	</g>
	<g class="st0">
		<defs>
			<rect id="SVGID_63_" x="26.6" y="4.2" width="147.6" height="192.5"/>
		</defs>
		<clipPath id="SVGID_64_">
			<use xlink:href="#SVGID_63_"  style="overflow:visible;"/>
		</clipPath>
	</g>
	<g class="st0">
		<defs>
			<rect id="SVGID_65_" x="26.6" y="4.2" width="147.6" height="192.5"/>
		</defs>
		<clipPath id="SVGID_66_">
			<use xlink:href="#SVGID_65_"  style="overflow:visible;"/>
		</clipPath>
	</g>
	<g class="st0">
		<defs>
			<rect id="SVGID_67_" x="26.6" y="4.2" width="147.6" height="192.5"/>
		</defs>
		<clipPath id="SVGID_68_">
			<use xlink:href="#SVGID_67_"  style="overflow:visible;"/>
		</clipPath>
	</g>
	<g class="st0">
		<defs>
			<rect id="SVGID_69_" x="26.6" y="4.2" width="147.6" height="192.5"/>
		</defs>
		<clipPath id="SVGID_70_">
			<use xlink:href="#SVGID_69_"  style="overflow:visible;"/>
		</clipPath>
	</g>
	<g class="st0">
		<defs>
			<rect id="SVGID_71_" x="26.6" y="4.2" width="147.6" height="192.5"/>
		</defs>
		<clipPath id="SVGID_72_">
			<use xlink:href="#SVGID_71_"  style="overflow:visible;"/>
		</clipPath>
	</g>
	<g class="st0">
		<defs>
			<rect id="SVGID_73_" x="26.6" y="4.2" width="147.6" height="192.5"/>
		</defs>
		<clipPath id="SVGID_74_">
			<use xlink:href="#SVGID_73_"  style="overflow:visible;"/>
		</clipPath>
	</g>
	<g class="st0">
		<defs>
			<rect id="SVGID_75_" x="26.6" y="4.2" width="147.6" height="192.5"/>
		</defs>
		<clipPath id="SVGID_76_">
			<use xlink:href="#SVGID_75_"  style="overflow:visible;"/>
		</clipPath>
	</g>
	<g class="st0">
		<defs>
			<rect id="SVGID_77_" x="26.6" y="4.2" width="147.6" height="192.5"/>
		</defs>
		<clipPath id="SVGID_78_">
			<use xlink:href="#SVGID_77_"  style="overflow:visible;"/>
		</clipPath>
	</g>
	<g class="st0">
		<defs>
			<rect id="SVGID_79_" x="26.6" y="4.2" width="147.6" height="192.5"/>
		</defs>
		<clipPath id="SVGID_80_">
			<use xlink:href="#SVGID_79_"  style="overflow:visible;"/>
		</clipPath>
	</g>
	<g class="st0">
		<defs>
			<rect id="SVGID_81_" x="26.6" y="4.2" width="147.6" height="192.5"/>
		</defs>
		<clipPath id="SVGID_82_">
			<use xlink:href="#SVGID_81_"  style="overflow:visible;"/>
		</clipPath>
	</g>
	<g class="st0">
		<defs>
			<rect id="SVGID_83_" x="26.6" y="4.2" width="147.6" height="192.5"/>
		</defs>
		<clipPath id="SVGID_84_">
			<use xlink:href="#SVGID_83_"  style="overflow:visible;"/>
		</clipPath>
	</g>
	<g class="st0">
		<defs>
			<rect id="SVGID_85_" x="26.6" y="4.2" width="147.6" height="192.5"/>
		</defs>
		<clipPath id="SVGID_86_">
			<use xlink:href="#SVGID_85_"  style="overflow:visible;"/>
		</clipPath>
	</g>
	<g class="st0">
		<defs>
			<rect id="SVGID_87_" x="26.6" y="4.2" width="147.6" height="192.5"/>
		</defs>
		<clipPath id="SVGID_88_">
			<use xlink:href="#SVGID_87_"  style="overflow:visible;"/>
		</clipPath>
	</g>
	<g class="st0">
		<defs>
			<rect id="SVGID_89_" x="26.6" y="4.2" width="147.6" height="192.5"/>
		</defs>
		<clipPath id="SVGID_90_">
			<use xlink:href="#SVGID_89_"  style="overflow:visible;"/>
		</clipPath>
	</g>
	<g class="st0">
		<defs>
			<rect id="SVGID_91_" x="26.6" y="4.2" width="147.6" height="192.5"/>
		</defs>
		<clipPath id="SVGID_92_">
			<use xlink:href="#SVGID_91_"  style="overflow:visible;"/>
		</clipPath>
	</g>
	<g class="st0">
		<defs>
			<rect id="SVGID_93_" x="26.6" y="4.2" width="147.6" height="192.5"/>
		</defs>
		<clipPath id="SVGID_94_">
			<use xlink:href="#SVGID_93_"  style="overflow:visible;"/>
		</clipPath>
	</g>
	<g class="st0">
		<defs>
			<rect id="SVGID_95_" x="26.6" y="4.2" width="147.6" height="192.5"/>
		</defs>
		<clipPath id="SVGID_96_">
			<use xlink:href="#SVGID_95_"  style="overflow:visible;"/>
		</clipPath>
	</g>
	<g class="st0">
		<defs>
			<rect id="SVGID_97_" x="26.6" y="4.2" width="147.6" height="192.5"/>
		</defs>
		<clipPath id="SVGID_98_">
			<use xlink:href="#SVGID_97_"  style="overflow:visible;"/>
		</clipPath>
	</g>
	<g class="st0">
		<defs>
			<rect id="SVGID_99_" x="26.6" y="4.2" width="147.6" height="192.5"/>
		</defs>
		<clipPath id="SVGID_100_">
			<use xlink:href="#SVGID_99_"  style="overflow:visible;"/>
		</clipPath>
	</g>
	<g class="st0">
		<defs>
			<rect id="SVGID_101_" x="26.6" y="4.2" width="147.6" height="192.5"/>
		</defs>
		<clipPath id="SVGID_102_">
			<use xlink:href="#SVGID_101_"  style="overflow:visible;"/>
		</clipPath>
	</g>
	<g class="st0">
		<defs>
			<rect id="SVGID_103_" x="26.6" y="4.2" width="147.6" height="192.5"/>
		</defs>
		<clipPath id="SVGID_104_">
			<use xlink:href="#SVGID_103_"  style="overflow:visible;"/>
		</clipPath>
	</g>
	<g class="st0">
		<defs>
			<rect id="SVGID_105_" x="26.6" y="4.2" width="147.6" height="192.5"/>
		</defs>
		<clipPath id="SVGID_106_">
			<use xlink:href="#SVGID_105_"  style="overflow:visible;"/>
		</clipPath>
	</g>
	<g class="st0">
		<defs>
			<rect id="SVGID_107_" x="26.6" y="4.2" width="147.6" height="192.5"/>
		</defs>
		<clipPath id="SVGID_108_">
			<use xlink:href="#SVGID_107_"  style="overflow:visible;"/>
		</clipPath>
	</g>
	<g class="st0">
		<defs>
			<rect id="SVGID_109_" x="26.6" y="4.2" width="147.6" height="192.5"/>
		</defs>
		<clipPath id="SVGID_110_">
			<use xlink:href="#SVGID_109_"  style="overflow:visible;"/>
		</clipPath>
	</g>
	<g class="st0">
		<defs>
			<rect id="SVGID_111_" x="26.6" y="4.2" width="147.6" height="192.5"/>
		</defs>
		<clipPath id="SVGID_112_">
			<use xlink:href="#SVGID_111_"  style="overflow:visible;"/>
		</clipPath>
	</g>
	<g class="st0">
		<defs>
			<rect id="SVGID_113_" x="26.6" y="4.2" width="147.6" height="192.5"/>
		</defs>
		<clipPath id="SVGID_114_">
			<use xlink:href="#SVGID_113_"  style="overflow:visible;"/>
		</clipPath>
	</g>
	<g class="st0">
		<defs>
			<rect id="SVGID_115_" x="26.6" y="4.2" width="147.6" height="192.5"/>
		</defs>
		<clipPath id="SVGID_116_">
			<use xlink:href="#SVGID_115_"  style="overflow:visible;"/>
		</clipPath>
	</g>
	<g class="st0">
		<defs>
			<rect id="SVGID_117_" x="26.6" y="4.2" width="147.6" height="192.5"/>
		</defs>
		<clipPath id="SVGID_118_">
			<use xlink:href="#SVGID_117_"  style="overflow:visible;"/>
		</clipPath>
	</g>
	<g class="st0">
		<defs>
			<rect id="SVGID_119_" x="26.6" y="4.2" width="147.6" height="192.5"/>
		</defs>
		<clipPath id="SVGID_120_">
			<use xlink:href="#SVGID_119_"  style="overflow:visible;"/>
		</clipPath>
	</g>
	<g class="st0">
		<defs>
			<rect id="SVGID_121_" x="26.6" y="4.2" width="147.6" height="192.5"/>
		</defs>
		<clipPath id="SVGID_122_">
			<use xlink:href="#SVGID_121_"  style="overflow:visible;"/>
		</clipPath>
	</g>
	<g class="st0">
		<defs>
			<rect id="SVGID_123_" x="26.6" y="4.2" width="147.6" height="192.5"/>
		</defs>
		<clipPath id="SVGID_124_">
			<use xlink:href="#SVGID_123_"  style="overflow:visible;"/>
		</clipPath>
	</g>
	<g class="st0">
		<defs>
			<rect id="SVGID_125_" x="26.6" y="4.2" width="147.6" height="192.5"/>
		</defs>
		<clipPath id="SVGID_126_">
			<use xlink:href="#SVGID_125_"  style="overflow:visible;"/>
		</clipPath>
	</g>
	<g class="st0">
		<defs>
			<rect id="SVGID_127_" x="26.6" y="4.2" width="147.6" height="192.5"/>
		</defs>
		<clipPath id="SVGID_128_">
			<use xlink:href="#SVGID_127_"  style="overflow:visible;"/>
		</clipPath>
	</g>
	<g class="st0">
		<defs>
			<rect id="SVGID_129_" x="26.6" y="4.2" width="147.6" height="192.5"/>
		</defs>
		<clipPath id="SVGID_130_">
			<use xlink:href="#SVGID_129_"  style="overflow:visible;"/>
		</clipPath>
	</g>
	<g class="st0">
		<defs>
			<rect id="SVGID_131_" x="26.6" y="4.2" width="147.6" height="192.5"/>
		</defs>
		<clipPath id="SVGID_132_">
			<use xlink:href="#SVGID_131_"  style="overflow:visible;"/>
		</clipPath>
	</g>
	<g class="st0">
		<defs>
			<rect id="SVGID_133_" x="26.6" y="4.2" width="147.6" height="192.5"/>
		</defs>
		<clipPath id="SVGID_134_">
			<use xlink:href="#SVGID_133_"  style="overflow:visible;"/>
		</clipPath>
	</g>
	<g class="st0">
		<defs>
			<rect id="SVGID_135_" x="26.6" y="4.2" width="147.6" height="192.5"/>
		</defs>
		<clipPath id="SVGID_136_">
			<use xlink:href="#SVGID_135_"  style="overflow:visible;"/>
		</clipPath>
	</g>
	<g class="st0">
		<defs>
			<rect id="SVGID_137_" x="26.6" y="4.2" width="147.6" height="192.5"/>
		</defs>
		<clipPath id="SVGID_138_">
			<use xlink:href="#SVGID_137_"  style="overflow:visible;"/>
		</clipPath>
	</g>
	<g class="st0">
		<defs>
			<rect id="SVGID_139_" x="26.6" y="4.2" width="147.6" height="192.5"/>
		</defs>
		<clipPath id="SVGID_140_">
			<use xlink:href="#SVGID_139_"  style="overflow:visible;"/>
		</clipPath>
	</g>
	<g class="st0">
		<defs>
			<rect id="SVGID_141_" x="26.6" y="4.2" width="147.6" height="192.5"/>
		</defs>
		<clipPath id="SVGID_142_">
			<use xlink:href="#SVGID_141_"  style="overflow:visible;"/>
		</clipPath>
		<path class="st3" d="M26.8,29.3c0,0,0.3-5.7,5.8-9c6.3-3.7,28.1-14.1,67.1-14.1h1.8c39,0,60.8,10.2,67.1,14.1c5.8,3.6,5.8,9,5.8,9
			l0,151.3c0,2.1-2.8,3.8-4.7,4.6c0,0-23.6,8.9-69.1,8.9c-45.5,0-69.1-8.9-69.1-8.9c-2.1-0.7-4.7-2.6-4.7-4.6L26.8,29.3"/>
	</g>
	<g class="st0">
		<defs>
			<rect id="SVGID_143_" x="26.6" y="4.2" width="147.6" height="192.5"/>
		</defs>
		<clipPath id="SVGID_144_">
			<use xlink:href="#SVGID_143_"  style="overflow:visible;"/>
		</clipPath>
	</g>
	<g class="st0">
		<defs>
			<rect id="SVGID_145_" x="26.6" y="4.2" width="147.6" height="192.5"/>
		</defs>
		<clipPath id="SVGID_146_">
			<use xlink:href="#SVGID_145_"  style="overflow:visible;"/>
		</clipPath>
		<path class="st4" d="M170.9,155.6c0,0-22.6-9.6-70.3-9.6c-47.7,0-70.3,9.6-70.3,9.6c-2.1,1.5-3.6,2.3-3.6,4.4v23.1
			c0,2.1,1.7,3.8,4.7,4.8c0,0,23.7,8.6,69.3,8.6c45.6,0,69.3-8.6,69.3-8.6c2.3-0.8,4.7-2.7,4.7-4.8V160
			C174.5,157.9,173,157.1,170.9,155.6"/>
	</g>
	<g class="st0">
		<defs>
			<rect id="SVGID_147_" x="26.6" y="4.2" width="147.6" height="192.5"/>
		</defs>
		<clipPath id="SVGID_148_">
			<use xlink:href="#SVGID_147_"  style="overflow:visible;"/>
		</clipPath>
	</g>
	<g class="st0">
		<defs>
			<rect id="SVGID_149_" x="26.6" y="4.2" width="147.6" height="192.5"/>
		</defs>
		<clipPath id="SVGID_150_">
			<use xlink:href="#SVGID_149_"  style="overflow:visible;"/>
		</clipPath>
	</g>
	<g class="st0">
		<defs>
			<rect id="SVGID_151_" x="26.6" y="4.2" width="147.6" height="192.5"/>
		</defs>
		<clipPath id="SVGID_152_">
			<use xlink:href="#SVGID_151_"  style="overflow:visible;"/>
		</clipPath>
	</g>
	<g class="st0">
		<defs>
			<rect id="SVGID_153_" x="26.6" y="4.2" width="147.6" height="192.5"/>
		</defs>
		<clipPath id="SVGID_154_">
			<use xlink:href="#SVGID_153_"  style="overflow:visible;"/>
		</clipPath>
	</g>
	<g class="st0">
		<defs>
			<rect id="SVGID_155_" x="26.6" y="4.2" width="147.6" height="192.5"/>
		</defs>
		<clipPath id="SVGID_156_">
			<use xlink:href="#SVGID_155_"  style="overflow:visible;"/>
		</clipPath>
	</g>
	<g class="st0">
		<defs>
			<rect id="SVGID_157_" x="26.6" y="4.2" width="147.6" height="192.5"/>
		</defs>
		<clipPath id="SVGID_158_">
			<use xlink:href="#SVGID_157_"  style="overflow:visible;"/>
		</clipPath>
	</g>
	<g class="st0">
		<defs>
			<rect id="SVGID_159_" x="26.6" y="4.2" width="147.6" height="192.5"/>
		</defs>
		<clipPath id="SVGID_160_">
			<use xlink:href="#SVGID_159_"  style="overflow:visible;"/>
		</clipPath>
		<g class="st5">
			<defs>
				<path id="SVGID_161_" d="M100.6,196.7c-45.6,0-69.3-8.6-69.3-8.6c-3-1-4.7-2.7-4.7-4.8v-23.1c0-2.1,1.5-3,3.6-4.4l0,0
					c0,0,22.6-9.6,70.4-9.6c47.7,0,70.3,9.6,70.3,9.6c2.1,1.5,3.6,2.3,3.6,4.4v23.1c0,2.1-2.4,3.9-4.7,4.8
					C169.8,188,146.1,196.7,100.6,196.7z"/>
			</defs>
			<clipPath id="SVGID_162_">
				<use xlink:href="#SVGID_161_"  style="overflow:visible;"/>
			</clipPath>
			<g class="st6">
				<g>
					<path class="st7" d="M170.9,155.6c0,0-22.6-9.6-70.3-9.6c-47.7,0-70.3,9.6-70.3,9.6c-2.1,1.5-3.6,2.3-3.6,4.4v23.1
						c0,2.1,1.7,3.8,4.7,4.8c0,0,23.7,8.6,69.3,8.6c45.6,0,69.3-8.6,69.3-8.6c2.3-0.8,4.7-2.7,4.7-4.8V160
						C174.5,157.9,173,157.1,170.9,155.6"/>
				</g>
			</g>
		</g>
	</g>
	<g class="st0">
		<defs>
			<path id="SVGID_163_" d="M100.6,146.1c-47.7,0-70.4,9.6-70.4,9.6l0,0c-2.1,1.5-3.6,2.3-3.6,4.4l0,0v23.2c0,2.1,1.7,3.8,4.7,4.7
				c0,0,23.7,8.6,69.2,8.6h0.2c45.5,0,69.2-8.6,69.2-8.6c1.8-0.6,3.6-1.9,4.3-3.4l0,0v-26.1c-0.6-1.1-1.8-1.8-3.3-2.9
				C170.9,155.7,148.2,146.1,100.6,146.1z"/>
		</defs>
		<clipPath id="SVGID_164_">
			<use xlink:href="#SVGID_163_"  style="overflow:visible;"/>
		</clipPath>
	</g>
	<g class="st0">
		<defs>
			<path id="SVGID_165_" d="M100.6,146.1c-47.7,0-70.4,9.6-70.4,9.6l0,0c-2.1,1.5-3.6,2.3-3.6,4.4l0,0v23.2c0,2.1,1.7,3.8,4.7,4.7
				c0,0,23.7,8.6,69.2,8.6h0.2c45.5,0,69.2-8.6,69.2-8.6c1.8-0.6,3.6-1.9,4.3-3.4l0,0v-26.1c-0.6-1.1-1.8-1.8-3.3-2.9
				C170.9,155.7,148.2,146.1,100.6,146.1z"/>
		</defs>
		<clipPath id="SVGID_166_">
			<use xlink:href="#SVGID_165_"  style="overflow:visible;"/>
		</clipPath>
		<path class="st8" d="M170.9,155.6l0.6-1.5c-0.2-0.1-23-9.7-71-9.7c-47.9,0-70.8,9.6-71,9.7l-0.1,0.1l-0.1,0.1
			c-1,0.7-2,1.3-2.8,2.2c-0.9,0.8-1.5,2.1-1.5,3.6v23.1c0,1.5,0.6,2.9,1.7,3.9c1,1,2.4,1.8,4.1,2.3l0.5-1.5l-0.5,1.5
			c0.2,0.1,24,8.7,69.8,8.7c45.8,0,69.7-8.7,69.8-8.7c1.3-0.5,2.7-1.2,3.8-2.2c1.1-1,2-2.3,2-4V160c0-1.4-0.6-2.7-1.5-3.6
			c-0.8-0.9-1.8-1.5-2.8-2.2l-0.1-0.1l-0.1-0.1L170.9,155.6l-0.9,1.3c1.1,0.8,1.9,1.3,2.4,1.8c0.4,0.5,0.5,0.7,0.6,1.4v23.1
			c0,0.4-0.3,1.1-1,1.7c-0.7,0.6-1.7,1.2-2.7,1.6c0,0-0.3,0.1-1,0.3c-5,1.6-28,8.2-67.7,8.2c-22.7,0-39.9-2.2-51.5-4.3
			c-5.8-1.1-10.1-2.1-13-2.9c-1.4-0.4-2.5-0.7-3.2-1c-0.7-0.2-1-0.3-1.1-0.3l0,0l0,0c-1.3-0.4-2.3-1-2.8-1.6
			c-0.5-0.6-0.7-1.1-0.8-1.7V160c0-0.7,0.1-0.9,0.6-1.4c0.4-0.5,1.3-1,2.4-1.8l-0.9-1.3l0.6,1.5l0.2-0.1c2.5-1,25-9.3,69.5-9.3
			c23.7,0,41.2,2.4,52.7,4.7c5.8,1.2,10,2.4,12.8,3.2c1.4,0.4,2.5,0.8,3.1,1.1l0.8,0.3l0.2,0.1L170.9,155.6l-0.9,1.3L170.9,155.6"/>
	</g>
	<g class="st0">
		<defs>
			<path id="SVGID_167_" d="M100.6,146.1c-47.7,0-70.4,9.6-70.4,9.6l0,0c-2.1,1.5-3.6,2.3-3.6,4.4l0,0v23.2c0,2.1,1.7,3.8,4.7,4.7
				c0,0,23.7,8.6,69.2,8.6h0.2c45.5,0,69.2-8.6,69.2-8.6c1.8-0.6,3.6-1.9,4.3-3.4l0,0v-26.1c-0.6-1.1-1.8-1.8-3.3-2.9
				C170.9,155.7,148.2,146.1,100.6,146.1z"/>
		</defs>
		<clipPath id="SVGID_168_">
			<use xlink:href="#SVGID_167_"  style="overflow:visible;"/>
		</clipPath>
	</g>
	<g class="st0">
		<defs>
			<path id="SVGID_169_" d="M100.6,146.1c-47.7,0-70.4,9.6-70.4,9.6l0,0c-2.1,1.5-3.6,2.3-3.6,4.4l0,0v23.2c0,2.1,1.7,3.8,4.7,4.7
				c0,0,23.7,8.6,69.2,8.6h0.2c45.5,0,69.2-8.6,69.2-8.6c1.8-0.6,3.6-1.9,4.3-3.4l0,0v-26.1c-0.6-1.1-1.8-1.8-3.3-2.9
				C170.9,155.7,148.2,146.1,100.6,146.1z"/>
		</defs>
		<clipPath id="SVGID_170_">
			<use xlink:href="#SVGID_169_"  style="overflow:visible;"/>
		</clipPath>
	</g>
	<g class="st0">
		<defs>
			<path id="SVGID_171_" d="M100.6,146.1c-47.7,0-70.4,9.6-70.4,9.6l0,0c-2.1,1.5-3.6,2.3-3.6,4.4l0,0v23.2c0,2.1,1.7,3.8,4.7,4.7
				c0,0,23.7,8.6,69.2,8.6h0.2c45.5,0,69.2-8.6,69.2-8.6c1.8-0.6,3.6-1.9,4.3-3.4l0,0v-26.1c-0.6-1.1-1.8-1.8-3.3-2.9
				C170.9,155.7,148.2,146.1,100.6,146.1z"/>
		</defs>
		<clipPath id="SVGID_172_">
			<use xlink:href="#SVGID_171_"  style="overflow:visible;"/>
		</clipPath>
	</g>
	<g class="st0">
		<defs>
			<path id="SVGID_173_" d="M100.6,146.1c-47.7,0-70.4,9.6-70.4,9.6l0,0c-2.1,1.5-3.6,2.3-3.6,4.4l0,0v23.2c0,2.1,1.7,3.8,4.7,4.7
				c0,0,23.7,8.6,69.2,8.6h0.2c45.5,0,69.2-8.6,69.2-8.6c1.8-0.6,3.6-1.9,4.3-3.4l0,0v-26.1c-0.6-1.1-1.8-1.8-3.3-2.9
				C170.9,155.7,148.2,146.1,100.6,146.1z"/>
		</defs>
		<clipPath id="SVGID_174_">
			<use xlink:href="#SVGID_173_"  style="overflow:visible;"/>
		</clipPath>
	</g>
	<g class="st0">
		<defs>
			<rect id="SVGID_175_" x="26.6" y="4.2" width="147.6" height="192.5"/>
		</defs>
		<clipPath id="SVGID_176_">
			<use xlink:href="#SVGID_175_"  style="overflow:visible;"/>
		</clipPath>
		<g class="st9">
			<g>
				<g>
					<g>
						<g>
							<polyline class="st10" points="126.3,156.7 119.7,184 125.8,184 132.4,156.7 							"/>
						</g>
					</g>
				</g>
			</g>
		</g>
	</g>
	<g class="st0">
		<defs>
			<rect id="SVGID_177_" x="26.6" y="4.2" width="147.6" height="192.5"/>
		</defs>
		<clipPath id="SVGID_178_">
			<use xlink:href="#SVGID_177_"  style="overflow:visible;"/>
		</clipPath>
	</g>
	<g class="st0">
		<defs>
			<rect id="SVGID_179_" x="26.6" y="4.2" width="147.6" height="192.5"/>
		</defs>
		<clipPath id="SVGID_180_">
			<use xlink:href="#SVGID_179_"  style="overflow:visible;"/>
		</clipPath>
		<polyline class="st11" points="122.6,156.7 103.1,156.7 101.6,162.2 108.7,162.2 103.1,184 109.2,184 114.8,162.2 121.1,162.2 		
			"/>
	</g>
	<g class="st0">
		<defs>
			<rect id="SVGID_181_" x="26.6" y="4.2" width="147.6" height="192.5"/>
		</defs>
		<clipPath id="SVGID_182_">
			<use xlink:href="#SVGID_181_"  style="overflow:visible;"/>
		</clipPath>
	</g>
	<g class="st0">
		<defs>
			<rect id="SVGID_183_" x="26.6" y="4.2" width="147.6" height="192.5"/>
		</defs>
		<clipPath id="SVGID_184_">
			<use xlink:href="#SVGID_183_"  style="overflow:visible;"/>
		</clipPath>
		<polyline class="st12" points="152.9,156.7 146.7,165.8 144.5,156.7 138.4,156.7 131.8,184 137.9,184 141.7,168.4 144.1,176.2 
			149.7,169.8 146.3,184 152.4,184 159,156.7 		"/>
	</g>
	<g class="st0">
		<defs>
			<rect id="SVGID_185_" x="26.6" y="4.2" width="147.6" height="192.5"/>
		</defs>
		<clipPath id="SVGID_186_">
			<use xlink:href="#SVGID_185_"  style="overflow:visible;"/>
		</clipPath>
	</g>
	<g class="st0">
		<defs>
			<rect id="SVGID_187_" x="26.6" y="4.2" width="147.6" height="192.5"/>
		</defs>
		<clipPath id="SVGID_188_">
			<use xlink:href="#SVGID_187_"  style="overflow:visible;"/>
		</clipPath>
		<polyline class="st13" points="81.6,162.2 79.1,157.1 59,162.2 45.2,162.2 44.6,165.2 58.7,165.2 79.9,160 82.2,165.2 96,165.2 
			96.7,162.2 		"/>
	</g>
	<g class="st0">
		<defs>
			<rect id="SVGID_189_" x="26.6" y="4.2" width="147.6" height="192.5"/>
		</defs>
		<clipPath id="SVGID_190_">
			<use xlink:href="#SVGID_189_"  style="overflow:visible;"/>
		</clipPath>
	</g>
	<g class="st0">
		<defs>
			<rect id="SVGID_191_" x="26.6" y="4.2" width="147.6" height="192.5"/>
		</defs>
		<clipPath id="SVGID_192_">
			<use xlink:href="#SVGID_191_"  style="overflow:visible;"/>
		</clipPath>
		<polyline class="st14" points="78.1,161.8 58,167 44.2,167 43.5,170.2 57.6,170.2 78.8,165 81.2,170.2 94.9,170.2 95.7,167 
			80.6,167 		"/>
	</g>
	<g class="st0">
		<defs>
			<rect id="SVGID_193_" x="26.6" y="4.2" width="147.6" height="192.5"/>
		</defs>
		<clipPath id="SVGID_194_">
			<use xlink:href="#SVGID_193_"  style="overflow:visible;"/>
		</clipPath>
	</g>
	<g class="st0">
		<defs>
			<rect id="SVGID_195_" x="26.6" y="4.2" width="147.6" height="192.5"/>
		</defs>
		<clipPath id="SVGID_196_">
			<use xlink:href="#SVGID_195_"  style="overflow:visible;"/>
		</clipPath>
		<polyline class="st15" points="75.9,167.4 56.6,172.5 42.8,172.5 41.9,176.8 56,176.8 76.8,171.6 79.1,176.8 93.3,176.8 
			94.3,172.5 78.3,172.5 		"/>
	</g>
	<g class="st0">
		<defs>
			<rect id="SVGID_197_" x="26.6" y="4.2" width="147.6" height="192.5"/>
		</defs>
		<clipPath id="SVGID_198_">
			<use xlink:href="#SVGID_197_"  style="overflow:visible;"/>
		</clipPath>
	</g>
	<g class="st0">
		<defs>
			<rect id="SVGID_199_" x="26.6" y="4.2" width="147.6" height="192.5"/>
		</defs>
		<clipPath id="SVGID_200_">
			<use xlink:href="#SVGID_199_"  style="overflow:visible;"/>
		</clipPath>
		<polyline class="st16" points="72.4,174.1 55.2,178.3 41.5,178.3 40,184 56.4,184 73.6,179.8 76.4,184 91.5,184 92.9,178.3 
			74.8,178.3 		"/>
	</g>
	<g class="st0">
		<defs>
			<rect id="SVGID_201_" x="26.6" y="4.2" width="147.6" height="192.5"/>
		</defs>
		<clipPath id="SVGID_202_">
			<use xlink:href="#SVGID_201_"  style="overflow:visible;"/>
		</clipPath>
	</g>
	<g class="st0">
		<defs>
			<rect id="SVGID_203_" x="26.6" y="4.2" width="147.6" height="192.5"/>
		</defs>
		<clipPath id="SVGID_204_">
			<use xlink:href="#SVGID_203_"  style="overflow:visible;"/>
		</clipPath>
		<path class="st17" d="M31.4,29.8l0,115.2c1.5-0.7,2-0.8,2.9-1.1c0,0,22.7-7.4,66.3-7.4c43.6,0,65.8,7.4,65.8,7.4
			c1,0.3,2.1,0.7,3.4,1.2l0-115.3c0,0-0.1-5.2-5.5-8.6c-5.9-3.7-26.4-12.9-62.9-12.9h-1.7c-36.5,0-57,9.3-62.9,12.9
			C31.6,24.4,31.4,29.8,31.4,29.8 M26.6,27.1c0,0,0.3-5.8,5.8-9.1c6.4-3.8,28.2-13.8,67.2-13.8h1.8c39,0,61,9.8,67.2,13.8
			c5.8,3.6,5.8,9.1,5.8,9.1l0,124.4c-1.6-0.8-2.1-1-3.1-1.4c0,0-24.2-9-70.8-9c-46.6,0-70.8,9-70.8,9c-1,0.4-2.2,0.8-3.1,1.4
			L26.6,27.1z"/>
	</g>
	<g class="st0">
		<defs>
			<rect id="SVGID_205_" x="26.6" y="4.2" width="147.6" height="192.5"/>
		</defs>
		<clipPath id="SVGID_206_">
			<use xlink:href="#SVGID_205_"  style="overflow:visible;"/>
		</clipPath>
	</g>
	<g class="st0">
		<defs>
			<rect id="SVGID_207_" x="26.6" y="4.2" width="147.6" height="192.5"/>
		</defs>
		<clipPath id="SVGID_208_">
			<use xlink:href="#SVGID_207_"  style="overflow:visible;"/>
		</clipPath>
		<path class="st18" d="M66.2,55.3c0,0-0.8,1.6-0.8,6.3c0,2.9,1.4,21.5,35.3,20.3c39.5-1.5,61.9-16.9,61.9-34
			c0-16.8-22.9-27.2-49.4-30.6c0,0,33.2,7.2,33.2,21.7c0,14.4-22.2,25-45.7,26.3C77.2,66.5,66.2,55.3,66.2,55.3"/>
	</g>
	<g class="st0">
		<defs>
			<rect id="SVGID_209_" x="26.6" y="4.2" width="147.6" height="192.5"/>
		</defs>
		<clipPath id="SVGID_210_">
			<use xlink:href="#SVGID_209_"  style="overflow:visible;"/>
		</clipPath>
	</g>
	<g class="st0">
		<defs>
			<rect id="SVGID_211_" x="26.6" y="4.2" width="147.6" height="192.5"/>
		</defs>
		<clipPath id="SVGID_212_">
			<use xlink:href="#SVGID_211_"  style="overflow:visible;"/>
		</clipPath>
		<path class="st19" d="M134.3,49.3c0,0,12.2-25.1-33.6-28.2c0,0-33.8-2.8-54.2,16.9C26,57.6,47.4,80.2,84.2,85
			c0,0-29.5-7.6-30-22.8c-0.4-13.2,17.3-25.2,45.6-25.2C126.6,37.1,134.3,49.3,134.3,49.3"/>
	</g>
	<g class="st0">
		<defs>
			<rect id="SVGID_213_" x="26.6" y="4.2" width="147.6" height="192.5"/>
		</defs>
		<clipPath id="SVGID_214_">
			<use xlink:href="#SVGID_213_"  style="overflow:visible;"/>
		</clipPath>
	</g>
	<g class="st0">
		<defs>
			<rect id="SVGID_215_" x="26.6" y="4.2" width="147.6" height="192.5"/>
		</defs>
		<clipPath id="SVGID_216_">
			<use xlink:href="#SVGID_215_"  style="overflow:visible;"/>
		</clipPath>
		<path class="st20" d="M134.7,47.1c0,0,11.8-25-33.9-28.2c0,0-33.8-2.8-54.2,16.9C26,55.5,52.9,77,71.4,80.4c0,0-17.2-7-17.2-20.2
			c0-13.2,17.3-25.2,45.6-25.2C126.6,34.9,134.7,47.1,134.7,47.1"/>
	</g>
	<g class="st0">
		<defs>
			<rect id="SVGID_217_" x="26.6" y="4.2" width="147.6" height="192.5"/>
		</defs>
		<clipPath id="SVGID_218_">
			<use xlink:href="#SVGID_217_"  style="overflow:visible;"/>
		</clipPath>
	</g>
	<g class="st0">
		<defs>
			<rect id="SVGID_219_" x="26.6" y="4.2" width="147.6" height="192.5"/>
		</defs>
		<clipPath id="SVGID_220_">
			<use xlink:href="#SVGID_219_"  style="overflow:visible;"/>
		</clipPath>
	</g>
	<g class="st0">
		<defs>
			<rect id="SVGID_221_" x="26.6" y="4.2" width="147.6" height="192.5"/>
		</defs>
		<clipPath id="SVGID_222_">
			<use xlink:href="#SVGID_221_"  style="overflow:visible;"/>
		</clipPath>
	</g>
	<g class="st0">
		<defs>
			<rect id="SVGID_223_" x="26.6" y="4.2" width="147.6" height="192.5"/>
		</defs>
		<clipPath id="SVGID_224_">
			<use xlink:href="#SVGID_223_"  style="overflow:visible;"/>
		</clipPath>
	</g>
	<g class="st0">
		<defs>
			<rect id="SVGID_225_" x="26.6" y="4.2" width="147.6" height="192.5"/>
		</defs>
		<clipPath id="SVGID_226_">
			<use xlink:href="#SVGID_225_"  style="overflow:visible;"/>
		</clipPath>
	</g>
	<g class="st0">
		<defs>
			<rect id="SVGID_227_" x="26.6" y="4.2" width="147.6" height="192.5"/>
		</defs>
		<clipPath id="SVGID_228_">
			<use xlink:href="#SVGID_227_"  style="overflow:visible;"/>
		</clipPath>
	</g>
	<g class="st0">
		<defs>
			<rect id="SVGID_229_" x="26.6" y="4.2" width="147.6" height="192.5"/>
		</defs>
		<clipPath id="SVGID_230_">
			<use xlink:href="#SVGID_229_"  style="overflow:visible;"/>
		</clipPath>
	</g>
	<g class="st0">
		<defs>
			<rect id="SVGID_231_" x="26.6" y="4.2" width="147.6" height="192.5"/>
		</defs>
		<clipPath id="SVGID_232_">
			<use xlink:href="#SVGID_231_"  style="overflow:visible;"/>
		</clipPath>
		<g class="st21">
			<defs>
				<path id="SVGID_233_" d="M71.4,80.5L71.4,80.5C52.9,77.1,26,55.6,46.5,36c15.9-15.3,39.9-17,49.8-17c2.8,0,4.5,0.1,4.5,0.1
					c45.7,3.1,33.9,28.2,33.9,28.2l0,0c0,0-8.1-12.2-34.9-12.2c-28.2,0-45.6,12.1-45.6,25.2C54.2,73.4,71.4,80.5,71.4,80.5z"/>
			</defs>
			<clipPath id="SVGID_234_">
				<use xlink:href="#SVGID_233_"  style="overflow:visible;"/>
			</clipPath>
			<g class="st22">
				<g>
					<path class="st23" d="M70.6,80.4c0,0-20-6.7-19.7-25c0.4-22.4,44.3-35.4,71.2-22.6c0,0,11.8,5.2,12.5,14.5
						c0.9,11.1-1.3,11.1-1.3,11.1L70.6,80.4"/>
				</g>
			</g>
		</g>
	</g>
	<g class="st0">
		<defs>
			<path id="SVGID_235_" d="M96.3,19c-9.9,0-33.9,1.7-49.8,17C26,55.6,52.9,77.1,71.4,80.5l0,0c0,0-17.2-7.1-17.2-20.2
				C54.2,47.1,71.5,35,99.8,35c26.7,0,34.9,12.2,34.9,12.2l0,0c0,0,11.8-25-33.9-28.2C100.7,19.1,99.1,19,96.3,19z"/>
		</defs>
		<clipPath id="SVGID_236_">
			<use xlink:href="#SVGID_235_"  style="overflow:visible;"/>
		</clipPath>
	</g>
	<g class="st0">
		<defs>
			<path id="SVGID_237_" d="M96.3,19c-9.9,0-33.9,1.7-49.8,17C26,55.6,52.9,77.1,71.4,80.5l0,0c0,0-17.2-7.1-17.2-20.2
				C54.2,47.1,71.5,35,99.8,35c26.7,0,34.9,12.2,34.9,12.2l0,0c0,0,11.8-25-33.9-28.2C100.7,19.1,99.1,19,96.3,19z"/>
		</defs>
		<clipPath id="SVGID_238_">
			<use xlink:href="#SVGID_237_"  style="overflow:visible;"/>
		</clipPath>
	</g>
	<g class="st0">
		<defs>
			<path id="SVGID_239_" d="M96.3,19c-9.9,0-33.9,1.7-49.8,17C26,55.6,52.9,77.1,71.4,80.5l0,0c0,0-17.2-7.1-17.2-20.2
				C54.2,47.1,71.5,35,99.8,35c26.7,0,34.9,12.2,34.9,12.2l0,0c0,0,11.8-25-33.9-28.2C100.7,19.1,99.1,19,96.3,19z"/>
		</defs>
		<clipPath id="SVGID_240_">
			<use xlink:href="#SVGID_239_"  style="overflow:visible;"/>
		</clipPath>
	</g>
	<g class="st0">
		<defs>
			<path id="SVGID_241_" d="M96.3,19c-9.9,0-33.9,1.7-49.8,17C26,55.6,52.9,77.1,71.4,80.5l0,0c0,0-17.2-7.1-17.2-20.2
				C54.2,47.1,71.5,35,99.8,35c26.7,0,34.9,12.2,34.9,12.2l0,0c0,0,11.8-25-33.9-28.2C100.7,19.1,99.1,19,96.3,19z"/>
		</defs>
		<clipPath id="SVGID_242_">
			<use xlink:href="#SVGID_241_"  style="overflow:visible;"/>
		</clipPath>
	</g>
	<g class="st0">
		<defs>
			<rect id="SVGID_243_" x="26.6" y="4.2" width="147.6" height="192.5"/>
		</defs>
		<clipPath id="SVGID_244_">
			<use xlink:href="#SVGID_243_"  style="overflow:visible;"/>
		</clipPath>
		<g class="st24">
			<g>
				<path class="st25" d="M95.4,53.8l10.4-5.2c0.7,0.7,1,1.5,0.8,2.4c-0.5,2.2-4.2,3.7-8.2,3.4C97.2,54.4,96.2,54.1,95.4,53.8
					 M92,49.9c0.5-2.2,4.2-3.7,8.2-3.4c1.3,0.1,2.4,0.4,3.4,0.8L92.5,52C92,51.4,91.8,50.6,92,49.9 M118,42.5
					c6.6,2.1,10.8,5.4,10.8,9c0,6.4-13.1,11.6-29.2,11.6c-6.7,0-12.8-0.9-17.8-2.4L93,55.1c1.3,0.7,3,1.2,4.9,1.3
					c5.1,0.4,9.8-1.7,10.6-4.8c0.3-1.4-0.2-2.7-1.3-3.7L118,42.5z M70.3,51.5c0-6.4,13.1-11.6,29.2-11.6c6.2,0,11.9,0.7,16.6,2.1
					l-11,4.7c-1.3-0.6-2.8-1-4.5-1.2c-5.1-0.4-9.8,1.7-10.6,4.7c-0.2,0.9-0.1,1.8,0.4,2.7l-13.8,5.8C72.7,56.7,70.3,54.2,70.3,51.5"
					/>
			</g>
		</g>
	</g>
	<g class="st0">
		<defs>
			<rect id="SVGID_245_" x="26.6" y="4.2" width="147.6" height="192.5"/>
		</defs>
		<clipPath id="SVGID_246_">
			<use xlink:href="#SVGID_245_"  style="overflow:visible;"/>
		</clipPath>
	</g>
	<g class="st0">
		<defs>
			<rect id="SVGID_247_" x="26.6" y="4.2" width="147.6" height="192.5"/>
		</defs>
		<clipPath id="SVGID_248_">
			<use xlink:href="#SVGID_247_"  style="overflow:visible;"/>
		</clipPath>
		<path class="st26" d="M66.2,57c0,0-0.8,1.6-0.8,6.3c0,2.9,1.4,21.6,35.3,20.3c39.5-1.5,61-17.9,61-34.7
			c0-16.8-27.2-27.2-39.4-29.2c0,0,24.1,6.5,24.1,20.9c0,14.4-22.2,25-45.7,26.3C77.2,68.2,66.2,57,66.2,57"/>
	</g>
	<g class="st0">
		<defs>
			<rect id="SVGID_249_" x="26.6" y="4.2" width="147.6" height="192.5"/>
		</defs>
		<clipPath id="SVGID_250_">
			<use xlink:href="#SVGID_249_"  style="overflow:visible;"/>
		</clipPath>
	</g>
	<g class="st0">
		<defs>
			<rect id="SVGID_251_" x="26.6" y="4.2" width="147.6" height="192.5"/>
		</defs>
		<clipPath id="SVGID_252_">
			<use xlink:href="#SVGID_251_"  style="overflow:visible;"/>
		</clipPath>
	</g>
	<g class="st0">
		<defs>
			<rect id="SVGID_253_" x="26.6" y="4.2" width="147.6" height="192.5"/>
		</defs>
		<clipPath id="SVGID_254_">
			<use xlink:href="#SVGID_253_"  style="overflow:visible;"/>
		</clipPath>
	</g>
	<g class="st0">
		<defs>
			<rect id="SVGID_255_" x="26.6" y="4.2" width="147.6" height="192.5"/>
		</defs>
		<clipPath id="SVGID_256_">
			<use xlink:href="#SVGID_255_"  style="overflow:visible;"/>
		</clipPath>
		<g class="st27">
			<defs>
				<path id="SVGID_257_" d="M97.4,83.7c-30.7,0-32-17.5-32-20.3c0-4.6,0.8-6.3,0.8-6.3s9.8,10,30.8,10c1.2,0,2.4,0,3.7-0.1
					c23.5-1.3,45.7-11.9,45.7-26.3l0,0c0-14.4-24.1-20.9-24.1-20.9c12.2,2,39.4,12.4,39.4,29.2c0,16.7-21.5,33.2-61,34.7
					C99.6,83.7,98.5,83.7,97.4,83.7z"/>
			</defs>
			<clipPath id="SVGID_258_">
				<use xlink:href="#SVGID_257_"  style="overflow:visible;"/>
			</clipPath>
			<g class="st28">
				<g>
					<path class="st29" d="M122.7,19.7c0,0,32.4,6.3,30.7,21.5c-1.7,15.2-32.8,26.3-58.6,26.3c-25.8,0-34.5-17.3-34.5-17.3L62,71.8
						c0,0,12,10.7,36.6,10.7c24.5,0,54.9-11.5,63.9-28.4c9-16.9-24-39.2-24-39.2L122.7,19.7"/>
				</g>
			</g>
		</g>
	</g>
	<g class="st0">
		<defs>
			<path id="SVGID_259_" d="M122.3,19.8c0,0,24.1,6.5,24.1,20.9l0,0c0,14.4-22.2,25-45.7,26.3c-1.3,0.1-2.5,0.1-3.7,0.1
				c-20.9,0-30.8-10-30.8-10s-0.8,1.6-0.8,6.3c0,2.8,1.3,20.3,32,20.3c1.1,0,2.2,0,3.3-0.1c39.5-1.5,61-17.9,61-34.7
				C161.7,32.2,134.5,21.8,122.3,19.8z"/>
		</defs>
		<clipPath id="SVGID_260_">
			<use xlink:href="#SVGID_259_"  style="overflow:visible;"/>
		</clipPath>
	</g>
	<g class="st0">
		<defs>
			<path id="SVGID_261_" d="M122.3,19.8c0,0,24.1,6.5,24.1,20.9l0,0c0,14.4-22.2,25-45.7,26.3c-1.3,0.1-2.5,0.1-3.7,0.1
				c-20.9,0-30.8-10-30.8-10s-0.8,1.6-0.8,6.3c0,2.8,1.3,20.3,32,20.3c1.1,0,2.2,0,3.3-0.1c39.5-1.5,61-17.9,61-34.7
				C161.7,32.2,134.5,21.8,122.3,19.8z"/>
		</defs>
		<clipPath id="SVGID_262_">
			<use xlink:href="#SVGID_261_"  style="overflow:visible;"/>
		</clipPath>
	</g>
	<g class="st0">
		<defs>
			<path id="SVGID_263_" d="M122.3,19.8c0,0,24.1,6.5,24.1,20.9l0,0c0,14.4-22.2,25-45.7,26.3c-1.3,0.1-2.5,0.1-3.7,0.1
				c-20.9,0-30.8-10-30.8-10s-0.8,1.6-0.8,6.3c0,2.8,1.3,20.3,32,20.3c1.1,0,2.2,0,3.3-0.1c39.5-1.5,61-17.9,61-34.7
				C161.7,32.2,134.5,21.8,122.3,19.8z"/>
		</defs>
		<clipPath id="SVGID_264_">
			<use xlink:href="#SVGID_263_"  style="overflow:visible;"/>
		</clipPath>
	</g>
	<g class="st0">
		<defs>
			<path id="SVGID_265_" d="M122.3,19.8c0,0,24.1,6.5,24.1,20.9l0,0c0,14.4-22.2,25-45.7,26.3c-1.3,0.1-2.5,0.1-3.7,0.1
				c-20.9,0-30.8-10-30.8-10s-0.8,1.6-0.8,6.3c0,2.8,1.3,20.3,32,20.3c1.1,0,2.2,0,3.3-0.1c39.5-1.5,61-17.9,61-34.7
				C161.7,32.2,134.5,21.8,122.3,19.8z"/>
		</defs>
		<clipPath id="SVGID_266_">
			<use xlink:href="#SVGID_265_"  style="overflow:visible;"/>
		</clipPath>
	</g>
	<g class="st0">
		<defs>
			<rect id="SVGID_267_" x="26.6" y="4.2" width="147.6" height="192.5"/>
		</defs>
		<clipPath id="SVGID_268_">
			<use xlink:href="#SVGID_267_"  style="overflow:visible;"/>
		</clipPath>
		<g class="st30">
			<g>
				<g>
					<g>
						<g>
							<path class="st31" d="M129.9,128.7l9.5-25.8h3.6l10.4,25.8H147l-2.4-7H137l-2.3,7H129.9 M143.5,118.6l-2.8-8.1l-2.7,8.1
								H143.5z M82.5,125.2v3.5H68.1V106h14.3v3.3c0,0-2.1-0.6-5.5-0.6h-4.8v6.5h7.5v2.9h-7.2v7.8H78C78,126,81.6,125.8,82.5,125.2
								 M88.6,108.2v8H92c2.2,0,4-1.7,4-3.8V112c0-2.1-1.8-3.8-4-3.8H88.6z M88.7,118.2v10.5h-4V106h9.1c1,0,6.5,0.1,6.5,5.4
								c0,5.3-4.8,6.5-4.8,6.5l6.9,10.7h-4.5c0,0-4.3-7.8-5.4-9.4C91.3,117.7,88.7,118.2,88.7,118.2 M103.8,106h3.5v22.7h-3.5V106z
								 M125,125.2v3.5h-14.4V106h14.3v3.3c0,0-2.1-0.6-5.5-0.6h-4.8v6.5h7.5v2.9h-7.2v7.8h5.6C120.4,126,124,125.8,125,125.2
								 M64.2,102.9l-0.7,4.3c0,0-3.2-2.6-7.2-2.6c-3.3,0-4.3,1.5-4.3,2.7c0,1.2,0.2,4,7.5,6.4c0,0,6.1,1.6,6.1,7.5
								c0,6-5,7.4-8.9,7.4c-3.9,0-8.8-2.2-8.8-2.2l1.6-4.3c0,0,3.1,3.9,7.1,3.9c4,0,5.4-2.6,5.4-4.3c0-1.7-1.8-3.4-5.3-4.6
								c-3.4-1.2-8.3-3.3-8.3-8.5c0-6,5-6.5,8-6.5C59.1,102.2,64.2,102.9,64.2,102.9"/>
						</g>
					</g>
				</g>
			</g>
		</g>
	</g>
	<g class="st0">
		<defs>
			<rect id="SVGID_269_" x="26.6" y="4.2" width="147.6" height="192.5"/>
		</defs>
		<clipPath id="SVGID_270_">
			<use xlink:href="#SVGID_269_"  style="overflow:visible;"/>
		</clipPath>
	</g>
	<g class="st0">
		<defs>
			<rect id="SVGID_271_" x="26.6" y="4.2" width="147.6" height="192.5"/>
		</defs>
		<clipPath id="SVGID_272_">
			<use xlink:href="#SVGID_271_"  style="overflow:visible;"/>
		</clipPath>
	</g>
	<g class="st0">
		<defs>
			<rect id="SVGID_273_" x="26.6" y="4.2" width="147.6" height="192.5"/>
		</defs>
		<clipPath id="SVGID_274_">
			<use xlink:href="#SVGID_273_"  style="overflow:visible;"/>
		</clipPath>
	</g>
	<g class="st0">
		<defs>
			<rect id="SVGID_275_" x="26.6" y="4.2" width="147.6" height="192.5"/>
		</defs>
		<clipPath id="SVGID_276_">
			<use xlink:href="#SVGID_275_"  style="overflow:visible;"/>
		</clipPath>
	</g>
	<g class="st0">
		<defs>
			<rect id="SVGID_277_" x="26.6" y="4.2" width="147.6" height="192.5"/>
		</defs>
		<clipPath id="SVGID_278_">
			<use xlink:href="#SVGID_277_"  style="overflow:visible;"/>
		</clipPath>
	</g>
	<g class="st0">
		<defs>
			<rect id="SVGID_279_" x="26.6" y="4.2" width="147.6" height="192.5"/>
		</defs>
		<clipPath id="SVGID_280_">
			<use xlink:href="#SVGID_279_"  style="overflow:visible;"/>
		</clipPath>
	</g>
	<g class="st0">
		<defs>
			<rect id="SVGID_281_" x="26.6" y="4.2" width="147.6" height="192.5"/>
		</defs>
		<clipPath id="SVGID_282_">
			<use xlink:href="#SVGID_281_"  style="overflow:visible;"/>
		</clipPath>
	</g>
	<g class="st0">
		<defs>
			<rect id="SVGID_283_" x="26.6" y="4.2" width="147.6" height="192.5"/>
		</defs>
		<clipPath id="SVGID_284_">
			<use xlink:href="#SVGID_283_"  style="overflow:visible;"/>
		</clipPath>
	</g>
	<g class="st0">
		<defs>
			<rect id="SVGID_285_" x="26.6" y="4.2" width="147.6" height="192.5"/>
		</defs>
		<clipPath id="SVGID_286_">
			<use xlink:href="#SVGID_285_"  style="overflow:visible;"/>
		</clipPath>
	</g>
	<g class="st0">
		<defs>
			<rect id="SVGID_287_" x="26.6" y="4.2" width="147.6" height="192.5"/>
		</defs>
		<clipPath id="SVGID_288_">
			<use xlink:href="#SVGID_287_"  style="overflow:visible;"/>
		</clipPath>
	</g>
	<g class="st0">
		<defs>
			<rect id="SVGID_289_" x="26.6" y="4.2" width="147.6" height="192.5"/>
		</defs>
		<clipPath id="SVGID_290_">
			<use xlink:href="#SVGID_289_"  style="overflow:visible;"/>
		</clipPath>
	</g>
	<g class="st0">
		<defs>
			<rect id="SVGID_291_" x="26.6" y="4.2" width="147.6" height="192.5"/>
		</defs>
		<clipPath id="SVGID_292_">
			<use xlink:href="#SVGID_291_"  style="overflow:visible;"/>
		</clipPath>
	</g>
	<g class="st0">
		<defs>
			<rect id="SVGID_293_" x="26.6" y="4.2" width="147.6" height="192.5"/>
		</defs>
		<clipPath id="SVGID_294_">
			<use xlink:href="#SVGID_293_"  style="overflow:visible;"/>
		</clipPath>
	</g>
	<g class="st0">
		<defs>
			<rect id="SVGID_295_" x="26.6" y="4.2" width="147.6" height="192.5"/>
		</defs>
		<clipPath id="SVGID_296_">
			<use xlink:href="#SVGID_295_"  style="overflow:visible;"/>
		</clipPath>
	</g>
	<g class="st0">
		<defs>
			<rect id="SVGID_297_" x="26.6" y="4.2" width="147.6" height="192.5"/>
		</defs>
		<clipPath id="SVGID_298_">
			<use xlink:href="#SVGID_297_"  style="overflow:visible;"/>
		</clipPath>
	</g>
	<g class="st0">
		<defs>
			<rect id="SVGID_299_" x="26.6" y="4.2" width="147.6" height="192.5"/>
		</defs>
		<clipPath id="SVGID_300_">
			<use xlink:href="#SVGID_299_"  style="overflow:visible;"/>
		</clipPath>
	</g>
	<g class="st0">
		<defs>
			<rect id="SVGID_301_" x="26.6" y="4.2" width="147.6" height="192.5"/>
		</defs>
		<clipPath id="SVGID_302_">
			<use xlink:href="#SVGID_301_"  style="overflow:visible;"/>
		</clipPath>
	</g>
	<g class="st0">
		<defs>
			<rect id="SVGID_303_" x="26.6" y="4.2" width="147.6" height="192.5"/>
		</defs>
		<clipPath id="SVGID_304_">
			<use xlink:href="#SVGID_303_"  style="overflow:visible;"/>
		</clipPath>
	</g>
	<g class="st0">
		<defs>
			<rect id="SVGID_305_" x="26.6" y="4.2" width="147.6" height="192.5"/>
		</defs>
		<clipPath id="SVGID_306_">
			<use xlink:href="#SVGID_305_"  style="overflow:visible;"/>
		</clipPath>
	</g>
	<g class="st0">
		<defs>
			<rect id="SVGID_307_" x="26.6" y="4.2" width="147.6" height="192.5"/>
		</defs>
		<clipPath id="SVGID_308_">
			<use xlink:href="#SVGID_307_"  style="overflow:visible;"/>
		</clipPath>
	</g>
	<g class="st0">
		<defs>
			<rect id="SVGID_309_" x="26.6" y="4.2" width="147.6" height="192.5"/>
		</defs>
		<clipPath id="SVGID_310_">
			<use xlink:href="#SVGID_309_"  style="overflow:visible;"/>
		</clipPath>
	</g>
	<g class="st0">
		<defs>
			<rect id="SVGID_311_" x="26.6" y="4.2" width="147.6" height="192.5"/>
		</defs>
		<clipPath id="SVGID_312_">
			<use xlink:href="#SVGID_311_"  style="overflow:visible;"/>
		</clipPath>
	</g>
	<g class="st0">
		<defs>
			<rect id="SVGID_313_" x="26.6" y="4.2" width="147.6" height="192.5"/>
		</defs>
		<clipPath id="SVGID_314_">
			<use xlink:href="#SVGID_313_"  style="overflow:visible;"/>
		</clipPath>
	</g>
	<g class="st0">
		<defs>
			<rect id="SVGID_315_" x="26.6" y="-4" width="147.6" height="208.9"/>
		</defs>
		<clipPath id="SVGID_316_">
			<use xlink:href="#SVGID_315_"  style="overflow:visible;"/>
		</clipPath>
	</g>
</g>
</svg>
